<svg width="48" height="48" viewBox="0 0 48 48" fill="none" xmlns="http://www.w3.org/2000/svg">
<path d="M40.9621 5.60472L40.965 5.60766C42.6394 7.25411 43.7165 9.45227 44.4803 12.002C45.2459 14.5581 45.6739 17.3834 46.1054 20.2532C46.5368 23.1224 46.9469 25.8688 46.9953 28.4561C47.0435 31.0355 46.7288 33.3832 45.7591 35.4561L45.7581 35.4583C43.8028 39.6642 39.063 43.0667 33.4171 45.0877L33.413 45.0891C27.7834 47.1319 21.5625 47.7269 16.4529 45.9342C11.3845 44.1451 7.25497 39.9176 4.51018 35.0494L4.50898 35.0473C1.77832 30.2316 0.52182 24.9053 1.1659 19.664C1.84262 14.407 4.45762 9.26191 8.72871 5.93976C13.007 2.64033 19.0237 1.11475 25.2443 1.0036C31.5161 0.920148 37.607 2.27786 40.9621 5.60472Z" fill="#0089A9" stroke="white" stroke-width="2"/>
</svg>
