<svg width="44" height="42" viewBox="0 0 44 42" fill="none" xmlns="http://www.w3.org/2000/svg">
<path d="M40.4619 33.5824L40.4606 33.5843C37.6173 37.7274 32.5804 40.2715 27.7964 40.8184C23.0028 41.3631 18.4831 39.9225 14.429 38.0344C10.3807 36.121 6.90536 33.7849 4.39726 30.4317L4.39728 30.4317L4.39451 30.4281C1.85638 27.0985 0.302317 22.7047 0.520313 18.127L0.520437 18.124C0.711393 13.541 2.70544 8.76691 6.21643 5.44644L6.21644 5.44646L6.21931 5.4437C9.70617 2.09304 14.7479 0.189359 19.4701 0.541667C24.1599 0.921697 28.5971 3.58576 32.809 6.87714C37.048 10.1959 40.8934 14.0101 42.4692 18.8172C44.0209 23.6086 43.3343 29.4364 40.4619 33.5824Z" fill="#FCAEB9" stroke="white"/>
</svg>
