<svg width="61" height="404" viewBox="0 0 61 404" fill="none" xmlns="http://www.w3.org/2000/svg">
<path opacity="0.25" d="M26.826 1.68417C26.3755 0.675679 25.1927 0.22339 24.1842 0.673958C23.1757 1.12453 22.7234 2.30733 23.174 3.31583L26.826 1.68417ZM0.689082 400.651C0.220265 401.651 0.65099 402.842 1.65113 403.311C2.65127 403.78 3.8421 403.349 4.31092 402.349L0.689082 400.651ZM23.174 3.31583C34.0289 27.6122 56.1188 98.8656 56.9744 188.31L60.9742 188.272C60.1133 98.2786 37.9054 26.4828 26.826 1.68417L23.174 3.31583ZM56.9744 188.31C57.8279 277.528 23.1899 352.649 0.689082 400.651L4.31092 402.349C26.8101 354.351 61.8373 278.491 60.9742 188.272L56.9744 188.31Z" fill="url(#paint0_linear_1003_39607)"/>
<defs>
<linearGradient id="paint0_linear_1003_39607" x1="42" y1="2.5" x2="42" y2="453.5" gradientUnits="userSpaceOnUse">
<stop stop-color="white" stop-opacity="0"/>
<stop offset="0.5" stop-color="white"/>
<stop offset="1" stop-color="white" stop-opacity="0"/>
</linearGradient>
</defs>
</svg>
