<svg width="403" height="61" viewBox="0 0 403 61" fill="none" xmlns="http://www.w3.org/2000/svg">
<path opacity="0.25" d="M401.816 26.826C402.824 26.3755 403.277 25.1927 402.826 24.1842C402.375 23.1757 401.193 22.7234 400.184 23.174L401.816 26.826ZM2.84888 0.689082C1.84872 0.220265 0.657898 0.65099 0.189087 1.65113C-0.279724 2.65127 0.151001 3.8421 1.15112 4.31092L2.84888 0.689082ZM400.184 23.174C375.888 34.0289 304.634 56.1188 215.19 56.9744L215.228 60.9742C305.221 60.1133 377.017 37.9054 401.816 26.826L400.184 23.174ZM215.19 56.9744C125.972 57.8279 50.8506 23.1899 2.84888 0.689082L1.15112 4.31092C49.1494 26.8101 125.009 61.8373 215.228 60.9742L215.19 56.9744Z" fill="url(#paint0_linear_1262_2325)"/>
<defs>
<linearGradient id="paint0_linear_1262_2325" x1="401" y1="42" x2="-50" y2="42" gradientUnits="userSpaceOnUse">
<stop stop-color="white" stop-opacity="0"/>
<stop offset="0.5" stop-color="white"/>
<stop offset="1" stop-color="white" stop-opacity="0"/>
</linearGradient>
</defs>
</svg>
