<svg width="304" height="256" viewBox="0 0 304 256" fill="none" xmlns="http://www.w3.org/2000/svg">
<path d="M146.04 194.471H59.9324L41.3008 132.978H165.227L165.115 133.34L146.04 194.471Z" fill="#EFEBE7"/>
<path d="M177.296 122.549L176.689 122.388L180.83 106.781H204.915V107.409H181.313L177.296 122.549Z" fill="#070606"/>
<path d="M144.364 239.492H57.1448V238.865H143.736V208.432H64.4771L60.6268 200.411L61.1925 200.139L64.8719 207.805H144.364V239.492Z" fill="#070606"/>
<path d="M68.753 254.865C72.3917 254.865 75.3415 251.916 75.3415 248.277C75.3415 244.638 72.3917 241.688 68.753 241.688C65.1143 241.688 62.1645 244.638 62.1645 248.277C62.1645 251.916 65.1143 254.865 68.753 254.865Z" fill="#070606"/>
<path d="M133.697 254.865C137.335 254.865 140.285 251.916 140.285 248.277C140.285 244.638 137.335 241.688 133.697 241.688C130.058 241.688 127.108 244.638 127.108 248.277C127.108 251.916 130.058 254.865 133.697 254.865Z" fill="#070606"/>
<path d="M153.692 198.079H55.6577L34.4453 128.743H175.538L153.692 198.079ZM56.1219 197.451H153.232L174.682 129.37H35.2934L56.1219 197.451Z" fill="#070606"/>
<path d="M168.487 149.763H41.3002V150.391H168.487V149.763Z" fill="#070606"/>
<path d="M161.204 172.881H48.3726V173.508H161.204V172.881Z" fill="#070606"/>
<path d="M105.303 129.057H104.676V197.765H105.303V129.057Z" fill="#070606"/>
<path d="M133.397 129.037L128.892 197.744L129.519 197.785L134.023 129.078L133.397 129.037Z" fill="#070606"/>
<path d="M76.5959 129.036L75.9696 129.077L80.4477 197.786L81.074 197.745L76.5959 129.036Z" fill="#070606"/>
<path d="M191.545 131.824C191.077 130.935 190.809 129.956 190.762 128.953C190.714 127.951 190.887 126.95 191.269 126.022C191.651 125.094 192.232 124.26 192.972 123.58C193.712 122.9 194.592 122.39 195.55 122.086L222.335 65.5655L234.587 74.1357L204.406 126.999C204.811 128.639 204.599 130.371 203.81 131.866C203.021 133.361 201.709 134.515 200.124 135.109C198.539 135.704 196.79 135.698 195.209 135.092C193.628 134.487 192.324 133.324 191.545 131.824Z" fill="#E6D3C2"/>
<path d="M281.39 137.205C280.419 136.979 279.509 136.543 278.725 135.927C277.941 135.312 277.301 134.531 276.85 133.641C276.4 132.751 276.15 131.773 276.118 130.776C276.086 129.779 276.273 128.787 276.665 127.87L251.531 71.032L265.909 67.4072L286.094 124.417C287.589 125.179 288.754 126.464 289.366 128.028C289.978 129.592 289.996 131.326 289.417 132.902C288.837 134.478 287.699 135.787 286.22 136.58C284.741 137.373 283.022 137.595 281.39 137.205Z" fill="#E6D3C2"/>
<path d="M288.365 240.776L281.076 243.476L267.37 216.152L278.129 212.167L288.365 240.776Z" fill="#E6D3C2"/>
<path d="M237.9 248.265H230.164L226.483 217.692L237.902 217.693L237.9 248.265Z" fill="#E6D3C2"/>
<path d="M26.3354 243.38C30.9134 251.87 40.6294 255.514 40.6294 255.514C40.6294 255.514 42.9231 245.394 38.3452 236.904C33.7672 228.414 24.0512 224.769 24.0512 224.769C24.0512 224.769 21.7575 234.89 26.3354 243.38Z" fill="#EFEBE7"/>
<path d="M29.4823 240.587C37.7474 245.559 40.9305 255.436 40.9305 255.436C40.9305 255.436 30.7133 257.251 22.4482 252.278C14.1831 247.306 11 237.429 11 237.429C11 237.429 21.2172 235.614 29.4823 240.587Z" fill="#E6D3C2"/>
<path d="M243.058 43.4648C232.887 43.4648 224.641 35.3016 224.641 25.2317C224.641 15.1618 232.887 6.9986 243.058 6.9986C253.23 6.9986 261.475 15.1618 261.475 25.2317C261.475 35.3016 253.23 43.4648 243.058 43.4648Z" fill="#070606"/>
<path d="M257.324 15.2825C254.342 12.3008 253.737 8.07076 255.974 5.83447C258.21 3.59819 262.44 4.20247 265.422 7.18418C268.404 10.1659 269.008 14.3959 266.772 16.6322C264.535 18.8685 260.305 18.2642 257.324 15.2825Z" fill="#070606"/>
<path d="M223.689 9.42291C222.447 6.51455 224.584 2.81404 228.461 1.15758C232.339 -0.498879 236.49 0.515983 237.732 3.42434C238.975 6.33269 236.838 10.0332 232.96 11.6897C229.083 13.3461 224.932 12.3313 223.689 9.42291Z" fill="#070606"/>
<path d="M242.322 45.3065C233.778 45.3065 226.852 38.2976 226.852 29.6518C226.852 21.006 233.778 13.9971 242.322 13.9971C250.867 13.9971 257.793 21.006 257.793 29.6518C257.793 38.2976 250.867 45.3065 242.322 45.3065Z" fill="#E6D3C2"/>
<path d="M216.143 75.173L230.28 81.5051C230.683 81.6853 231.119 81.7765 231.56 81.7725C232 81.7686 232.435 81.6696 232.834 81.4822C233.233 81.2948 233.587 81.0236 233.871 80.6868C234.156 80.3501 234.365 79.9558 234.484 79.5309L238.653 64.6405C239.562 62.5739 239.615 60.2307 238.802 58.1248C237.988 56.0189 236.374 54.322 234.313 53.4063C232.252 52.4905 229.913 52.4306 227.809 53.2397C225.704 54.0488 224.005 55.6608 223.085 57.7224L214.809 70.7184C214.572 71.0905 214.418 71.5095 214.357 71.9466C214.297 72.3838 214.331 72.8289 214.457 73.2516C214.584 73.6744 214.8 74.0648 215.091 74.3964C215.382 74.728 215.74 74.9929 216.143 75.173Z" fill="#A79280"/>
<path d="M220.095 100.927L247.909 93.2617L262.702 63.6145C263.413 62.1903 263.748 60.6076 263.677 59.0168C263.606 57.426 263.129 55.88 262.294 54.5254C261.459 53.1708 260.291 52.0528 258.903 51.2774C257.515 50.5019 255.953 50.0949 254.364 50.095H232.234C229.937 50.0935 227.721 50.9429 226.011 52.48C220.075 57.8087 207.603 73.1713 219.974 100.659L220.095 100.927Z" fill="#A79280"/>
<path d="M255.014 81.1148L268.932 74.5403C269.328 74.3532 269.68 74.0822 269.962 73.7457C270.245 73.4092 270.453 73.0152 270.571 72.5904C270.69 72.1656 270.716 71.7201 270.648 71.2842C270.581 70.8482 270.421 70.4321 270.179 70.0642L261.721 57.173C260.761 55.134 259.039 53.5623 256.932 52.8025C254.825 52.0428 252.506 52.1569 250.483 53.1199C248.46 54.0829 246.897 55.8163 246.139 57.9399C245.38 60.0635 245.486 62.4042 246.435 64.4486L250.809 79.2141C250.934 79.6368 251.148 80.0273 251.437 80.359C251.725 80.6906 252.081 80.9557 252.48 81.1361C252.879 81.3164 253.312 81.4079 253.749 81.4042C254.186 81.4005 254.618 81.3018 255.014 81.1148Z" fill="#A79280"/>
<path d="M269.326 255.404L292.41 246.999L289.163 238.081L274.998 243.238C272.632 244.099 270.706 245.865 269.642 248.147C268.579 250.428 268.465 253.039 269.326 255.404Z" fill="#070606"/>
<path d="M215.004 255.403L239.57 255.404L239.571 245.913L224.496 245.912C221.979 245.912 219.564 246.912 217.784 248.692C216.004 250.472 215.004 252.886 215.004 255.403Z" fill="#070606"/>
<path d="M271.024 225.059C271.472 225.059 271.915 224.959 272.32 224.767L280.72 220.781C281.409 220.457 281.952 219.887 282.242 219.182C282.531 218.477 282.547 217.689 282.287 216.974L258.58 151.202C258.384 150.657 258.037 150.179 257.581 149.824C257.124 149.469 256.577 149.25 256.001 149.194C255.426 149.138 254.847 149.247 254.331 149.507C253.814 149.768 253.383 150.17 253.085 150.667L240.547 171.604C240.268 172.07 240.117 172.603 240.112 173.147C240.106 173.691 240.245 174.226 240.514 174.698L268.359 223.519C268.629 223.988 269.017 224.377 269.485 224.648C269.953 224.918 270.483 225.06 271.024 225.059Z" fill="#070606"/>
<path d="M234.845 236.846C235.547 236.847 236.227 236.605 236.771 236.162C237.316 235.718 237.691 235.1 237.834 234.411C240.077 223.814 251.723 169.532 260.812 141.571C270.06 113.124 254.31 100.166 251.059 97.8578C250.713 97.6124 250.438 97.2793 250.262 96.8923L247.9 91.6803C247.655 91.1422 247.261 90.6861 246.765 90.3662C246.269 90.0464 245.691 89.8763 245.102 89.8762H245.083C227.375 89.9823 221.422 95.5813 219.685 97.9839C219.429 98.3417 219.253 98.7512 219.17 99.1839C219.087 99.6166 219.099 100.062 219.205 100.49L230.409 146.856C230.479 147.143 230.494 147.441 230.456 147.735L219.309 231.921C219.255 232.325 219.282 232.737 219.389 233.131C219.495 233.525 219.679 233.893 219.929 234.215C220.179 234.537 220.491 234.806 220.846 235.006C221.2 235.206 221.591 235.333 221.996 235.38L234.485 236.825C234.605 236.839 234.725 236.846 234.845 236.846Z" fill="#070606"/>
<path d="M258.898 19.9364C255.272 22.4416 250.969 23.7748 246.565 23.7572C248.136 24.8491 249.924 25.5866 251.807 25.919C245.951 27.178 239.9 27.2121 234.031 26.0191C232.726 25.8094 231.467 25.376 230.31 24.7379C229.733 24.415 229.23 23.9739 228.834 23.4434C228.439 22.9128 228.159 22.3048 228.013 21.6587C227.623 19.4254 229.359 17.3964 231.163 16.0289C233.925 13.9672 237.11 12.5467 240.487 11.8703C243.864 11.1938 247.349 11.2783 250.69 12.1175C252.871 12.6827 255.056 13.6377 256.473 15.3936C257.89 17.1496 258.898 19.9364 258.898 19.9364Z" fill="#070606"/>
<path d="M33.8391 144.391C44.0107 144.391 52.2564 136.146 52.2564 125.974C52.2564 115.803 44.0107 107.557 33.8391 107.557C23.6676 107.557 15.4219 115.803 15.4219 125.974C15.4219 136.146 23.6676 144.391 33.8391 144.391Z" fill="url(#paint0_linear_1255_33328)"/>
<path fill-rule="evenodd" clip-rule="evenodd" d="M26.3817 118.518C27.2448 117.655 28.6441 117.655 29.5072 118.518L33.838 122.849L38.1687 118.518C39.0318 117.655 40.4312 117.655 41.2943 118.518C42.1573 119.381 42.1573 120.78 41.2943 121.643L36.9635 125.974L41.2943 130.305C42.1573 131.168 42.1573 132.567 41.2943 133.43C40.4312 134.293 39.0318 134.293 38.1687 133.43L33.838 129.1L29.5072 133.43C28.6441 134.293 27.2448 134.293 26.3817 133.43C25.5186 132.567 25.5186 131.168 26.3817 130.305L30.7125 125.974L26.3817 121.643C25.5186 120.78 25.5186 119.381 26.3817 118.518Z" fill="white"/>
<defs>
<linearGradient id="paint0_linear_1255_33328" x1="52.2564" y1="107.557" x2="13.1714" y2="141.825" gradientUnits="userSpaceOnUse">
<stop stop-color="#88319C"/>
<stop offset="1" stop-color="#A79280"/>
</linearGradient>
</defs>
</svg>
