<svg width="368" height="112" viewBox="0 0 368 112" fill="none" xmlns="http://www.w3.org/2000/svg">
<g clip-path="url(#clip0_544_33011)">
<path d="M362.5 101H5.5C2.46243 101 0 103.462 0 106.5C0 109.538 2.46242 112 5.49999 112H362.5C365.538 112 368 109.538 368 106.5C368 103.462 365.538 101 362.5 101Z" fill="#EFEBE7"/>
<path d="M166.692 86.6939H89.1089V73.5385H90.3057V63.7467C90.3083 61.4396 91.227 59.2279 92.8603 57.5966C94.4936 55.9653 96.708 55.0476 99.0178 55.045H156.924C159.234 55.0477 161.448 55.9653 163.081 57.5966C164.715 59.2279 165.633 61.4397 165.636 63.7467V73.5385H166.692V86.6939Z" fill="#847C76"/>
<path d="M168.794 101.173H164.932V101.103C164.928 97.6912 163.569 94.4204 161.154 92.008C158.739 89.5956 155.464 88.2386 152.048 88.2348H103.753C100.337 88.2386 97.0621 89.5956 94.6468 92.008C92.2315 94.4204 90.8729 97.6912 90.869 101.103V101.173H87.0069C86.1269 101.172 85.2834 100.823 84.6612 100.201C84.039 99.5797 83.689 98.7371 83.688 97.8583V76.3537C82.5665 75.7208 81.6543 72.2837 82.2468 69.5387C82.6186 67.816 83.692 65.7356 86.6942 65.6068C89.6167 65.4813 91.7859 68.2217 91.9797 70.8596C92.0847 72.2477 91.6765 73.6261 90.8324 74.7338H90.869V77.8016C97.2064 75.7732 103.553 74.7411 109.733 74.7338C116.058 74.74 122.338 75.784 128.323 77.824C140.768 73.8037 153.084 73.7255 164.932 77.5924V74.7338H164.969C164.124 73.6261 163.716 72.2477 163.821 70.8596C164.034 67.9662 166.403 65.6098 169.104 65.6067H169.113C172.297 65.6067 173.423 67.5213 173.807 69.1283C174.487 71.9722 173.239 75.7155 172.113 76.3536V97.8583C172.112 98.7371 171.762 99.5797 171.14 100.201C170.518 100.823 169.674 101.172 168.794 101.173Z" fill="#B1A9A2"/>
<path d="M81.0325 80.5762H57.3774V82.6154H57.7999V101.109H60.1935V82.6154H78.3573V101.109H80.7509V82.6154H81.0325V80.5762Z" fill="#E6D3C2"/>
<path d="M113.045 87.8664C113.045 87.8664 113.854 89.777 115.38 88.9448C116.907 88.1125 119.709 86.742 119.709 86.742C119.709 86.742 120.396 85.7013 118.986 85.9213C117.576 86.1413 113.076 86.1643 113.076 86.1643L113.045 87.8664Z" fill="#E6D3C2"/>
<path d="M101.63 47.6581C101.923 47.9482 102.09 48.3411 102.097 48.7529C102.104 49.1647 101.949 49.5628 101.666 49.8623C101.607 49.9221 101.544 49.977 101.476 50.0264L103.064 55.3125L100.362 54.4685L99.2686 49.5781C99.084 49.2828 99.0027 48.9347 99.0375 48.5883C99.0723 48.2419 99.2212 47.9169 99.4609 47.6641C99.6016 47.5192 99.77 47.4039 99.956 47.325C100.142 47.2461 100.342 47.2052 100.544 47.2046C100.746 47.204 100.946 47.2439 101.133 47.3218C101.319 47.3996 101.488 47.514 101.63 47.6581Z" fill="#E6D3C2"/>
<path d="M113.102 86.7623L114.799 86.1648L113.248 79.1951L110.743 80.0771L113.102 86.7623Z" fill="#E6D3C2"/>
<path d="M119.348 84.9544C119.348 84.9544 120.832 86.4059 121.919 85.0501C123.007 83.6944 125.063 81.3507 125.063 81.3507C125.063 81.3507 125.295 80.126 124.079 80.872C122.863 81.6179 118.72 83.3719 118.72 83.3719L119.348 84.9544Z" fill="#E6D3C2"/>
<path d="M118.974 83.9138L120.31 82.7089L116.188 76.8755L114.217 78.6541L118.974 83.9138Z" fill="#E6D3C2"/>
<path d="M102.524 53.0732L102.834 54.0145L104.228 58.2421C104.323 58.5207 104.363 58.8153 104.344 59.1091C104.325 59.403 104.249 59.6903 104.119 59.9546C103.989 60.2189 103.808 60.455 103.587 60.6495C103.365 60.8439 103.108 60.9929 102.829 61.0879C102.313 61.2564 101.753 61.2279 101.256 61.0079L93.4146 57.4433C93.1058 57.3072 92.8302 57.1061 92.6064 56.8538C92.3826 56.6014 92.2161 56.3038 92.1181 55.9813C92.0201 55.6587 91.993 55.3189 92.0386 54.9849C92.0842 54.6509 92.2015 54.3307 92.3825 54.0462C92.6875 53.5681 93.1635 53.2241 93.7135 53.0842C94.2635 52.9442 94.8462 53.0188 95.3431 53.2927L100.779 56.375L100.165 53.4517L102.524 53.0732Z" fill="#88319C"/>
<path d="M114.865 83.4646L112.186 84.6962L106.731 74.0477C102.055 76.6552 97.4547 78.5824 93.0273 78.9778C92.2983 79.0367 91.5754 78.8067 91.0148 78.3375C90.4543 77.8683 90.101 77.1977 90.0315 76.4705C90.0241 76.3993 90.0195 76.3279 90.0176 76.2564C89.981 74.6036 90.2774 72.7144 90.7051 70.7319L98.237 70.8256L98.8515 71.765L105.642 68.341C105.971 68.179 106.329 68.0836 106.696 68.0605C107.062 68.0373 107.429 68.0868 107.776 68.2061C108.123 68.3253 108.443 68.512 108.718 68.7554C108.992 68.9988 109.216 69.294 109.376 69.6241C109.413 69.6979 109.446 69.7731 109.476 69.8499L114.865 83.4646Z" fill="#46413B"/>
<path d="M118.243 79.6283L115.565 80.86L106.926 72.3719C102.25 74.9795 97.6498 76.9066 93.2224 77.3021C92.4934 77.3609 91.7705 77.1309 91.2099 76.6617C90.6493 76.1926 90.2961 75.5219 90.2265 74.7947C90.2192 74.7235 90.2146 74.6522 90.2126 74.5806C90.1761 72.9278 90.4724 71.0386 90.9001 69.0561L98.8699 66.9821L99.0465 70.0892L105.837 66.6653C106.166 66.5032 106.524 66.4079 106.891 66.3847C107.257 66.3615 107.624 66.411 107.971 66.5303C108.318 66.6496 108.638 66.8363 108.913 67.0796C109.188 67.323 109.411 67.6183 109.571 67.9483C109.608 68.0221 109.641 68.0974 109.672 68.1741L118.243 79.6283Z" fill="#46413B"/>
<path d="M93.5874 51.3171C95.4641 50.6565 96.4374 48.5675 95.7613 46.6513C95.0851 44.735 93.0156 43.7171 91.1389 44.3777C89.2621 45.0383 88.2888 47.1273 88.965 49.0435C89.6411 50.9598 91.7106 51.9777 93.5874 51.3171Z" fill="#E6D3C2"/>
<path d="M98.258 52.1907C98.246 52.2645 98.2632 52.34 98.3058 52.4015C98.3484 52.4629 98.4133 52.5054 98.4866 52.52C98.5815 52.4993 101.202 53.1232 101.208 52.9442C101.238 52.9225 101.263 52.8948 101.283 52.863C101.302 52.8312 101.315 52.7959 101.32 52.759L102.49 45.1243C102.496 45.0824 102.493 45.0397 102.482 44.999C102.47 44.9584 102.449 44.9208 102.421 44.8891C102.457 44.6901 99.7694 44.9224 99.6678 44.9024C99.6041 44.9051 99.5433 44.9298 99.4958 44.9725C99.4484 45.0151 99.4173 45.0728 99.4079 45.1358L98.258 52.1907Z" fill="#847C76"/>
<path d="M101.949 45.1626C101.949 45.1626 99.6817 45.3086 99.7078 45.2717C99.6511 45.2891 99.51 45.2483 99.5034 45.3438L98.4307 52.0561C98.3425 52.2253 100.86 52.4671 100.899 52.5202C101.108 52.5675 101.947 45.3172 102.029 45.2526C102.032 45.2324 102.027 45.2117 102.015 45.1951C102.003 45.1784 101.985 45.1671 101.965 45.1635C101.96 45.1626 101.954 45.1623 101.949 45.1626Z" fill="#88319C"/>
<path d="M96.1646 52.5619C96.1678 52.4737 96.1592 52.3855 96.1392 52.2996C96.0823 52.0483 95.9283 51.8297 95.7107 51.6914C95.4931 51.5531 95.2296 51.5063 94.9777 51.5613L93.3353 51.9403C93.2115 51.9701 93.0948 52.0241 92.992 52.0992C92.8892 52.1743 92.8023 52.2689 92.7362 52.3777C92.6702 52.4864 92.6264 52.6072 92.6072 52.7329C92.5881 52.8587 92.594 52.987 92.6247 53.1104C92.6763 53.3303 92.8013 53.5262 92.9791 53.6656C92.2005 54.0396 91.5486 54.6331 91.1039 55.3729C90.6591 56.1127 90.441 56.9664 90.4764 57.8286C89.9379 61.2755 89.9968 65.0222 90.8689 69.178L99.0563 70.0358L99.714 63.3889L99.9543 62.3572C100.02 62.2091 100.081 62.0629 100.136 61.9165C100.468 61.0967 100.66 60.2267 100.704 59.3432C100.728 58.7121 100.651 58.0811 100.475 57.4745C99.9107 55.5344 98.3445 53.9422 96.1646 52.5619Z" fill="#88319C"/>
<path opacity="0.2" d="M100.704 59.3432C100.66 60.2267 100.468 61.0967 100.136 61.9165C100.081 62.0629 100.02 62.2091 99.9543 62.3572L99.714 63.3889C97.209 62.6029 93.5425 57.3268 93.5425 57.3268L95.625 56.1055L100.704 59.3432Z" fill="#070606"/>
<path d="M98.8662 49.8234C98.7889 50.2282 98.8728 50.6471 99.1001 50.9911C99.3274 51.335 99.68 51.5768 100.083 51.665C100.165 51.6816 100.249 51.6914 100.333 51.6943L102.01 56.9529L103.765 54.7405L101.903 50.0861C101.888 49.738 101.758 49.4046 101.534 49.138C101.309 48.8714 101.003 48.6865 100.662 48.6122C100.464 48.5711 100.26 48.57 100.062 48.609C99.8638 48.648 99.6754 48.7262 99.508 48.8391C99.3406 48.952 99.1976 49.0973 99.0873 49.2664C98.9771 49.4354 98.9019 49.6248 98.8662 49.8234Z" fill="#E6D3C2"/>
<path d="M101.119 55.0587L103.724 54.5378L105.428 59.7063C105.551 60.0745 105.577 60.4681 105.505 60.8495C105.433 61.2309 105.264 61.5875 105.015 61.8854C104.71 62.2471 104.296 62.4999 103.834 62.6058C103.373 62.7117 102.889 62.6649 102.457 62.4724L94.6146 58.9074C94.0648 58.662 93.63 58.2155 93.3997 57.6597C93.1694 57.104 93.161 56.4812 93.3764 55.9194C93.4825 55.6401 93.6437 55.385 93.8504 55.1691C94.0571 54.9532 94.3052 54.781 94.5798 54.6627C94.8544 54.5444 95.15 54.4824 95.4491 54.4804C95.7482 54.4784 96.0446 54.5364 96.3208 54.651C96.3969 54.6823 96.4713 54.7177 96.5436 54.757L101.979 57.8393L101.119 55.0587Z" fill="#88319C"/>
<path d="M93.931 42.8752C93.0544 42.7041 92.1702 43.0143 91.3363 43.3198C90.7321 43.5411 90.1279 43.7625 89.5237 43.9838C88.7904 44.2525 88.0201 44.5471 87.5316 45.1621C87.0431 45.777 86.9833 46.819 87.6171 47.2952C85.9991 46.6357 84.0926 47.1126 82.7382 48.1957C82.0568 48.7164 81.5311 49.4135 81.2183 50.2115C80.9002 51.0867 80.9183 52.063 81.1114 52.9821C81.3044 53.9013 81.6645 54.7763 82.0225 55.645C82.2476 56.1913 82.5321 56.7965 83.0825 56.9902C83.5902 57.1689 84.153 56.9169 84.5383 56.545C85.2101 55.8966 85.493 54.9338 85.6282 53.9977C85.7633 53.0616 85.7791 52.1006 86.0386 51.1937C86.2982 50.2868 86.8617 49.4062 87.7359 49.0868C87.4441 50.1616 87.7786 51.4568 88.7004 52.0818C89.3634 52.5313 90.2232 52.5832 90.9924 52.4024C91.7616 52.2218 92.4623 51.832 93.1522 51.4465C93.6193 51.1855 94.1486 50.8218 94.1414 50.2769C94.1344 49.7427 93.6181 49.3823 93.3 48.9525C92.686 48.123 92.8801 46.8049 93.7034 46.2136L93.6026 46.1662C94.4008 46.0069 95.2758 45.5861 95.4455 44.7778C95.6308 43.8956 94.8076 43.0463 93.931 42.8752Z" fill="#46413B"/>
<path d="M95.2164 80.0137C94.4309 80.0132 93.6526 79.8649 92.9222 79.5763C92.1899 79.2944 91.5208 78.8703 90.9535 78.3286C90.3863 77.7869 89.9321 77.1383 89.6173 76.4202L85.1013 66.0543C83.8029 63.074 85.2581 59.6295 88.3452 58.3759L88.4219 58.3447L97.6474 79.5208L97.5707 79.5519C96.8232 79.8564 96.0237 80.0132 95.2164 80.0137Z" fill="#847C76"/>
<path d="M57.0024 73.2319C57.0068 73.2027 57.0173 73.1747 57.0332 73.1498C57.0491 73.1248 57.0701 73.1036 57.0948 73.0873L64.5254 68.1877C64.4134 68.141 64.3198 68.0591 64.2587 67.9544H64.2587C64.1844 67.8251 64.1645 67.6717 64.2031 67.5277C64.2417 67.3837 64.3358 67.2609 64.4648 67.1859L65.0745 66.8344C65.204 66.7602 65.3576 66.7402 65.5017 66.7788C65.6459 66.8174 65.7689 66.9114 65.8439 67.0403C65.8844 67.1111 65.9088 67.19 65.9152 67.2713L71.279 63.7346C71.4591 63.2988 71.7322 62.9076 72.0793 62.588C72.4263 62.2685 72.8389 62.0283 73.2883 61.8844V60.325H75.2596V61.8844C75.9136 62.0932 76.4843 62.5043 76.8892 63.0581C77.2941 63.612 77.5124 64.2801 77.5125 64.9659V65.3878H75.5412C75.5412 65.7235 75.4077 66.0454 75.17 66.2828C74.9324 66.5202 74.6101 66.6535 74.274 66.6535C73.9379 66.6535 73.6155 66.5202 73.3779 66.2828C73.1402 66.0454 73.0067 65.7235 73.0067 65.3878H71.0355V64.9659C71.0357 64.7636 71.0547 64.5619 71.0925 64.3631L57.5233 73.3103L63.1599 80.155C63.2037 80.1548 63.2472 80.1544 63.2912 80.1544C63.741 80.1544 64.1767 80.165 64.5919 80.1833C64.5668 80.1138 64.5559 80.04 64.5597 79.9662C64.5679 79.8174 64.6348 79.6778 64.7456 79.5781C64.8565 79.4783 65.0024 79.4264 65.1515 79.4337L65.8545 79.4703C66.0035 79.4785 66.1433 79.5453 66.2432 79.656C66.3431 79.7667 66.395 79.9125 66.3877 80.0614C66.3825 80.1493 66.3563 80.2347 66.3114 80.3106C67.5546 80.4425 68.3602 80.6244 68.3602 80.717C68.3602 80.8686 66.197 80.7242 63.4895 80.7173C63.477 80.7525 63.4555 80.7837 63.427 80.8078C63.3985 80.8319 63.3641 80.848 63.3273 80.8544C63.2906 80.8609 63.2527 80.8574 63.2177 80.8445C63.1827 80.8315 63.1518 80.8095 63.1282 80.7806L63.076 80.7173C60.3764 80.7248 58.2223 80.8683 58.2223 80.717C58.2223 80.5743 60.1375 80.2193 62.6191 80.1624L57.048 73.3973C57.0292 73.3745 57.0155 73.3479 57.0076 73.3194C56.9997 73.2909 56.9979 73.2611 57.0024 73.2319Z" fill="#E6D3C2"/>
<path d="M76.1279 80.2036V70.5862C76.1279 70.3007 76.5701 70.0684 77.1136 70.0684C77.657 70.0684 78.0992 70.3007 78.0992 70.5862V80.2036C78.0992 80.4891 77.657 80.7214 77.1136 80.7214C76.5701 80.7214 76.1279 80.4891 76.1279 80.2036Z" fill="#E6D3C2"/>
<path d="M73.7695 80.2036V70.5862C73.7695 70.3007 74.2117 70.0684 74.7552 70.0684C75.2986 70.0684 75.7408 70.3007 75.7408 70.5862V80.2036C75.7408 80.4891 75.2986 80.7214 74.7552 80.7214C74.2117 80.7214 73.7695 80.4891 73.7695 80.2036Z" fill="#E6D3C2"/>
<path d="M71.411 80.2036V70.5862C71.411 70.3007 71.8532 70.0684 72.3966 70.0684C72.9401 70.0684 73.3823 70.3007 73.3823 70.5862V80.2036C73.3823 80.4891 72.9401 80.7214 72.3966 80.7214C71.8532 80.7214 71.411 80.4891 71.411 80.2036Z" fill="#E6D3C2"/>
<path d="M322.083 41.849V74.0339H237.954V41.849C237.954 31.1681 242.058 20.8914 249.427 13.1238C256.796 5.35623 266.872 0.685751 277.59 0.0690341C278.393 0.0224473 279.202 -0.000560529 280.018 1.0367e-05C280.483 1.0367e-05 280.946 0.00690887 281.406 0.0241674C292.079 0.360185 302.221 4.73577 309.762 12.2579C309.989 12.4839 310.213 12.7117 310.437 12.943C317.914 20.7276 322.086 31.0814 322.083 41.849Z" fill="#EFEBE7"/>
<path d="M281.406 0.024175V74.0339H277.59V0.0690342C278.393 0.0224473 279.202 -0.000560529 280.018 1.0367e-05C280.483 1.0367e-05 280.946 0.00690983 281.406 0.024175Z" fill="white"/>
<path d="M315.68 27.6117H285.864V77.8305H315.68V27.6117Z" fill="white"/>
<path d="M296.262 36.0957H291.752V40.5827H296.262V36.0957Z" fill="#EFEBE7"/>
<path d="M303.528 36.0957H299.018V40.5827H303.528V36.0957Z" fill="#EFEBE7"/>
<path d="M310.794 36.0957H306.284V40.5827H310.794V36.0957Z" fill="#EFEBE7"/>
<path d="M296.387 46.3162H291.877V50.8032H296.387V46.3162Z" fill="#EFEBE7"/>
<path d="M303.653 46.3162H299.143V50.8032H303.653V46.3162Z" fill="#EFEBE7"/>
<path d="M310.92 46.3162H306.41V50.8032H310.92V46.3162Z" fill="#EFEBE7"/>
<path d="M296.512 56.5365H292.002V61.0235H296.512V56.5365Z" fill="#EFEBE7"/>
<path d="M303.779 56.5365H299.269V61.0235H303.779V56.5365Z" fill="#EFEBE7"/>
<path d="M311.045 56.5365H306.535V61.0235H311.045V56.5365Z" fill="#EFEBE7"/>
<path d="M296.638 66.7568H292.127V71.2438H296.638V66.7568Z" fill="#EFEBE7"/>
<path d="M303.904 66.7568H299.394V71.2438H303.904V66.7568Z" fill="#EFEBE7"/>
<path d="M311.17 66.7568H306.66V71.2438H311.17V66.7568Z" fill="#EFEBE7"/>
<path d="M296.638 66.7568H292.127V71.2438H296.638V66.7568Z" fill="#EFEBE7"/>
<path d="M303.904 66.7568H299.394V71.2438H303.904V66.7568Z" fill="#EFEBE7"/>
<path d="M311.17 66.7568H306.66V71.2438H311.17V66.7568Z" fill="#EFEBE7"/>
<path d="M247.954 63.8228C251.387 63.8228 254.17 61.054 254.17 57.6385C254.17 54.2231 251.387 51.4543 247.954 51.4543C244.521 51.4543 241.738 54.2231 241.738 57.6385C241.738 61.054 244.521 63.8228 247.954 63.8228Z" fill="white"/>
<path d="M247.971 57.6385H247.988L248.296 75.1718H247.647L247.971 57.6385Z" fill="white"/>
<path d="M249.103 67.1888L248.96 66.9182L247.932 67.4564L248.075 67.727L249.103 67.1888Z" fill="white"/>
<path d="M266.229 57.9136C271.45 57.9136 275.682 53.7032 275.682 48.5094C275.682 43.3156 271.45 39.1052 266.229 39.1052C261.009 39.1052 256.776 43.3156 256.776 48.5094C256.776 53.7032 261.009 57.9136 266.229 57.9136Z" fill="white"/>
<path d="M266.255 48.5093H266.281L266.748 75.1717H265.762L266.255 48.5093Z" fill="white"/>
<path d="M267.976 63.0322L267.758 62.6207L266.196 63.4392L266.414 63.8507L267.976 63.0322Z" fill="white"/>
<path d="M246.733 39.5295L248.33 38.2589C247.089 38.1227 246.579 38.7958 246.371 39.3286C245.402 38.9282 244.347 39.4529 244.347 39.4529L247.542 40.6068C247.38 40.1785 247.1 39.8048 246.733 39.5295Z" fill="#E6D3C2"/>
<path d="M263.559 29.1751L265.155 27.9045C263.915 27.7684 263.405 28.4414 263.197 28.9742C262.227 28.5738 261.172 29.0985 261.172 29.0985L264.367 30.2525C264.206 29.8242 263.926 29.4504 263.559 29.1751Z" fill="#E6D3C2"/>
<path d="M257.14 39.0118L258.737 37.7412C257.497 37.605 256.987 38.2781 256.778 38.8109C255.809 38.4105 254.754 38.9352 254.754 38.9352L257.949 40.0891C257.788 39.6608 257.507 39.2871 257.14 39.0118Z" fill="#E6D3C2"/>
<path d="M326.506 70.2373H233.53V77.8305H326.506V70.2373Z" fill="#B1A9A2"/>
<path d="M209.644 90.0029C209.644 90.0029 190.837 81.3894 197.444 75.4164C204.05 69.4433 209.644 90.0029 209.644 90.0029Z" fill="#E6D3C2"/>
<path d="M209.316 92.0127C209.316 92.0127 200.672 63.7557 213.401 65.107C226.13 66.4584 209.316 92.0127 209.316 92.0127Z" fill="#E6D3C2"/>
<path d="M203.014 89.5067L203.376 94.2335L203.382 94.3152C203.382 95.0533 203.419 95.791 203.494 96.5253C203.987 101.347 206.103 103.544 208.577 103.544C211.05 103.544 213.075 101.347 213.567 96.5253C213.642 95.791 213.68 95.0533 213.679 94.3152L213.682 94.2493L213.684 94.2335L214.048 89.5067H203.014Z" fill="#E6D3C2"/>
<path d="M213.683 94.2335L213.682 94.2493L213.679 94.3152C213.68 95.0533 213.642 95.791 213.567 96.5253H203.494C203.419 95.791 203.382 95.0533 203.382 94.3152L203.376 94.2335H213.683Z" fill="white"/>
<path d="M345.479 90.0029C345.479 90.0029 326.672 81.3894 333.279 75.4164C339.885 69.4433 345.479 90.0029 345.479 90.0029Z" fill="#E6D3C2"/>
<path d="M345.151 92.0127C345.151 92.0127 336.507 63.7557 349.236 65.107C361.965 66.4584 345.151 92.0127 345.151 92.0127Z" fill="#E6D3C2"/>
<path d="M338.849 89.5067L339.211 94.2335L339.217 94.3152C339.217 95.0533 339.254 95.791 339.329 96.5253C339.822 101.347 341.938 103.544 344.412 103.544C346.885 103.544 348.909 101.347 349.402 96.5253C349.477 95.791 349.515 95.0533 349.514 94.3152L349.517 94.2493L349.518 94.2335L349.883 89.5067H338.849Z" fill="#E6D3C2"/>
<path d="M349.519 94.2335L349.517 94.2493L349.514 94.3152C349.515 95.0533 349.477 95.791 349.402 96.5253H339.329C339.254 95.791 339.217 95.0533 339.217 94.3152L339.211 94.2335H349.519Z" fill="white"/>
<path d="M320.508 107.115L319.275 107.259C318.301 107.843 317.158 108.063 315.892 108.018C315.715 108.013 315.543 107.962 315.392 107.87C315.241 107.778 315.117 107.649 315.032 107.494C314.958 107.359 314.917 107.209 314.911 107.055C314.906 106.901 314.936 106.748 314.999 106.608C315.063 106.467 315.158 106.343 315.277 106.245C315.397 106.148 315.537 106.079 315.688 106.044L316.625 105.827L318.886 103.627L320.25 101.171L322.231 101.397L322.643 104.516C322.695 105.14 322.502 105.76 322.104 106.245C321.705 106.73 321.133 107.042 320.508 107.115Z" fill="#E6D3C2"/>
<path d="M301.304 105.537L300.096 105.82C299.195 106.511 298.084 106.859 296.822 106.958C296.645 106.972 296.468 106.941 296.308 106.867C296.148 106.793 296.01 106.678 295.908 106.534C295.819 106.408 295.761 106.264 295.737 106.111C295.714 105.959 295.726 105.804 295.773 105.657C295.82 105.51 295.901 105.377 296.008 105.266C296.116 105.155 296.248 105.071 296.393 105.019L297.299 104.697L299.293 102.255L300.367 99.661H302.361L303.128 102.713C303.251 103.327 303.13 103.965 302.79 104.492C302.45 105.019 301.917 105.393 301.304 105.537Z" fill="#E6D3C2"/>
<path d="M300.313 99.8336L302.568 100.179L306.124 82.3174L312.282 71.8767L319.741 102.25L322.517 102.767C322.205 85.6632 323.724 64.1299 320.262 61.5223L305.17 63.2481L298.579 80.8505L300.313 99.8336Z" fill="#070606"/>
<path d="M311.241 34.9461C314.115 34.9461 316.445 32.6282 316.445 29.7689C316.445 26.9096 314.115 24.5917 311.241 24.5917C308.367 24.5917 306.038 26.9096 306.038 29.7689C306.038 32.6282 308.367 34.9461 311.241 34.9461Z" fill="#E6D3C2"/>
<path d="M318.527 37.7073L312.282 38.7427L310.721 33.2203L315.231 31.8398L318.527 37.7073Z" fill="#E6D3C2"/>
<path d="M321.129 62.2127L304.477 63.7658C305.812 59.1475 307.035 54.5454 306.038 49.96C304.772 45.8662 305.994 43.4318 309.334 41.5039L311.589 36.4993L317.66 35.809C319.267 38.3807 319.925 41.4291 319.52 44.4307C318.655 50.958 318.888 57.0149 321.129 62.2127Z" fill="#0089A9"/>
<path d="M311.124 23.6544C309.388 24.0491 307.411 24.6085 307.3 25.1283C305.514 25.5762 304.165 26.649 303.89 28.2846C303.867 28.4259 303.875 28.5706 303.914 28.7084C303.954 28.8461 304.023 28.9737 304.117 29.082C304.211 29.1903 304.328 29.2767 304.459 29.3352C304.591 29.3937 304.734 29.4228 304.877 29.4205C305.849 29.4081 307.308 29.3155 308.271 28.9153C311.068 30.7087 311.538 35.3733 310.316 38.5485L312.239 38.3731L314.228 32.58L314.736 38.1454L319.124 37.5683L318.558 30.4714C318.385 28.7987 317.813 27.1914 316.889 25.7828C316.794 25.6414 316.689 25.5062 316.575 25.3781C315.908 24.6278 315.049 24.0714 314.089 23.768C313.129 23.4645 312.105 23.4252 311.124 23.6544Z" fill="#070606"/>
<path d="M300.105 108.895C300.095 108.979 300.104 109.065 300.13 109.146C300.155 109.227 300.198 109.302 300.255 109.365C300.311 109.429 300.381 109.48 300.458 109.515C300.536 109.55 300.62 109.569 300.706 109.57L302.657 109.59C302.762 109.583 302.861 109.536 302.933 109.459C303.004 109.383 303.044 109.282 303.044 109.177C303.044 109.094 303.019 109.013 302.973 108.945C302.926 108.876 302.86 108.823 302.783 108.793L302.207 108.563L301.37 107.397H300.7C300.371 107.834 300.166 108.35 300.105 108.892L300.105 108.895H300.105Z" fill="#E6D3C2"/>
<path d="M295.434 108.895C295.443 108.979 295.435 109.065 295.409 109.146C295.383 109.227 295.341 109.302 295.284 109.365C295.227 109.429 295.158 109.48 295.08 109.515C295.003 109.55 294.918 109.569 294.833 109.57L292.881 109.59C292.776 109.583 292.678 109.536 292.606 109.459C292.534 109.383 292.494 109.282 292.494 109.177C292.494 109.094 292.519 109.013 292.566 108.945C292.612 108.876 292.679 108.823 292.756 108.793L293.332 108.563L294.169 107.397H294.839C295.168 107.834 295.373 108.35 295.434 108.892L295.434 108.895Z" fill="#E6D3C2"/>
<path d="M294.001 107.397H295.006L298.523 92.2363L300.365 107.564H301.537L303.128 87.8213L295.006 87.738L294.001 107.397Z" fill="#847C76"/>
<path d="M289.48 79.5744H290.82V76.409L291.124 75.8025C291.185 75.6809 291.217 75.5465 291.216 75.4105C291.215 75.2744 291.182 75.1405 291.119 75.0196C291.056 74.8988 290.966 74.7944 290.854 74.715C290.743 74.6356 290.615 74.5835 290.48 74.5628C290.356 74.5438 290.23 74.5517 290.11 74.5859C289.989 74.6201 289.878 74.6798 289.783 74.7609C289.688 74.842 289.611 74.9425 289.559 75.0556C289.507 75.1688 289.48 75.2918 289.48 75.4163V79.5744Z" fill="#E6D3C2"/>
<path d="M297.434 71.7441C299.145 71.7441 300.532 70.3641 300.532 68.6619C300.532 66.9596 299.145 65.5797 297.434 65.5797C295.723 65.5797 294.336 66.9596 294.336 68.6619C294.336 70.3641 295.723 71.7441 297.434 71.7441Z" fill="#E6D3C2"/>
<path d="M296.178 73.9099H299.36V70.2446H296.178V73.9099Z" fill="#E6D3C2"/>
<path d="M294.671 88.2378C297.488 89.9669 300.465 89.7978 303.547 88.4044L302.877 72.9103L299.36 72.7437L295.676 73.2435L293.834 74.7429L294.671 88.2378Z" fill="#0089A9"/>
<path d="M291.322 82.7399L295.006 79.9076L293.834 74.7429L291.657 78.7414L290.987 78.075L288.978 79.5744L291.322 82.7399Z" fill="#0089A9"/>
<path d="M307.676 73.1763L306.504 73.8224L304.962 71.0537L304.399 70.6703C304.287 70.5934 304.194 70.491 304.128 70.3716C304.063 70.2521 304.027 70.119 304.023 69.983C304.019 69.847 304.047 69.712 304.106 69.589C304.164 69.466 304.251 69.3585 304.359 69.2752C304.458 69.199 304.572 69.1449 304.694 69.1168C304.816 69.0887 304.943 69.0871 305.065 69.1122C305.188 69.1373 305.304 69.1885 305.404 69.2622C305.505 69.336 305.589 69.4305 305.65 69.5394L306.133 70.4076L307.676 73.1763Z" fill="#E6D3C2"/>
<path d="M301.119 77.825L305.565 75.4768L307.901 74.2431L308.236 72.2438L306.729 70.7444L304.886 71.9106L305.054 73.2434L302.877 72.9102L301.119 77.825Z" fill="#0089A9"/>
<path d="M298.104 71.1609C300.139 71.1609 301.788 69.5199 301.788 67.4956C301.788 65.4713 300.139 63.8303 298.104 63.8303C296.07 63.8303 294.42 65.4713 294.42 67.4956C294.42 69.5199 296.07 71.1609 298.104 71.1609Z" fill="#070606"/>
<path d="M299.675 66.3321C300.599 66.3321 301.349 65.5862 301.349 64.666C301.349 63.7459 300.599 63 299.675 63C298.75 63 298 63.7459 298 64.666C298 65.5862 298.75 66.3321 299.675 66.3321Z" fill="#070606"/>
<path d="M297.675 65.3321C298.599 65.3321 299.349 64.5862 299.349 63.666C299.349 62.7459 298.599 62 297.675 62C296.75 62 296 62.7459 296 63.666C296 64.5862 296.75 65.3321 297.675 65.3321Z" fill="#070606"/>
<path d="M295.675 66.3321C296.599 66.3321 297.349 65.5862 297.349 64.666C297.349 63.7459 296.599 63 295.675 63C294.75 63 294 63.7459 294 64.666C294 65.5862 294.75 66.3321 295.675 66.3321Z" fill="#070606"/>
<path d="M295 68C296.105 68 297 67.1046 297 66C297 64.8954 296.105 64 295 64C293.895 64 293 64.8954 293 66C293 67.1046 293.895 68 295 68Z" fill="#070606"/>
<path d="M299.593 68.0589C299.925 68.2313 300.306 68.288 300.674 68.2199C301.042 68.1518 301.377 67.9629 301.625 67.6833C301.872 67.4038 302.018 67.0497 302.04 66.6777C302.061 66.3057 301.957 65.9374 301.743 65.6315C301.936 65.7764 302.096 65.9614 302.211 66.1737C302.326 66.3861 302.393 66.6207 302.407 66.8613C302.422 67.1019 302.384 67.3428 302.296 67.5674C302.208 67.7919 302.072 67.9948 301.897 68.1619C301.722 68.3291 301.513 68.4565 301.284 68.5354C301.055 68.6143 300.812 68.6428 300.571 68.619C300.33 68.5951 300.097 68.5194 299.888 68.3972C299.679 68.275 299.499 68.1091 299.361 67.911C299.435 67.9665 299.512 68.016 299.593 68.0589Z" fill="#070606"/>
<path d="M310.374 67.3898L310.489 71.3963C310.505 71.9486 310.31 72.4863 309.943 72.9012C309.577 73.3161 309.066 73.5774 308.513 73.6323C308.159 73.6675 307.802 73.6167 307.472 73.4841C307.142 73.3516 306.85 73.1413 306.62 72.8714C306.39 72.6015 306.229 72.28 306.152 71.9347C306.074 71.5893 306.082 71.2304 306.175 70.8888L307.078 67.5624L309.68 53.4114L309.507 45.1279L315.058 44.9553L314.017 54.2743L310.374 67.3898Z" fill="#E6D3C2"/>
<path d="M315.405 45.8181C313.393 45.0561 311.171 45.0561 309.16 45.8181L309.507 38.9152C309.507 38.1829 309.799 37.4806 310.32 36.9628C310.84 36.445 311.546 36.1541 312.282 36.1541C313.018 36.1541 313.724 36.445 314.245 36.9628C314.765 37.4806 315.058 38.1829 315.058 38.9152L315.405 45.8181Z" fill="#0089A9"/>
<path d="M148.757 80.6375C149.493 81.2414 149.925 82.2016 150.07 83.1831C150.112 83.4687 150.132 83.7657 150.176 84.0555C150.358 85.2475 150.931 86.3307 151.791 87.1108C151.665 87.1778 151.525 87.2106 151.384 87.2065C151.243 87.2024 151.106 87.1615 150.983 87.0873C151.171 87.8996 151.517 88.6597 152 89.3174C151.447 89.0169 150.962 88.59 150.579 88.0667C150.507 88.5827 150.534 89.1089 150.658 89.6133C150.783 90.1176 151.002 90.5895 151.302 91C150.934 90.8123 150.607 90.5423 150.344 90.2082C150.081 89.874 149.888 89.4834 149.778 89.0626L150.413 90.8587C150.013 90.7366 149.727 90.3732 149.497 90.002C148.646 88.627 148.279 86.9721 148.461 85.3333C148.54 84.6459 148.715 83.9705 148.743 83.2788C148.772 82.5871 148.627 81.8439 148.165 81.3592C147.817 80.9923 147.329 80.8238 146.851 80.7881C146.55 80.7653 145.771 81.023 146.065 80.4419C146.517 79.5545 148.231 80.207 148.757 80.6375Z" fill="#A79280"/>
<path d="M143 88C145.761 88 148 85.9853 148 83.5C148 81.0147 145.761 79 143 79C140.239 79 138 81.0147 138 83.5C138 85.9853 140.239 88 143 88Z" fill="#A79280"/>
<path d="M136 107.594C135.127 107.521 134.231 107.45 133.397 107.762C133.087 107.879 132.773 108.049 132.451 107.987C132.111 107.921 131.854 107.611 131.623 107.319C131.373 107.002 131.113 106.665 131.028 106.249C130.968 105.927 131.005 105.591 131.133 105.295C131.151 105.246 131.177 105.201 131.211 105.163C131.282 105.092 131.387 105.09 131.482 105.094C132.3 105.134 133.124 105.364 133.93 105.201C134.401 105.106 135.331 104.71 135.606 105.39C135.723 105.672 135.528 107.555 136 107.594Z" fill="#070606"/>
<path d="M126.761 100.618C125.615 100.928 124.519 101.396 123.427 101.862L120.5 103L121 104.5C121.062 104.648 121.851 104.933 122 105C122.165 105.074 122.358 105.044 122.528 104.98C124.163 104.359 126.045 104.714 127.69 104.118C128.295 103.896 128.862 103.552 129.499 103.452C130.244 103.333 131.033 103.562 131.754 103.336C131.832 103.318 131.902 103.276 131.954 103.215C131.994 103.143 132.008 103.059 131.995 102.977C131.958 102.368 131.726 101.793 131.425 101.27C131.228 100.923 130.913 100.234 130.52 100.065C130.077 99.8762 129.211 100.152 128.749 100.22C128.079 100.313 127.415 100.446 126.761 100.618Z" fill="#E6D3C2"/>
<path d="M122.5 105C121.685 105.159 120.346 105.151 119.658 105.592C119.401 105.757 119.152 105.963 118.844 105.996C118.518 106.03 118.212 105.86 117.933 105.695C117.631 105.517 117.316 105.327 117.143 105.033C117.014 104.803 116.971 104.54 117.019 104.285C117.024 104.243 117.038 104.203 117.06 104.166C117.119 104.1 117.203 104.058 117.294 104.047C118.051 103.875 119.076 103.565 119.776 103.242C120.186 103.051 120.726 102.805 121.134 103.251C121.303 103.436 122.058 105.09 122.5 105Z" fill="#070606"/>
<path d="M142.075 88.596C142.015 88.8059 141.991 89.0274 142.003 89.2483V90.8979C141.992 91.1351 142.016 91.3727 142.073 91.6003C142.161 91.8889 142.353 92.1141 142.548 92.3152C143.176 92.9605 143.902 93.4573 144.688 93.7789C145.125 93.9576 145.603 94.0845 146.048 93.9317C146.304 93.83 146.543 93.6764 146.754 93.4778C147.341 92.9705 147.866 92.3708 148.316 91.695C148.768 91.0096 149.16 90.125 148.934 89.2948C148.512 89.189 148.12 88.953 147.799 88.6108C147.477 88.2685 147.238 87.8319 147.104 87.3449C147.017 87.0179 146.975 86.6586 146.793 86.3923C146.405 85.8222 145.651 85.9822 145.061 86.1958C144.487 86.4022 143.492 86.5219 143.067 87.0402C142.899 87.2448 142.835 87.5808 142.67 87.8042C142.473 88.0768 142.195 88.2466 142.075 88.596Z" fill="#E6D3C2"/>
<path opacity="0.1" d="M142.075 88.596C142.015 88.8059 141.991 89.0274 142.003 89.2483V90.8979C141.992 91.1351 142.016 91.3727 142.073 91.6003C142.161 91.8889 142.353 92.1141 142.548 92.3152C143.176 92.9605 143.902 93.4573 144.688 93.7789C145.125 93.9576 145.603 94.0845 146.048 93.9317C146.304 93.83 146.543 93.6764 146.754 93.4778C147.341 92.9705 147.866 92.3708 148.316 91.695C148.768 91.0096 149.16 90.125 148.934 89.2948C148.512 89.189 148.12 88.953 147.799 88.6108C147.477 88.2685 147.238 87.8319 147.104 87.3449C147.017 87.0179 146.975 86.6586 146.793 86.3923C146.405 85.8222 145.651 85.9822 145.061 86.1958C144.487 86.4022 143.492 86.5219 143.067 87.0402C142.899 87.2448 142.835 87.5808 142.67 87.8042C142.473 88.0768 142.195 88.2466 142.075 88.596Z" fill="#46413B"/>
<path d="M144.5 89C146.433 89 148 87.2091 148 85C148 82.7909 146.433 81 144.5 81C142.567 81 141 82.7909 141 85C141 87.2091 142.567 89 144.5 89Z" fill="#E6D3C2"/>
<path d="M154.415 98.3702C154.618 98.6585 154.794 98.9648 155.005 99.2467C155.44 99.8256 156.013 100.285 156.576 100.735L159.789 103.301C160.686 104.018 161.633 104.758 162.764 104.966C163.149 105.037 163.605 105.017 163.853 104.714C164.142 104.359 163.971 103.8 163.634 103.491C163.298 103.181 162.844 103.043 162.428 102.851C160.672 102.037 159.609 100.266 158.373 98.7775C157.287 97.4717 156.01 96.3375 154.826 95.1202C153.57 93.8262 152.575 92.3246 151.376 91C150.803 91.4763 150.15 92.4429 150.021 93.1933C149.905 93.8638 150.29 94.3549 150.728 94.821C151.89 96.072 153.424 96.9634 154.415 98.3702Z" fill="#E6D3C2"/>
<path d="M152 89C151.986 90.5788 151.033 91.8346 150.788 93.3743C150.758 93.6287 150.715 93.8797 150.659 94.1251C150.558 94.4838 150.363 94.7732 150.162 95.0357C149.831 95.4704 149.453 95.8759 149.008 96C148.955 96.0145 149.167 90.8235 149.242 90.3419C149.473 88.7821 151.076 89.1397 152 89Z" fill="url(#paint0_linear_544_33011)"/>
<path d="M142.42 88.889C142.412 89.5427 142.468 90.2104 142.722 90.8107C142.976 91.411 143.45 91.9398 144.067 92.125C144.393 92.2231 144.738 92.2223 145.077 92.2176C145.351 92.2129 145.631 92.2058 145.889 92.1148C146.409 91.9328 146.767 91.4416 146.976 90.9253C147.184 90.4089 147.273 89.8518 147.444 89.3222C147.534 89.0436 147.7 88.7313 147.985 88.7054C148.166 88.6897 148.333 88.798 148.483 88.9016L150.027 89.9648C150.335 91.7578 150.019 93.623 149.379 95.3226C149.187 95.8318 148.953 96.3316 148.865 96.8691C148.685 97.9755 149.141 99.0725 149.51 100.13C149.778 100.901 150.003 101.686 150.23 102.471L150.798 104.449C150.93 104.91 151.064 105.391 150.967 105.861C150.869 106.332 150.457 106.771 149.988 106.716C149.858 106.701 149.716 106.652 149.602 106.716C149.324 106.873 149.634 107.299 149.608 107.623C149.576 108.042 149.018 108.132 148.605 108.123C146.554 108.077 144.529 108.526 142.495 108.8C140.461 109.074 138.335 109.163 136.415 108.429C135.593 108.115 134.832 107.657 134.076 107.203C132.644 106.339 131.131 105.391 130.428 103.858C130.119 103.187 129.985 102.435 129.592 101.813C129.376 101.469 129.077 101.156 129.012 100.753C128.921 100.187 129.349 99.643 129.861 99.4044C130.374 99.1659 130.959 99.1573 131.524 99.1282C132.088 99.0992 132.681 99.0348 133.144 98.7092C133.648 98.3585 133.957 97.7362 134.517 97.4883C134.757 97.3839 135.021 97.3596 135.274 97.2944C135.617 97.1966 135.945 97.0471 136.245 96.8511C138.581 95.4042 139.93 92.4663 139.519 89.7169C139.473 89.4419 139.448 89.1639 139.442 88.8851C139.437 88.8375 139.447 88.7895 139.468 88.747C139.497 88.7109 139.535 88.6848 139.579 88.6725C139.936 88.5391 140.34 88.6105 140.701 88.4904C140.975 88.3994 141.203 88.2056 141.466 88.0879C141.729 87.9702 142.076 87.9474 142.27 88.1663C142.446 88.3617 142.424 88.6199 142.42 88.889Z" fill="url(#paint1_linear_544_33011)"/>
<path d="M142.364 85.2666C142.147 84.3378 141.162 83.7849 141.017 82.8405C140.941 82.3422 141.129 81.8365 141.422 81.4649C141.714 81.0934 142.103 80.8376 142.492 80.6032C143.062 80.2589 143.685 79.9397 144.335 80.0097C145.006 80.0835 145.864 80.2257 146.385 80.7204C146.754 81.0698 146.856 81.7967 146.969 82.3186C147.022 82.5799 147.007 82.8544 146.925 83.1049C146.844 83.3554 146.7 83.5698 146.514 83.7193C146.084 84.0628 145.502 84.0377 144.967 84.0399C144.432 84.0422 143.835 84.121 143.505 84.5862C143.324 84.8405 143.254 85.1715 143.124 85.462C142.993 85.7524 142.751 86.0267 142.459 85.9979L142.364 85.2666Z" fill="#A79280"/>
<path d="M135.65 95.0033C135.419 95.4016 135.184 95.8076 135.071 96.2619C134.895 96.9837 135.057 97.7763 135.441 98.3978C135.825 99.0193 136.417 99.4744 137.065 99.7404C137.323 99.8462 137.59 99.924 137.844 100.038C138.976 100.542 139.815 101.732 141.02 101.972C141.19 102.017 141.368 102.008 141.532 101.946C141.917 101.77 141.986 101.225 141.997 100.779C142.003 100.555 142.008 100.321 141.915 100.12C141.833 99.9649 141.72 99.8319 141.583 99.7311C140.721 99.0209 139.618 98.751 138.673 98.1754C138.23 97.9062 137.788 97.5072 137.729 96.9635C137.664 96.3684 138.074 95.8527 138.399 95.3658C139.199 94.1687 139.879 92.2319 139.495 90.7415C138.954 88.6413 137.622 91.6065 137.266 92.2194C136.728 93.1466 136.189 94.0746 135.65 95.0033Z" fill="#E6D3C2"/>
<path d="M138.686 90.276C138.448 90.4642 138.288 90.6919 138.085 90.8989C137.799 91.1907 137.43 91.4397 137 91.6308C137.481 91.5964 138.024 91.5734 138.382 91.7977C138.685 91.9853 138.755 92.2887 138.952 92.5342C139.1 92.7281 139.345 92.8787 139.642 92.958C139.791 92.9963 139.95 93.0087 140.107 92.994C140.264 92.9794 140.414 92.9383 140.542 92.8743C140.928 92.6678 140.971 92.2841 140.981 91.9474L140.998 91.3417C141.005 91.1163 140.998 90.8691 140.788 90.6976C140.657 90.5921 140.466 90.533 140.294 90.4602C139.631 90.1797 139.431 89.6881 138.686 90.276Z" fill="url(#paint2_linear_544_33011)"/>
<path d="M141.175 86.9311C141.253 86.5379 141.035 86.1292 141.093 85.7332C141.109 85.633 141.141 85.5379 141.188 85.4538C141.235 85.3697 141.297 85.2986 141.368 85.2449C141.448 85.185 141.541 85.149 141.622 85.0941C141.78 84.9807 141.899 84.8023 141.959 84.591C142.018 84.3797 142.013 84.1495 141.946 83.942C141.827 83.6087 141.559 83.3959 141.295 83.2289C141.015 83.0506 140.673 82.902 140.394 83.0809C140.054 83.2987 140.006 83.856 140.002 84.3267C139.997 84.7115 139.995 85.1018 140.086 85.4711C140.192 85.8673 140.363 86.2332 140.589 86.5463C140.629 86.5978 141.123 87.2002 141.175 86.9311Z" fill="#A79280"/>
<path d="M141.901 92.7186C141.539 93.7916 140.294 94.2377 139.423 95C139.467 94.8785 139.489 94.7505 139.488 94.6216C139.488 94.3069 139.408 93.9922 139.499 93.6902C139.019 94.2531 138.374 94.6575 137.651 94.8482L137.299 91.3765C137.12 91.9268 136.822 92.4329 136.425 92.8604C136.028 93.2878 135.542 93.6267 135 93.8538C135.998 92.1034 136.302 90.069 136.623 88.0897C136.701 87.5331 136.813 86.9814 136.957 86.4376C137.158 85.7342 137.464 85.0635 137.865 84.4473C138.109 84.0674 138.406 83.7231 138.749 83.4246C139.093 83.1414 139.483 82.9447 139.864 83.0139C140.521 83.1351 140.257 83.4506 139.864 83.7401C139.552 83.9682 139.158 84.1814 139.065 84.2727C138.959 84.3768 138.88 84.5041 138.835 84.644C138.684 85.0947 138.846 85.6667 139.044 86.1324C139.549 87.3283 140.164 88.4769 140.882 89.5639C141.204 90.0438 141.539 90.5158 141.766 91.0453C141.993 91.5747 142.087 92.1758 141.901 92.7186Z" fill="#A79280"/>
<path d="M27.6188 81.6238C27.9772 84.2178 27.5399 86.8933 26.8553 89.4317C26.745 89.9089 26.5764 90.3696 26.3534 90.8027C26.0888 91.214 25.8041 91.611 25.5003 91.9923C24.9531 92.8521 24.5327 93.7912 24.2529 94.7789C23.3678 97.4663 22.6247 100.201 22.0269 102.972C21.991 103.085 21.991 103.207 22.0269 103.321C22.1093 103.521 22.3854 103.55 22.5789 103.547H25.3139C25.4143 103.354 25.2315 103.143 25.1168 102.957C24.7225 102.331 25.1168 101.52 25.443 100.864C26.2818 99.2711 26.9294 97.5787 27.3715 95.8239C27.5265 95.0765 27.7424 94.3438 28.0167 93.6339C28.4374 92.817 28.908 92.0286 29.4254 91.2734C29.9464 90.3401 30.3935 89.3648 30.7624 88.357C31.3659 86.9912 31.8087 85.5555 32.0815 84.0807C32.2406 82.6804 32.2309 81.2651 32.0529 79.8673C32.0529 79.779 32.0224 79.6936 31.9669 79.6264C31.9045 79.583 31.8305 79.561 31.7554 79.5635L28.0848 79.3708C27.3284 79.33 27.1492 79.1595 27.2639 79.9266C27.3499 80.4862 27.5399 81.0457 27.6188 81.6238Z" fill="#46413B"/>
<path d="M28.3429 75.2797C27.5973 76.3914 26.8123 77.6662 27.0632 78.9854C27.2496 79.9896 27.9916 80.7715 28.6942 81.5015C31.4937 84.4068 34.2502 87.6381 35.2037 91.6217C35.4474 92.6519 35.5621 93.7117 35.7772 94.7493C36.2126 96.6216 36.8002 98.4525 37.5336 100.223L39.3618 104.999C39.9277 105.013 40.4843 104.848 40.9561 104.524C41.428 104.201 41.7924 103.735 42 103.191C41.7217 103.131 41.4751 102.966 41.3082 102.728C40.5303 101.616 40.369 100.178 40.1683 98.8181C39.9496 97.3136 39.6521 95.8239 39.3546 94.3343L38.0498 87.7493C37.8993 86.9859 37.7487 86.2262 37.5516 85.474C36.7881 82.5724 35.3435 79.8303 35.1213 76.8287C35.1395 76.3816 35.0134 75.941 34.7628 75.5761C34.4128 75.2729 33.9641 75.1191 33.5082 75.1463C31.6944 75.0203 30.1172 74.8387 28.3429 75.2797Z" fill="#46413B"/>
<path d="M23.2675 102.88C23.0648 102.829 22.857 102.801 22.6482 102.798C22.4482 102.805 22.2527 102.86 22.0771 102.958C21.9015 103.056 21.7508 103.194 21.6369 103.362C21.5201 103.553 21.4289 103.759 21.3658 103.975L21.0946 104.763C21.0393 104.872 21.0075 104.992 21.0012 105.115C20.9949 105.238 21.0142 105.361 21.058 105.476C21.1465 105.61 21.275 105.711 21.4244 105.764C22.1017 106.001 22.8116 106.127 23.5276 106.137C24.2202 106.208 24.9054 106.332 25.5869 106.462C25.8214 106.507 26.0559 106.552 26.2941 106.578C26.8282 106.612 27.3642 106.596 27.8953 106.53L28.445 106.474C28.6283 106.466 28.8097 106.432 28.9836 106.373C29.0714 106.341 29.152 106.292 29.2206 106.227C29.2893 106.163 29.3445 106.086 29.383 105.999C29.4062 105.911 29.4113 105.819 29.3978 105.729C29.3843 105.639 29.3526 105.553 29.3047 105.476C29.2568 105.399 29.1938 105.333 29.1196 105.282C29.0454 105.232 28.9616 105.197 28.8737 105.181C28.7271 105.151 28.5769 105.181 28.4303 105.147C28.2648 105.118 28.1036 105.068 27.9503 104.998C27.236 104.747 26.5543 104.408 25.9203 103.989C25.7481 103.866 25.5539 103.694 25.5869 103.481C25.6057 103.391 25.6352 103.303 25.6748 103.22C25.7555 103.001 25.7555 102.759 25.6748 102.54C25.6382 102.447 25.5759 102.35 25.4806 102.338C25.2168 102.305 25.2498 102.693 25.2095 102.846C25.1692 103 25.0629 103.071 24.876 103.052C24.3411 103.011 23.8024 102.981 23.2675 102.88Z" fill="#A79280"/>
<path d="M38.9979 105.603C38.9986 105.999 39.1274 106.384 39.3643 106.698C39.4391 106.789 39.5314 106.864 39.6354 106.918C39.7908 106.983 39.959 107.01 40.1264 106.997C40.6012 106.989 41.0707 106.893 41.5115 106.713C41.6669 106.643 41.8259 106.582 41.9878 106.53C42.1938 106.488 42.4017 106.456 42.6108 106.436C43.4352 106.317 44.157 105.82 44.9558 105.57C45.1913 105.508 45.4226 105.43 45.6484 105.338C45.9549 105.167 46.2321 104.946 46.4691 104.684C46.6115 104.549 46.7348 104.394 46.8355 104.225C46.9592 103.933 47.0145 103.616 46.9968 103.298C47.0015 103.25 46.9926 103.2 46.9711 103.156C46.9498 103.124 46.9191 103.099 46.8832 103.086C46.6249 102.999 46.3464 102.999 46.0881 103.086C45.1174 103.227 44.135 103.264 43.1567 103.198C43.0608 103.202 42.9653 103.183 42.8782 103.142C42.8056 103.087 42.7456 103.017 42.7024 102.936L42.3359 102.327C42.2297 102.152 42.0611 101.954 41.8669 102.01C41.7926 102.044 41.7317 102.103 41.6938 102.177C41.656 102.25 41.6434 102.335 41.6581 102.417C41.6836 102.579 41.6909 102.743 41.68 102.906C41.6587 102.995 41.6194 103.079 41.5645 103.152C41.5096 103.224 41.4403 103.285 41.3613 103.328C41.2048 103.417 41.0371 103.484 40.8629 103.526C40.2738 103.641 39.72 103.897 39.247 104.273C38.9612 104.557 38.9795 105.211 38.9979 105.603Z" fill="#A79280"/>
<path d="M38.7261 66.3093C38.9415 66.1535 39.1262 65.9618 39.2713 65.7434C39.3955 65.4972 39.4735 65.2318 39.5019 64.9596L39.6592 64.0106C39.695 63.4789 39.8851 62.9674 40.2082 62.5343C40.5741 62.1371 41.306 61.993 41.672 62.3867C41.8213 62.5705 41.9139 62.7909 41.9391 63.0229C42.0532 63.7044 42.0066 64.4018 41.8026 65.0637C41.5987 65.7255 41.2426 66.335 40.7608 66.8471C40.3143 67.3181 39.769 67.6907 39.2969 68.1371C38.8834 68.5202 38.5284 68.9561 38.1478 69.3744C37.2288 70.3772 36.1769 71.2599 35.0189 72C35.0793 71.2747 35.0793 70.546 35.0189 69.8207C34.9384 69.3076 34.7225 69.0334 35.2349 68.6995C36.444 67.9657 37.6095 67.1678 38.7261 66.3093Z" fill="#E6D3C2"/>
<path d="M28.6917 59.3146C28.6838 59.5705 28.6179 59.8218 28.4984 60.0506C28.3789 60.2795 28.2088 60.4806 28 60.6397C29.2418 61.0545 30.4616 61.5138 31.6595 62.0176C31.4453 61.7817 31.3328 61.4763 31.3448 61.1635C31.3427 60.3479 31.5813 59.5484 32.0328 58.8577C32.1012 58.77 32.1407 58.6648 32.1463 58.5554C32.1463 58.3304 31.8535 58.225 31.6229 58.1758C30.8423 57.9958 30.046 57.8852 29.2442 57.8454C28.9002 57.8454 28.5123 57.7294 28.5709 58.1512C28.6621 58.5325 28.7027 58.9234 28.6917 59.3146Z" fill="#E6D3C2"/>
<path d="M31.0923 59.5887C32.6991 59.5887 34.0016 58.3377 34.0016 56.7944C34.0016 55.2511 32.6991 54 31.0923 54C29.4855 54 28.183 55.2511 28.183 56.7944C28.183 58.3377 29.4855 59.5887 31.0923 59.5887Z" fill="#E6D3C2"/>
<path d="M34.0046 64.523C33.9052 64.3102 33.784 64.1079 33.643 63.9194C33.1461 63.1633 32.5678 62.4627 31.9181 61.8298C31.4107 61.3849 30.8623 60.9879 30.28 60.6439C29.9659 60.4285 29.6193 60.2633 29.2531 60.1545C29.0378 60.1069 28.8188 60.077 28.5985 60.0652L27.85 60.008C27.7842 59.9973 27.717 59.9973 27.6511 60.008C27.554 60.0458 27.4746 60.118 27.4285 60.2104C27.3824 60.3029 27.3728 60.4091 27.4016 60.5081C27.4657 60.7061 27.5802 60.8845 27.7343 61.0261C27.7668 62.5299 27.0906 64.0158 27.0111 65.5161C26.852 68.145 28.4575 70.5883 28.6058 73.2173C28.6179 73.3375 28.6056 73.459 28.5696 73.5745C28.5479 73.628 28.5154 73.6781 28.4901 73.7316C28.4274 73.9021 28.3967 74.0825 28.3997 74.2639C28.339 74.9058 28.0478 75.5051 27.5788 75.9534C27.699 76.1074 27.8554 76.23 28.0344 76.3106C28.3687 76.4122 28.7094 76.4921 29.0542 76.5499C29.91 76.8491 30.8114 77.0013 31.7192 77C31.8311 76.7585 31.9008 76.5 31.9254 76.2356C32.0519 76.157 32.2002 76.3249 32.2183 76.4713C32.2363 76.6178 32.2183 76.7928 32.3123 76.9C32.3638 76.937 32.4227 76.9625 32.4852 76.9748C32.5476 76.9871 32.612 76.986 32.6739 76.9714C33.2202 76.8748 33.761 76.7496 34.2939 76.5964C34.8321 76.4481 35.401 76.4481 35.9392 76.5964C35.983 76.5236 36.0039 76.4396 35.9994 76.355C35.9949 76.2705 35.9651 76.1891 35.9139 76.1213C35.8113 75.9865 35.7251 75.8402 35.6572 75.6855C35.6319 75.5924 35.6209 75.4961 35.6246 75.3997C35.6246 74.5675 35.7982 73.7281 35.6246 72.8994C35.574 72.66 35.4981 72.4279 35.4474 72.185C35.3695 71.7128 35.3464 71.2335 35.3787 70.7562C35.3787 70.2739 35.3317 69.7667 35.3245 69.2845C35.3221 69.0851 35.3089 68.886 35.2847 68.688C35.2522 68.4808 35.1871 68.2808 35.169 68.07C35.1147 67.5414 34.5325 67.0144 34.5 66.5C34.4747 65.7106 34.3264 65.2553 34.0046 64.523Z" fill="#0089A9"/>
<path d="M27.5733 64.044C26.9305 65.8569 26.6175 67.7798 26.3078 69.6885L25.5818 74.1692C25.34 75.4286 25.2051 76.7086 25.1789 77.9937C25.1996 78.3502 25.1761 78.7081 25.1089 79.058C24.9526 79.5004 24.7445 79.9199 24.4895 80.3068C24.0462 81.1561 23.8976 82.1446 24.0699 83.0989C24.1465 83.4998 24.3497 83.9539 24.736 84C24.8941 83.994 25.0481 83.9444 25.1829 83.8561C25.3177 83.7678 25.4288 83.6438 25.5052 83.4962C25.8935 82.8446 26.1677 82.1234 26.3145 81.3676C26.9173 78.9233 27.3382 76.4322 27.5733 73.9173C27.5942 73.6002 27.6354 73.2849 27.6965 72.9737C27.7766 72.6515 27.879 72.336 28.0028 72.03L28.8354 69.8339C29.4344 68.1208 30.1581 66.4601 31 64.8671C30.1308 64.601 29.225 64.2888 28.3558 64.0227C28.0955 63.9864 27.8315 63.9936 27.5733 64.044Z" fill="#E6D3C2"/>
<path d="M31.3208 56.5461C30.5216 58.0351 28.9898 58.0971 28.3238 57.942C27.3248 57.3216 25.9262 55.1503 28.3238 53.2891C29.5226 52.3585 30.6342 52.0734 31.5 52.4999C32.6156 52.655 34.9319 53.7082 34 56.5C34 55.5694 33.1191 55.1101 32.3199 55.3347C32.0048 55.5462 31.6569 55.92 31.3208 56.5461Z" fill="#46413B"/>
<circle cx="29" cy="54" r="2" fill="#46413B"/>
<circle cx="31" cy="53" r="2" fill="#46413B"/>
<circle cx="32.5" cy="53.5" r="1.5" fill="#46413B"/>
</g>
<defs>
<linearGradient id="paint0_linear_544_33011" x1="152" y1="89" x2="147.066" y2="90.8538" gradientUnits="userSpaceOnUse">
<stop stop-color="#88319C"/>
<stop offset="1" stop-color="#A79280"/>
</linearGradient>
<linearGradient id="paint1_linear_544_33011" x1="151" y1="88" x2="128.605" y2="108.57" gradientUnits="userSpaceOnUse">
<stop stop-color="#88319C"/>
<stop offset="1" stop-color="#A79280"/>
</linearGradient>
<linearGradient id="paint2_linear_544_33011" x1="141" y1="90" x2="137.828" y2="93.7082" gradientUnits="userSpaceOnUse">
<stop stop-color="#88319C"/>
<stop offset="1" stop-color="#A79280"/>
</linearGradient>
<clipPath id="clip0_544_33011">
<rect width="368" height="112" fill="white"/>
</clipPath>
</defs>
</svg>
