<svg width="228" height="228" viewBox="0 0 228 228" fill="none" xmlns="http://www.w3.org/2000/svg">
<mask id="path-1-outside-1_632_42801" maskUnits="userSpaceOnUse" x="2" y="110" width="116" height="116" fill="black">
<rect fill="white" x="2" y="110" width="116" height="116"/>
<path d="M116 224C86.2958 224 57.8081 212.2 36.8041 191.196C15.8 170.192 4.00002 141.704 4 112L116 112L116 224Z"/>
</mask>
<path d="M116 224C86.2958 224 57.8081 212.2 36.8041 191.196C15.8 170.192 4.00002 141.704 4 112L116 112L116 224Z" stroke="#0089A9" stroke-width="4" stroke-linejoin="round" mask="url(#path-1-outside-1_632_42801)"/>
<g filter="url(#filter0_d_632_42801)">
<rect x="4" width="224" height="224" rx="112" fill="#A79280"/>
<rect x="12" y="8" width="208" height="208" rx="104" stroke="white" stroke-width="16" stroke-linejoin="round"/>
</g>
<circle cx="116.5" cy="111.5" r="90.5" stroke="#EFEBE7" stroke-width="2" stroke-linecap="round" stroke-linejoin="round"/>
<g clip-path="url(#clip0_632_42801)">
<path d="M118.365 115.964C102.788 110.083 71.8408 97.3367 71.0173 96.6802C73.2818 92.7825 76.3697 88.6796 85.6333 73.2938C103.749 49.497 113.218 47.4373 118.159 47.2404C128.452 46.8301 132.569 53.3947 133.187 56.8822C132.981 61.1902 132.157 72.3501 130.511 82.5253C128.864 92.7004 121.727 109.057 118.365 115.964Z" fill="#FFF5ED"/>
<path d="M71.0173 96.6802L70.585 96.429L70.3682 96.8022L70.7056 97.0712L71.0173 96.6802ZM118.365 115.964L118.188 116.432L118.615 116.593L118.814 116.183L118.365 115.964ZM130.511 82.5253L130.017 82.4454L130.511 82.5253ZM133.187 56.8822L133.686 56.9061L133.689 56.8501L133.679 56.795L133.187 56.8822ZM118.159 47.2404L118.179 47.74L118.159 47.2404ZM85.6333 73.2938L85.2355 72.9909L85.219 73.0125L85.205 73.0358L85.6333 73.2938ZM70.7056 97.0712C70.7748 97.1263 70.8726 97.1793 70.9495 97.2196C71.041 97.2675 71.1588 97.3254 71.2992 97.3921C71.5809 97.5257 71.9678 97.7012 72.447 97.9133C73.4062 98.3378 74.7464 98.9138 76.3775 99.6037C79.6405 100.984 84.0748 102.823 88.9693 104.826C98.7574 108.83 110.393 113.489 118.188 116.432L118.541 115.496C110.76 112.558 99.1336 107.903 89.348 103.9C84.4556 101.899 80.0252 100.061 76.7671 98.6827C75.1377 97.9935 73.8034 97.4201 72.8517 96.9989C72.3754 96.7881 71.9978 96.6167 71.728 96.4886C71.5928 96.4245 71.4882 96.3728 71.4133 96.3336C71.3238 96.2868 71.3114 96.2752 71.329 96.2893L70.7056 97.0712ZM118.814 116.183C120.501 112.718 123.132 106.889 125.547 100.651C127.96 94.4201 130.172 87.7468 131.004 82.6051L130.017 82.4454C129.202 87.4789 127.023 94.0715 124.615 100.29C122.21 106.5 119.591 112.303 117.915 115.745L118.814 116.183ZM131.004 82.6051C132.655 72.4058 133.48 61.2262 133.686 56.9061L132.687 56.8583C132.482 61.1543 131.66 72.2944 130.017 82.4454L131.004 82.6051ZM133.679 56.795C133.022 53.0831 128.703 46.3197 118.139 46.7408L118.179 47.74C128.201 47.3405 132.117 53.7064 132.694 56.9694L133.679 56.795ZM118.139 46.7408C115.582 46.8427 111.889 47.4334 106.559 51.0017C101.246 54.5581 94.311 61.0692 85.2355 72.9909L86.0311 73.5966C95.0712 61.7216 101.929 55.3044 107.115 51.8326C112.283 48.3726 115.796 47.835 118.179 47.74L118.139 46.7408ZM85.205 73.0358C80.576 80.7241 77.4908 85.592 75.2803 89.0243C73.0743 92.4495 71.7249 94.467 70.585 96.429L71.4497 96.9314C72.5742 94.9957 73.901 93.0129 76.121 89.5657C78.3364 86.1257 81.427 81.2493 86.0617 73.5517L85.205 73.0358Z" fill="#070606"/>
<path d="M100.043 57.0873C118.639 38.8295 133.187 50.3176 133.187 58.113C128.04 98.3214 119.806 105.091 116.718 107.963C116.389 106.322 114.934 103.587 114.248 102.424C113.15 100.099 111.705 91.3464 118.777 91.3464C117.747 85.8075 121.659 83.1407 123.717 82.1149C121.453 78.901 116.841 71.7346 122.276 67.96C121.343 67.3877 120.023 66.1007 119.188 64.1342C116.375 65.7513 110.007 67.96 107.043 63.8571C106.974 65.2247 105.478 68.2882 100.043 69.6011C101.073 72.9518 100.126 78.9557 88.1036 76.1658C88.7585 79.1062 88.6048 85.4793 82.7513 87.4487C80.3545 87.9999 76.9009 88.3536 73.0117 93.6088C72.5717 94.2686 72.1133 94.95 71.6349 95.6544C72.0991 94.9006 72.5584 94.2214 73.0117 93.6088C85.2571 75.246 83.2262 73.5988 100.043 57.0873Z" fill="url(#paint0_linear_632_42801)"/>
<path d="M133.187 58.113L133.683 58.1765L133.687 58.1449V58.113H133.187ZM100.043 57.0873L99.6931 56.7305L100.043 57.0873ZM71.6349 95.6544L71.2091 95.3923L72.0485 95.9353L71.6349 95.6544ZM114.248 102.424L113.796 102.638L113.805 102.659L113.817 102.678L114.248 102.424ZM118.777 91.3464V91.8464H119.378L119.268 91.2551L118.777 91.3464ZM123.717 82.1149L123.94 82.5625L124.461 82.3028L124.126 81.827L123.717 82.1149ZM122.276 67.96L122.561 68.3706L123.19 67.9339L122.538 67.5337L122.276 67.96ZM119.188 64.1342L119.649 63.9388L119.649 63.9388L119.188 64.1342ZM118.777 57.0873L119.262 57.2059L118.294 56.9578L118.777 57.0873ZM107.043 63.8571L107.448 63.5643L106.615 62.4109L106.543 63.832L107.043 63.8571ZM100.043 69.6011L99.926 69.1151L99.4094 69.2399L99.5654 69.748L100.043 69.6011ZM88.1036 76.1658L88.2166 75.6787L87.4429 75.4991L87.6155 76.2744L88.1036 76.1658ZM82.7513 87.4487L82.8633 87.936L82.8873 87.9305L82.9107 87.9226L82.7513 87.4487ZM116.718 107.963L116.228 108.062L116.404 108.938L117.058 108.329L116.718 107.963ZM133.687 58.113C133.687 53.9376 129.844 48.9546 123.715 47.3466C117.534 45.7246 109.075 47.5191 99.6931 56.7305L100.394 57.4441C109.608 48.3978 117.72 46.8073 123.462 48.3138C129.256 49.8342 132.687 54.493 132.687 58.113H133.687ZM99.6931 56.7305C82.8268 73.2902 84.7966 75.0353 72.5957 93.3314L73.4277 93.8862C85.7177 75.4566 83.6256 73.9073 100.394 57.4441L99.6931 56.7305ZM72.5957 93.3314C72.1565 93.99 71.6989 94.6702 71.2213 95.3735L72.0485 95.9353C72.5277 95.2298 72.9869 94.5472 73.4277 93.8862L72.5957 93.3314ZM114.7 102.211C114.19 101.131 113.574 98.4625 113.942 96.0903C114.125 94.9134 114.544 93.8583 115.288 93.1008C116.021 92.3547 117.12 91.8464 118.777 91.8464V90.8464C116.897 90.8464 115.525 91.4322 114.574 92.4C113.635 93.3563 113.157 94.6347 112.954 95.9366C112.552 98.5221 113.207 101.392 113.796 102.638L114.7 102.211ZM119.268 91.2551C118.78 88.63 119.462 86.7186 120.49 85.3367C121.531 83.9381 122.945 83.0581 123.94 82.5625L123.494 81.6674C122.43 82.1975 120.86 83.1638 119.688 84.7398C118.503 86.3325 117.743 88.524 118.285 91.4378L119.268 91.2551ZM124.126 81.827C122.995 80.2213 121.322 77.687 120.59 75.1112C120.226 73.828 120.106 72.5695 120.377 71.4273C120.644 70.2991 121.3 69.2468 122.561 68.3706L121.991 67.5493C120.535 68.5605 119.73 69.8194 119.404 71.197C119.081 72.5606 119.236 74.0023 119.628 75.3843C120.41 78.1388 122.175 80.7946 123.308 82.4029L124.126 81.827ZM122.538 67.5337C121.693 67.0157 120.442 65.8092 119.649 63.9388L118.728 64.3295C119.603 66.3921 120.993 67.7597 122.015 68.3862L122.538 67.5337ZM119.649 63.9388C119.465 63.5069 119.306 63.04 119.183 62.5383L118.212 62.7781C118.349 63.3328 118.525 63.8501 118.728 64.3295L119.649 63.9388ZM119.183 62.5383C118.863 61.2448 118.774 59.7129 119.103 57.9452L118.12 57.7621C117.765 59.668 117.858 61.3441 118.212 62.7781L119.183 62.5383ZM119.103 57.9452C119.148 57.7033 119.201 57.4568 119.262 57.2059L118.291 56.9687C118.225 57.2374 118.168 57.5018 118.12 57.7621L119.103 57.9452ZM118.294 56.9578C118.233 57.1826 118.173 57.4567 118.119 57.7683L119.104 57.9391C119.154 57.6526 119.208 57.4084 119.259 57.2169L118.294 56.9578ZM118.119 57.7683C117.904 59.0071 117.777 60.9161 118.21 62.7718L119.184 62.5446C118.791 60.8607 118.904 59.0951 119.104 57.9391L118.119 57.7683ZM118.21 62.7718C118.334 63.3015 118.504 63.8299 118.732 64.3389L119.644 63.9294C119.446 63.487 119.295 63.0206 119.184 62.5446L118.21 62.7718ZM118.939 63.7007C117.574 64.4852 115.346 65.4111 113.12 65.6434C110.896 65.8754 108.782 65.4108 107.448 63.5643L106.637 64.1499C108.268 66.4062 110.82 66.8888 113.224 66.638C115.626 66.3873 117.989 65.4003 119.437 64.5677L118.939 63.7007ZM106.543 63.832C106.489 64.9189 105.209 67.8388 99.926 69.1151L100.161 70.0872C105.747 68.7377 107.459 65.5306 107.542 63.8821L106.543 63.832ZM99.5654 69.748C100.055 71.3402 100.036 73.4458 98.6187 74.8282C97.1987 76.2132 94.1845 77.0636 88.2166 75.6787L87.9906 76.6528C94.0449 78.0578 97.5152 77.3013 99.3169 75.5441C101.121 73.7845 101.062 71.2128 100.521 69.4543L99.5654 69.748ZM87.6155 76.2744C87.9285 77.6794 88.0475 79.9166 87.3908 82.0225C86.7405 84.1078 85.3381 86.0508 82.5918 86.9748L82.9107 87.9226C86.018 86.8772 87.6192 84.649 88.3454 82.3202C89.0652 80.0121 88.9336 77.5925 88.5916 76.0571L87.6155 76.2744ZM82.6392 86.9614C81.4746 87.2292 79.9356 87.4693 78.2198 88.3164C76.491 89.17 74.5959 90.6277 72.6098 93.3114L73.4136 93.9062C75.3168 91.3346 77.0931 89.9879 78.6625 89.2131C80.245 88.4317 81.6312 88.2193 82.8633 87.936L82.6392 86.9614ZM72.6098 93.3114C72.1474 93.9362 71.6802 94.6272 71.2091 95.3923L72.0606 95.9166C72.518 95.1739 72.9693 94.5066 73.4136 93.9062L72.6098 93.3114ZM113.817 102.678C114.153 103.248 114.681 104.209 115.165 105.228C115.653 106.258 116.076 107.305 116.228 108.062L117.208 107.865C117.031 106.98 116.561 105.839 116.068 104.8C115.571 103.751 115.028 102.763 114.678 102.17L113.817 102.678ZM117.058 108.329C117.827 107.614 118.951 106.626 120.266 104.922C121.581 103.219 123.08 100.811 124.639 97.2391C127.753 90.1015 131.106 78.3054 133.683 58.1765L132.691 58.0495C130.121 78.129 126.784 89.8219 123.722 96.8392C122.193 100.345 120.733 102.681 119.474 104.311C118.217 105.941 117.153 106.876 116.377 107.597L117.058 108.329Z" fill="#070606"/>
<path d="M87.8978 150.223C67.3119 150.223 61.4106 142.154 58.46 137.299L115.483 138.53C107.66 147.966 104.161 150.223 87.8978 150.223Z" fill="url(#paint1_linear_632_42801)"/>
<path d="M58.46 137.299L58.4708 136.799L57.5591 136.779L58.0327 137.559L58.46 137.299ZM115.483 138.53L115.868 138.849L116.528 138.052L115.494 138.03L115.483 138.53ZM58.0327 137.559C59.5267 140.017 61.7915 143.327 66.3103 146.011C70.824 148.693 77.54 150.723 87.8978 150.723V149.723C77.6696 149.723 71.1421 147.719 66.821 145.152C62.505 142.588 60.3439 139.436 58.8872 137.039L58.0327 137.559ZM87.8978 150.723C96.0346 150.723 101.07 150.162 105.06 148.371C109.061 146.576 111.955 143.569 115.868 138.849L115.098 138.211C111.188 142.927 108.421 145.767 104.651 147.459C100.87 149.155 96.0238 149.723 87.8978 149.723V150.723ZM115.494 138.03L58.4708 136.799L58.4492 137.799L115.472 139.03L115.494 138.03Z" fill="#070606"/>
<path d="M71.8407 95.2442C76.2873 88.1872 79.4575 88.2693 83.163 87.4487C105.725 87.4487 114.934 101.125 116.718 107.963C127.258 98.4445 132.157 70.0114 133.187 57.2925C135.245 75.9606 126.599 118.426 119.188 132.786C111.777 147.146 103.749 146.12 78.0165 146.12C57.4306 146.12 55.7151 132.991 57.4306 126.426C60.3813 118.973 67.3942 102.301 71.8407 95.2442Z" fill="#E6D3C2"/>
<path d="M83.163 87.4487V86.9487H83.1083L83.0549 86.9605L83.163 87.4487ZM57.4306 126.426L56.9657 126.242L56.9545 126.27L56.9469 126.3L57.4306 126.426ZM119.188 132.786L118.744 132.556L119.188 132.786ZM133.187 57.2925L133.684 57.2377L132.688 57.2521L133.187 57.2925ZM116.718 107.963L116.234 108.089L116.442 108.886L117.053 108.334L116.718 107.963ZM83.0549 86.9605C81.2624 87.3575 79.4355 87.5601 77.5448 88.5664C75.6312 89.5849 73.6693 91.4041 71.4177 94.9776L72.2638 95.5107C74.4587 92.0273 76.3052 90.3591 78.0147 89.4492C79.7471 88.5271 81.358 88.3605 83.2711 87.9369L83.0549 86.9605ZM71.4177 94.9776C66.9419 102.081 59.9126 118.798 56.9657 126.242L57.8955 126.61C60.8499 119.147 67.8465 102.521 72.2638 95.5107L71.4177 94.9776ZM56.9469 126.3C56.0643 129.677 56.0555 134.76 58.947 139.016C61.8562 143.298 67.6161 146.62 78.0165 146.62V145.62C67.831 145.62 62.4402 142.378 59.7741 138.454C57.0902 134.504 57.0815 129.74 57.9144 126.553L56.9469 126.3ZM78.0165 146.62C84.4401 146.62 89.7809 146.684 94.2775 146.556C98.7747 146.427 102.466 146.106 105.594 145.323C108.733 144.538 111.311 143.287 113.577 141.304C115.837 139.325 117.763 136.637 119.633 133.015L118.744 132.556C116.908 136.114 115.051 138.683 112.918 140.551C110.79 142.414 108.363 143.599 105.352 144.353C102.33 145.109 98.726 145.428 94.249 145.556C89.7714 145.684 84.4591 145.62 78.0165 145.62V146.62ZM119.633 133.015C123.373 125.767 127.398 111.501 130.23 96.7488C133.062 81.9962 134.722 66.6507 133.684 57.2377L132.69 57.3473C133.71 66.6024 132.077 81.8234 129.247 96.5603C126.418 111.298 122.414 125.444 118.744 132.556L119.633 133.015ZM132.688 57.2521C132.176 63.5859 130.698 73.8433 128.036 83.6975C126.705 88.6242 125.081 93.439 123.14 97.6077C121.195 101.782 118.947 105.276 116.383 107.592L117.053 108.334C119.759 105.891 122.075 102.261 124.046 98.0299C126.02 93.7928 127.661 88.9196 129.001 83.9583C131.682 74.0366 133.168 63.718 133.685 57.3328L132.688 57.2521ZM117.202 107.837C115.364 100.792 105.967 86.9487 83.163 86.9487V87.9487C105.484 87.9487 114.504 101.458 116.234 108.089L117.202 107.837Z" fill="#070606"/>
<path d="M101.599 94.2001L101.403 94.66L101.599 94.2001ZM115.598 113.484L115.102 113.548C115.125 113.73 115.246 113.884 115.417 113.95C115.588 114.016 115.782 113.983 115.921 113.865L115.598 113.484ZM75.2885 92.3938C75.5312 92.262 75.621 91.9585 75.4892 91.7158C75.3574 91.4732 75.0539 91.3833 74.8112 91.5151L75.2885 92.3938ZM78.2459 89.9557C77.9837 90.0424 77.8414 90.3252 77.9281 90.5874C78.0147 90.8496 78.2976 90.9919 78.5597 90.9052L78.2459 89.9557ZM82.0557 90.1948C82.3308 90.1699 82.5336 89.9268 82.5087 89.6518C82.4839 89.3768 82.2408 89.174 81.9657 89.1988L82.0557 90.1948ZM85.7341 89.1948C85.4588 89.1733 85.2182 89.3791 85.1968 89.6544C85.1753 89.9297 85.3811 90.1703 85.6564 90.1918L85.7341 89.1948ZM89.2456 90.6947C89.5166 90.7478 89.7793 90.5712 89.8324 90.3002C89.8855 90.0292 89.7089 89.7665 89.4379 89.7134L89.2456 90.6947ZM93.0603 90.5877C92.7946 90.5125 92.5183 90.6669 92.4431 90.9326C92.3679 91.1983 92.5223 91.4747 92.788 91.5499L93.0603 90.5877ZM96.2775 92.659C96.5381 92.7502 96.8233 92.6129 96.9146 92.3523C97.0059 92.0917 96.8686 91.8064 96.608 91.7152L96.2775 92.659ZM100.08 93.0271C99.8236 92.9237 99.5322 93.0474 99.4288 93.3034C99.3253 93.5595 99.4491 93.8509 99.7051 93.9543L100.08 93.0271ZM103.225 95.5431C103.467 95.6754 103.771 95.5861 103.903 95.3437C104.035 95.1013 103.946 94.7976 103.704 94.6653L103.225 95.5431ZM107.209 97.0476C106.997 96.871 106.682 96.8999 106.505 97.1122C106.328 97.3245 106.357 97.6398 106.57 97.8164L107.209 97.0476ZM109.425 100.685C109.602 100.897 109.917 100.927 110.129 100.75C110.342 100.574 110.371 100.259 110.195 100.046L109.425 100.685ZM112.607 103.515C112.469 103.276 112.163 103.195 111.924 103.334C111.685 103.473 111.604 103.779 111.743 104.017L112.607 103.515ZM113.515 107.68C113.617 107.937 113.907 108.062 114.164 107.96C114.421 107.859 114.546 107.568 114.445 107.311L113.515 107.68ZM115.709 111.336C115.646 111.067 115.378 110.9 115.109 110.962C114.84 111.025 114.672 111.293 114.735 111.562L115.709 111.336ZM117.507 112.393C117.701 112.197 117.7 111.881 117.504 111.686C117.308 111.492 116.991 111.493 116.797 111.689L117.507 112.393ZM119.503 108.519C119.338 108.741 119.385 109.054 119.607 109.219C119.828 109.383 120.142 109.337 120.306 109.115L119.503 108.519ZM122.663 105.521C122.802 105.282 122.721 104.976 122.482 104.837C122.244 104.698 121.938 104.779 121.799 105.018L122.663 105.521ZM123.745 101.296C123.628 101.546 123.735 101.843 123.985 101.961C124.235 102.079 124.532 101.971 124.65 101.721L123.745 101.296ZM126.332 97.7858C126.432 97.5284 126.304 97.2387 126.046 97.1388C125.789 97.0389 125.499 97.1666 125.399 97.424L126.332 97.7858ZM126.809 93.4496C126.724 93.7123 126.868 93.9943 127.13 94.0794C127.393 94.1644 127.675 94.0205 127.76 93.7577L126.809 93.4496ZM128.976 89.6658C129.048 89.3994 128.891 89.1246 128.625 89.0521C128.358 88.9795 128.083 89.1367 128.011 89.4032L128.976 89.6658ZM129.036 85.3055C128.974 85.5747 129.142 85.8429 129.411 85.9046C129.68 85.9663 129.949 85.7982 130.01 85.529L129.036 85.3055ZM130.888 81.3586C130.941 81.0874 130.763 80.8252 130.492 80.773C130.221 80.7207 129.959 80.8981 129.906 81.1693L130.888 81.3586ZM130.641 77.0049C130.598 77.2775 130.783 77.5341 131.056 77.578C131.328 77.6219 131.585 77.4364 131.629 77.1638L130.641 77.0049ZM132.247 72.9476C132.283 72.6738 132.09 72.4225 131.817 72.3861C131.543 72.3498 131.292 72.5423 131.255 72.816L132.247 72.9476ZM131.759 68.6068C131.73 68.8813 131.928 69.1277 132.203 69.1571C132.477 69.1865 132.724 68.9878 132.753 68.7132L131.759 68.6068ZM133.156 64.4847C133.179 64.2096 132.974 63.9678 132.699 63.9448C132.424 63.9218 132.182 64.1263 132.159 64.4014L133.156 64.4847ZM132.468 60.1632C132.451 60.4388 132.66 60.6763 132.936 60.6938C133.211 60.7112 133.449 60.5019 133.466 60.2263L132.468 60.1632ZM73.5684 93.2337C74.1157 93.0333 74.686 92.7211 75.2885 92.3938L74.8112 91.5151C74.1882 91.8535 73.6884 92.1248 73.2246 92.2946L73.5684 93.2337ZM78.5597 90.9052C79.5371 90.5821 80.6825 90.3188 82.0557 90.1948L81.9657 89.1988C80.5135 89.33 79.2931 89.6096 78.2459 89.9557L78.5597 90.9052ZM85.6564 90.1918C86.7424 90.2765 87.9342 90.4377 89.2456 90.6947L89.4379 89.7134C88.0918 89.4495 86.8617 89.2827 85.7341 89.1948L85.6564 90.1918ZM92.788 91.5499C93.8818 91.8594 95.0432 92.2267 96.2775 92.659L96.608 91.7152C95.3559 91.2767 94.175 90.9031 93.0603 90.5877L92.788 91.5499ZM99.7051 93.9543C100.258 94.1777 100.824 94.4128 101.403 94.66L101.796 93.7403C101.211 93.4906 100.639 93.253 100.08 93.0271L99.7051 93.9543ZM101.403 94.66C102.038 94.9311 102.645 95.2266 103.225 95.5431L103.704 94.6653C103.096 94.3336 102.46 94.0242 101.796 93.7403L101.403 94.66ZM106.57 97.8164C107.642 98.7083 108.589 99.6764 109.425 100.685L110.195 100.046C109.323 98.9943 108.332 97.9819 107.209 97.0476L106.57 97.8164ZM111.743 104.017C112.463 105.257 113.047 106.498 113.515 107.68L114.445 107.311C113.96 106.088 113.355 104.802 112.607 103.515L111.743 104.017ZM114.735 111.562C114.912 112.322 115.03 112.994 115.102 113.548L116.093 113.42C116.017 112.83 115.892 112.125 115.709 111.336L114.735 111.562ZM115.921 113.865C116.467 113.401 116.996 112.909 117.507 112.393L116.797 111.689C116.304 112.186 115.797 112.658 115.274 113.103L115.921 113.865ZM120.306 109.115C121.145 107.984 121.93 106.781 122.663 105.521L121.799 105.018C121.082 106.249 120.318 107.421 119.503 108.519L120.306 109.115ZM124.65 101.721C125.251 100.445 125.81 99.1288 126.332 97.7858L125.399 97.424C124.886 98.7474 124.335 100.042 123.745 101.296L124.65 101.721ZM127.76 93.7577C128.198 92.4053 128.602 91.0377 128.976 89.6658L128.011 89.4032C127.641 90.7611 127.241 92.1135 126.809 93.4496L127.76 93.7577ZM130.01 85.529C130.332 84.1282 130.623 82.7342 130.888 81.3586L129.906 81.1693C129.643 82.5344 129.354 83.917 129.036 85.3055L130.01 85.529ZM131.629 77.1638C131.862 75.7172 132.066 74.3068 132.247 72.9476L131.255 72.816C131.076 74.1669 130.873 75.5682 130.641 77.0049L131.629 77.1638ZM132.753 68.7132C132.916 67.1904 133.048 65.7713 133.156 64.4847L132.159 64.4014C132.052 65.6813 131.921 67.0927 131.759 68.6068L132.753 68.7132ZM133.466 60.2263C133.521 59.3658 133.562 58.6386 133.595 58.126L132.597 58.0634C132.563 58.5979 132.523 59.2881 132.468 60.1632L133.466 60.2263Z" fill="#070606"/>
<path d="M153.567 141.204C137.99 135.324 107.043 122.577 106.219 121.921C108.484 118.023 111.572 113.92 120.835 98.5344C138.951 74.7376 148.421 72.6779 153.361 72.481C163.654 72.0707 167.771 78.6353 168.389 82.1228C168.183 86.4308 167.36 97.5907 165.713 107.766C164.066 117.941 156.929 134.298 153.567 141.204Z" fill="#FFF5ED"/>
<path d="M106.219 121.921L105.787 121.67L105.57 122.043L105.908 122.312L106.219 121.921ZM153.567 141.204L153.39 141.672L153.817 141.833L154.017 141.423L153.567 141.204ZM165.713 107.766L165.219 107.686L165.713 107.766ZM168.389 82.1228L168.888 82.1467L168.891 82.0907L168.881 82.0356L168.389 82.1228ZM153.361 72.481L153.381 72.9806L153.361 72.481ZM120.835 98.5344L120.438 98.2315L120.421 98.2531L120.407 98.2765L120.835 98.5344ZM105.908 122.312C105.977 122.367 106.075 122.42 106.152 122.46C106.243 122.508 106.361 122.566 106.501 122.633C106.783 122.766 107.17 122.942 107.649 123.154C108.608 123.578 109.949 124.154 111.58 124.844C114.843 126.225 119.277 128.064 124.171 130.066C133.96 134.07 145.596 138.729 153.39 141.672L153.744 140.737C145.962 137.799 134.336 133.144 124.55 129.141C119.658 127.139 115.227 125.301 111.969 123.923C110.34 123.234 109.006 122.661 108.054 122.239C107.578 122.029 107.2 121.857 106.93 121.729C106.795 121.665 106.69 121.613 106.615 121.574C106.526 121.527 106.514 121.516 106.531 121.53L105.908 122.312ZM154.017 141.423C155.703 137.959 158.334 132.13 160.749 125.891C163.162 119.661 165.374 112.987 166.206 107.846L165.219 107.686C164.404 112.719 162.225 119.312 159.817 125.53C157.412 131.741 154.793 137.544 153.117 140.986L154.017 141.423ZM166.206 107.846C167.857 97.6464 168.682 86.4668 168.888 82.1467L167.889 82.0989C167.684 86.3949 166.862 97.535 165.219 107.686L166.206 107.846ZM168.881 82.0356C168.224 78.3237 163.905 71.5603 153.341 71.9814L153.381 72.9806C163.403 72.5811 167.319 78.947 167.896 82.21L168.881 82.0356ZM153.341 71.9814C150.784 72.0833 147.091 72.674 141.761 76.2423C136.448 79.7987 129.513 86.3098 120.438 98.2315L121.233 98.8372C130.273 86.9622 137.131 80.545 142.317 77.0732C147.486 73.6132 150.998 73.0756 153.381 72.9806L153.341 71.9814ZM120.407 98.2765C115.778 105.965 112.693 110.833 110.482 114.265C108.276 117.69 106.927 119.708 105.787 121.67L106.652 122.172C107.776 120.236 109.103 118.253 111.323 114.806C113.539 111.366 116.629 106.49 121.264 98.7923L120.407 98.2765Z" fill="#070606"/>
<path d="M135.246 82.3279C153.841 64.0701 168.389 75.5582 168.389 83.3536C163.242 123.562 155.008 130.332 151.92 133.204C151.591 131.563 150.136 128.827 149.45 127.665C148.352 125.34 146.907 116.587 153.979 116.587C152.949 111.048 156.861 108.381 158.919 107.356C156.655 104.142 152.044 96.9752 157.478 93.2006C156.545 92.6283 155.225 91.3413 154.39 89.3748C151.577 90.9919 145.209 93.2006 142.245 89.0977C142.176 90.4653 140.68 93.5288 135.246 94.8417C136.275 98.1924 135.328 104.196 123.306 101.406C123.961 104.347 123.807 110.72 117.953 112.689C115.557 113.24 112.103 113.594 108.214 118.849C107.774 119.509 107.315 120.191 106.837 120.895C107.301 120.141 107.761 119.462 108.214 118.849C120.459 100.487 118.428 98.8394 135.246 82.3279Z" fill="url(#paint2_linear_632_42801)"/>
<path d="M168.389 83.3536L168.885 83.4171L168.889 83.3855V83.3536H168.389ZM135.246 82.3279L135.596 82.6847L135.246 82.3279ZM106.837 120.895L106.411 120.633L107.251 121.176L106.837 120.895ZM149.45 127.665L148.998 127.878L149.008 127.899L149.019 127.919L149.45 127.665ZM153.979 116.587V117.087H154.58L154.47 116.496L153.979 116.587ZM158.919 107.356L159.142 107.803L159.663 107.543L159.328 107.068L158.919 107.356ZM157.478 93.2006L157.764 93.6112L158.392 93.1745L157.74 92.7743L157.478 93.2006ZM154.39 89.3748L154.851 89.1794V89.1794L154.39 89.3748ZM153.979 82.3279L154.464 82.4465L153.496 82.1984L153.979 82.3279ZM142.245 89.0977L142.65 88.8049L141.817 87.6515L141.745 89.0726L142.245 89.0977ZM135.246 94.8417L135.128 94.3557L134.612 94.4805L134.768 94.9886L135.246 94.8417ZM123.306 101.406L123.419 100.919L122.645 100.74L122.818 101.515L123.306 101.406ZM117.953 112.689L118.065 113.177L118.089 113.171L118.113 113.163L117.953 112.689ZM151.92 133.204L151.43 133.302L151.606 134.179L152.261 133.57L151.92 133.204ZM168.889 83.3536C168.889 79.1782 165.046 74.1952 158.918 72.5872C152.736 70.9652 144.277 72.7597 134.895 81.9711L135.596 82.6847C144.81 73.6384 152.922 72.0479 158.664 73.5544C164.458 75.0748 167.889 79.7336 167.889 83.3536H168.889ZM134.895 81.9711C118.029 98.5308 119.999 100.276 107.798 118.572L108.63 119.127C120.92 100.697 118.828 99.1479 135.596 82.6847L134.895 81.9711ZM107.798 118.572C107.359 119.231 106.901 119.911 106.423 120.614L107.251 121.176C107.73 120.47 108.189 119.788 108.63 119.127L107.798 118.572ZM149.902 127.451C149.392 126.372 148.776 123.703 149.145 121.331C149.328 120.154 149.746 119.099 150.49 118.341C151.223 117.595 152.322 117.087 153.979 117.087V116.087C152.099 116.087 150.727 116.673 149.777 117.641C148.837 118.597 148.359 119.875 148.156 121.177C147.754 123.763 148.41 126.633 148.998 127.878L149.902 127.451ZM154.47 116.496C153.982 113.871 154.664 111.959 155.692 110.577C156.733 109.179 158.148 108.299 159.142 107.803L158.696 106.908C157.632 107.438 156.062 108.404 154.89 109.98C153.705 111.573 152.946 113.765 153.487 116.678L154.47 116.496ZM159.328 107.068C158.197 105.462 156.524 102.928 155.793 100.352C155.428 99.0686 155.308 97.8101 155.579 96.6679C155.846 95.5397 156.502 94.4874 157.764 93.6112L157.193 92.7899C155.737 93.8011 154.932 95.0601 154.606 96.4376C154.283 97.8012 154.438 99.2429 154.831 100.625C155.613 103.379 157.377 106.035 158.511 107.644L159.328 107.068ZM157.74 92.7743C156.895 92.2563 155.645 91.0498 154.851 89.1794L153.93 89.5701C154.806 91.6327 156.195 93.0003 157.217 93.6268L157.74 92.7743ZM154.851 89.1794C154.667 88.7475 154.509 88.2806 154.385 87.7789L153.414 88.0187C153.551 88.5734 153.727 89.0907 153.93 89.5701L154.851 89.1794ZM154.385 87.7789C154.065 86.4854 153.976 84.9535 154.305 83.1858L153.322 83.0027C152.967 84.9086 153.06 86.5847 153.414 88.0187L154.385 87.7789ZM154.305 83.1858C154.35 82.9439 154.403 82.6974 154.464 82.4465L153.493 82.2094C153.427 82.478 153.371 82.7425 153.322 83.0028L154.305 83.1858ZM153.496 82.1984C153.435 82.4232 153.375 82.6973 153.321 83.0089L154.306 83.1797C154.356 82.8932 154.41 82.649 154.462 82.4575L153.496 82.1984ZM153.321 83.0089C153.106 84.2477 152.979 86.1567 153.412 88.0124L154.386 87.7852C153.993 86.1013 154.106 84.3357 154.306 83.1797L153.321 83.0089ZM153.412 88.0124C153.536 88.5421 153.706 89.0705 153.934 89.5795L154.847 89.17C154.648 88.7276 154.497 88.2612 154.386 87.7852L153.412 88.0124ZM154.141 88.9413C152.776 89.7258 150.548 90.6517 148.322 90.884C146.098 91.116 143.984 90.6514 142.65 88.8049L141.839 89.3905C143.47 91.6468 146.022 92.1294 148.426 91.8786C150.828 91.6279 153.191 90.6409 154.64 89.8083L154.141 88.9413ZM141.745 89.0726C141.691 90.1595 140.411 93.0794 135.128 94.3557L135.363 95.3278C140.949 93.9783 142.661 90.7712 142.744 89.1228L141.745 89.0726ZM134.768 94.9886C135.257 96.5808 135.238 98.6864 133.821 100.069C132.401 101.454 129.387 102.304 123.419 100.919L123.193 101.893C129.247 103.298 132.717 102.542 134.519 100.785C136.323 99.0251 136.264 96.4534 135.724 94.6949L134.768 94.9886ZM122.818 101.515C123.131 102.92 123.25 105.157 122.593 107.263C121.943 109.348 120.54 111.291 117.794 112.215L118.113 113.163C121.22 112.118 122.821 109.89 123.548 107.561C124.267 105.253 124.136 102.833 123.794 101.298L122.818 101.515ZM117.841 112.202C116.677 112.47 115.138 112.71 113.422 113.557C111.693 114.411 109.798 115.868 107.812 118.552L108.616 119.147C110.519 116.575 112.295 115.229 113.865 114.454C115.447 113.672 116.833 113.46 118.065 113.177L117.841 112.202ZM107.812 118.552C107.35 119.177 106.882 119.868 106.411 120.633L107.263 121.157C107.72 120.415 108.171 119.747 108.616 119.147L107.812 118.552ZM149.019 127.919C149.356 128.489 149.884 129.45 150.367 130.469C150.855 131.499 151.278 132.546 151.43 133.302L152.41 133.105C152.233 132.221 151.763 131.079 151.271 130.04C150.773 128.991 150.23 128.003 149.88 127.411L149.019 127.919ZM152.261 133.57C153.029 132.855 154.153 131.867 155.468 130.163C156.783 128.46 158.282 126.051 159.841 122.48C162.955 115.342 166.308 103.546 168.885 83.4171L167.893 83.2901C165.323 103.37 161.986 115.063 158.924 122.08C157.395 125.586 155.935 127.921 154.677 129.552C153.419 131.181 152.355 132.117 151.58 132.838L152.261 133.57Z" fill="#070606"/>
<path d="M123.1 175.464C102.514 175.464 96.6128 167.395 93.6621 162.539L150.685 163.77C142.862 173.207 139.363 175.464 123.1 175.464Z" fill="url(#paint3_linear_632_42801)"/>
<path d="M93.6621 162.539L93.6729 162.04L92.7613 162.02L93.2348 162.799L93.6621 162.539ZM150.685 163.77L151.07 164.089L151.73 163.293L150.696 163.27L150.685 163.77ZM93.2348 162.799C94.7288 165.257 96.9936 168.568 101.512 171.252C106.026 173.933 112.742 175.964 123.1 175.964V174.964C112.872 174.964 106.344 172.959 102.023 170.392C97.7072 167.828 95.546 164.677 94.0894 162.28L93.2348 162.799ZM123.1 175.964C131.237 175.964 136.272 175.403 140.262 173.612C144.263 171.816 147.157 168.81 151.07 164.089L150.3 163.451C146.39 168.168 143.623 171.007 139.853 172.699C136.072 174.396 131.226 174.964 123.1 174.964V175.964ZM150.696 163.27L93.6729 162.04L93.6513 163.039L150.674 164.27L150.696 163.27Z" fill="#070606"/>
<path d="M107.043 120.485C111.489 113.428 114.66 113.51 118.365 112.689C140.927 112.689 150.136 126.366 151.92 133.204C162.46 123.685 167.359 95.252 168.389 82.5331C170.447 101.201 161.801 143.666 154.39 158.026C146.979 172.386 138.951 171.361 113.219 171.361C92.6328 171.361 90.9173 158.231 92.6328 151.667C95.5834 144.213 102.596 127.542 107.043 120.485Z" fill="#E6D3C2"/>
<path d="M118.365 112.689V112.189H118.31L118.257 112.201L118.365 112.689ZM107.043 120.485L106.62 120.218L107.043 120.485ZM92.6328 151.667L92.1679 151.483L92.1567 151.511L92.149 151.54L92.6328 151.667ZM154.39 158.026L154.835 158.256L154.39 158.026ZM168.389 82.5331L168.886 82.4783L167.89 82.4927L168.389 82.5331ZM151.92 133.204L151.436 133.33L151.644 134.127L152.255 133.575L151.92 133.204ZM118.257 112.201C116.465 112.598 114.638 112.801 112.747 113.807C110.833 114.826 108.871 116.645 106.62 120.218L107.466 120.751C109.661 117.268 111.507 115.6 113.217 114.69C114.949 113.768 116.56 113.601 118.473 113.177L118.257 112.201ZM106.62 120.218C102.144 127.322 95.1148 144.039 92.1679 151.483L93.0977 151.851C96.0521 144.388 103.049 127.762 107.466 120.751L106.62 120.218ZM92.149 151.54C91.2664 154.918 91.2577 160.001 94.1491 164.256C97.0584 168.538 102.818 171.861 113.219 171.861V170.861C103.033 170.861 97.6423 167.618 94.9763 163.694C92.2924 159.744 92.2836 154.98 93.1165 151.793L92.149 151.54ZM113.219 171.861C119.642 171.861 124.983 171.925 129.48 171.796C133.977 171.668 137.668 171.346 140.796 170.564C143.935 169.778 146.513 168.528 148.779 166.544C151.039 164.565 152.965 161.878 154.835 158.256L153.946 157.797C152.11 161.354 150.253 163.924 148.12 165.792C145.992 167.654 143.565 168.84 140.554 169.593C137.532 170.349 133.928 170.669 129.451 170.797C124.974 170.925 119.661 170.861 113.219 170.861V171.861ZM154.835 158.256C158.575 151.008 162.6 136.741 165.432 121.989C168.264 107.237 169.924 91.8913 168.886 82.4783L167.892 82.5879C168.912 91.843 167.279 107.064 164.45 121.801C161.62 136.539 157.617 150.685 153.946 157.797L154.835 158.256ZM167.89 82.4927C167.378 88.8265 165.9 99.0839 163.238 108.938C161.907 113.865 160.284 118.68 158.342 122.848C156.397 127.023 154.149 130.517 151.585 132.833L152.255 133.575C154.961 131.131 157.278 127.502 159.248 123.27C161.222 119.033 162.863 114.16 164.204 109.199C166.884 99.2772 168.37 88.9586 168.887 82.5734L167.89 82.4927ZM152.404 133.078C150.566 126.033 141.169 112.189 118.365 112.189V113.189C140.686 113.189 149.706 126.698 151.436 133.33L152.404 133.078Z" fill="#070606"/>
<path d="M136.801 119.441L136.605 119.901L136.801 119.441ZM150.8 138.724L150.304 138.789C150.327 138.97 150.449 139.125 150.62 139.191C150.791 139.257 150.984 139.224 151.124 139.105L150.8 138.724ZM110.491 117.634C110.733 117.503 110.823 117.199 110.691 116.956C110.56 116.714 110.256 116.624 110.013 116.756L110.491 117.634ZM113.448 115.196C113.186 115.283 113.044 115.566 113.13 115.828C113.217 116.09 113.5 116.232 113.762 116.146L113.448 115.196ZM117.258 115.435C117.533 115.411 117.736 115.167 117.711 114.892C117.686 114.617 117.443 114.415 117.168 114.439L117.258 115.435ZM120.936 114.435C120.661 114.414 120.42 114.62 120.399 114.895C120.377 115.17 120.583 115.411 120.859 115.432L120.936 114.435ZM124.448 115.935C124.719 115.988 124.981 115.812 125.035 115.541C125.088 115.27 124.911 115.007 124.64 114.954L124.448 115.935ZM128.262 115.828C127.997 115.753 127.72 115.907 127.645 116.173C127.57 116.439 127.724 116.715 127.99 116.79L128.262 115.828ZM131.48 117.9C131.74 117.991 132.025 117.854 132.117 117.593C132.208 117.332 132.071 117.047 131.81 116.956L131.48 117.9ZM135.282 118.268C135.026 118.164 134.734 118.288 134.631 118.544C134.527 118.8 134.651 119.091 134.907 119.195L135.282 118.268ZM138.427 120.784C138.669 120.916 138.973 120.827 139.105 120.584C139.238 120.342 139.148 120.038 138.906 119.906L138.427 120.784ZM142.411 122.288C142.199 122.112 141.884 122.141 141.707 122.353C141.531 122.565 141.559 122.88 141.772 123.057L142.411 122.288ZM144.627 125.925C144.804 126.138 145.119 126.167 145.331 125.991C145.544 125.815 145.573 125.5 145.397 125.287L144.627 125.925ZM147.809 128.756C147.671 128.517 147.365 128.436 147.126 128.575C146.887 128.713 146.806 129.019 146.945 129.258L147.809 128.756ZM148.717 132.92C148.819 133.177 149.109 133.303 149.366 133.201C149.623 133.099 149.748 132.809 149.647 132.552L148.717 132.92ZM150.911 136.576C150.848 136.308 150.58 136.14 150.311 136.203C150.042 136.265 149.874 136.534 149.937 136.803L150.911 136.576ZM152.709 137.634C152.904 137.438 152.902 137.121 152.706 136.927C152.51 136.732 152.193 136.734 151.999 136.93L152.709 137.634ZM154.705 133.76C154.541 133.982 154.587 134.295 154.809 134.459C155.031 134.624 155.344 134.577 155.508 134.356L154.705 133.76ZM157.865 130.762C158.004 130.523 157.923 130.217 157.685 130.078C157.446 129.939 157.14 130.02 157.001 130.259L157.865 130.762ZM158.947 126.536C158.83 126.786 158.937 127.084 159.187 127.202C159.437 127.319 159.735 127.212 159.852 126.962L158.947 126.536ZM161.534 123.026C161.634 122.769 161.506 122.479 161.249 122.379C160.991 122.279 160.701 122.407 160.601 122.665L161.534 123.026ZM162.011 118.69C161.926 118.953 162.07 119.235 162.332 119.32C162.595 119.405 162.877 119.261 162.962 118.998L162.011 118.69ZM164.178 114.906C164.25 114.64 164.093 114.365 163.827 114.293C163.56 114.22 163.286 114.377 163.213 114.644L164.178 114.906ZM164.238 110.546C164.176 110.815 164.344 111.083 164.613 111.145C164.883 111.207 165.151 111.039 165.212 110.77L164.238 110.546ZM166.091 106.599C166.143 106.328 165.965 106.066 165.694 106.014C165.423 105.961 165.161 106.139 165.109 106.41L166.091 106.599ZM165.844 102.246C165.8 102.518 165.985 102.775 166.258 102.819C166.53 102.862 166.787 102.677 166.831 102.404L165.844 102.246ZM167.449 98.1882C167.485 97.9144 167.293 97.6631 167.019 97.6267C166.745 97.5904 166.494 97.7829 166.457 98.0566L167.449 98.1882ZM166.961 93.8474C166.932 94.1219 167.13 94.3683 167.405 94.3977C167.68 94.4271 167.926 94.2284 167.955 93.9538L166.961 93.8474ZM168.358 89.7253C168.381 89.4502 168.176 89.2084 167.901 89.1854C167.626 89.1624 167.384 89.3669 167.361 89.642L168.358 89.7253ZM167.67 85.4038C167.653 85.6794 167.862 85.9169 168.138 85.9344C168.413 85.9518 168.651 85.7425 168.668 85.4669L167.67 85.4038ZM108.771 118.474C109.318 118.274 109.888 117.962 110.491 117.634L110.013 116.756C109.39 117.094 108.891 117.365 108.427 117.535L108.771 118.474ZM113.762 116.146C114.739 115.823 115.885 115.559 117.258 115.435L117.168 114.439C115.716 114.571 114.495 114.85 113.448 115.196L113.762 116.146ZM120.859 115.432C121.945 115.517 123.136 115.678 124.448 115.935L124.64 114.954C123.294 114.69 122.064 114.523 120.936 114.435L120.859 115.432ZM127.99 116.79C129.084 117.1 130.245 117.467 131.48 117.9L131.81 116.956C130.558 116.517 129.377 116.144 128.262 115.828L127.99 116.79ZM134.907 119.195C135.46 119.418 136.026 119.653 136.605 119.901L136.998 118.981C136.413 118.731 135.841 118.494 135.282 118.268L134.907 119.195ZM136.605 119.901C137.24 120.172 137.847 120.467 138.427 120.784L138.906 119.906C138.298 119.574 137.662 119.265 136.998 118.981L136.605 119.901ZM141.772 123.057C142.844 123.949 143.791 124.917 144.627 125.925L145.397 125.287C144.525 124.235 143.534 123.222 142.411 122.288L141.772 123.057ZM146.945 129.258C147.665 130.498 148.249 131.739 148.717 132.92L149.647 132.552C149.162 131.329 148.557 130.043 147.809 128.756L146.945 129.258ZM149.937 136.803C150.114 137.562 150.232 138.234 150.304 138.789L151.296 138.66C151.219 138.07 151.095 137.365 150.911 136.576L149.937 136.803ZM151.124 139.105C151.669 138.641 152.198 138.15 152.709 137.634L151.999 136.93C151.506 137.427 150.999 137.899 150.476 138.343L151.124 139.105ZM155.508 134.356C156.347 133.225 157.132 132.022 157.865 130.762L157.001 130.259C156.284 131.49 155.52 132.662 154.705 133.76L155.508 134.356ZM159.852 126.962C160.453 125.685 161.013 124.369 161.534 123.026L160.601 122.665C160.088 123.988 159.537 125.282 158.947 126.536L159.852 126.962ZM162.962 118.998C163.4 117.646 163.805 116.278 164.178 114.906L163.213 114.644C162.843 116.002 162.444 117.354 162.011 118.69L162.962 118.998ZM165.212 110.77C165.534 109.369 165.825 107.975 166.091 106.599L165.109 106.41C164.846 107.775 164.556 109.158 164.238 110.546L165.212 110.77ZM166.831 102.404C167.064 100.958 167.268 99.5474 167.449 98.1882L166.457 98.0566C166.278 99.4075 166.075 100.809 165.844 102.246L166.831 102.404ZM167.955 93.9538C168.118 92.431 168.25 91.0119 168.358 89.7253L167.361 89.642C167.254 90.9219 167.123 92.3333 166.961 93.8474L167.955 93.9538ZM168.668 85.4669C168.723 84.6064 168.765 83.8792 168.797 83.3666L167.799 83.304C167.765 83.8385 167.726 84.5287 167.67 85.4038L168.668 85.4669Z" fill="#070606"/>
</g>
<defs>
<filter id="filter0_d_632_42801" x="0" y="0" width="228" height="228" filterUnits="userSpaceOnUse" color-interpolation-filters="sRGB">
<feFlood flood-opacity="0" result="BackgroundImageFix"/>
<feColorMatrix in="SourceAlpha" type="matrix" values="0 0 0 0 0 0 0 0 0 0 0 0 0 0 0 0 0 0 127 0" result="hardAlpha"/>
<feOffset dx="-2" dy="2"/>
<feGaussianBlur stdDeviation="1"/>
<feColorMatrix type="matrix" values="0 0 0 0 0 0 0 0 0 0 0 0 0 0 0 0 0 0 0.08 0"/>
<feBlend mode="normal" in2="BackgroundImageFix" result="effect1_dropShadow_632_42801"/>
<feBlend mode="normal" in="SourceGraphic" in2="effect1_dropShadow_632_42801" result="shape"/>
</filter>
<linearGradient id="paint0_linear_632_42801" x1="133.187" y1="47.3143" x2="68.7148" y2="104.681" gradientUnits="userSpaceOnUse">
<stop stop-color="#88319C"/>
<stop offset="1" stop-color="#A79280"/>
</linearGradient>
<linearGradient id="paint1_linear_632_42801" x1="115.483" y1="137.299" x2="108.779" y2="163.231" gradientUnits="userSpaceOnUse">
<stop stop-color="#88319C"/>
<stop offset="1" stop-color="#A79280"/>
</linearGradient>
<linearGradient id="paint2_linear_632_42801" x1="168.389" y1="72.5549" x2="103.917" y2="129.922" gradientUnits="userSpaceOnUse">
<stop stop-color="#88319C"/>
<stop offset="1" stop-color="#A79280"/>
</linearGradient>
<linearGradient id="paint3_linear_632_42801" x1="150.685" y1="162.539" x2="143.981" y2="188.472" gradientUnits="userSpaceOnUse">
<stop stop-color="#88319C"/>
<stop offset="1" stop-color="#A79280"/>
</linearGradient>
<clipPath id="clip0_632_42801">
<rect width="134" height="134" fill="white" transform="translate(50 45)"/>
</clipPath>
</defs>
</svg>
