<svg width="228" height="228" viewBox="0 0 228 228" fill="none" xmlns="http://www.w3.org/2000/svg">
<mask id="path-1-outside-1_301_17364" maskUnits="userSpaceOnUse" x="2" y="110" width="116" height="116" fill="black">
<rect fill="white" x="2" y="110" width="116" height="116"/>
<path d="M116 224C86.2958 224 57.8081 212.2 36.8041 191.196C15.8 170.192 4.00002 141.704 4 112L116 112L116 224Z"/>
</mask>
<path d="M116 224C86.2958 224 57.8081 212.2 36.8041 191.196C15.8 170.192 4.00002 141.704 4 112L116 112L116 224Z" stroke="#0089A9" stroke-width="4" stroke-linejoin="round" mask="url(#path-1-outside-1_301_17364)"/>
<g filter="url(#filter0_d_301_17364)">
<rect x="4" width="224" height="224" rx="112" fill="#FFFCFA"/>
<rect x="8" y="4" width="216" height="216" rx="108" stroke="white" stroke-width="8" stroke-linejoin="round"/>
</g>
<path d="M78.8708 154.363L77.5293 153.704C77.5176 153.698 77.5071 153.69 77.4985 153.681C77.4898 153.671 77.4832 153.66 77.479 153.647C77.4749 153.635 77.4732 153.622 77.4741 153.609C77.4751 153.596 77.4786 153.583 77.4845 153.572C77.4901 153.56 77.4979 153.55 77.5074 153.542C77.517 153.534 77.5282 153.527 77.5402 153.523C77.5523 153.519 77.5651 153.518 77.5777 153.519C77.5904 153.52 77.6027 153.524 77.6139 153.53L78.9107 154.276C78.9219 154.283 78.9301 154.295 78.9338 154.307C78.9375 154.32 78.9363 154.334 78.9306 154.346C78.9236 154.355 78.9141 154.361 78.9034 154.364C78.8927 154.367 78.8814 154.367 78.8708 154.363ZM75.1375 152.228C75.1631 152.188 75.1719 152.139 75.1622 152.093C75.1524 152.046 75.1248 152.005 75.0852 151.979L73.8408 151.155C73.7897 151.127 73.7295 151.119 73.6729 151.134C73.6163 151.149 73.5677 151.185 73.5372 151.235C73.5224 151.26 73.5127 151.288 73.5087 151.317C73.5047 151.346 73.5065 151.375 73.5139 151.403C73.5213 151.431 73.5342 151.458 73.5519 151.481C73.5695 151.504 73.5916 151.524 73.6168 151.538L74.9085 152.298C74.9484 152.314 74.993 152.317 75.0345 152.304C75.0759 152.291 75.1115 152.264 75.135 152.228H75.1375ZM71.4813 149.831C71.5289 149.77 71.5503 149.692 71.541 149.616C71.5317 149.539 71.4923 149.468 71.4315 149.42L70.2643 148.505C70.2298 148.48 70.1907 148.462 70.1494 148.452C70.108 148.442 70.0651 148.441 70.0232 148.448C69.9812 148.454 69.941 148.47 69.9049 148.492C69.8688 148.514 69.8374 148.543 69.8125 148.578C69.7877 148.612 69.7699 148.651 69.7601 148.693C69.7504 148.734 69.7489 148.777 69.7557 148.819C69.7625 148.861 69.7775 148.901 69.7999 148.937C69.8222 148.973 69.8515 149.005 69.886 149.03L71.1055 149.906C71.1667 149.94 71.2383 149.952 71.3073 149.938C71.3762 149.924 71.438 149.886 71.4813 149.831ZM68.0417 147.111C68.0778 147.075 68.1065 147.032 68.126 146.985C68.1456 146.938 68.1557 146.888 68.1557 146.837C68.1557 146.786 68.1456 146.736 68.126 146.689C68.1065 146.642 68.0778 146.599 68.0417 146.563L66.969 145.52H66.9565H66.9441C66.8601 145.447 66.7505 145.41 66.6391 145.416C66.5277 145.423 66.4236 145.474 66.3494 145.558C66.2752 145.641 66.2369 145.75 66.243 145.862C66.249 145.973 66.2988 146.078 66.3816 146.153L67.5091 147.148C67.586 147.211 67.6838 147.242 67.7827 147.235C67.8816 147.228 67.9742 147.183 68.0417 147.111ZM64.9306 144.054C64.9826 144.013 65.026 143.963 65.0581 143.905C65.0902 143.847 65.1105 143.783 65.1176 143.717C65.1248 143.651 65.1188 143.585 65.0999 143.521C65.0811 143.458 65.0497 143.399 65.0077 143.348L64.9928 143.33C64.6867 142.947 64.378 142.566 64.0595 142.193L64.0445 142.175C63.9561 142.071 63.83 142.006 63.6937 141.994C63.5575 141.982 63.4221 142.025 63.3172 142.113C63.2124 142.201 63.1465 142.326 63.134 142.463C63.1215 142.599 63.1634 142.734 63.2506 142.84C63.5824 143.228 63.9143 143.612 64.2461 143.992C64.3303 144.089 64.4484 144.149 64.5759 144.16C64.7033 144.172 64.8304 144.134 64.9306 144.054ZM61.5457 140.386C61.5797 140.435 61.623 140.477 61.6732 140.509C61.7233 140.541 61.7794 140.563 61.8381 140.574C61.8968 140.585 61.957 140.584 62.0153 140.571C62.0736 140.558 62.1288 140.534 62.1779 140.5C62.2269 140.466 62.2687 140.423 62.301 140.373C62.3333 140.323 62.3554 140.267 62.366 140.208C62.3767 140.149 62.3756 140.089 62.363 140.031C62.3503 139.972 62.3263 139.917 62.2924 139.868V139.853L61.4461 138.641V138.626C61.392 138.541 61.3061 138.48 61.2074 138.458C61.1087 138.436 61.0052 138.454 60.9197 138.508C60.8342 138.562 60.7738 138.648 60.7516 138.747C60.7294 138.845 60.7474 138.949 60.8015 139.034L61.5482 140.351C61.5463 140.362 61.5455 140.374 61.5457 140.386ZM59.5421 136.316C59.5534 136.335 59.5681 136.351 59.5856 136.364C59.6031 136.377 59.6229 136.386 59.644 136.391C59.665 136.396 59.6869 136.397 59.7083 136.394C59.7297 136.39 59.7502 136.383 59.7686 136.371C59.7871 136.36 59.8031 136.346 59.8159 136.328C59.8286 136.311 59.8378 136.292 59.8429 136.271C59.848 136.25 59.8489 136.228 59.8455 136.207C59.8422 136.186 59.8347 136.165 59.8234 136.147C59.6467 135.854 59.4675 135.562 59.2808 135.271C59.2748 135.262 59.2659 135.255 59.2556 135.251C59.2452 135.248 59.234 135.248 59.2236 135.251C59.2172 135.253 59.2112 135.256 59.206 135.26C59.2009 135.264 59.1966 135.269 59.1936 135.275C59.1905 135.281 59.1887 135.287 59.1883 135.294C59.1879 135.301 59.1889 135.307 59.1912 135.313C59.2982 135.642 59.4127 135.968 59.5297 136.294C59.5332 136.302 59.5374 136.309 59.5421 136.316ZM169.033 134.684L168.234 135.948C168.229 135.959 168.221 135.968 168.211 135.975C168.201 135.982 168.19 135.987 168.179 135.99C168.167 135.993 168.155 135.993 168.143 135.991C168.131 135.989 168.12 135.985 168.11 135.978C168.1 135.972 168.091 135.963 168.084 135.953C168.077 135.944 168.071 135.932 168.069 135.921C168.066 135.909 168.065 135.897 168.067 135.885C168.069 135.873 168.074 135.861 168.08 135.851L168.946 134.636C168.956 134.627 168.968 134.622 168.981 134.622C168.994 134.622 169.007 134.627 169.016 134.636C169.023 134.642 169.028 134.649 169.031 134.658C169.035 134.666 169.035 134.675 169.033 134.684ZM166.437 138.133C166.406 138.103 166.364 138.085 166.32 138.085C166.277 138.085 166.235 138.103 166.203 138.133L165.178 139.209C165.159 139.228 165.143 139.251 165.133 139.277C165.123 139.303 165.118 139.33 165.119 139.358C165.12 139.386 165.127 139.413 165.139 139.438C165.151 139.463 165.168 139.485 165.189 139.503C165.209 139.521 165.234 139.535 165.26 139.543C165.287 139.551 165.314 139.554 165.342 139.551C165.369 139.549 165.396 139.54 165.42 139.526C165.444 139.513 165.465 139.494 165.482 139.472L166.477 138.337C166.495 138.304 166.5 138.265 166.493 138.228C166.486 138.191 166.466 138.158 166.437 138.133ZM163.361 141.244C163.34 141.217 163.313 141.194 163.283 141.176C163.252 141.159 163.219 141.148 163.184 141.144C163.149 141.14 163.114 141.142 163.08 141.152C163.047 141.162 163.015 141.178 162.988 141.2L161.816 142.116C161.756 142.166 161.719 142.238 161.713 142.316C161.707 142.394 161.731 142.471 161.782 142.53C161.832 142.589 161.904 142.626 161.982 142.633C162.06 142.639 162.137 142.614 162.196 142.564L163.341 141.585C163.385 141.54 163.411 141.48 163.415 141.417C163.419 141.354 163.399 141.292 163.361 141.242V141.244ZM159.877 143.918C159.828 143.839 159.751 143.782 159.661 143.76C159.571 143.738 159.476 143.753 159.396 143.801L158.132 144.572H158.12C158.041 144.63 157.987 144.715 157.97 144.811C157.953 144.907 157.974 145.006 158.027 145.087C158.081 145.168 158.164 145.225 158.26 145.247C158.355 145.268 158.454 145.252 158.538 145.202L159.782 144.368C159.85 144.317 159.897 144.242 159.914 144.159C159.93 144.075 159.915 143.988 159.872 143.915L159.877 143.918ZM156.116 146.192C156.065 146.088 155.976 146.007 155.866 145.969C155.756 145.931 155.636 145.938 155.531 145.988L154.2 146.633H154.18C154.074 146.696 153.997 146.797 153.965 146.916C153.932 147.035 153.947 147.161 154.006 147.269C154.065 147.377 154.163 147.458 154.281 147.495C154.398 147.532 154.525 147.521 154.635 147.467L155.957 146.745C156.045 146.686 156.109 146.598 156.137 146.496C156.165 146.394 156.156 146.285 156.111 146.19L156.116 146.192ZM152.176 148.131C152.122 148.005 152.02 147.906 151.892 147.855C151.765 147.804 151.623 147.806 151.497 147.86C151.044 148.057 150.593 148.261 150.143 148.465C150.021 148.518 149.925 148.617 149.877 148.741C149.828 148.865 149.831 149.002 149.884 149.124C149.937 149.246 150.036 149.342 150.16 149.39C150.284 149.439 150.422 149.436 150.543 149.383C151.006 149.191 151.469 149 151.927 148.801C152.046 148.742 152.138 148.639 152.184 148.514C152.229 148.388 152.225 148.251 152.171 148.129L152.176 148.131ZM147.733 150.418C147.789 150.402 147.84 150.375 147.884 150.337C147.928 150.3 147.963 150.254 147.988 150.202C148.013 150.15 148.026 150.093 148.027 150.035C148.028 149.978 148.017 149.921 147.995 149.868C147.973 149.814 147.939 149.767 147.897 149.728C147.855 149.688 147.805 149.659 147.75 149.64C147.696 149.622 147.638 149.615 147.58 149.62C147.523 149.626 147.467 149.643 147.417 149.672C146.959 149.863 146.506 150.063 146.051 150.267C146.01 150.283 145.972 150.307 145.94 150.338C145.908 150.369 145.882 150.406 145.865 150.447C145.829 150.529 145.828 150.622 145.861 150.706C145.894 150.789 145.958 150.856 146.041 150.892C146.123 150.928 146.216 150.929 146.3 150.896C146.775 150.745 147.253 150.593 147.726 150.433L147.733 150.418ZM143.41 151.695C143.426 151.689 143.44 151.679 143.451 151.667C143.463 151.655 143.472 151.641 143.478 151.626C143.484 151.61 143.487 151.593 143.486 151.577C143.486 151.56 143.482 151.544 143.475 151.529C143.468 151.513 143.459 151.499 143.447 151.488C143.435 151.476 143.421 151.467 143.405 151.461C143.39 151.455 143.373 151.452 143.356 151.452C143.34 151.453 143.323 151.457 143.308 151.464C143.059 151.566 142.835 151.678 142.599 151.785C142.589 151.79 142.58 151.799 142.575 151.809C142.571 151.819 142.569 151.831 142.571 151.842C142.573 151.849 142.575 151.855 142.579 151.86C142.583 151.866 142.587 151.871 142.593 151.874C142.599 151.878 142.605 151.88 142.612 151.881C142.618 151.882 142.625 151.881 142.631 151.879C142.88 151.822 143.129 151.765 143.378 151.7L143.41 151.695ZM62.8847 84.8711L63.8803 83.7511C63.8858 83.7455 63.8924 83.7411 63.8997 83.7381C63.9069 83.7351 63.9147 83.7335 63.9226 83.7335C63.9304 83.7335 63.9382 83.7351 63.9455 83.7381C63.9527 83.7411 63.9593 83.7455 63.9649 83.7511C63.9704 83.7564 63.9747 83.7628 63.9777 83.7699C63.9807 83.7769 63.9822 83.7845 63.9822 83.7922C63.9822 83.7998 63.9807 83.8074 63.9777 83.8145C63.9747 83.8215 63.9704 83.8279 63.9649 83.8332L62.9693 84.9408C62.96 84.9499 62.9475 84.955 62.9345 84.955C62.9215 84.955 62.9089 84.9499 62.8996 84.9408C62.8888 84.9332 62.8812 84.9218 62.8785 84.9089C62.8757 84.896 62.8779 84.8825 62.8847 84.8711ZM65.9112 81.6779C65.9264 81.692 65.9464 81.6999 65.9672 81.6999C65.988 81.6999 66.008 81.692 66.0232 81.6779L67.086 80.63C67.1025 80.6135 67.1117 80.5912 67.1117 80.5678C67.1117 80.5445 67.1025 80.5221 67.086 80.5056C67.0694 80.4891 67.0471 80.4798 67.0237 80.4798C67.0004 80.4798 66.978 80.4891 66.9615 80.5056L65.9112 81.5684C65.9009 81.5824 65.8953 81.5994 65.8953 81.6169C65.8953 81.6343 65.9009 81.6513 65.9112 81.6654V81.6779ZM69.1094 78.5792C69.1194 78.5892 69.1312 78.5971 69.1442 78.6026C69.1572 78.608 69.1712 78.6108 69.1853 78.6108C69.1994 78.6108 69.2134 78.608 69.2264 78.6026C69.2395 78.5971 69.2513 78.5892 69.2612 78.5792L70.3738 77.5836C70.385 77.5732 70.3942 77.5606 70.4006 77.5466C70.407 77.5327 70.4106 77.5175 70.4112 77.5022C70.4117 77.4868 70.4093 77.4715 70.4039 77.4571C70.3986 77.4426 70.3904 77.4294 70.38 77.4181C70.3695 77.4069 70.357 77.3977 70.343 77.3913C70.329 77.3849 70.3139 77.3813 70.2985 77.3807C70.2832 77.3802 70.2678 77.3826 70.2534 77.388C70.239 77.3933 70.2258 77.4014 70.2145 77.4119L69.1144 78.4224C69.0957 78.4415 69.0848 78.4669 69.0839 78.4936C69.083 78.5203 69.0921 78.5464 69.1094 78.5668V78.5792ZM72.4445 75.6224C72.4673 75.6498 72.5 75.667 72.5355 75.6702C72.571 75.6735 72.6063 75.6626 72.6337 75.6398L73.786 74.6916C73.8006 74.6793 73.8126 74.6643 73.8213 74.6474C73.8301 74.6305 73.8354 74.6121 73.837 74.5931C73.8386 74.5742 73.8365 74.5551 73.8307 74.537C73.825 74.5188 73.8157 74.502 73.8035 74.4875C73.7912 74.4729 73.7762 74.4609 73.7593 74.4522C73.7424 74.4434 73.724 74.4381 73.705 74.4365C73.6861 74.4349 73.667 74.437 73.6489 74.4428C73.6307 74.4485 73.6139 74.4578 73.5994 74.47L72.457 75.4357C72.4311 75.4591 72.4153 75.4917 72.4129 75.5265C72.4106 75.5614 72.4219 75.5958 72.4445 75.6224ZM75.8941 72.81C75.9215 72.8437 75.9608 72.8656 76.0039 72.8712C76.047 72.8767 76.0906 72.8655 76.1256 72.8398L77.3103 71.9339C77.3292 71.92 77.3451 71.9023 77.357 71.882C77.3688 71.8617 77.3764 71.8392 77.3792 71.8159C77.382 71.7926 77.38 71.7689 77.3733 71.7464C77.3665 71.7239 77.3553 71.703 77.3402 71.685C77.326 71.6663 77.3083 71.6507 77.288 71.6391C77.2677 71.6274 77.2453 71.62 77.2221 71.6172C77.1988 71.6144 77.1753 71.6163 77.1528 71.6229C77.1303 71.6294 77.1094 71.6403 77.0913 71.6551L75.929 72.581C75.8945 72.6072 75.8717 72.6459 75.8657 72.6888C75.8596 72.7317 75.8707 72.7752 75.8966 72.81H75.8941ZM79.4358 70.1095C79.4506 70.13 79.4693 70.1474 79.4909 70.1606C79.5125 70.1739 79.5364 70.1827 79.5614 70.1866C79.5864 70.1906 79.6119 70.1895 79.6365 70.1836C79.6611 70.1776 79.6842 70.1668 79.7046 70.1518L80.9117 69.2757C80.955 69.2427 80.9833 69.1939 80.9906 69.14C80.9978 69.0861 80.9833 69.0315 80.9503 68.9883C80.9173 68.945 80.8685 68.9167 80.8146 68.9094C80.7607 68.9022 80.7061 68.9167 80.6628 68.9497L79.4632 69.8457C79.4259 69.878 79.4024 69.9235 79.3978 69.9726C79.3932 70.0217 79.4077 70.0708 79.4383 70.1095H79.4358ZM83.0447 67.5036C83.0609 67.5276 83.0818 67.5482 83.106 67.564C83.1302 67.5799 83.1574 67.5908 83.1858 67.5962C83.2143 67.6015 83.2435 67.6011 83.2719 67.5951C83.3002 67.589 83.327 67.5774 83.3508 67.5609L84.5953 66.7246C84.6458 66.6896 84.6803 66.636 84.6913 66.5756C84.7022 66.5151 84.6888 66.4528 84.6538 66.4023C84.6188 66.3518 84.5652 66.3173 84.5047 66.3063C84.4443 66.2953 84.382 66.3088 84.3315 66.3438L83.1044 67.2C83.0572 67.2332 83.0248 67.2835 83.0141 67.3402C83.0034 67.3969 83.0153 67.4555 83.0472 67.5036H83.0447ZM86.7407 65.0148C86.758 65.0426 86.7806 65.0667 86.8072 65.0858C86.8339 65.1049 86.864 65.1185 86.8959 65.1259C86.9278 65.1333 86.9609 65.1343 86.9932 65.1289C87.0255 65.1235 87.0564 65.1118 87.0842 65.0944L88.351 64.3079C88.3804 64.2904 88.4058 64.2671 88.4258 64.2394C88.4457 64.2117 88.4598 64.1801 88.467 64.1467C88.4742 64.1133 88.4745 64.0788 88.4679 64.0453C88.4612 64.0118 88.4477 63.9801 88.4282 63.952C88.4107 63.923 88.3875 63.8979 88.36 63.8781C88.3324 63.8584 88.3012 63.8445 88.2681 63.8373C88.235 63.8301 88.2008 63.8297 88.1675 63.8361C88.1343 63.8426 88.1027 63.8558 88.0747 63.8748L86.8104 64.6788C86.7562 64.7156 86.7188 64.7724 86.7062 64.8367C86.6937 64.901 86.7069 64.9677 86.7432 65.0222L86.7407 65.0148ZM90.5437 62.6876C90.5609 62.7189 90.584 62.7464 90.6119 62.7686C90.6398 62.7908 90.6718 62.8073 90.706 62.817C90.7403 62.8267 90.7762 62.8295 90.8116 62.8253C90.8469 62.821 90.8811 62.8098 90.9121 62.7922L92.2138 62.0679C92.2707 62.0282 92.3107 61.9686 92.326 61.9009C92.3414 61.8332 92.3309 61.7622 92.2967 61.7019C92.2624 61.6415 92.2069 61.5961 92.1409 61.5745C92.075 61.5528 92.0033 61.5566 91.94 61.5851L90.6358 62.3317C90.5771 62.3692 90.535 62.4278 90.5183 62.4955C90.5016 62.5631 90.5116 62.6346 90.5462 62.6951L90.5437 62.6876ZM94.4612 60.5596C94.4951 60.6294 94.5552 60.683 94.6284 60.7087C94.7016 60.7343 94.782 60.7299 94.852 60.6965L96.1935 60.0494C96.2325 60.0343 96.2678 60.0112 96.2973 59.9816C96.3269 59.952 96.3499 59.9166 96.365 59.8776C96.3801 59.8387 96.387 59.797 96.3851 59.7552C96.3832 59.7135 96.3727 59.6726 96.3541 59.6351C96.3355 59.5977 96.3094 59.5645 96.2773 59.5377C96.2453 59.5109 96.208 59.491 96.1678 59.4795C96.1276 59.4679 96.0855 59.4647 96.0441 59.4703C96.0027 59.4759 95.9629 59.49 95.9272 59.5118L94.5832 60.1764C94.516 60.2128 94.4658 60.2742 94.4434 60.3473C94.4211 60.4204 94.4284 60.4993 94.4637 60.5671L94.4612 60.5596ZM98.5032 58.6805C98.5185 58.7188 98.5413 58.7537 98.5701 58.7831C98.5989 58.8126 98.6333 58.8361 98.6712 58.8523C98.7091 58.8684 98.7498 58.877 98.791 58.8774C98.8322 58.8778 98.8731 58.8701 98.9114 58.8548L100.293 58.3097C100.372 58.2767 100.434 58.2137 100.467 58.1346C100.499 58.0555 100.499 57.9667 100.466 57.8878C100.433 57.8089 100.37 57.7464 100.291 57.714C100.211 57.6815 100.123 57.6818 100.044 57.7148L98.6525 58.2798C98.5806 58.3163 98.5253 58.3789 98.498 58.4547C98.4707 58.5306 98.4735 58.6141 98.5057 58.688L98.5032 58.6805ZM102.677 57.1125C102.69 57.1549 102.71 57.1943 102.738 57.2286C102.766 57.2629 102.8 57.2914 102.839 57.3125C102.878 57.3335 102.921 57.3467 102.965 57.3512C103.008 57.3558 103.053 57.3516 103.095 57.339L104.516 56.9184H104.551C104.632 56.8867 104.697 56.8257 104.735 56.7477C104.772 56.6697 104.779 56.5805 104.754 56.4977C104.728 56.415 104.672 56.345 104.597 56.3016C104.523 56.2583 104.434 56.2448 104.35 56.2638L102.911 56.7044C102.868 56.7164 102.829 56.7367 102.794 56.7641C102.759 56.7916 102.731 56.8255 102.709 56.8642C102.688 56.9028 102.674 56.9452 102.669 56.9891C102.664 57.033 102.667 57.0775 102.68 57.12L102.677 57.1125ZM106.978 55.9403C106.986 55.9864 107.004 56.0304 107.029 56.0698C107.055 56.1092 107.088 56.1432 107.126 56.1698C107.165 56.1964 107.208 56.2151 107.254 56.2248C107.3 56.2345 107.347 56.2351 107.394 56.2265H107.406L108.862 55.9627H108.879C108.926 55.9537 108.971 55.9355 109.011 55.9093C109.051 55.883 109.085 55.8492 109.112 55.8097C109.139 55.7701 109.157 55.7257 109.167 55.679C109.177 55.6322 109.177 55.584 109.168 55.5371C109.159 55.4902 109.141 55.4455 109.115 55.4056C109.088 55.3657 109.055 55.3314 109.015 55.3046C108.976 55.2778 108.931 55.259 108.884 55.2493C108.838 55.2397 108.789 55.2394 108.742 55.2484L107.249 55.5321C107.159 55.5529 107.081 55.608 107.031 55.6855C106.981 55.7631 106.962 55.8571 106.98 55.9477L106.978 55.9403ZM111.383 55.2533C111.389 55.3535 111.434 55.4473 111.509 55.5144C111.583 55.5815 111.681 55.6165 111.781 55.6117H111.799L113.272 55.5371H113.295C113.393 55.5259 113.484 55.4773 113.547 55.4013C113.611 55.3253 113.643 55.2277 113.636 55.1288C113.63 55.0299 113.586 54.9372 113.513 54.87C113.44 54.8029 113.344 54.7663 113.245 54.768L111.739 54.8626C111.641 54.8684 111.548 54.9125 111.482 54.9855C111.415 55.0585 111.38 55.1546 111.383 55.2533ZM115.838 55.1463C115.83 55.2519 115.864 55.3564 115.932 55.4371C116.001 55.5177 116.099 55.568 116.204 55.5769H116.222L117.693 55.6988H117.715C117.769 55.7026 117.822 55.6958 117.873 55.6787C117.924 55.6617 117.971 55.6348 118.012 55.5995C118.053 55.5643 118.086 55.5214 118.11 55.4733C118.134 55.4252 118.148 55.3729 118.152 55.3193C118.155 55.2657 118.149 55.2119 118.132 55.1609C118.115 55.1099 118.088 55.0628 118.052 55.0223C118.017 54.9817 117.974 54.9485 117.926 54.9245C117.878 54.9005 117.826 54.8862 117.772 54.8825L116.266 54.7755C116.213 54.7718 116.16 54.7787 116.109 54.796C116.059 54.8132 116.012 54.8403 115.972 54.8758C115.932 54.9113 115.9 54.9544 115.877 55.0025C115.854 55.0507 115.841 55.103 115.838 55.1563V55.1463ZM120.266 55.6267C120.245 55.7361 120.267 55.8496 120.329 55.9427C120.39 56.0358 120.486 56.1011 120.595 56.1244H120.61L122.056 56.4306H122.075C122.132 56.4436 122.191 56.4451 122.248 56.435C122.306 56.425 122.36 56.4035 122.409 56.372C122.458 56.3404 122.5 56.2994 122.533 56.2513C122.566 56.2032 122.588 56.149 122.6 56.092C122.611 56.0349 122.611 55.9761 122.6 55.9191C122.588 55.8621 122.565 55.808 122.532 55.76C122.499 55.712 122.457 55.671 122.408 55.6396C122.359 55.6081 122.305 55.5868 122.247 55.5769L120.754 55.2807C120.698 55.2719 120.642 55.2741 120.587 55.2872C120.533 55.3003 120.481 55.3241 120.436 55.3572C120.391 55.3902 120.352 55.432 120.323 55.4799C120.294 55.5279 120.275 55.5811 120.266 55.6366V55.6267ZM124.602 56.6372C124.583 56.6939 124.576 56.7537 124.58 56.8132C124.585 56.8727 124.601 56.9307 124.628 56.9839C124.655 57.0371 124.693 57.0844 124.738 57.1232C124.783 57.1619 124.836 57.1913 124.893 57.2096H124.908L126.312 57.6676H126.329C126.445 57.7019 126.571 57.689 126.678 57.6318C126.785 57.5746 126.865 57.4776 126.902 57.3616C126.938 57.2457 126.927 57.1202 126.872 57.0122C126.816 56.9041 126.721 56.8222 126.605 56.784L125.167 56.3335C125.05 56.3005 124.925 56.3149 124.819 56.3737C124.714 56.4324 124.635 56.5308 124.602 56.6471V56.6372ZM128.815 58.0807C128.79 58.1384 128.777 58.2004 128.776 58.2633C128.775 58.3262 128.786 58.3887 128.809 58.4472C128.832 58.5057 128.867 58.5591 128.91 58.6043C128.954 58.6494 129.006 58.6855 129.064 58.7104L130.428 59.2878C130.49 59.3262 130.559 59.3506 130.631 59.3595C130.703 59.3683 130.776 59.3613 130.845 59.339C130.914 59.3167 130.977 59.2796 131.03 59.2303C131.083 59.181 131.125 59.1207 131.152 59.0535C131.18 58.9864 131.192 58.9141 131.189 58.8417C131.185 58.7693 131.166 58.6985 131.132 58.6343C131.099 58.5701 131.051 58.514 130.994 58.47C130.936 58.426 130.87 58.395 130.799 58.3794L129.405 57.8094C129.29 57.7732 129.165 57.7821 129.055 57.8343C128.946 57.8864 128.86 57.978 128.815 58.0907V58.0807ZM132.902 59.8603C132.872 59.919 132.854 59.9832 132.848 60.049C132.843 60.1149 132.851 60.1812 132.872 60.2439C132.892 60.3067 132.925 60.3648 132.968 60.4147C133.012 60.4646 133.064 60.5054 133.124 60.5348L134.448 61.2018C134.568 61.2615 134.707 61.271 134.835 61.228C134.962 61.1851 135.067 61.0933 135.127 60.9728C135.187 60.8523 135.196 60.7131 135.153 60.5856C135.11 60.4582 135.019 60.3531 134.898 60.2933L133.549 59.6263C133.431 59.5752 133.297 59.572 133.176 59.6175C133.056 59.663 132.957 59.7536 132.902 59.8702V59.8603ZM137.574 61.7244C137.456 61.6751 137.324 61.671 137.204 61.713C137.083 61.7549 136.982 61.8399 136.921 61.9516C136.859 62.0633 136.841 62.1939 136.869 62.3182C136.898 62.4426 136.972 62.552 137.076 62.6254L138.37 63.3547C138.487 63.4049 138.619 63.4098 138.74 63.3685C138.86 63.3273 138.961 63.2427 139.023 63.1313C139.085 63.0198 139.104 62.8893 139.075 62.7651C139.046 62.6409 138.973 62.5317 138.868 62.4587L137.564 61.712L137.574 61.7244ZM141.454 64.0043C141.397 63.9693 141.334 63.9458 141.268 63.9352C141.203 63.9246 141.135 63.9271 141.071 63.9424C141.006 63.9578 140.945 63.9858 140.891 64.0248C140.837 64.0638 140.791 64.1131 140.756 64.1698C140.721 64.2265 140.697 64.2895 140.687 64.3553C140.676 64.4211 140.679 64.4883 140.694 64.5531C140.709 64.618 140.737 64.6791 140.776 64.7331C140.815 64.7871 140.865 64.8329 140.921 64.8679L142.186 65.6469C142.299 65.7179 142.436 65.7408 142.567 65.7107C142.697 65.6806 142.81 65.5999 142.881 65.4864C142.952 65.3729 142.975 65.2358 142.945 65.1053C142.915 64.9749 142.834 64.8617 142.721 64.7908L141.449 63.9993L141.454 64.0043ZM145.235 66.421C145.125 66.3681 145.001 66.3569 144.884 66.3895C144.767 66.4221 144.666 66.4962 144.6 66.598C144.534 66.6998 144.507 66.8223 144.525 66.9423C144.543 67.0623 144.604 67.1716 144.697 67.2498L145.941 68.0612C146.048 68.1315 146.178 68.1565 146.303 68.1309C146.428 68.1052 146.538 68.0309 146.608 67.9243C146.679 67.8177 146.704 67.6875 146.678 67.5624C146.652 67.4373 146.578 67.3275 146.472 67.2572L145.227 66.421H145.235ZM148.941 68.9422C148.842 68.8888 148.726 68.8739 148.617 68.9003C148.508 68.9267 148.412 68.9925 148.349 69.0852C148.285 69.1779 148.258 69.2908 148.273 69.4022C148.287 69.5136 148.342 69.6158 148.428 69.6889L149.672 70.5276C149.769 70.5793 149.88 70.5936 149.987 70.5677C150.093 70.5419 150.186 70.4778 150.247 70.3876C150.309 70.2975 150.335 70.1878 150.321 70.0795C150.307 69.9712 150.253 69.872 150.17 69.8009L148.948 68.9372L148.941 68.9422ZM152.587 71.5605C152.497 71.5021 152.387 71.4809 152.282 71.5014C152.176 71.5218 152.083 71.5824 152.021 71.6703C151.959 71.7582 151.934 71.8667 151.95 71.9729C151.966 72.0791 152.023 72.1749 152.109 72.24L153.328 73.0962C153.415 73.15 153.52 73.1688 153.62 73.1486C153.72 73.1285 153.809 73.071 153.869 72.9878C153.928 72.9046 153.954 72.8018 153.94 72.7004C153.927 72.599 153.875 72.5065 153.796 72.4416L152.589 71.5605H152.587ZM156.191 74.2311C156.11 74.1727 156.01 74.1485 155.912 74.1639C155.814 74.1793 155.726 74.233 155.668 74.3132C155.61 74.3934 155.585 74.4936 155.601 74.5916C155.616 74.6896 155.67 74.7775 155.75 74.8359L156.955 75.7145C156.992 75.7421 157.034 75.7622 157.078 75.7736C157.123 75.7849 157.17 75.7874 157.215 75.7808C157.261 75.7742 157.305 75.7587 157.344 75.7352C157.384 75.7116 157.419 75.6805 157.446 75.6436C157.474 75.6066 157.494 75.5646 157.505 75.5199C157.517 75.4752 157.519 75.4287 157.513 75.3831C157.506 75.3374 157.491 75.2935 157.467 75.2539C157.443 75.2142 157.412 75.1796 157.375 75.152L156.191 74.2361V74.2311ZM159.715 77.0187C159.683 76.9922 159.647 76.9724 159.608 76.9605C159.568 76.9485 159.527 76.9445 159.486 76.9489C159.445 76.9532 159.405 76.9658 159.369 76.9858C159.334 77.0058 159.302 77.0328 159.277 77.0653C159.251 77.0977 159.233 77.1349 159.222 77.1747C159.212 77.2144 159.209 77.2559 159.215 77.2966C159.221 77.3374 159.235 77.3765 159.256 77.4117C159.278 77.4469 159.306 77.4774 159.339 77.5015L160.516 78.4174C160.575 78.4598 160.649 78.4779 160.721 78.4679C160.793 78.4579 160.858 78.4207 160.904 78.3638C160.949 78.3069 160.971 78.2348 160.964 78.1624C160.958 78.0899 160.924 78.0226 160.87 77.9744L159.717 77.0212L159.715 77.0187ZM163.137 79.9257C163.088 79.9052 163.034 79.9008 162.982 79.9132C162.931 79.9257 162.885 79.9543 162.85 79.9948C162.816 80.0354 162.796 80.0858 162.792 80.1387C162.789 80.1917 162.802 80.2443 162.831 80.2891L163.971 81.2473C164.013 81.2777 164.065 81.2912 164.117 81.2853C164.169 81.2793 164.216 81.2543 164.251 81.2151C164.285 81.1759 164.303 81.1253 164.302 81.0733C164.301 81.0212 164.281 80.9714 164.245 80.9337L163.137 79.9257ZM166.408 83.0094C166.38 82.9822 166.343 82.967 166.304 82.967C166.266 82.967 166.228 82.9822 166.201 83.0094C166.175 83.0368 166.16 83.0734 166.16 83.1115C166.16 83.1495 166.175 83.1861 166.201 83.2135L167.289 84.2315C167.31 84.2514 167.338 84.2625 167.367 84.2625C167.396 84.2625 167.424 84.2514 167.445 84.2315C167.466 84.2101 167.478 84.1815 167.478 84.1518C167.478 84.1221 167.466 84.0935 167.445 84.0722L166.398 83.0044L166.408 83.0094Z" fill="url(#paint0_linear_301_17364)"/>
<path d="M77.5518 120.261C77.1771 119.737 76.8764 119.164 76.6582 118.558C76.382 117.816 76.2453 117.03 76.2551 116.239H75.5631L75.3615 116.555C75.1844 116.863 75.0481 117.192 74.9559 117.535C74.822 117.974 74.7541 118.43 74.7543 118.889V119.006C73.5447 120.274 72.2479 121.062 70.8641 121.371V122.063C72.3835 121.779 73.7697 121.009 74.814 119.87C74.8521 120.101 74.9716 120.687 75.1724 121.63C75.3579 122.434 75.4596 123.256 75.476 124.081C75.476 126.885 74.5244 128.288 72.6213 128.29C71.6987 128.29 71.0259 127.982 70.6028 127.366C70.8558 127.441 71.1181 127.479 71.3818 127.481C71.6473 127.489 71.9114 127.439 72.1556 127.335C72.3998 127.23 72.6182 127.074 72.7955 126.876C73.1633 126.467 73.3594 125.932 73.343 125.383C73.3522 125.117 73.3071 124.851 73.2104 124.603C73.1137 124.355 72.9674 124.129 72.7806 123.939C72.593 123.754 72.3696 123.608 72.1239 123.512C71.8783 123.416 71.6156 123.371 71.3519 123.379C70.8015 123.372 70.2684 123.572 69.8586 123.939C69.8238 123.972 69.7939 124.006 69.7615 124.039V124.009L66.4638 127.244C66.1319 127.592 65.7353 127.871 65.2965 128.066C64.7853 128.3 64.2286 128.418 63.6663 128.412C63.3876 128.42 63.1103 128.37 62.8528 128.263C62.5954 128.156 62.3636 127.995 62.1729 127.792C61.7764 127.379 61.5789 126.739 61.5806 125.873C61.5806 125.47 61.5996 124.922 61.6378 124.23C63.7534 124.21 65.3828 123.889 66.526 123.265C67.6692 122.641 68.2408 121.723 68.2408 120.512C68.2408 118.571 67.0204 117.6 64.5797 117.6C62.6765 117.6 61.1583 118.249 60.025 119.546C58.8917 120.844 58.3284 122.642 58.3351 124.942C58.3351 125.059 58.3351 125.169 58.35 125.281L56.339 127.663C56.1676 127.889 55.951 128.078 55.703 128.217C55.4549 128.356 55.1808 128.441 54.8979 128.469C55.7823 123.704 56.6949 118.678 57.6357 113.391C57.673 113.045 57.6929 112.796 57.6929 112.645C57.6929 111.838 57.4532 111.214 56.9736 110.77C56.4908 110.327 55.8138 110.108 54.9402 110.108C54.5218 110.102 54.1076 110.192 53.7299 110.373C53.3521 110.553 53.021 110.817 52.7624 111.146L53.1955 111.492C53.3668 111.265 53.5833 111.076 53.8313 110.937C54.0793 110.798 54.3535 110.711 54.6366 110.683L53.081 119.161C52.9669 118.912 52.8214 118.68 52.6479 118.469C52.1103 117.875 51.3512 117.577 50.3706 117.575C49.5695 117.555 48.7748 117.722 48.0491 118.062C47.3234 118.402 46.6867 118.906 46.1893 119.534C45.1091 120.836 44.569 122.621 44.569 124.887C44.569 126.173 44.915 127.187 45.6069 127.929C46.2988 128.671 47.2943 129.041 48.5935 129.039C49.901 129.039 50.9796 128.318 51.8291 126.876C51.9834 128.316 52.906 129.037 54.5967 129.039C55.0128 129.044 55.4244 128.953 55.7995 128.773C56.1746 128.593 56.5032 128.329 56.7596 128.001L58.4595 126.112C58.6166 126.829 58.9881 127.482 59.5247 127.984C60.3212 128.725 61.4984 129.095 63.0565 129.094C63.8234 129.103 64.5847 128.961 65.2965 128.676C65.8563 128.467 66.3739 128.159 66.8246 127.767L69.2239 125.395C69.2115 125.522 69.204 125.644 69.204 125.796C69.2104 126.232 69.3133 126.66 69.5052 127.052C69.6972 127.443 69.9734 127.787 70.3141 128.058C71.0541 128.712 72.1451 129.039 73.587 129.039C74.9535 129.071 76.2817 128.586 77.3054 127.68C77.7997 127.264 78.1947 126.742 78.4617 126.153C78.7287 125.565 78.8608 124.924 78.8485 124.278C78.858 123.485 78.7213 122.698 78.4453 121.956C78.2273 121.352 77.9266 120.782 77.5518 120.261ZM63.1361 119.666C63.838 118.783 64.5589 118.341 65.299 118.339C66.0456 118.339 66.5957 118.548 66.9715 118.959C67.3519 119.393 67.5522 119.955 67.5315 120.532C67.5315 122.551 65.6001 123.57 61.7374 123.588C61.9697 121.859 62.4359 120.552 63.1361 119.666ZM52.0083 125.119C51.7478 125.755 51.4234 126.363 51.0401 126.933C50.8067 127.338 50.4934 127.691 50.1192 127.971C49.794 128.228 49.3935 128.37 48.9793 128.377C48.8028 128.386 48.6275 128.343 48.4743 128.255C48.3212 128.167 48.1967 128.036 48.1157 127.879C47.9315 127.551 47.8419 126.946 47.8419 126.062C47.8549 124.284 48.1265 122.516 48.6483 120.816C49.1859 119.009 49.7625 118.105 50.3781 118.105C51.2625 118.105 51.8872 118.36 52.2522 118.869C52.6121 119.361 52.8221 119.946 52.857 120.554L52.0083 125.119ZM99.7004 114.798C99.5046 114.607 99.35 114.378 99.246 114.125C99.142 113.872 99.0908 113.6 99.0956 113.327C99.0907 113.05 99.1417 112.775 99.2456 112.518C99.3495 112.262 99.5042 112.029 99.7004 111.833C99.8896 111.634 100.118 111.476 100.371 111.37C100.624 111.263 100.897 111.21 101.171 111.214C101.729 111.216 102.263 111.439 102.657 111.833C103.052 112.227 103.274 112.761 103.277 113.319C103.281 113.594 103.228 113.866 103.121 114.119C103.014 114.373 102.856 114.601 102.657 114.79C102.462 114.986 102.229 115.141 101.972 115.245C101.716 115.349 101.441 115.4 101.164 115.395C100.892 115.4 100.622 115.35 100.37 115.248C100.119 115.145 99.8906 114.992 99.7004 114.798ZM111.752 117.593C110.462 117.593 109.415 118.246 108.608 119.554C109.051 117.151 109.426 115.095 109.733 113.384C109.77 113.038 109.79 112.789 109.79 112.637C109.79 111.831 109.551 111.206 109.071 110.763C108.591 110.32 107.911 110.101 107.038 110.101C106.619 110.095 106.205 110.185 105.827 110.365C105.45 110.545 105.118 110.81 104.86 111.139L105.293 111.485C105.464 111.258 105.681 111.069 105.929 110.929C106.177 110.79 106.451 110.704 106.734 110.676L104.302 124.955L101.813 127.655C101.642 127.882 101.425 128.071 101.177 128.209C100.929 128.348 100.655 128.434 100.372 128.462L102.364 117.565L101.96 117.65C100.919 117.789 99.8676 117.847 98.8168 117.824H97.5724L97.5151 118.344H98.7247L97.774 123.504C97.6197 124.425 97.5044 125.147 97.428 125.671C96.1388 125.759 94.9715 126.64 94.1925 127.227C93.9736 127.389 93.7688 127.569 93.5802 127.765C93.4141 127.967 93.2072 128.131 92.973 128.248C92.7388 128.365 92.4827 128.431 92.2213 128.442C92.8535 125.022 93.4923 121.318 94.1377 117.329C94.7832 113.34 95.115 111.096 95.1333 110.596C95.5929 110.596 95.982 110.845 96.3006 111.343C96.6274 111.881 96.7924 112.501 96.7759 113.13C96.7759 114.265 96.3719 115.779 95.5639 117.672C94.7558 119.565 94.3501 121.021 94.3468 122.04H94.8645C94.8645 121.139 95.2735 119.708 96.0915 117.747C96.9095 115.786 97.3235 114.277 97.3335 113.22C97.3335 112.163 97.1078 111.374 96.6565 110.855C96.4468 110.606 96.184 110.406 95.8873 110.271C95.5906 110.137 95.2675 110.07 94.9416 110.076C94.4715 110.065 94.0059 110.17 93.5857 110.381C93.1656 110.593 92.8039 110.904 92.5324 111.288C91.9168 112.095 91.4381 113.449 91.0963 115.353L89.71 123.028L89.6552 123.337L89.6055 123.603L89.4835 124.29L89.4586 124.422L89.2222 125.731C89.1903 125.979 89.1712 126.228 89.1649 126.478C89.1649 127.288 89.4047 127.912 89.8842 128.352C90.362 128.794 90.9932 129.032 91.6439 129.017C92.2333 129.043 92.8181 128.902 93.3313 128.611C93.6959 128.341 94.0381 128.042 94.3543 127.717C95.758 126.54 96.7983 126.224 97.3583 126.144C97.3323 126.309 97.3156 126.475 97.3086 126.642C97.2971 126.97 97.358 127.296 97.4871 127.597C97.6162 127.898 97.8102 128.167 98.0552 128.384C98.553 128.826 99.2308 129.046 100.089 129.046C100.505 129.051 100.916 128.96 101.291 128.78C101.667 128.6 101.995 128.336 102.252 128.009L104.143 125.903L104.215 125.495L103.518 129.564H104.053L106.475 127.834C107.033 128.644 107.917 129.048 109.128 129.046C111.088 129.046 112.683 128.398 113.914 127.1C115.146 125.803 115.758 124.017 115.751 121.744C115.751 120.458 115.405 119.444 114.713 118.703C114.021 117.961 113.034 117.591 111.752 117.593ZM111.503 126.055C110.839 127.527 109.979 128.262 108.924 128.26C108.078 128.26 107.491 127.954 107.165 127.337C107.395 126.051 107.751 124.148 108.232 121.63H108.285C108.368 121.325 108.484 121.031 108.631 120.751C108.918 120.156 109.292 119.607 109.741 119.121C110.248 118.545 110.746 118.257 111.234 118.257C111.714 118.257 112.045 118.419 112.229 118.755C112.414 119.091 112.503 119.686 112.503 120.569C112.502 122.758 112.169 124.586 111.505 126.055H111.503ZM187.026 121.956C186.808 121.35 186.507 120.778 186.132 120.256C185.757 119.732 185.457 119.159 185.239 118.553C184.962 117.811 184.826 117.025 184.835 116.234H184.143L183.947 116.555C183.771 116.863 183.634 117.193 183.541 117.535C183.407 117.974 183.339 118.43 183.34 118.889V119.006C182.13 120.274 180.833 121.062 179.449 121.371V122.063C180.969 121.779 182.355 121.009 183.399 119.87C183.436 120.101 183.555 120.687 183.758 121.63C183.943 122.434 184.045 123.256 184.061 124.081C184.061 126.885 183.11 128.288 181.207 128.29C180.286 128.29 179.611 127.981 179.188 127.366C179.441 127.441 179.703 127.479 179.967 127.481C180.233 127.489 180.497 127.439 180.741 127.335C180.985 127.23 181.203 127.074 181.381 126.876C181.749 126.467 181.945 125.932 181.928 125.383C181.937 125.117 181.892 124.851 181.796 124.603C181.699 124.355 181.553 124.129 181.366 123.939C181.178 123.754 180.955 123.608 180.709 123.512C180.464 123.416 180.201 123.371 179.937 123.379C179.387 123.372 178.854 123.572 178.444 123.939C178.369 124.009 178.3 124.086 178.24 124.168L175.149 127.207C174.818 127.556 174.421 127.835 173.981 128.028C173.471 128.265 172.914 128.384 172.351 128.377C172.072 128.386 171.795 128.335 171.537 128.227C171.279 128.12 171.048 127.959 170.858 127.755C170.463 127.345 170.265 126.706 170.265 125.838C170.265 125.435 170.284 124.887 170.323 124.196C172.438 124.176 174.068 123.854 175.211 123.23C176.354 122.606 176.926 121.688 176.926 120.477C176.926 118.536 175.705 117.565 173.264 117.565C171.36 117.565 169.841 118.214 168.71 119.511C167.578 120.809 167.016 122.601 167.022 124.887C167.023 125.147 167.042 125.407 167.08 125.664C166.054 125.861 164.84 126.732 164.153 127.247C163.933 127.409 163.727 127.588 163.538 127.785C163.373 127.987 163.166 128.153 162.931 128.27C162.697 128.386 162.441 128.452 162.179 128.462C162.814 125.042 163.453 121.337 164.095 117.349C164.738 113.36 165.069 111.116 165.091 110.616C165.551 110.616 165.942 110.865 166.258 111.363C166.586 111.9 166.751 112.521 166.734 113.15C166.734 114.285 166.33 115.799 165.524 117.692C164.718 119.585 164.314 121.041 164.312 122.06H164.832C164.832 121.157 165.24 119.726 166.057 117.764C166.873 115.803 167.278 114.296 167.271 113.244C167.271 112.189 167.046 111.401 166.594 110.88C166.385 110.63 166.122 110.431 165.825 110.297C165.528 110.162 165.205 110.096 164.879 110.103C164.41 110.092 163.944 110.196 163.525 110.407C163.105 110.618 162.744 110.929 162.473 111.313C161.867 112.119 161.391 113.474 161.044 115.377L159.421 124.367C159.172 124.982 156.952 127.66 156.952 127.66C156.781 127.887 156.564 128.076 156.315 128.215C156.067 128.354 155.792 128.439 155.509 128.466L157.44 117.57L157.067 117.655C156.035 117.795 154.994 117.853 153.953 117.829L152.741 124.489C152.448 125.466 151.985 126.384 151.372 127.2C150.855 127.852 150.314 128.178 149.749 128.178C148.96 128.178 148.566 127.763 148.567 126.933C148.567 126.396 148.74 125.262 149.085 123.531C149.43 121.8 149.602 120.599 149.6 119.927C149.6 118.351 148.726 117.563 146.977 117.565C146.451 117.558 145.929 117.666 145.449 117.881C145.079 118.015 144.764 118.27 144.555 118.603L144.986 118.949C145.484 118.411 145.966 118.14 146.429 118.14C146.324 119.425 146.123 120.701 145.827 121.956C145.464 123.658 145.281 124.806 145.279 125.4C145.279 125.497 145.279 125.589 145.279 125.681C143.903 125.681 142.646 126.622 141.83 127.242C141.611 127.404 141.406 127.583 141.218 127.78C141.052 127.982 140.845 128.147 140.611 128.264C140.377 128.381 140.12 128.446 139.859 128.457C140.491 125.037 141.13 121.333 141.775 117.344C142.421 113.355 142.752 111.111 142.771 110.611C143.231 110.611 143.619 110.86 143.938 111.358C144.265 111.896 144.43 112.516 144.413 113.145C144.413 114.28 144.009 115.794 143.201 117.687C142.393 119.58 141.99 121.036 141.992 122.055H142.509C142.509 121.152 142.918 119.721 143.736 117.759C144.554 115.798 144.966 114.293 144.971 113.244C144.971 112.189 144.745 111.401 144.294 110.88C144.084 110.63 143.82 110.431 143.523 110.297C143.226 110.162 142.903 110.096 142.576 110.103C142.107 110.093 141.642 110.197 141.222 110.408C140.803 110.619 140.441 110.93 140.17 111.313C139.564 112.119 139.089 113.474 138.744 115.377L136.892 125.629C135.588 125.701 134.403 126.597 133.621 127.19C133.403 127.351 133.198 127.531 133.009 127.727C132.843 127.93 132.636 128.095 132.402 128.211C132.168 128.328 131.912 128.394 131.65 128.404C132.284 124.983 132.923 121.278 133.567 117.289C134.21 113.3 134.542 111.06 134.562 110.569C135.023 110.569 135.413 110.818 135.73 111.316C136.056 111.853 136.221 112.474 136.205 113.103C136.205 114.238 135.802 115.751 134.995 117.642C134.189 119.534 133.785 120.99 133.783 122.01H134.301C134.301 121.108 134.71 119.676 135.528 117.714C136.346 115.753 136.754 114.245 136.752 113.19C136.752 112.133 136.527 111.345 136.075 110.825C135.866 110.575 135.604 110.375 135.307 110.24C135.01 110.105 134.687 110.039 134.361 110.046C133.89 110.035 133.425 110.14 133.004 110.351C132.584 110.562 132.223 110.874 131.951 111.258C131.347 112.065 130.872 113.42 130.525 115.323L129.032 123.573L125.251 127.108C124.919 127.455 124.523 127.734 124.084 127.929C123.573 128.164 123.016 128.283 122.454 128.275C122.175 128.283 121.898 128.233 121.64 128.126C121.383 128.019 121.151 127.859 120.96 127.655C120.564 127.242 120.366 126.603 120.368 125.739C120.368 125.334 120.387 124.785 120.425 124.094C122.541 124.077 124.17 123.755 125.314 123.128C126.457 122.501 127.028 121.583 127.028 120.375C127.028 118.434 125.808 117.463 123.367 117.463C121.464 117.463 119.946 118.112 118.813 119.409C117.679 120.707 117.112 122.499 117.11 124.785C117.11 126.075 117.509 127.088 118.307 127.827C119.105 128.565 120.283 128.935 121.839 128.937C122.606 128.946 123.367 128.804 124.079 128.521C124.638 128.31 125.155 128.003 125.607 127.613L128.868 124.377L128.631 125.686C128.594 126.032 128.574 126.284 128.574 126.433C128.574 127.242 128.823 127.864 129.296 128.307C129.773 128.749 130.403 128.986 131.053 128.969C131.642 128.995 132.227 128.855 132.74 128.566C133.106 128.297 133.448 127.998 133.763 127.673C135.207 126.46 136.27 126.159 136.815 126.092C136.8 126.261 136.792 126.401 136.792 126.495C136.792 127.305 137.032 127.931 137.512 128.372C137.99 128.812 138.621 129.049 139.271 129.034C139.86 129.06 140.445 128.92 140.959 128.631C141.323 128.36 141.665 128.062 141.982 127.737C143.724 126.266 144.926 126.132 145.312 126.134C145.392 126.86 145.709 127.54 146.213 128.068C146.845 128.712 147.728 129.034 148.863 129.034C150.44 129.034 151.632 128.227 152.44 126.612C152.429 126.946 152.49 127.279 152.619 127.587C152.748 127.895 152.941 128.172 153.187 128.399C153.666 128.822 154.339 129.034 155.205 129.034C155.621 129.039 156.032 128.948 156.407 128.768C156.782 128.588 157.11 128.324 157.365 127.996L159.15 125.774C159.115 126.105 159.095 126.348 159.095 126.495C159.074 126.842 159.128 127.188 159.252 127.512C159.377 127.836 159.569 128.129 159.817 128.372C160.295 128.813 160.926 129.05 161.577 129.034C162.165 129.059 162.749 128.92 163.262 128.631C163.695 128.362 163.968 127.999 164.285 127.737C165.668 126.587 166.664 126.264 167.154 126.177C167.326 126.845 167.686 127.45 168.192 127.919C168.989 128.659 170.166 129.029 171.724 129.029C172.491 129.039 173.252 128.897 173.964 128.611C174.524 128.402 175.041 128.094 175.492 127.702L177.784 125.435C177.774 125.548 177.769 125.665 177.769 125.786C177.776 126.222 177.879 126.651 178.071 127.042C178.263 127.433 178.539 127.777 178.879 128.048C179.621 128.702 180.712 129.029 182.152 129.029C183.523 129.067 184.858 128.585 185.888 127.68C186.382 127.264 186.776 126.743 187.043 126.156C187.31 125.568 187.443 124.928 187.431 124.283C187.441 123.489 187.303 122.7 187.026 121.956ZM171.818 119.606C172.52 118.723 173.241 118.281 173.981 118.279C174.721 118.278 175.279 118.484 175.654 118.899C176.035 119.333 176.235 119.896 176.214 120.472C176.214 122.488 174.282 123.506 170.42 123.526C170.644 121.8 171.11 120.495 171.818 119.611V119.606ZM121.921 119.506C122.623 118.624 123.344 118.182 124.084 118.18C124.824 118.178 125.382 118.385 125.757 118.8C126.138 119.232 126.339 119.794 126.317 120.37C126.317 122.389 124.385 123.408 120.522 123.426C120.755 121.701 121.221 120.396 121.921 119.511V119.506ZM81.7356 90.5134C80.4347 90.5134 79.3628 91.2311 78.5199 92.6663C78.5209 92.3378 78.4525 92.0127 78.3191 91.7125C78.1857 91.4123 77.9904 91.1436 77.7459 90.9241C77.268 90.5134 76.601 90.3068 75.7548 90.3068C75.343 90.3029 74.9358 90.394 74.565 90.5731C74.1941 90.7523 73.8697 91.0146 73.6168 91.3397L74.0474 91.6857C74.2181 91.4596 74.4338 91.2713 74.681 91.133C74.9283 90.9946 75.2015 90.909 75.4835 90.8818L72.7855 105.92H76.2003L77.0565 101.298C77.5742 101.698 78.2711 101.9 79.1521 101.9C81.1034 101.9 82.6913 101.254 83.9159 99.9613C85.1404 98.6687 85.7527 96.8941 85.7527 94.6375C85.7527 93.3566 85.4084 92.3477 84.7198 91.611C84.0312 90.8743 83.0364 90.5085 81.7356 90.5134ZM81.4867 98.9508C80.8064 100.482 80.0124 101.248 79.1048 101.248C78.1972 101.248 77.58 100.884 77.2531 100.155L78.286 94.5305H78.3159C78.402 94.2278 78.5196 93.9351 78.6668 93.6569C78.953 93.0644 79.3254 92.5175 79.7719 92.0341C80.2696 91.46 80.7624 91.173 81.2503 91.173C81.4464 91.1525 81.6442 91.1885 81.8206 91.2767C81.997 91.3649 82.1445 91.5016 82.2458 91.6708C82.4267 92.0026 82.5171 92.6058 82.5171 93.4802C82.5121 95.5974 82.1703 97.4209 81.4917 98.9508H81.4867ZM109.89 87.7508C109.694 87.5612 109.54 87.3335 109.436 87.0817C109.332 86.83 109.28 86.5596 109.285 86.2873C109.281 86.0128 109.333 85.7404 109.436 85.4863C109.54 85.2322 109.695 85.0018 109.89 84.8089C110.078 84.61 110.305 84.4524 110.557 84.3461C110.809 84.2399 111.08 84.1872 111.353 84.1916C111.908 84.1949 112.439 84.4168 112.832 84.8091C113.224 85.2014 113.446 85.7325 113.449 86.2873C113.453 86.5607 113.4 86.8319 113.294 87.0838C113.188 87.3357 113.03 87.5628 112.832 87.7508C112.638 87.9449 112.408 88.0982 112.154 88.2017C111.9 88.3051 111.628 88.3566 111.353 88.3531C111.083 88.3583 110.814 88.3083 110.563 88.206C110.312 88.1037 110.085 87.9514 109.895 87.7582L109.89 87.7508ZM120.134 86.2574L119.761 86.3445C118.715 86.4809 117.66 86.5383 116.605 86.5163L115.831 90.7648H114.365L114.308 91.28H115.714C115.199 94.09 114.853 96.1657 114.676 97.5197C114.036 98.3285 111.632 101.355 110.549 101.355L112.541 90.506L112.137 90.5906C111.101 90.7302 110.055 90.7884 109.009 90.7648H107.764L107.707 91.28H108.914L107.966 96.4171C107.856 97.0766 107.767 97.6292 107.697 98.0846C107.117 98.887 106.392 99.5741 105.559 100.111C104.74 100.656 103.162 101.124 102.513 101.124C101.863 101.124 101.537 100.82 101.537 100.205C101.537 99.1914 102.016 96.2163 102.973 91.28H106.56L106.617 90.7648H103.058C103.39 89.1055 103.687 87.6031 103.949 86.2574L103.576 86.3445C102.529 86.4808 101.473 86.5382 100.417 86.5163L99.6431 90.7648H98.1797L98.1224 91.28H99.5287C98.9313 94.5205 98.5621 96.7921 98.4211 98.0946C96.9726 99.0901 94.414 100.755 94.0556 100.924C93.5477 101.158 92.9942 101.275 92.4353 101.268C92.1592 101.276 91.8846 101.225 91.6297 101.118C91.3748 101.012 91.1454 100.853 90.9569 100.651C90.5637 100.24 90.3695 99.6029 90.3695 98.7417C90.3695 98.341 90.387 97.7959 90.4268 97.1065C92.5307 97.0866 94.1518 96.7663 95.2901 96.1458C96.4283 95.5252 96.9975 94.6126 96.9975 93.408C96.9975 91.475 95.7829 90.5084 93.3537 90.5084C91.4605 90.5084 89.9489 91.1539 88.819 92.4448C87.689 93.7357 87.1257 95.5252 87.129 97.8133C87.129 99.0959 87.5256 100.105 88.3187 100.84C89.1118 101.575 90.2841 101.943 91.8355 101.945C92.6023 101.955 93.3635 101.814 94.0755 101.529C94.5583 101.33 96.9452 99.787 98.3639 98.8213C98.3639 98.9109 98.3639 98.9931 98.3639 99.0702C98.3428 99.4713 98.4147 99.8719 98.574 100.241C98.7333 100.609 98.9757 100.936 99.2822 101.196C99.9328 101.715 100.748 101.984 101.579 101.955C103.591 101.955 106.072 101.022 107.553 99.3216C107.54 99.4336 107.533 99.5232 107.533 99.5705C107.521 99.8936 107.581 100.215 107.708 100.513C107.834 100.81 108.024 101.077 108.265 101.293C108.752 101.733 109.427 101.952 110.288 101.952C111.911 101.952 113.832 99.3515 114.609 98.346C114.579 98.6496 114.564 98.8935 114.564 99.0677C114.542 99.4689 114.614 99.8696 114.773 100.238C114.933 100.607 115.175 100.934 115.482 101.193C116.132 101.712 116.946 101.981 117.777 101.952C119.997 101.952 121.461 100.441 122.168 97.4176L121.652 97.2459C121.417 98.191 121.02 99.0885 120.48 99.899C119.943 100.729 119.349 101.139 118.701 101.131C118.048 101.131 117.725 100.827 117.725 100.213C117.725 99.1988 118.203 96.2238 119.159 91.2875H122.747L122.805 90.7723H119.246C119.571 89.1064 119.869 87.6039 120.139 86.2649L120.134 86.2574ZM91.9077 92.5518C92.6062 91.6708 93.3239 91.2302 94.0606 91.2302C94.7973 91.2302 95.3523 91.436 95.7256 91.8475C96.1062 92.2781 96.3067 92.8386 96.2856 93.413C96.2856 95.4207 94.3625 96.4345 90.5164 96.4544C90.747 94.7321 91.2108 93.4312 91.9077 92.5518ZM198.908 97.9179C198.908 98.0896 198.716 98.4928 198.333 99.1225C198.117 99.4782 197.867 99.8116 197.586 100.118C197.256 100.465 196.861 100.743 196.424 100.937C195.916 101.17 195.362 101.288 194.803 101.28C194.527 101.288 194.253 101.237 193.998 101.131C193.743 101.024 193.514 100.865 193.325 100.663C192.932 100.252 192.738 99.6153 192.738 98.7541C192.738 98.3534 192.755 97.8084 192.795 97.1189C194.899 97.099 196.52 96.7788 197.658 96.1582C198.796 95.5377 199.365 94.6251 199.365 93.4205C199.365 91.4874 198.151 90.5209 195.722 90.5209C193.829 90.5209 192.317 91.1663 191.187 92.4573C190.057 93.7482 189.493 95.5335 189.495 97.8133C189.493 98.1695 189.529 98.5249 189.602 98.8736C189.134 99.5182 187.892 101.487 186.647 101.362C187.528 96.6154 188.441 91.6119 189.385 86.352C189.422 86.0061 189.442 85.7597 189.442 85.6053C189.463 85.2609 189.409 84.916 189.285 84.594C189.161 84.272 188.969 83.9803 188.723 83.7387C188.245 83.3006 187.571 83.0791 186.7 83.0791C186.283 83.0732 185.872 83.1633 185.496 83.3424C185.121 83.5216 184.791 83.7849 184.534 84.112L184.965 84.458C185.135 84.2321 185.351 84.0441 185.597 83.9057C185.844 83.7673 186.117 83.6816 186.398 83.654L184.84 92.0889C184.726 91.8423 184.581 91.6108 184.41 91.3995C183.872 90.8071 183.116 90.5109 182.142 90.5109C181.343 90.4896 180.55 90.6552 179.827 90.9944C179.103 91.3336 178.468 91.837 177.973 92.4647C176.902 93.7672 176.366 95.5468 176.366 97.8034C176.365 98.1082 176.386 98.4127 176.43 98.7143C175.778 99.5506 174.484 101.362 173.521 101.362C173.63 100.083 173.835 98.8135 174.133 97.5644C174.496 95.8687 174.678 94.7255 174.678 94.1348C174.678 93.0048 174.362 92.1196 173.73 91.4791C173.098 90.8386 172.217 90.5184 171.089 90.5184C169.43 90.5184 168.205 91.4177 167.416 93.2164V93.0446C167.416 92.2399 167.177 91.6177 166.699 91.178C166.221 90.7383 165.546 90.5184 164.675 90.5184C162.861 90.5184 161.758 91.6608 161.141 92.3876C160.977 92.1054 160.773 91.8482 160.536 91.6235C159.763 90.8868 158.685 90.5184 157.301 90.5184C156.113 90.4801 154.93 90.6938 153.831 91.1456C152.978 91.5041 152.253 92.1112 151.751 92.8878C151.302 93.5976 150.966 94.3725 150.755 95.1851C150.539 96.1259 150.438 97.0895 150.454 98.0548C150.454 98.3499 150.484 98.6443 150.543 98.9333L149.013 100.551C148.515 101.087 148.036 101.355 147.577 101.355C147.683 100.078 147.884 98.8112 148.179 97.5644C148.542 95.8687 148.725 94.7255 148.727 94.1348C148.727 93.0048 148.41 92.1196 147.778 91.4791C147.445 91.1544 147.05 90.9016 146.615 90.7363C146.18 90.571 145.716 90.4969 145.252 90.5184C144.198 90.5184 143.395 90.8104 142.843 91.3945C142.214 92.1039 141.743 92.9398 141.464 93.846C141.408 92.7957 141.068 91.9786 140.446 91.3945C139.824 90.8104 138.976 90.5167 137.902 90.5134C136.392 90.5134 135.263 91.3837 134.515 93.1243V93.0397C134.515 92.2349 134.276 91.6127 133.798 91.173C133.32 90.7333 132.646 90.5134 131.775 90.5134C131.359 90.5067 130.946 90.5965 130.571 90.7757C130.195 90.9549 129.866 91.2187 129.609 91.5463L130.04 91.8898C130.211 91.6642 130.426 91.4763 130.673 91.3379C130.919 91.1996 131.192 91.1138 131.474 91.0859L129.579 101.679H133.024L134.057 95.9367C134.862 92.8953 135.857 91.3746 137.044 91.3746C137.829 91.3746 138.221 91.7894 138.221 92.619C138.221 93.155 138.048 94.2833 137.703 96.0039C137.358 97.7246 137.186 98.9209 137.188 99.5929C137.188 101.161 138.058 101.945 139.799 101.945C140.323 101.952 140.842 101.844 141.32 101.629C141.689 101.497 142.003 101.244 142.211 100.912L141.78 100.551C141.282 101.087 140.804 101.355 140.344 101.355C140.453 100.061 140.655 98.7756 140.946 97.5097C141.791 93.413 142.901 91.3655 144.276 91.3671C145.061 91.3671 145.454 91.7819 145.454 92.6116C145.454 93.1475 145.281 94.2758 144.936 95.9965C144.591 97.7171 144.419 98.9134 144.421 99.5854C144.421 101.153 145.291 101.937 147.032 101.937C147.556 101.944 148.075 101.837 148.552 101.621C148.943 101.39 149.278 101.075 149.533 100.698C149.669 100.503 149.821 100.32 149.988 100.15L150.688 99.451C150.881 99.9747 151.192 100.447 151.596 100.832C152.363 101.569 153.483 101.937 154.956 101.937C157.136 101.937 158.806 101.268 159.964 99.9289C161.122 98.5899 161.703 96.8294 161.706 94.6475C161.71 94.1106 161.626 93.5766 161.457 93.067C162.756 91.2277 163.824 91.1456 164.377 91.0884L163.431 96.3997C163.122 98.2365 162.969 99.2884 162.97 99.5556C162.959 99.8787 163.019 100.2 163.145 100.498C163.271 100.796 163.462 101.062 163.702 101.278C164.19 101.718 164.864 101.937 165.726 101.937C166.14 101.943 166.55 101.852 166.923 101.673C167.297 101.494 167.624 101.231 167.879 100.905L167.445 100.551C167.271 100.779 167.05 100.969 166.798 101.107C166.546 101.246 166.268 101.33 165.982 101.355L166.958 95.9865C167.341 94.5529 167.824 93.4246 168.406 92.6016C168.989 91.7786 169.596 91.3638 170.228 91.3572C171.015 91.3572 171.405 91.7678 171.405 92.6016C171.405 93.1375 171.234 94.2658 170.89 95.9865C170.547 97.7071 170.374 98.9035 170.372 99.5755C170.372 101.143 171.243 101.927 172.983 101.927C173.508 101.934 174.028 101.826 174.506 101.611C174.93 101.42 176.313 99.9563 176.632 99.5157C176.793 100.002 177.057 100.448 177.406 100.822C178.095 101.559 179.09 101.927 180.393 101.927C181.695 101.927 182.767 101.211 183.608 99.7771C183.761 101.211 184.679 101.927 186.364 101.927C188.141 101.927 189.238 100.434 189.848 99.6476C190.04 100.093 190.323 100.493 190.679 100.822C191.472 101.559 192.645 101.927 194.196 101.927C194.963 101.938 195.724 101.797 196.436 101.512C196.993 101.304 197.508 100.998 197.957 100.608C198.333 100.243 198.653 99.824 198.905 99.3639C199.138 98.9859 199.313 98.5747 199.423 98.1444L198.908 97.9179ZM194.273 92.5518C194.97 91.6708 195.687 91.2302 196.424 91.2302C197.16 91.2302 197.715 91.436 198.089 91.8475C198.469 92.2781 198.67 92.8386 198.649 93.413C198.649 95.4207 196.726 96.4345 192.879 96.4544C193.108 94.7321 193.573 93.4312 194.273 92.5518ZM157.41 98.9657C156.712 100.505 155.917 101.275 155.026 101.275C154.135 101.275 153.69 100.51 153.692 98.9806C153.692 96.6261 154.051 94.718 154.77 93.2562C155.488 91.7944 156.282 91.0626 157.151 91.061C158.023 91.061 158.458 91.8649 158.458 93.4727C158.458 95.5949 158.109 97.4259 157.41 98.9657ZM183.778 98.0324C183.514 98.6667 183.187 99.2729 182.802 99.8418C182.569 100.245 182.256 100.596 181.884 100.875C181.56 101.128 181.162 101.268 180.751 101.275C180.575 101.285 180.399 101.243 180.247 101.154C180.094 101.066 179.97 100.935 179.89 100.778C179.706 100.452 179.616 99.8492 179.616 98.9707C179.63 97.1987 179.9 95.4381 180.42 93.744C180.956 91.9454 181.53 91.046 182.142 91.046C183.02 91.046 183.641 91.2999 184.007 91.8076C184.365 92.2972 184.574 92.8797 184.609 93.4852L183.778 98.0324ZM60.6796 97.2558C60.4625 97.6104 60.2125 97.9437 59.9329 98.2514C59.6028 98.5977 59.2079 98.8759 58.7706 99.0702C58.2619 99.3038 57.7076 99.4212 57.1479 99.4137C56.8721 99.4214 56.5979 99.3704 56.3435 99.2639C56.089 99.1575 55.8601 98.9982 55.6719 98.7965C55.2787 98.385 55.0821 97.7486 55.0821 96.8875C55.0821 96.4859 55.1012 95.9409 55.1393 95.2523C57.2449 95.2324 58.8668 94.9121 60.0051 94.2916C61.1433 93.671 61.7125 92.7584 61.7125 91.5538C61.7125 89.6224 60.4971 88.6567 58.0662 88.6567C56.173 88.6567 54.6614 89.3022 53.5315 90.5931C52.4015 91.884 51.8374 93.6685 51.8391 95.9467C51.8292 96.5566 51.9409 97.1624 52.1676 97.7287L52.1203 97.7138C51.752 98.9364 51.1427 100.073 50.3283 101.056C49.9022 101.527 49.3903 101.912 48.82 102.191C48.2529 102.504 47.6184 102.675 46.9708 102.689C46.3652 102.689 45.8815 102.67 45.5198 102.632C45.1689 102.596 44.8227 102.523 44.4869 102.415L43.7128 102.166C43.2151 102.014 42.4493 101.421 41.4156 100.387C43.1578 99.1623 44.2297 97.4309 44.6312 95.1925C45.0129 93.3375 45.4476 90.9888 45.9354 88.1465C46.4232 85.3042 46.6671 83.7279 46.6671 83.4176C47.0903 80.5869 48.4392 79.1716 50.7141 79.1716C51.2945 79.1564 51.8713 79.2679 52.4043 79.4983C52.9373 79.7287 53.4136 80.0724 53.8003 80.5056C54.615 81.3933 55.0215 82.6892 55.0199 84.3932H55.7093C55.7093 82.2893 55.1684 80.7495 54.0865 79.7739C53.0047 78.7982 51.6134 78.3104 49.9127 78.3104C48.2975 78.285 46.7104 78.7341 45.348 79.6021C43.8165 80.5977 42.821 82.5299 42.3614 85.3988L40.4374 96.5067C40.2999 97.3027 40.1087 98.0885 39.865 98.8587C38.8004 97.7975 37.3611 97.1976 35.8579 97.1886C34.7678 97.1886 33.9497 97.3935 33.4039 97.8034C33.1441 97.9889 32.9337 98.2351 32.791 98.5205C32.6483 98.806 32.5776 99.122 32.585 99.4411C32.585 100.121 32.9608 100.686 33.705 101.134C34.4492 101.582 35.5319 101.808 36.9406 101.808C38.3362 101.814 39.7066 101.437 40.9029 100.718C41.5326 101.35 41.9258 101.713 42.0776 101.838C42.1349 101.875 42.3265 102.015 42.6376 102.254C42.8625 102.443 43.1208 102.589 43.3992 102.684C43.7158 102.773 44.0274 102.878 44.3326 103C44.764 103.166 45.543 103.249 46.6696 103.249C48.0642 103.264 49.4128 102.751 50.4453 101.813C51.4359 100.911 52.1839 99.7744 52.6206 98.5077C52.7448 98.6728 52.883 98.8269 53.0337 98.9682C53.8268 99.7049 54.9983 100.073 56.548 100.073C57.3148 100.084 58.076 99.9423 58.788 99.6576C59.3446 99.4493 59.8596 99.1434 60.3087 98.7541C60.684 98.3885 61.0027 97.9691 61.2545 97.5097C61.4898 97.1327 61.6645 96.7212 61.7722 96.2901L61.2545 96.0612C61.2446 96.2229 61.0604 96.6261 60.6796 97.2558ZM56.6177 90.6852C57.3179 89.8041 58.0356 89.3636 58.7706 89.3636C59.5057 89.3636 60.0607 89.5693 60.4357 89.9808C60.8157 90.4108 61.0161 90.9703 60.9957 91.5438C60.9957 93.5548 59.0726 94.5695 55.2264 94.5877C55.4554 92.8654 55.9192 91.5646 56.6177 90.6852ZM38.633 101.034C37.8974 101.195 37.1459 101.272 36.393 101.263C35.6311 101.283 34.8763 101.112 34.1978 100.765C33.5756 100.433 33.2645 99.9936 33.2645 99.446C33.2568 99.1913 33.3182 98.9393 33.4422 98.7167C33.5662 98.4941 33.7482 98.3092 33.9688 98.1817C34.5459 97.8588 35.2024 97.7052 35.8629 97.7387C36.5636 97.7171 37.2587 97.8693 37.8863 98.1817C38.5213 98.5398 39.107 98.979 39.6286 99.4884C39.4124 100.07 39.0728 100.597 38.633 101.034Z" fill="#88319C"/>
<path d="M134.759 179.73C147.106 177.261 146.156 168.809 146.156 168.809C145.12 158.542 139.032 158.171 134 157.221C128.967 156.27 120.891 149.527 116.523 146.596C112.155 143.664 109.113 146.215 109.113 146.215C108.72 146.509 108.349 146.833 108.003 147.183C108.058 147.101 110.131 143.972 115.194 145.192C115.194 145.192 119.848 147.273 121.366 147.653C122.884 148.034 131.245 150.976 135.14 154.871C135.14 154.871 137.609 156.862 140.078 157.721C142.547 158.58 146.82 161.614 147.39 167.978C147.905 173.692 144.543 179.16 134.759 179.73Z" fill="#A79280"/>
<path d="M147.515 167.943C146.813 160.115 140.795 157.813 140.118 157.577C137.698 156.74 135.242 154.769 135.227 154.759C133.388 152.92 130.52 151.275 127.842 150.005C124.99 148.659 122.367 147.735 121.396 147.516C120.08 147.203 117.494 145.799 115.221 145.057C110.107 143.835 107.989 146.979 107.899 147.113C107.882 147.139 107.876 147.17 107.881 147.201C107.886 147.231 107.902 147.258 107.926 147.278C107.949 147.298 107.979 147.31 108.01 147.31C108.04 147.31 108.07 147.298 108.093 147.278C108.436 146.93 108.804 146.61 109.196 146.319C109.226 146.292 112.22 143.853 116.453 146.705C117.471 147.392 118.713 148.303 120.03 149.266C124.51 152.547 130.09 156.628 133.968 157.363L134.963 157.544C139.692 158.39 145.048 159.349 146.016 168.841C146.086 170.404 145.717 171.956 144.954 173.321C142.816 177.274 138.206 178.936 134.717 179.633C134.686 179.639 134.659 179.657 134.64 179.682C134.622 179.707 134.613 179.739 134.617 179.77C134.621 179.8 134.636 179.828 134.659 179.848C134.682 179.868 134.711 179.879 134.742 179.879C139.513 179.601 143.042 178.175 145.23 175.648C147.002 173.585 147.783 170.934 147.515 167.943ZM116.593 146.479C114.985 145.396 113.546 145.052 112.362 145.052H112.113C113.128 144.95 114.154 145.026 115.144 145.276C116.252 145.525 119.826 147.365 121.339 147.743C123.433 148.367 125.476 149.152 127.449 150.092C127.228 150.164 127.012 150.247 126.8 150.341C126.784 150.348 126.771 150.357 126.759 150.369C126.748 150.381 126.739 150.395 126.733 150.41C126.727 150.425 126.724 150.442 126.724 150.458C126.725 150.474 126.728 150.491 126.735 150.506C126.749 150.535 126.775 150.558 126.806 150.57C126.837 150.582 126.871 150.581 126.902 150.568C127.186 150.439 127.478 150.33 127.778 150.242C128.201 150.443 128.631 150.652 129.059 150.871C127.362 150.871 125.575 152.303 125.207 152.614L124.542 152.161C124.743 151.968 124.953 151.785 125.172 151.613C125.197 151.593 125.214 151.563 125.218 151.53C125.221 151.498 125.212 151.465 125.192 151.439C125.171 151.413 125.141 151.397 125.109 151.393C125.076 151.389 125.043 151.399 125.018 151.419C124.778 151.603 124.55 151.803 124.336 152.016C122.904 151.021 121.493 149.99 120.179 149.03C118.865 148.069 117.616 147.168 116.593 146.479ZM145.068 175.449C143.201 177.61 140.339 178.951 136.524 179.431C147.022 176.554 146.29 168.866 146.28 168.784C145.285 159.107 139.839 158.132 135.023 157.27C134.687 157.211 134.351 157.151 134.027 157.089C131.608 156.631 128.504 154.849 125.423 152.766C125.941 152.34 128.012 150.757 129.679 151.19C131.71 152.275 133.681 153.55 135.065 154.923C135.09 154.943 137.581 156.942 140.043 157.793C140.71 158.025 146.586 160.282 147.261 167.945C147.529 170.887 146.768 173.476 145.068 175.449Z" fill="#070606"/>
<path d="M144.374 175.307C142.905 177.204 140.299 178.954 135.712 179.636C135.463 179.67 134.744 179.777 134.505 179.795C132.671 179.919 128.066 180.502 119.753 172.607C110.256 163.585 108.451 162.253 106.647 158.741C105.004 155.541 104.621 150.61 108.006 147.173C108.351 146.823 108.722 146.499 109.116 146.205C109.116 146.205 112.157 143.641 116.525 146.586C120.893 149.53 128.97 156.272 134.002 157.223C139.035 158.174 145.12 158.542 146.156 168.809C146.421 171.124 145.783 173.452 144.374 175.307Z" fill="#847C76"/>
<path d="M133.226 179.979C130.851 179.979 126.506 179.198 119.666 172.697C118.056 171.168 116.667 169.859 115.463 168.714C109.614 163.216 108.036 161.735 106.542 158.791C104.8 155.421 104.566 150.496 107.916 147.093L107.936 147.073C108.276 146.721 108.642 146.395 109.031 146.098C109.059 146.078 112.187 143.512 116.585 146.474C116.608 146.49 116.626 146.513 116.634 146.54C116.642 146.568 116.641 146.597 116.63 146.623C116.62 146.65 116.601 146.672 116.577 146.686C116.552 146.7 116.523 146.705 116.495 146.7C116.466 146.7 113.546 146.26 111.401 148.017C109.982 149.179 109.208 151.028 109.101 153.517C108.991 156.086 112.312 161.071 121.961 167.358C126.302 170.185 130.906 172.56 134.923 174.041C139.311 175.656 142.557 176.054 144.306 175.19C144.336 175.176 144.371 175.173 144.403 175.184C144.434 175.195 144.461 175.218 144.476 175.248C144.486 175.268 144.49 175.291 144.488 175.314C144.486 175.337 144.477 175.359 144.463 175.377C142.676 177.687 139.734 179.158 135.72 179.753C135.623 179.767 134.771 179.894 134.505 179.914H134.343C134.042 179.947 133.671 179.979 133.226 179.979Z" fill="#77716D"/>
<path d="M133.226 179.979C130.851 179.979 126.506 179.198 119.666 172.697C118.056 171.168 116.667 169.859 115.463 168.714C109.614 163.216 108.036 161.735 106.542 158.791C104.8 155.421 104.566 150.496 107.916 147.093L107.936 147.073C108.276 146.721 108.642 146.395 109.031 146.098C109.059 146.078 112.187 143.512 116.585 146.474C117.608 147.163 118.852 148.074 120.169 149.04C124.639 152.32 130.187 156.374 134.022 157.099C134.351 157.161 134.687 157.221 135.018 157.28C139.834 158.142 145.289 159.117 146.275 168.794C146.535 171.14 145.887 173.497 144.466 175.382C142.679 177.692 139.737 179.163 135.722 179.758C135.625 179.772 134.774 179.899 134.508 179.919H134.346C134.042 179.947 133.671 179.979 133.226 179.979ZM108.088 147.253C104.818 150.575 105.059 155.384 106.751 158.677C108.245 161.576 109.658 162.908 115.627 168.535C116.834 169.67 118.223 170.979 119.833 172.517C127.87 180.151 132.397 179.822 134.328 179.683L134.49 179.67C134.699 179.655 135.339 179.563 135.685 179.514C139.635 178.926 142.522 177.485 144.269 175.23L144.366 175.307L144.269 175.23C145.65 173.399 146.279 171.109 146.029 168.829C145.06 159.329 139.702 158.375 134.975 157.524L133.98 157.343C130.095 156.608 124.522 152.527 120.042 149.246C118.725 148.283 117.484 147.372 116.466 146.685C112.234 143.833 109.248 146.272 109.208 146.299C108.814 146.588 108.443 146.907 108.098 147.253H108.088Z" fill="#070606"/>
<path d="M109.571 177.152C107.864 179.989 104.372 182.844 97.2413 182.296C83.6595 181.251 84.1348 173.366 84.894 165.578C85.2474 161.957 85.8671 157.741 86.4296 154.266C86.5814 153.34 86.7258 152.469 86.8627 151.673C87.2502 149.353 87.1347 146.976 86.5242 144.704C85.8373 142.118 86.3101 138.041 94.297 137.553C106.741 136.792 104.75 142.111 104.651 144.01C104.589 144.99 104.581 145.973 104.628 146.954C104.746 148.761 105.156 150.537 105.843 152.213C106.231 153.159 106.591 154.071 106.923 154.951C109.676 162.243 110.656 167.395 111.012 170.023C111.356 172.494 110.848 175.008 109.571 177.152Z" fill="#A79280"/>
<path d="M98.9139 182.485C98.334 182.485 97.7715 182.46 97.2314 182.418C92.1641 182.03 88.7244 180.676 86.7134 178.282C83.8611 174.884 84.3664 169.717 84.7696 165.566C85.0682 162.524 85.5834 158.716 86.3077 154.246C86.457 153.321 86.6039 152.447 86.7383 151.653C87.1275 149.353 87.0128 146.995 86.4023 144.744C86.0887 143.554 85.9418 141.819 87.0345 140.306C88.2515 138.621 90.6931 137.655 94.2896 137.436C99.24 137.133 102.503 137.775 103.969 139.345C105.186 140.64 104.964 142.297 104.84 143.392C104.81 143.641 104.783 143.845 104.775 144.025C104.713 145 104.706 145.978 104.753 146.954C104.867 148.75 105.274 150.516 105.957 152.181C106.341 153.111 106.704 154.037 107.04 154.918C109.84 162.338 110.808 167.564 111.134 170.021C111.476 172.513 110.962 175.046 109.678 177.209C107.137 181.44 102.697 182.485 98.9139 182.485ZM96.5545 137.611C95.8493 137.611 95.1026 137.635 94.3145 137.683C90.7952 137.899 88.4183 138.83 87.2485 140.451C86.2106 141.887 86.3525 143.542 86.6537 144.682C87.2734 146.968 87.3897 149.362 86.9946 151.698C86.8577 152.492 86.7134 153.365 86.5641 154.289C85.8423 158.751 85.3196 162.557 85.0284 165.593C84.6078 169.911 84.1299 174.802 86.915 178.125C88.8787 180.464 92.2636 181.788 97.2613 182.174C101.244 182.48 106.612 181.848 109.474 177.092C110.731 174.975 111.232 172.495 110.898 170.056C110.572 167.612 109.609 162.405 106.819 155.011C106.483 154.122 106.119 153.201 105.738 152.273C105.044 150.585 104.631 148.795 104.514 146.974C104.467 145.989 104.474 145.002 104.536 144.017C104.536 143.828 104.574 143.604 104.604 143.365C104.743 142.252 104.935 140.729 103.797 139.52C102.6 138.25 100.171 137.611 96.5545 137.611Z" fill="#070606"/>
<path d="M109.561 177.174C107.854 180.009 104.362 182.864 97.2315 182.316C86.8229 181.515 84.67 176.711 84.573 170.987C84.3788 177.259 86.024 182.767 97.219 183.628C104.35 184.175 107.842 181.321 109.551 178.486C110.662 176.621 111.192 174.468 111.075 172.301C110.967 174.023 110.448 175.694 109.561 177.174Z" fill="#847C76"/>
<path d="M102.523 144.853C102.167 145.699 101.628 146.455 100.945 147.068C98.5332 149.308 98.9115 151.529 98.9115 151.529L94.2473 151.723C94.2473 151.723 94.1079 150.107 90.8773 147.447C90.0993 146.82 89.4451 146.054 88.9484 145.187C88.8887 145.082 88.8339 144.978 88.7842 144.876C88.336 143.99 88.2274 142.971 88.4786 142.011C88.7299 141.051 89.3237 140.216 90.1481 139.664C91.4722 138.79 93.4732 138.42 96.3877 138.42C101.99 138.42 102.752 141.745 102.752 141.745C103.029 142.777 102.948 143.873 102.523 144.853Z" fill="#847C76"/>
<path d="M102.523 144.853L102.466 144.883C95.3698 140.48 89.0256 145.217 89.0256 145.217L88.9484 145.187C88.8887 145.082 88.8339 144.978 88.7842 144.876C88.336 143.99 88.2274 142.971 88.4786 142.011C88.7299 141.051 89.3237 140.216 90.1481 139.664C91.4722 138.79 93.4732 138.42 96.3877 138.42C101.99 138.42 102.752 141.745 102.752 141.745C103.029 142.777 102.948 143.873 102.523 144.853Z" fill="#77716D"/>
<path d="M88.03 153.517C88.03 153.517 87.7811 151.862 86.1285 148.958C85.3694 147.628 84.1971 141.571 88.0599 139.423C88.0599 139.423 86.5889 140.488 86.36 142.302C86.131 144.117 86.5093 146.489 90.3073 148.863C92.8335 150.605 93.0177 151.894 93.0177 151.894L88.03 153.517ZM104.651 153.316C104.315 152.206 105.41 149.612 106.266 146.479C106.883 144.214 104.315 139.995 104.315 139.995C104.509 140.392 104.659 140.809 104.76 141.239C104.76 141.239 105.612 144.913 101.525 148.191C100.101 149.331 100.101 151.705 100.101 151.705L104.651 153.316Z" fill="#E6D3C2"/>
<path d="M90.3646 148.756C86.4546 146.312 86.2704 143.91 86.472 142.317C86.6935 140.575 88.1097 139.535 88.1221 139.525C88.1483 139.506 88.1663 139.478 88.1723 139.447C88.1784 139.415 88.172 139.382 88.1545 139.355C88.1376 139.329 88.111 139.31 88.0804 139.302C88.0497 139.295 88.0174 139.3 87.9902 139.316C86.7707 139.993 85.9394 141.1 85.5188 142.608C84.8268 145.097 85.4615 148.057 86.0165 149.02C87.6418 151.865 87.8981 153.517 87.9006 153.535C87.9036 153.552 87.9102 153.569 87.9201 153.584C87.9299 153.599 87.9428 153.612 87.9579 153.622C87.9779 153.635 88.0012 153.642 88.0251 153.642H88.0624L93.0402 152.019C93.068 152.01 93.0918 151.992 93.1074 151.967C93.1229 151.943 93.1291 151.913 93.1248 151.884C93.1323 151.822 92.9207 150.503 90.3646 148.756ZM88.1246 153.353C88.03 152.89 87.6268 151.339 86.238 148.895C85.8025 148.134 85.0484 145.259 85.7676 142.673C85.9758 141.872 86.365 141.13 86.9051 140.503C86.5509 141.038 86.3221 141.646 86.2356 142.282C85.8996 144.923 87.1739 147.046 90.2377 148.963C92.2811 150.364 92.7639 151.479 92.8684 151.81L88.1246 153.353ZM104.419 139.94C104.403 139.913 104.377 139.893 104.346 139.885C104.316 139.876 104.283 139.88 104.255 139.896C104.227 139.911 104.206 139.937 104.196 139.967C104.186 139.998 104.189 140.031 104.203 140.06C104.392 140.447 104.538 140.855 104.638 141.274C104.638 141.312 105.42 144.916 101.438 148.101C99.9842 149.264 99.9668 151.613 99.9668 151.713C99.9668 151.738 99.9747 151.763 99.9894 151.784C100.004 151.805 100.025 151.821 100.049 151.83L104.609 153.445H104.651C104.667 153.446 104.682 153.443 104.697 153.437C104.711 153.431 104.725 153.422 104.735 153.41C104.752 153.395 104.765 153.375 104.771 153.353C104.777 153.331 104.777 153.308 104.77 153.286C104.544 152.539 105.019 151.046 105.602 149.144C105.85 148.35 106.132 147.449 106.386 146.516C107.01 144.231 104.526 140.124 104.419 139.94ZM106.144 146.456C105.895 147.385 105.612 148.283 105.365 149.075C104.813 150.847 104.37 152.278 104.484 153.136L100.218 151.626C100.236 151.193 100.382 149.264 101.594 148.296C105.253 145.366 105.009 142.073 104.907 141.366C105.609 142.78 106.542 145.035 106.144 146.456Z" fill="#070606"/>
<path d="M96.6714 142.198C96.6701 142.23 96.6564 142.26 96.6332 142.283C96.61 142.305 96.5791 142.317 96.547 142.317C95.9398 142.294 95.3318 142.315 94.7276 142.379C94.6946 142.381 94.6623 142.37 94.6378 142.347C94.6133 142.325 94.5986 142.294 94.5969 142.261C94.5953 142.228 94.6068 142.196 94.629 142.171C94.6511 142.147 94.6821 142.132 94.7151 142.131C95.3299 142.063 95.9489 142.041 96.5669 142.066C96.5979 142.07 96.6261 142.086 96.6455 142.111C96.665 142.135 96.6743 142.167 96.6714 142.198ZM92.8734 142.447C92.2738 142.598 91.6845 142.786 91.1087 143.012C91.0935 143.018 91.0797 143.027 91.0679 143.038C91.0562 143.049 91.0468 143.063 91.0403 143.078C91.0339 143.093 91.0304 143.109 91.0302 143.126C91.03 143.142 91.033 143.158 91.039 143.173C91.0474 143.197 91.0629 143.217 91.0835 143.232C91.104 143.246 91.1285 143.253 91.1535 143.253C91.1683 143.256 91.1836 143.256 91.1983 143.253C91.7671 143.032 92.3489 142.847 92.9406 142.698C92.9569 142.694 92.9723 142.687 92.9859 142.677C92.9995 142.667 93.011 142.655 93.0198 142.64C93.0286 142.626 93.0345 142.61 93.0371 142.594C93.0397 142.577 93.0391 142.56 93.0351 142.544C93.0312 142.527 93.0241 142.512 93.0142 142.498C93.0044 142.485 92.9919 142.473 92.9776 142.464C92.9632 142.456 92.9473 142.45 92.9307 142.447C92.9141 142.444 92.8972 142.445 92.8808 142.449L92.8734 142.447ZM100.186 142.755C99.6026 142.544 99.0044 142.378 98.3962 142.257C98.3799 142.254 98.3631 142.254 98.3468 142.258C98.3305 142.261 98.315 142.268 98.3013 142.277C98.2875 142.287 98.2758 142.299 98.2666 142.312C98.2575 142.326 98.2512 142.342 98.2481 142.358C98.245 142.375 98.2451 142.391 98.2485 142.408C98.2519 142.424 98.2585 142.439 98.2678 142.453C98.2772 142.467 98.2892 142.479 98.3031 142.488C98.317 142.497 98.3326 142.503 98.3489 142.506C98.9448 142.621 99.5313 142.78 100.104 142.982C100.135 142.993 100.169 142.991 100.199 142.977C100.229 142.963 100.252 142.938 100.263 142.907C100.269 142.878 100.264 142.849 100.25 142.823C100.236 142.797 100.213 142.778 100.186 142.768V142.755ZM102.64 144.878C102.274 145.738 101.725 146.509 101.032 147.136C98.6998 149.306 99.0408 151.464 99.0408 151.486C99.0436 151.504 99.0427 151.522 99.0379 151.539C99.0332 151.556 99.0249 151.572 99.0134 151.586C99.0028 151.599 98.9892 151.611 98.9737 151.618C98.9582 151.626 98.9412 151.63 98.9239 151.631L94.2597 151.825C94.2283 151.825 94.1981 151.813 94.175 151.792C94.1519 151.771 94.1377 151.741 94.1352 151.71C94.1352 151.695 93.9461 150.102 90.8126 147.521C90.0224 146.884 89.3574 146.105 88.8513 145.224C88.7916 145.12 88.7368 145.013 88.6846 144.908C88.2239 143.995 88.1127 142.946 88.3716 141.957C88.6306 140.967 89.2419 140.107 90.0908 139.537C91.4124 138.666 93.3562 138.278 96.4001 138.278C99.3345 138.278 100.94 139.199 101.769 139.973C102.293 140.433 102.679 141.03 102.884 141.697C103.17 142.758 103.084 143.885 102.64 144.891V144.878ZM102.341 144.933C95.7505 140.951 89.7299 144.861 89.15 145.259C89.6291 146.048 90.2403 146.748 90.9569 147.33C93.7395 149.62 94.2572 151.145 94.3518 151.561L98.772 151.377C98.7297 150.847 98.7446 148.915 100.86 146.944C101.484 146.385 101.987 145.705 102.341 144.945V144.933ZM102.632 141.767C102.632 141.722 101.816 138.532 96.3877 138.532C93.4358 138.532 91.4771 138.917 90.2152 139.749C89.4999 140.229 88.962 140.931 88.6841 141.746C88.4063 142.562 88.4038 143.446 88.6771 144.263C88.809 144.176 89.0629 144.015 89.4238 143.806C89.4529 143.79 89.4869 143.787 89.5184 143.796C89.55 143.805 89.5767 143.827 89.593 143.855C89.6091 143.884 89.6132 143.918 89.6043 143.95C89.5955 143.981 89.5744 144.008 89.5457 144.025C89.2748 144.172 89.0115 144.333 88.7567 144.507C88.7966 144.607 88.8389 144.704 88.8862 144.801C88.9334 144.898 88.9708 144.965 89.0181 145.05C89.7274 144.567 95.7928 140.717 102.431 144.709C102.497 144.539 102.554 144.365 102.6 144.189C102.326 144.022 102.047 143.865 101.771 143.723C101.757 143.716 101.744 143.706 101.733 143.693C101.723 143.681 101.715 143.666 101.71 143.65C101.705 143.635 101.703 143.618 101.704 143.602C101.706 143.586 101.71 143.57 101.718 143.555C101.725 143.541 101.735 143.528 101.748 143.517C101.76 143.507 101.775 143.499 101.791 143.494C101.806 143.489 101.823 143.487 101.839 143.488C101.855 143.49 101.871 143.494 101.886 143.502C102.135 143.636 102.406 143.783 102.662 143.935C102.829 143.225 102.819 142.485 102.632 141.78V141.767Z" fill="#070606"/>
<path d="M110.731 174.426V174.411C107.025 152.853 96.5868 154.657 96.5868 154.657C96.5868 154.657 86.4246 154.276 90.1804 168.383C93.9585 182.57 106.129 180.512 106.358 180.469C104.307 181.781 101.38 182.615 97.2413 182.296C83.6595 181.251 84.1348 173.366 84.894 165.578C85.2474 161.957 85.8671 157.741 86.4296 154.266C86.91 153.995 98.314 147.698 106.883 154.894L106.923 154.963C109.676 162.256 110.656 167.408 111.012 170.036C111.21 171.504 111.114 172.996 110.731 174.426Z" fill="#9B8678"/>
<path d="M111.134 170.021C110.826 167.701 109.945 162.905 107.478 156.111C107.476 156.094 107.47 156.078 107.461 156.063C107.325 155.683 107.181 155.296 107.03 154.901L106.99 154.829C106.983 154.818 106.973 154.808 106.963 154.799C98.3365 147.556 86.8527 153.886 86.3699 154.159C86.3531 154.167 86.3386 154.18 86.3277 154.195C86.3168 154.21 86.3099 154.228 86.3077 154.246C85.5834 158.726 85.0632 162.524 84.7695 165.566C84.5636 167.348 84.4598 169.14 84.4584 170.934C84.4558 170.95 84.4558 170.966 84.4584 170.982C84.2692 177.087 85.6854 182.861 97.2189 183.75C97.759 183.79 98.3215 183.814 98.9014 183.814C102.685 183.814 107.115 182.767 109.666 178.548C110.775 176.695 111.313 174.555 111.211 172.398C111.269 171.605 111.243 170.808 111.134 170.021ZM109.444 178.419C106.58 183.175 101.219 183.807 97.2289 183.501C88.2216 182.806 85.4988 179.088 84.8541 174.583C85.7875 178.443 88.7044 181.784 97.2214 182.441C101.278 182.754 106.736 182.105 109.666 177.239C109.741 177.114 109.805 176.99 109.875 176.858C110.292 176.104 110.618 175.303 110.846 174.471C110.646 175.867 110.169 177.209 109.444 178.419ZM110.965 172.231C110.957 172.247 110.952 172.264 110.95 172.281C110.881 173.332 110.66 174.367 110.293 175.355C110.278 175.39 110.266 175.424 110.251 175.462C110.191 175.616 110.129 175.77 110.062 175.925C110.022 176.012 109.982 176.096 109.94 176.174C109.897 176.251 109.843 176.385 109.788 176.487C109.686 176.684 109.579 176.878 109.464 177.07C108.677 178.397 107.592 179.523 106.293 180.357H106.281C103.964 181.851 100.922 182.446 97.2413 182.164C92.2437 181.779 88.8588 180.454 86.895 178.115C84.3141 175.041 84.4982 170.805 85.0085 165.583C85.2748 162.846 85.7228 159.476 86.3375 155.566C86.3973 155.531 86.7009 155.356 87.1962 155.11C87.2109 155.103 87.2241 155.093 87.2349 155.081C87.2458 155.068 87.2541 155.054 87.2594 155.039C87.2647 155.023 87.267 155.007 87.2659 154.99C87.2649 154.974 87.2607 154.958 87.2534 154.943C87.238 154.914 87.2121 154.893 87.181 154.882C87.15 154.872 87.1162 154.874 87.0867 154.889C86.7706 155.045 86.5366 155.17 86.3873 155.252C86.4346 154.951 86.4844 154.647 86.5341 154.339C87.4948 153.811 98.4808 148.024 106.779 154.968L106.799 155.001C106.892 155.244 106.981 155.486 107.067 155.725C106.928 155.61 106.789 155.501 106.649 155.394C106.623 155.375 106.59 155.367 106.557 155.371C106.525 155.376 106.495 155.393 106.475 155.419C106.465 155.432 106.458 155.447 106.454 155.462C106.45 155.478 106.449 155.495 106.451 155.511C106.454 155.527 106.459 155.543 106.468 155.557C106.476 155.571 106.487 155.583 106.5 155.593C106.749 155.782 106.998 155.984 107.247 156.193C109.701 162.955 110.579 167.734 110.888 170.046C110.985 170.77 111.011 171.502 110.965 172.231ZM94.3468 152.716C94.3518 152.748 94.3439 152.781 94.3248 152.808C94.3057 152.834 94.277 152.852 94.2447 152.858C93.6474 152.952 93.0376 153.074 92.4278 153.224H92.4005C92.3724 153.224 92.3452 153.215 92.323 153.197C92.3009 153.18 92.2852 153.156 92.2785 153.129C92.271 153.097 92.2765 153.063 92.2937 153.035C92.311 153.007 92.3386 152.987 92.3706 152.98C92.9853 152.83 93.615 152.706 94.2049 152.609C94.2213 152.606 94.238 152.607 94.254 152.611C94.27 152.615 94.2851 152.623 94.2983 152.632C94.3115 152.642 94.3226 152.655 94.3309 152.669C94.3392 152.684 94.3446 152.699 94.3468 152.716ZM90.718 153.564C90.7234 153.58 90.7256 153.596 90.7245 153.613C90.7234 153.629 90.719 153.645 90.7115 153.66C90.7041 153.674 90.6938 153.687 90.6812 153.698C90.6686 153.709 90.654 153.716 90.6383 153.721C90.0559 153.91 89.471 154.124 88.8961 154.356H88.8513C88.8264 154.356 88.802 154.349 88.7812 154.335C88.7604 154.321 88.7441 154.302 88.7343 154.279C88.7283 154.264 88.7253 154.247 88.7255 154.231C88.7257 154.215 88.7291 154.198 88.7356 154.183C88.7421 154.168 88.7515 154.155 88.7632 154.143C88.7749 154.132 88.7888 154.123 88.804 154.117C89.3814 153.883 89.9738 153.669 90.5612 153.477C90.5772 153.472 90.594 153.471 90.6107 153.473C90.6273 153.474 90.6435 153.479 90.6581 153.488C90.6727 153.496 90.6856 153.507 90.6959 153.52C90.7062 153.533 90.7137 153.548 90.718 153.564ZM105.139 154.52C105.128 154.539 105.112 154.555 105.093 154.566C105.075 154.576 105.053 154.582 105.032 154.582C105.01 154.582 104.989 154.577 104.969 154.568C104.437 154.258 103.885 153.985 103.317 153.749C103.301 153.742 103.288 153.733 103.276 153.721C103.264 153.71 103.255 153.696 103.249 153.681C103.242 153.665 103.239 153.649 103.239 153.632C103.24 153.616 103.243 153.6 103.25 153.584C103.263 153.555 103.287 153.531 103.317 153.518C103.347 153.506 103.381 153.505 103.411 153.517C103.989 153.759 104.551 154.038 105.094 154.351C105.109 154.359 105.122 154.37 105.132 154.384C105.143 154.397 105.15 154.413 105.155 154.43C105.159 154.446 105.16 154.463 105.157 154.48C105.154 154.497 105.148 154.513 105.139 154.528V154.52ZM101.724 153.067C101.717 153.093 101.701 153.116 101.68 153.133C101.658 153.15 101.632 153.159 101.604 153.159H101.572C100.978 152.998 100.374 152.872 99.7651 152.783C99.7322 152.778 99.7026 152.76 99.6826 152.734C99.6626 152.707 99.6538 152.674 99.6581 152.641C99.6605 152.625 99.6661 152.609 99.6745 152.595C99.683 152.581 99.6941 152.569 99.7073 152.559C99.7205 152.55 99.7354 152.543 99.7513 152.539C99.7672 152.535 99.7837 152.534 99.7999 152.537C100.42 152.625 101.033 152.753 101.637 152.92C101.668 152.928 101.694 152.948 101.71 152.975C101.727 153.003 101.731 153.036 101.724 153.067ZM98.0527 152.492C98.0514 152.525 98.0371 152.556 98.0129 152.579C97.9887 152.602 97.9565 152.614 97.9233 152.614C97.3076 152.592 96.6911 152.603 96.0765 152.646C96.0448 152.646 96.0142 152.634 95.9911 152.612C95.968 152.591 95.954 152.561 95.9521 152.529C95.9507 152.496 95.9621 152.464 95.9839 152.44C96.0058 152.415 96.0363 152.4 96.0691 152.397C96.6928 152.354 97.3184 152.343 97.9432 152.365C97.9744 152.369 98.0031 152.384 98.0234 152.408C98.0437 152.432 98.0542 152.463 98.0527 152.494V152.492Z" fill="#070606"/>
<defs>
<filter id="filter0_d_301_17364" x="0" y="0" width="228" height="228" filterUnits="userSpaceOnUse" color-interpolation-filters="sRGB">
<feFlood flood-opacity="0" result="BackgroundImageFix"/>
<feColorMatrix in="SourceAlpha" type="matrix" values="0 0 0 0 0 0 0 0 0 0 0 0 0 0 0 0 0 0 127 0" result="hardAlpha"/>
<feOffset dx="-2" dy="2"/>
<feGaussianBlur stdDeviation="1"/>
<feColorMatrix type="matrix" values="0 0 0 0 0 0 0 0 0 0 0 0 0 0 0 0 0 0 0.08 0"/>
<feBlend mode="normal" in2="BackgroundImageFix" result="effect1_dropShadow_301_17364"/>
<feBlend mode="normal" in="SourceGraphic" in2="effect1_dropShadow_301_17364" result="shape"/>
</filter>
<linearGradient id="paint0_linear_301_17364" x1="169.034" y1="54.7679" x2="62.4955" y2="157.786" gradientUnits="userSpaceOnUse">
<stop stop-color="#88319C"/>
<stop offset="1" stop-color="#A79280"/>
</linearGradient>
</defs>
</svg>
