<svg width="80" height="80" viewBox="0 0 80 80" fill="none" xmlns="http://www.w3.org/2000/svg">
<path d="M48.4585 70H56.9888C54.6517 64.748 54.418 62.6499 54.418 62.6499C58.6248 62.1836 61.6331 59.5921 64 56.5887C61.1955 52.6256 58.1573 50.7606 56.5214 50.2943C56.054 46.5644 54.5937 45.2761 53.0158 44C50.941 46.8216 47.2681 48.752 44 48.9126C49.0556 54.4 49.9386 61.5882 48.4585 70Z" fill="#FDD8FD"/>
<path d="M53.1304 4L41.1304 4C40.3478 4 39.6957 3.65384 39.3044 3.07692L38 1L56 1L54.9565 3.07692C54.5652 3.65384 53.913 4 53.1304 4Z" fill="#660051"/>
<path d="M39.2056 50.6809C41.6965 52.741 43.5884 55.5731 44.4718 58.9382C46.7151 67.483 41.6066 76.2285 33.0618 78.4718C24.517 80.7151 15.7715 75.6067 13.5282 67.0618C11.2849 58.517 16.3934 49.7715 24.9382 47.5282C28.1778 46.6777 31.4462 46.8839 34.3781 47.9335L37.226 47.2159C37.7843 46.9653 38.3986 47.3241 38.4545 47.9335L39.2056 50.6809Z" stroke="#660051"/>
<path d="M22 70L36 57M36 70L22 57" stroke="#FD00C8" stroke-miterlimit="10" stroke-linecap="round"/>
<path d="M39.5 36C39.7761 36 40 35.7761 40 35.5C40 35.2239 39.7761 35 39.5 35C39.2239 35 39 35.2239 39 35.5C39 35.7761 39.2239 36 39.5 36Z" fill="#660051"/>
<path d="M47.5 36C47.7761 36 48 35.7761 48 35.5C48 35.2239 47.7761 35 47.5 35C47.2239 35 47 35.2239 47 35.5C47 35.7761 47.2239 36 47.5 36Z" fill="#660051"/>
<path d="M58.1587 45.1077C58.8151 44.7103 59.3949 44.1985 59.8706 43.5965C55.1994 37.8795 57.0888 33.9968 57.0888 26.3771C57.0888 21.1335 53.0413 15.5348 45.9571 15.0205C42.9295 14.7974 39.5831 16.4406 38.19 17.8699C32.5809 18.8212 30.7142 23.5869 30.7142 26.9188C30.7142 33.4349 32.4202 37.6987 30 42.1138M43.5578 37.8203H43.9356C44.1252 37.8203 44.3128 37.783 44.4879 37.7105C44.6631 37.638 44.8222 37.5317 44.9562 37.3977C45.0902 37.2637 45.1965 37.1046 45.269 36.9296C45.3416 36.7545 45.3789 36.5669 45.3789 36.3774V33.9877C45.3789 32.3036 46.5262 31.4478 47.3594 31.4478H49.4764M40.8261 31.4478H38.5496M45.6065 41.3024C44.4879 40.4118 43.2812 40.4118 41.9916 41.3024M53.3464 43.9652C54.8989 45.2397 56.3876 47.2106 56.5925 49.5867C56.9575 53.9257 52.0067 55.6663 48.2069 56.164M52.199 55.7088C52.199 55.7088 54.1659 59.6415 54.6576 62.0813C55.1493 64.5211 57.1161 69 57.1161 69M57.1161 61.5715C60.558 60.5883 64 56.164 64 56.164C64 56.164 60.558 51.2481 57.1161 50.2467M53.574 34.1652C53.574 39.8686 48.4111 45.4445 44.0813 45.4445C39.7516 45.4445 34.4521 39.8686 34.4521 34.1652V30.5784C36.6748 28.3676 38.6896 25.9571 40.4709 23.3775C43.7353 27.5333 53.574 30.5784 53.574 30.5784V34.1652Z" stroke="#660051" stroke-linecap="round" stroke-linejoin="round"/>
<path d="M48.2 70H64C66.2091 70 68 68.2091 68 66V5C68 2.79086 66.2091 1 64 1H28C25.7909 1 24 2.79087 24 5V43.1696" stroke="#660051" stroke-linecap="round"/>
</svg>
