<svg width="128" height="128" viewBox="0 0 128 128" fill="none" xmlns="http://www.w3.org/2000/svg">
<path d="M118.656 94.4213C110.507 112.341 77.5339 122.965 64 122.965C50.4661 122.965 17.4933 112.341 9.34399 94.4213C2.69652 79.8293 19.5328 58.5131 19.5328 49.4933C19.5328 37.6987 24.2182 26.3873 32.5582 18.0472C40.8982 9.70722 52.2097 5.02185 64.0042 5.02185C75.7988 5.02185 87.1103 9.70722 95.4503 18.0472C103.79 26.3873 108.476 37.6987 108.476 49.4933C108.467 58.5131 125.303 79.8293 118.656 94.4213Z" fill="#FFF5ED" stroke="#FFF5ED" stroke-width="4" stroke-miterlimit="10"/>
<path d="M80 84.6831C71.9289 80.3806 64.4812 76.3458 62.5537 72.7273C60.6261 76.3358 53.1702 80.3806 45.0909 84.6831C45.6487 85.4365 52.8996 98.8992 62.5373 98.9091C72.1586 98.8992 79.4341 85.4266 80 84.6831Z" fill="#88319C" stroke="#A79280" stroke-width="2" stroke-miterlimit="10" stroke-linecap="round" stroke-linejoin="round"/>
<path d="M80 84.1518C71.9378 87.4944 64.4913 90.2798 62.5701 93.0909C60.649 90.2712 53.1943 87.5115 45.0909 84.1518C45.6492 83.569 52.8905 72.7359 62.5209 72.7273C72.1841 72.7359 79.4418 83.569 80 84.1518Z" fill="#A79280" stroke="#A79280" stroke-width="2" stroke-miterlimit="10" stroke-linecap="round" stroke-linejoin="round"/>
<path d="M118.374 88.9685C118.208 90.608 117.779 92.21 117.103 93.713C109.423 110.532 77.9349 121.259 64 121.259C50.0651 121.259 18.5429 110.532 10.8971 93.713C10.2215 92.21 9.79218 90.608 9.62561 88.9685C23.2021 98.8672 42.5387 105.054 64 105.054C85.4613 105.054 104.798 98.8672 118.374 88.9685Z" fill="#E6D3C2"/>
<path d="M95.9317 74.5694C97.6207 74.5694 99.0478 73.3568 100.024 71.6201C101.009 69.8676 101.603 67.4802 101.603 64.8704C101.603 62.2607 101.009 59.8733 100.024 58.1208C99.0478 56.384 97.6207 55.1715 95.9317 55.1715C94.2427 55.1715 92.8156 56.384 91.8393 58.1208C90.8541 59.8733 90.2605 62.2607 90.2605 64.8704C90.2605 67.4802 90.8541 69.8676 91.8393 71.6201C92.8156 73.3568 94.2427 74.5694 95.9317 74.5694Z" fill="#FFF5ED" stroke="#A79280" stroke-miterlimit="10"/>
<path d="M32.0683 74.5694C33.7573 74.5694 35.1844 73.3568 36.1607 71.6201C37.1459 69.8676 37.7395 67.4802 37.7395 64.8704C37.7395 62.2607 37.1459 59.8733 36.1607 58.1208C35.1844 56.384 33.7573 55.1715 32.0683 55.1715C30.3793 55.1715 28.9522 56.384 27.9759 58.1208C26.9907 59.8733 26.3971 62.2607 26.3971 64.8704C26.3971 67.4802 26.9907 69.8676 27.9759 71.6201C28.9522 73.3568 30.3793 74.5694 32.0683 74.5694Z" fill="#FFF5ED" stroke="#A79280" stroke-miterlimit="10"/>
<path d="M93.6238 73.0112C95.886 73.0112 97.7198 69.7485 97.7198 65.7237C97.7198 61.699 95.886 58.4363 93.6238 58.4363C91.3617 58.4363 89.5278 61.699 89.5278 65.7237C89.5278 69.7485 91.3617 73.0112 93.6238 73.0112Z" fill="#A79280"/>
<path d="M34.3762 73.0112C36.6383 73.0112 38.4722 69.7485 38.4722 65.7237C38.4722 61.699 36.6383 58.4363 34.3762 58.4363C32.114 58.4363 30.2802 61.699 30.2802 65.7237C30.2802 69.7485 32.114 73.0112 34.3762 73.0112Z" fill="#A79280"/>
</svg>
