<svg width="64" height="64" viewBox="0 0 64 64" fill="none" xmlns="http://www.w3.org/2000/svg">
<path d="M38.2863 54.8571H44.8728C43.0683 50.9326 42.8878 49.3648 42.8878 49.3648C46.1359 49.0164 48.4588 47.0798 50.2863 44.8355C48.1209 41.8741 45.775 40.4804 44.5119 40.132C44.151 37.3448 43.0234 36.3821 41.8051 35.4286C40.2031 37.537 37.3672 38.9795 34.8438 39.0995C38.7473 43.2 39.4291 48.5714 38.2863 54.8571Z" fill="#E6D3C2"/>
<path d="M41.3453 3.8107L32.1212 3.81069C31.5196 3.81069 31.0183 3.5099 30.7175 3.00859L29.7148 1.20386L43.5511 1.20386L42.749 3.00859C42.4482 3.5099 41.9469 3.8107 41.3453 3.8107Z" fill="#070606"/>
<path d="M30.8753 40.1088C32.8324 41.7636 34.3189 44.0386 35.013 46.7418C36.7756 53.6057 32.7618 60.6308 26.048 62.4328C19.3342 64.2348 12.4628 60.1313 10.7002 53.2674C8.9376 46.4034 12.9514 39.3783 19.6652 37.5763C22.2105 36.8931 24.7786 37.0588 27.0823 37.9019L29.3199 37.3254C29.7585 37.1241 30.2412 37.4123 30.2852 37.9019L30.8753 40.1088Z" stroke="#070606"/>
<path d="M17.1426 45.7143H23.9997" stroke="#E6D3C2" stroke-miterlimit="10" stroke-linecap="round"/>
<path d="M17.1426 50.2857H28.5712" stroke="#E6D3C2" stroke-miterlimit="10" stroke-linecap="round"/>
<path d="M17.1426 54.8571H28.5712" stroke="#E6D3C2" stroke-miterlimit="10" stroke-linecap="round"/>
<path d="M31.4288 28.5714C31.7444 28.5714 32.0003 28.3156 32.0003 28C32.0003 27.6844 31.7444 27.4286 31.4288 27.4286C31.1133 27.4286 30.8574 27.6844 30.8574 28C30.8574 28.3156 31.1133 28.5714 31.4288 28.5714Z" fill="#070606"/>
<path d="M38.2863 28.5714C38.6019 28.5714 38.8577 28.3156 38.8577 28C38.8577 27.6844 38.6019 27.4286 38.2863 27.4286C37.9707 27.4286 37.7148 27.6844 37.7148 28C37.7148 28.3156 37.9707 28.5714 38.2863 28.5714Z" fill="#070606"/>
<path d="M46.0942 36.0489C46.6092 35.739 47.0641 35.3399 47.4374 34.8705C43.7722 30.4124 45.2547 27.3848 45.2547 21.4431C45.2547 17.3542 42.0789 12.9885 36.5204 12.5874C34.1449 12.4135 31.5192 13.6948 30.4261 14.8093C26.025 15.5511 24.5604 19.2673 24.5604 21.8655C24.5604 26.9467 25.899 30.2715 24 33.7143M34.6378 30.3663H34.9343C35.0831 30.3663 35.2303 30.3372 35.3677 30.2807C35.5051 30.2241 35.6299 30.1412 35.7351 30.0368C35.8402 29.9323 35.9236 29.8082 35.9806 29.6717C36.0375 29.5352 36.0668 29.3889 36.0668 29.2411V27.3777C36.0668 26.0644 36.967 25.3972 37.6207 25.3972H39.2818M32.4945 25.3972H30.7083M36.2454 33.0816C35.4747 33.5667 34.2802 33.5667 33.409 33.0816M42.3183 35.158C43.5364 36.1518 44.7046 37.6887 44.8653 39.5415C45.1517 42.925 41.2671 44.2823 38.2857 44.6704M41.4181 44.3154C41.4181 44.3154 42.9613 47.3821 43.3471 49.2846C43.7329 51.1871 45.2761 54.6797 45.2761 54.6797M45.2761 48.8871C47.9768 48.1204 50.6775 44.6704 50.6775 44.6704C50.6775 44.6704 47.9768 40.837 45.2761 40.0562M42.4969 27.5161C42.4969 31.9635 38.4459 36.3115 35.0487 36.3115C31.6514 36.3115 27.4932 31.9635 27.4932 27.5161V24.7192C29.2373 22.9952 30.8181 21.1156 32.2158 19.1041C34.7772 22.3447 42.4969 24.7192 42.4969 24.7192V27.5161Z" stroke="#070606" stroke-linecap="round" stroke-linejoin="round"/>
<path d="M38.2849 54.8571H49.7134C51.9226 54.8571 53.7134 53.0663 53.7134 50.8571V5.14285C53.7134 2.93371 51.9226 1.14285 49.7135 1.14285H23.4277C21.2186 1.14285 19.4277 2.93371 19.4277 5.14285V33.9705" stroke="#070606" stroke-linecap="round"/>
</svg>
