<svg width="192" height="186" viewBox="0 0 192 186" fill="none" xmlns="http://www.w3.org/2000/svg">
<path d="M185.6 108.538C185.6 146.734 124.954 177.738 96 177.738C67.0464 177.738 6.40002 146.784 6.40002 108.538C6.40019 104.803 6.7861 101.077 7.55202 97.4164C7.24482 61.0491 32 16.2541 41.0752 8.59267C46.1952 4.23057 70.5152 27.6475 75.4816 41.2158L77.5424 40.8574C77.5424 40.8574 89.6768 35.6303 96 35.6303C102.323 35.6303 114.381 40.845 114.381 40.845C115.098 40.9562 115.827 41.0798 116.531 41.2158C121.549 27.6228 145.766 4.23057 150.938 8.59267C159.962 16.2047 184.794 61.1233 184.461 97.5647C185.219 101.177 185.601 104.853 185.6 108.538Z" fill="#FFF5ED" stroke="#FFF5ED" stroke-width="4" stroke-miterlimit="10"/>
<path d="M171.674 136.354C153.254 158.955 116.8 175.218 96 175.218C75.2 175.218 38.7456 158.955 20.3264 136.354C28.8 115.001 59.4688 99.1835 96 99.1835C132.531 99.1835 163.2 115.001 171.674 136.354Z" fill="#FFF5ED"/>
<path d="M171.674 136.354C153.254 158.955 116.8 175.218 96 175.218C75.2 175.218 38.7456 158.955 20.3264 136.354C28.8 115.001 59.4688 99.1835 96 99.1835C132.531 99.1835 163.2 115.001 171.674 136.354Z" fill="#FFF5ED"/>
<path d="M75.2384 90.3975C78.3983 90.3975 80.96 87.9245 80.96 84.8738C80.96 81.8232 78.3983 79.3502 75.2384 79.3502C72.0784 79.3502 69.5168 81.8232 69.5168 84.8738C69.5168 87.9245 72.0784 90.3975 75.2384 90.3975Z" fill="#A79280"/>
<path d="M96 126.666C93.0304 126.666 81.3952 111.973 82.3552 109.687C83.3152 107.401 87.2192 107.006 96 107.006C104.781 107.006 108.698 107.389 109.67 109.687C110.643 111.986 98.9696 126.666 96 126.666Z" fill="#A79280" stroke="#A79280" stroke-miterlimit="10"/>
<path d="M113.574 141.767C112.422 131.856 96 127.469 96 127.469C96 127.469 79.5904 131.831 78.4384 141.742" stroke="#A79280" stroke-miterlimit="10"/>
<path d="M124.954 116.842L160.909 106.66" stroke="#A79280" stroke-miterlimit="10" stroke-linecap="round"/>
<path d="M127.514 125.047L160.909 120.401" stroke="#A79280" stroke-miterlimit="10" stroke-linecap="round"/>
<path d="M67.0592 116.842L31.104 106.66" stroke="#A79280" stroke-miterlimit="10" stroke-linecap="round"/>
<path d="M64.4992 125.047L31.104 120.401" stroke="#A79280" stroke-miterlimit="10" stroke-linecap="round"/>
<path d="M124.954 133.252L160.909 135.427" stroke="#A79280" stroke-miterlimit="10" stroke-linecap="round"/>
<path d="M67.0592 133.252L31.104 135.427" stroke="#A79280" stroke-miterlimit="10" stroke-linecap="round"/>
<path d="M165.235 51.2993C150.848 45.3554 133.747 43.1806 126.426 42.4886C131.034 33.3689 141.696 22.0373 146.906 18.6267C153.6 26.869 161.459 41.8336 165.235 51.2993Z" fill="#E6D3C2"/>
<path d="M26.7648 51.2993C30.6048 41.8336 38.4512 26.869 45.1456 18.6267C50.2656 22.0373 60.9664 33.3689 65.6256 42.4886C58.2528 43.1806 41.1392 45.3554 26.7648 51.2993Z" fill="#E6D3C2"/>
<path d="M130.33 84.9109C130.33 90.7312 121.869 95.4516 115.84 95.4516C112.951 95.4418 110.184 94.327 108.144 92.3513C106.105 90.3756 104.96 87.7001 104.96 84.9109C104.96 79.0907 109.85 75.9767 115.878 75.9767C121.907 75.9767 130.33 79.0783 130.33 84.9109Z" fill="#FFF5ED" stroke="#A79280" stroke-miterlimit="10"/>
<path d="M114.752 90.2369C117.799 90.2369 120.269 87.8524 120.269 84.9109C120.269 81.9695 117.799 79.585 114.752 79.585C111.705 79.585 109.235 81.9695 109.235 84.9109C109.235 87.8524 111.705 90.2369 114.752 90.2369Z" fill="#88319C"/>
<path d="M61.6704 84.9109C61.6704 90.7312 70.1312 95.4516 76.16 95.4516C79.0491 95.4418 81.8164 94.327 83.8557 92.3513C85.895 90.3756 87.04 87.7001 87.04 84.9109C87.04 79.0907 82.1504 75.9767 76.1216 75.9767C70.0928 75.9767 61.6704 79.0783 61.6704 84.9109Z" fill="#FFF5ED" stroke="#A79280" stroke-miterlimit="10"/>
<path d="M77.248 90.2369C80.2948 90.2369 82.7648 87.8524 82.7648 84.9109C82.7648 81.9695 80.2948 79.585 77.248 79.585C74.2012 79.585 71.7312 81.9695 71.7312 84.9109C71.7312 87.8524 74.2012 90.2369 77.248 90.2369Z" fill="#88319C"/>
</svg>
