<svg width="80" height="80" viewBox="0 0 80 80" fill="none" xmlns="http://www.w3.org/2000/svg">
<rect width="80" height="80" rx="40" fill="#EFEBE7"/>
<path d="M38.5714 18.16C39.3346 17.099 40.9154 17.099 41.6786 18.16V18.16C42.2645 18.9746 43.3816 19.1977 44.2347 18.6695V18.6695C45.3428 17.9834 46.8008 18.5987 47.1014 19.8669V19.8669C47.3328 20.8432 48.2807 21.485 49.2713 21.3257V21.3257C50.5579 21.1187 51.668 22.2479 51.4641 23.5349V23.5349C51.3068 24.5274 51.937 25.4866 52.9139 25.7216V25.7216C54.1842 26.0272 54.7817 27.4923 54.1015 28.6077V28.6077C53.5771 29.4674 53.7951 30.5926 54.6084 31.1864V31.1864C55.6676 31.9597 55.6676 33.5403 54.6084 34.3136V34.3136C53.7951 34.9074 53.5771 36.0326 54.1015 36.8923V36.8923C54.7817 38.0077 54.1842 39.4728 52.9139 39.7784V39.7784C51.937 40.0134 51.3068 40.9726 51.4641 41.9651V41.9651C51.668 43.2521 50.5579 44.3813 49.2713 44.1743V44.1743C48.2807 44.015 47.3328 44.6568 47.1014 45.6331V45.6331C46.8008 46.9013 45.3428 47.5166 44.2347 46.8305V46.8305C43.3816 46.3023 42.2645 46.5254 41.6786 47.34V47.34C40.9154 48.401 39.3346 48.401 38.5714 47.34V47.34C37.9855 46.5254 36.8684 46.3023 36.0153 46.8305V46.8305C34.9072 47.5166 33.4492 46.9013 33.1486 45.6331V45.6331C32.9172 44.6568 31.9693 44.015 30.9787 44.1743V44.1743C29.6921 44.3813 28.582 43.2521 28.7859 41.9651V41.9651C28.9432 40.9726 28.313 40.0134 27.3361 39.7784V39.7784C26.0658 39.4728 25.4683 38.0077 26.1485 36.8923V36.8923C26.6729 36.0326 26.4549 34.9074 25.6416 34.3136V34.3136C24.5824 33.5403 24.5824 31.9597 25.6416 31.1864V31.1864C26.4549 30.5926 26.6729 29.4674 26.1485 28.6077V28.6077C25.4683 27.4923 26.0658 26.0272 27.3361 25.7216V25.7216C28.313 25.4866 28.9432 24.5274 28.7859 23.5349V23.5349C28.582 22.2479 29.6921 21.1187 30.9787 21.3257V21.3257C31.9693 21.485 32.9172 20.8432 33.1486 19.8669V19.8669C33.4492 18.5987 34.9072 17.9834 36.0153 18.6695V18.6695C36.8684 19.1977 37.9855 18.9746 38.5714 18.16V18.16Z" stroke="#A79280" stroke-linecap="round" stroke-linejoin="round"/>
<ellipse cx="40.125" cy="32.75" rx="11.375" ry="11.5" stroke="#A79280" stroke-linecap="round" stroke-linejoin="round" stroke-dasharray="2 2"/>
<path d="M30.6702 46.2397L26.8323 60.5627C26.7201 60.9815 27.1577 61.3349 27.5434 61.1371L31.4322 59.1429C31.6608 59.0257 31.941 59.1008 32.0804 59.3166L34.4511 62.988C34.6863 63.3522 35.2419 63.2649 35.3541 62.8461L38.8858 49.6657M49.6312 46.2397L53.469 60.5627C53.5812 60.9815 53.1437 61.3349 52.7579 61.1371L48.8692 59.1429C48.6406 59.0257 48.3603 59.1008 48.221 59.3166L45.8503 62.988C45.6151 63.3522 45.0595 63.2649 44.9473 62.8461L41.4156 49.6657" stroke="url(#paint0_linear_1158_31710)" stroke-linecap="round" stroke-linejoin="round"/>
<path d="M38.9239 27.6771C39.2233 26.7557 40.5267 26.7557 40.8261 27.6771L41.4747 29.6733C41.6085 30.0853 41.9925 30.3642 42.4257 30.3642H44.5246C45.4934 30.3642 45.8961 31.6039 45.1124 32.1733L43.4144 33.407C43.0639 33.6616 42.9172 34.113 43.0511 34.525L43.6997 36.5212C43.9991 37.4425 42.9446 38.2086 42.1609 37.6392L40.4628 36.4055C40.1123 36.1509 39.6377 36.1509 39.2872 36.4055L37.5891 37.6392C36.8054 38.2086 35.7509 37.4425 36.0503 36.5212L36.6989 34.525C36.8328 34.113 36.6861 33.6616 36.3356 33.407L34.6376 32.1733C33.8539 31.6039 34.2566 30.3642 35.2253 30.3642H37.3243C37.7575 30.3642 38.1415 30.0853 38.2753 29.6733L38.9239 27.6771Z" stroke="url(#paint1_linear_1158_31710)" stroke-linecap="round" stroke-linejoin="round"/>
<defs>
<linearGradient id="paint0_linear_1158_31710" x1="53.4869" y1="46.2397" x2="36.2097" y2="70.0378" gradientUnits="userSpaceOnUse">
<stop stop-color="#88319C"/>
<stop offset="1" stop-color="#A79280"/>
</linearGradient>
<linearGradient id="paint1_linear_1158_31710" x1="48" y1="24.75" x2="30.7572" y2="39.8676" gradientUnits="userSpaceOnUse">
<stop stop-color="#88319C"/>
<stop offset="1" stop-color="#A79280"/>
</linearGradient>
</defs>
</svg>
