<svg width="22" height="20" viewBox="0 0 22 20" fill="none" xmlns="http://www.w3.org/2000/svg">
<path fill-rule="evenodd" clip-rule="evenodd" d="M2.0723 0.993295C2.80244 0.526007 3.76247 0.25 5.00006 0.25C6.23764 0.25 7.19767 0.526007 7.92781 0.993295C8.6595 1.46157 9.10723 2.08802 9.3747 2.69939C9.63911 3.30377 9.72943 3.89633 9.75642 4.32823C9.77005 4.54638 9.7679 4.72973 9.76201 4.86159C9.75906 4.92768 9.75514 4.98132 9.75172 5.02047C9.75 5.04005 9.74841 5.05606 9.74711 5.06823L8.94717 16.2672C8.807 18.2296 7.17409 19.75 5.2067 19.75H4.79341C2.82602 19.75 1.19311 18.2296 1.05294 16.2672L0.253041 5.06855C0.25174 5.05638 0.250108 5.04005 0.248394 5.02047C0.244968 4.98132 0.241056 4.92768 0.238104 4.86159C0.232215 4.72973 0.230061 4.54638 0.243692 4.32823C0.270679 3.89633 0.360998 3.30377 0.625408 2.69939C0.892878 2.08802 1.34061 1.46157 2.0723 0.993295ZM1.80554 5.75L1.91268 7.25H8.08743L8.19457 5.75H1.80554ZM8.24466 4.25C8.21358 3.96369 8.14374 3.6281 8.00046 3.30061C7.83044 2.91198 7.55943 2.53843 7.11923 2.2567C6.67749 1.97399 6.0125 1.75 5.00006 1.75C3.98761 1.75 3.32262 1.97399 2.88088 2.2567C2.44068 2.53843 2.16967 2.91198 1.99965 3.30061C1.85637 3.6281 1.78653 3.96369 1.75545 4.25H8.24466ZM7.98029 8.75H2.01982L2.54913 16.1603C2.63323 17.3377 3.61298 18.25 4.79341 18.25H5.2067C6.38714 18.25 7.36688 17.3377 7.45098 16.1603L7.98029 8.75ZM1.74471 4.91061C1.74473 4.91082 1.74472 4.91074 1.74471 4.91061V4.91061ZM14.0722 0.993295C14.8024 0.526007 15.7624 0.25 17 0.25C18.2376 0.25 19.1976 0.526007 19.9277 0.993295C20.6594 1.46157 21.1072 2.08802 21.3746 2.69939C21.639 3.30377 21.7294 3.89633 21.7563 4.32823C21.77 4.54638 21.7678 4.72973 21.7619 4.86159C21.759 4.92768 21.7551 4.98132 21.7516 5.02047C21.7499 5.04005 21.7483 5.05606 21.747 5.06823L20.9471 16.2672C20.8069 18.2296 19.174 19.75 17.2066 19.75H16.7933C14.8259 19.75 13.193 18.2296 13.0529 16.2672L12.253 5.06856C12.2517 5.05639 12.25 5.04005 12.2483 5.02047C12.2449 4.98132 12.241 4.92768 12.238 4.86159C12.2321 4.72973 12.23 4.54638 12.2436 4.32823C12.2706 3.89633 12.3609 3.30377 12.6253 2.69939C12.8928 2.08802 13.3405 1.46157 14.0722 0.993295ZM13.8055 5.75L13.9126 7.25H20.0874L20.1945 5.75H13.8055ZM20.2446 4.25C20.2135 3.96369 20.1437 3.6281 20.0004 3.30061C19.8304 2.91198 19.5594 2.53843 19.1192 2.2567C18.6774 1.97399 18.0124 1.75 17 1.75C15.9875 1.75 15.3225 1.97399 14.8808 2.2567C14.4406 2.53843 14.1696 2.91198 13.9996 3.30061C13.8563 3.6281 13.7865 3.96369 13.7554 4.25H20.2446ZM13.7446 4.91061C13.7446 4.91073 13.7446 4.91072 13.7446 4.91061V4.91061ZM19.9802 8.75H14.0198L14.5491 16.1603C14.6332 17.3377 15.6129 18.25 16.7933 18.25H17.2066C18.3871 18.25 19.3668 17.3377 19.4509 16.1603L19.9802 8.75Z" fill="white"/>
</svg>
