<svg width="56" height="56" viewBox="0 0 56 56" fill="none" xmlns="http://www.w3.org/2000/svg">
<path d="M45.2812 45.9375L31.1106 53.8125L29.5312 50.75L43.7065 42.875L45.2812 45.9375Z" fill="#E6D3C2"/>
<path d="M48.2739 22.5225L48.8907 23.6512C49.2181 24.2476 49.7122 24.7356 50.3126 25.0556L51.4414 25.6725L50.3126 26.2893C49.7187 26.612 49.2309 27.0998 48.9082 27.6937L48.2914 28.8225L47.6745 27.6937C47.3518 27.0998 46.864 26.612 46.2701 26.2893L45.1414 25.6725L46.2701 25.0556C46.864 24.7329 47.3518 24.2451 47.6745 23.6512L48.2739 22.5225Z" fill="#E6D3C2"/>
<path d="M50.8986 10.0625L51.2136 10.6356C51.372 10.9479 51.6204 11.2054 51.9268 11.375L52.4999 11.69L51.9268 12.005C51.6285 12.1594 51.3809 12.3963 51.2136 12.6875L50.8986 13.2606L50.5836 12.6875C50.419 12.3913 50.1731 12.1485 49.8749 11.9875L49.3018 11.6725L49.8749 11.375C50.1765 11.2112 50.4242 10.9635 50.588 10.6619L50.8986 10.0625Z" fill="#E6D3C2"/>
<path d="M38.653 11.4625L39.6505 13.2913C40.1754 14.2492 40.9632 15.037 41.9211 15.5619L43.7499 16.5638L41.9211 17.5613C40.9632 18.0861 40.1754 18.874 39.6505 19.8319L38.653 21.6606L37.6511 19.8319C37.1263 18.874 36.3384 18.0861 35.3805 17.5613L33.5518 16.5638L35.3805 15.5619C36.3384 15.037 37.1263 14.2492 37.6511 13.2913L38.653 11.4625Z" fill="#E6D3C2"/>
<path d="M25.9095 32.5442C26.044 32.7854 26.3486 32.8718 26.5898 32.7373C26.8309 32.6028 26.9174 32.2983 26.7829 32.0571L25.9095 32.5442ZM20.3875 21.6169L20.8241 21.3733L20.8231 21.3715L20.3875 21.6169ZM17.3818 20.3919L17.1241 19.9634L17.1235 19.9638L17.3818 20.3919ZM16.8481 23.5944L16.4112 23.8376L16.4114 23.8379L16.8481 23.5944ZM24.9943 38.2025L24.5576 38.446L24.5594 38.4492L24.9943 38.2025ZM23.4675 39.6331L23.7419 39.2152C23.7228 39.2027 23.7029 39.1914 23.6823 39.1816L23.4675 39.6331ZM19.0662 35.9844L19.3962 35.6088C19.3741 35.5893 19.3503 35.5719 19.3251 35.5566L19.0662 35.9844ZM21.1618 43.8244L20.7908 44.1596C20.8015 44.1715 20.8129 44.1828 20.8247 44.1936L21.1618 43.8244ZM27.2868 47.5038L27.0925 47.9645L27.0935 47.9649L27.2868 47.5038ZM16.4254 44.2008L15.996 44.457L16.4254 44.2008ZM5.72948 26.2759L6.15885 26.0196L5.72948 26.2759ZM27.1343 13.5035L26.705 13.7597L27.1343 13.5035ZM28.9589 29.6873C29.0934 29.9285 29.3979 30.015 29.6391 29.8805C29.8803 29.746 29.9668 29.4414 29.8323 29.2003L28.9589 29.6873ZM22.9425 17.8719L22.4927 18.0903C22.4968 18.0988 22.5012 18.1072 22.5058 18.1154L22.9425 17.8719ZM20.1862 17.0888L20.4322 17.5241C20.4395 17.5199 20.4468 17.5156 20.454 17.511L20.1862 17.0888ZM19.4031 19.845L18.9617 20.0801L18.9659 20.0877L19.4031 19.845ZM19.7359 21.4746C19.87 21.716 20.1744 21.8031 20.4158 21.669C20.6572 21.535 20.7443 21.2306 20.6102 20.9892L19.7359 21.4746ZM42.0021 43.7772C42.138 44.0177 42.443 44.1024 42.6834 43.9666C42.9238 43.8308 43.0086 43.5257 42.8728 43.2853L42.0021 43.7772ZM41.65 39.9219L41.15 39.9119V39.9219H41.65ZM40.4468 33.6525L40.9075 33.4582C40.9004 33.4414 40.8924 33.425 40.8836 33.4091L40.4468 33.6525ZM35.2625 24.3513L34.8163 24.577C34.8193 24.583 34.8225 24.5889 34.8257 24.5947L35.2625 24.3513ZM32.6681 23.7738L32.9157 24.2082C32.9369 24.1961 32.9572 24.1825 32.9764 24.1674L32.6681 23.7738ZM31.7754 26.4439C31.8898 26.6953 32.1862 26.8064 32.4376 26.692C32.689 26.5777 32.8 26.2813 32.6857 26.0299L31.7754 26.4439ZM33.487 29.4816C33.6215 29.7228 33.926 29.8093 34.1672 29.6749C34.4084 29.5404 34.4949 29.2358 34.3604 28.9947L33.487 29.4816ZM30.6818 23.4238L30.2332 23.6444C30.2369 23.6522 30.2409 23.6598 30.2451 23.6673L30.6818 23.4238ZM27.9256 22.6407L28.165 23.0796C28.1739 23.0748 28.1826 23.0696 28.1912 23.0643L27.9256 22.6407ZM26.8931 24.955L26.4475 25.1819C26.4502 25.1873 26.4531 25.1926 26.456 25.1978L26.8931 24.955ZM26.981 26.1428C27.1151 26.3842 27.4195 26.4712 27.6609 26.3371C27.9023 26.203 27.9893 25.8986 27.8552 25.6572L26.981 26.1428ZM30.6871 54.123C30.8127 54.3689 31.1139 54.4665 31.3598 54.341C31.6057 54.2154 31.7033 53.9142 31.5778 53.6683L30.6871 54.123ZM29.54 50.7763L29.2965 50.3395C29.0615 50.4705 28.9723 50.764 29.0946 51.0036L29.54 50.7763ZM43.7062 42.8794L44.1511 42.6513C44.0893 42.5306 43.981 42.4402 43.8512 42.4009C43.7214 42.3616 43.5812 42.3766 43.4628 42.4427L43.7062 42.8794ZM44.8581 46.2225C44.9841 46.4682 45.2854 46.5653 45.5312 46.4393C45.7769 46.3134 45.874 46.012 45.748 45.7663L44.8581 46.2225ZM30.4538 50.3625C30.6266 50.5778 30.9414 50.6123 31.1567 50.4394C31.372 50.2666 31.4065 49.9519 31.2336 49.7365L30.4538 50.3625ZM26.7829 32.0571L20.8241 21.3733L19.9508 21.8604L25.9095 32.5442L26.7829 32.0571ZM20.8231 21.3715C20.4246 20.6641 19.9017 20.0807 19.2583 19.7893C18.5861 19.4849 17.8464 19.529 17.1241 19.9634L17.6395 20.8204C18.1029 20.5417 18.4963 20.542 18.8457 20.7002C19.2238 20.8715 19.6109 21.2572 19.9518 21.8623L20.8231 21.3715ZM17.1235 19.9638C16.3068 20.4566 15.9768 21.1973 15.9381 21.9307C15.9007 22.6388 16.1313 23.3348 16.4112 23.8376L17.285 23.3512C17.0705 22.9659 16.9117 22.4565 16.9367 21.9834C16.9603 21.5355 17.1444 21.1191 17.6401 20.82L17.1235 19.9638ZM16.4114 23.8379L24.5576 38.446L25.431 37.959L17.2848 23.3509L16.4114 23.8379ZM24.5594 38.4492C24.6232 38.5617 24.6473 38.6923 24.6279 38.8202L25.6165 38.9706C25.6697 38.6209 25.6037 38.2635 25.4292 37.9558L24.5594 38.4492ZM24.6279 38.8202C24.6084 38.948 24.5465 39.0656 24.4522 39.154L25.1359 39.8837C25.394 39.6419 25.5633 39.3203 25.6165 38.9706L24.6279 38.8202ZM24.4522 39.154C24.3578 39.2424 24.2365 39.2965 24.1076 39.3076L24.1935 40.3039C24.5459 40.2736 24.8778 40.1256 25.1359 39.8837L24.4522 39.154ZM24.1076 39.3076C23.9788 39.3187 23.85 39.2862 23.7419 39.2152L23.193 40.0511C23.4887 40.2452 23.841 40.3343 24.1935 40.3039L24.1076 39.3076ZM23.6823 39.1816C23.6829 39.1819 23.6609 39.1705 23.6075 39.1346C23.5587 39.1018 23.4966 39.0574 23.4215 39.0014C23.2716 38.8896 23.0821 38.7406 22.8653 38.5653C22.4322 38.2152 21.9028 37.7704 21.3877 37.3314C20.8731 36.8929 20.3752 36.4621 20.0057 36.1409C19.821 35.9803 19.6685 35.8472 19.5623 35.7542C19.5091 35.7078 19.4676 35.6714 19.4393 35.6466C19.4252 35.6342 19.4144 35.6247 19.4071 35.6184C19.4035 35.6152 19.4008 35.6128 19.3989 35.6112C19.398 35.6104 19.3973 35.6098 19.3969 35.6094C19.3967 35.6092 19.3965 35.609 19.3964 35.6089C19.3963 35.6089 19.3963 35.6088 19.3963 35.6088C19.3962 35.6088 19.3962 35.6088 19.0662 35.9844C18.7362 36.36 18.7362 36.36 18.7362 36.36C18.7363 36.3601 18.7363 36.3601 18.7364 36.3602C18.7365 36.3603 18.7367 36.3604 18.7369 36.3607C18.7374 36.3611 18.7381 36.3617 18.7391 36.3625C18.741 36.3642 18.7438 36.3667 18.7474 36.3699C18.7548 36.3764 18.7658 36.386 18.78 36.3985C18.8086 36.4235 18.8504 36.4602 18.9039 36.5069C19.0108 36.6004 19.164 36.7342 19.3495 36.8955C19.7205 37.2181 20.2212 37.6511 20.7391 38.0925C21.2565 38.5334 21.7935 38.9847 22.2365 39.3429C22.4577 39.5218 22.6587 39.68 22.8237 39.803C22.9744 39.9155 23.1329 40.0277 23.2526 40.0846L23.6823 39.1816ZM19.3251 35.5566C18.5934 35.1137 17.9099 34.9413 17.3016 35.0082C16.6875 35.0757 16.2019 35.3822 15.8725 35.797C15.2451 36.587 15.1464 37.8439 15.8413 38.6405L16.5949 37.9832C16.2747 37.6161 16.2701 36.9043 16.6556 36.4189C16.8326 36.1961 17.083 36.0383 17.4109 36.0022C17.7446 35.9655 18.209 36.05 18.8073 36.4121L19.3251 35.5566ZM15.8413 38.6405C16.3519 39.226 17.5909 40.6075 18.6989 41.839C19.2536 42.4555 19.7766 43.0356 20.1608 43.4616C20.353 43.6746 20.5105 43.8491 20.6199 43.9703C20.6746 44.0309 20.7174 44.0782 20.7464 44.1104C20.7609 44.1265 20.772 44.1388 20.7795 44.147C20.7832 44.1512 20.7861 44.1543 20.788 44.1564C20.7889 44.1575 20.7896 44.1582 20.7901 44.1588C20.7903 44.159 20.7905 44.1592 20.7906 44.1594C20.7907 44.1594 20.7907 44.1595 20.7908 44.1595C20.7908 44.1596 20.7908 44.1596 21.1618 43.8244C21.5328 43.4892 21.5328 43.4892 21.5328 43.4892C21.5328 43.4891 21.5327 43.4891 21.5327 43.489C21.5325 43.4889 21.5324 43.4887 21.5321 43.4884C21.5317 43.4879 21.5309 43.4871 21.53 43.4861C21.5281 43.484 21.5253 43.4809 21.5216 43.4767C21.5141 43.4685 21.503 43.4562 21.4885 43.4401C21.4595 43.408 21.4168 43.3608 21.3622 43.3002C21.2528 43.1791 21.0954 43.0047 20.9034 42.7918C20.5193 42.366 19.9966 41.7862 19.4423 41.1701C18.3321 39.9363 17.0993 38.5615 16.5949 37.9832L15.8413 38.6405ZM20.8247 44.1936C23.2595 46.4169 24.9914 47.0784 27.0925 47.9645L27.4811 47.0431C25.391 46.1616 23.7979 45.5543 21.499 43.4552L20.8247 44.1936ZM16.8547 43.9446L6.15885 26.0196L5.30011 26.5321L15.996 44.457L16.8547 43.9446ZM10.3019 9.61662C15.9756 6.23112 23.3195 8.08604 26.705 13.7597L27.5637 13.2473C23.8952 7.09936 15.9374 5.08939 9.78952 8.75788L10.3019 9.61662ZM9.78952 8.75788C3.6416 12.4264 1.63162 20.3841 5.30011 26.5321L6.15885 26.0196C2.77336 20.346 4.62828 13.0021 10.3019 9.61662L9.78952 8.75788ZM23.7654 49.2954C20.9696 48.4773 18.465 46.6431 16.8547 43.9446L15.996 44.457C17.7406 47.3806 20.4562 49.369 23.4845 50.2551L23.7654 49.2954ZM26.705 13.7597L30.395 19.9437L31.2537 19.4313L27.5637 13.2473L26.705 13.7597ZM29.8323 29.2003L23.3791 17.6284L22.5058 18.1154L28.9589 29.6873L29.8323 29.2003ZM23.3922 17.6535C23.2433 17.3468 23.0313 17.075 22.7701 16.856L22.1275 17.6222C22.2808 17.7508 22.4053 17.9103 22.4927 18.0903L23.3922 17.6535ZM22.7701 16.856C22.5088 16.6369 22.2043 16.4755 21.8763 16.3823L21.603 17.3443C21.7955 17.3989 21.9742 17.4937 22.1275 17.6222L22.7701 16.856ZM21.8763 16.3823C21.5483 16.2892 21.2044 16.2663 20.867 16.3153L21.0107 17.3049C21.2087 17.2762 21.4105 17.2896 21.603 17.3443L21.8763 16.3823ZM20.867 16.3153C20.5296 16.3642 20.2064 16.4839 19.9184 16.6665L20.454 17.511C20.6229 17.4039 20.8126 17.3336 21.0107 17.3049L20.867 16.3153ZM19.9402 16.6535C19.453 16.9287 18.96 17.3376 18.7202 17.9365C18.4717 18.5568 18.5348 19.2783 18.9618 20.08L19.8444 19.61C19.5188 18.9986 19.536 18.5892 19.6485 18.3083C19.7696 18.0058 20.0444 17.7432 20.4322 17.5241L19.9402 16.6535ZM18.9659 20.0877L19.7359 21.4746L20.6102 20.9892L19.8402 19.6023L18.9659 20.0877ZM42.8728 43.2853C42.6658 42.9189 42.4811 42.3088 42.3487 41.6438C42.2181 40.9875 42.15 40.3377 42.15 39.9219H41.15C41.15 40.4205 41.2284 41.1379 41.3679 41.839C41.5057 42.5312 41.7148 43.2686 42.0021 43.7772L42.8728 43.2853ZM42.1499 39.9319C42.1942 37.7108 41.7709 35.5051 40.9075 33.4582L39.9861 33.8468C40.795 35.7646 41.1916 37.831 41.1501 39.9119L42.1499 39.9319ZM40.8836 33.4091L35.6992 24.1078L34.8257 24.5947L40.0101 33.896L40.8836 33.4091ZM35.7086 24.1256C35.5605 23.8328 35.3493 23.5765 35.0903 23.3751L34.4766 24.1647C34.6189 24.2753 34.7349 24.4161 34.8163 24.577L35.7086 24.1256ZM35.0903 23.3751C34.8312 23.1738 34.5307 23.0324 34.2104 22.9611L33.9932 23.9372C34.1691 23.9763 34.3342 24.054 34.4766 24.1647L35.0903 23.3751ZM34.2104 22.9611C33.8902 22.8898 33.5581 22.8904 33.2381 22.9628L33.4589 23.9381C33.6347 23.8983 33.8172 23.898 33.9932 23.9372L34.2104 22.9611ZM33.2381 22.9628C32.9181 23.0353 32.6181 23.1778 32.3598 23.3801L32.9764 24.1674C33.1183 24.0563 33.2831 23.978 33.4589 23.9381L33.2381 22.9628ZM32.4205 23.3394C32.102 23.5209 31.7468 23.8809 31.5708 24.416C31.3909 24.9631 31.4129 25.6467 31.7754 26.4439L32.6857 26.0299C32.4095 25.4227 32.4316 24.9995 32.5207 24.7284C32.6138 24.4454 32.7967 24.276 32.9157 24.2082L32.4205 23.3394ZM34.3604 28.9947L31.1185 23.1803L30.2451 23.6673L33.487 29.4816L34.3604 28.9947ZM31.1305 23.2031C30.9804 22.8979 30.7679 22.6277 30.5068 22.4098L29.8662 23.1777C30.0198 23.3059 30.1448 23.4649 30.2332 23.6444L31.1305 23.2031ZM30.5068 22.4098C30.2456 22.1919 29.9416 22.0313 29.6145 21.9384L29.3412 22.9003C29.5337 22.955 29.7125 23.0495 29.8662 23.1777L30.5068 22.4098ZM29.6145 21.9384C29.2873 21.8454 28.9443 21.8222 28.6076 21.8702L28.7488 22.8602C28.9469 22.832 29.1487 22.8456 29.3412 22.9003L29.6145 21.9384ZM28.6076 21.8702C28.271 21.9182 27.9481 22.0364 27.66 22.217L28.1912 23.0643C28.3607 22.958 28.5507 22.8884 28.7488 22.8602L28.6076 21.8702ZM27.6862 22.2017C27.1081 22.517 26.6813 23.0014 26.4533 23.5289C26.2275 24.0513 26.1816 24.6596 26.4475 25.1819L27.3386 24.7281C27.2415 24.5373 27.2306 24.2509 27.3712 23.9257C27.5096 23.6055 27.7805 23.2893 28.165 23.0796L27.6862 22.2017ZM26.456 25.1978L26.981 26.1428L27.8552 25.6572L27.3302 24.7122L26.456 25.1978ZM31.5778 53.6683L29.9853 50.5489L29.0946 51.0036L30.6871 54.123L31.5778 53.6683ZM29.7834 51.213L43.9497 43.3161L43.4628 42.4427L29.2965 50.3395L29.7834 51.213ZM43.2613 43.1075L44.8581 46.2225L45.748 45.7663L44.1511 42.6513L43.2613 43.1075ZM27.0935 47.9649C28.4041 48.5145 29.4912 49.1633 30.4538 50.3625L31.2336 49.7365C30.1313 48.3632 28.8821 47.6306 27.4802 47.0427L27.0935 47.9649Z" fill="#070606"/>
</svg>
