<svg width="80" height="81" viewBox="0 0 80 81" fill="none" xmlns="http://www.w3.org/2000/svg">
<g filter="url(#filter0_d_771_42059)">
<rect x="16" y="12.2002" width="48" height="48" rx="8" fill="white"/>
<path fill-rule="evenodd" clip-rule="evenodd" d="M40 26.9502C34.8914 26.9502 30.75 31.0916 30.75 36.2002C30.75 37.8863 31.2004 39.4649 31.987 40.8247C32.0767 40.9796 32.1079 41.1615 32.0752 41.3375L31.4374 44.7628L34.8627 44.125C35.0387 44.0923 35.2206 44.1235 35.3755 44.2132C36.7353 44.9998 38.3139 45.4502 40 45.4502C45.1086 45.4502 49.25 41.3088 49.25 36.2002C49.25 31.0916 45.1086 26.9502 40 26.9502ZM29.25 36.2002C29.25 30.2631 34.0629 25.4502 40 25.4502C45.9371 25.4502 50.75 30.2631 50.75 36.2002C50.75 42.1373 45.9371 46.9502 40 46.9502C38.1437 46.9502 36.3954 46.4791 34.8702 45.6494L30.6373 46.4375C30.3942 46.4828 30.1445 46.4053 29.9697 46.2305C29.7949 46.0557 29.7174 45.806 29.7627 45.5629L30.5508 41.33C29.7211 39.8048 29.25 38.0565 29.25 36.2002ZM35.25 34.2002C35.25 33.786 35.5858 33.4502 36 33.4502L44 33.4502C44.4142 33.4502 44.75 33.786 44.75 34.2002C44.75 34.6144 44.4142 34.9502 44 34.9502L36 34.9502C35.5858 34.9502 35.25 34.6144 35.25 34.2002ZM35.25 38.2002C35.25 37.786 35.5858 37.4502 36 37.4502H40C40.4142 37.4502 40.75 37.786 40.75 38.2002C40.75 38.6144 40.4142 38.9502 40 38.9502H36C35.5858 38.9502 35.25 38.6144 35.25 38.2002Z" fill="#A79280"/>
</g>
<defs>
<filter id="filter0_d_771_42059" x="0" y="0.200195" width="80" height="80" filterUnits="userSpaceOnUse" color-interpolation-filters="sRGB">
<feFlood flood-opacity="0" result="BackgroundImageFix"/>
<feColorMatrix in="SourceAlpha" type="matrix" values="0 0 0 0 0 0 0 0 0 0 0 0 0 0 0 0 0 0 127 0" result="hardAlpha"/>
<feOffset dy="4"/>
<feGaussianBlur stdDeviation="8"/>
<feColorMatrix type="matrix" values="0 0 0 0 0 0 0 0 0 0 0 0 0 0 0 0 0 0 0.04 0"/>
<feBlend mode="normal" in2="BackgroundImageFix" result="effect1_dropShadow_771_42059"/>
<feBlend mode="normal" in="SourceGraphic" in2="effect1_dropShadow_771_42059" result="shape"/>
</filter>
</defs>
</svg>
