<svg width="128" height="129" viewBox="0 0 128 129" fill="none" xmlns="http://www.w3.org/2000/svg">
<path d="M38.0842 94.1652C43.1445 92.2537 47.6245 101.956 48.1706 108.672C48.7167 115.388 23.0655 113.579 17.3823 108.604C29.8666 109.158 29.2351 97.5017 38.0842 94.1652Z" fill="#A79280" stroke="#FFF5ED" stroke-width="2" stroke-linecap="round" stroke-linejoin="round"/>
<path d="M97.4506 94.1652C92.3903 92.2537 87.9103 101.956 87.3642 108.672C86.818 115.388 112.469 113.579 118.152 108.604C105.643 109.158 106.3 97.5017 97.4506 94.1652Z" fill="#A79280" stroke="#FFF5ED" stroke-width="2" stroke-linecap="round" stroke-linejoin="round"/>
<path d="M63.744 34.1507C64.6998 23.6206 68.096 3.26855 80.2134 3.26855C70.5622 7.04029 70.4342 30.8483 74.735 34.1507C79.0358 37.4531 63.744 34.1507 63.744 34.1507Z" fill="#FFF5ED" stroke="#FFF5ED" stroke-width="2" stroke-miterlimit="10"/>
<path d="M45.9434 62.993L47.3258 79.2063C34.0309 83.473 15.2917 92.706 10.6325 103.765C8.33701 89.4036 16.8874 69.8623 29.4997 60.2452C20.625 47.1893 18.7733 25.9327 25.5999 13.0645C26.4533 25.0111 41.2501 39.7994 52.4885 48.0511L45.9434 62.993Z" fill="#FFF5ED" stroke="#FFF5ED" stroke-width="3" stroke-miterlimit="10"/>
<path d="M68.0021 123.37C76.5488 123.37 84.398 120.202 90.0819 113.591C95.7424 107.007 99.0837 97.2114 99.0837 84.241C99.0837 71.2916 95.7592 57.3717 90.3516 46.6352C87.6468 41.2652 84.3772 36.6043 80.6585 33.2609C76.9356 29.9139 72.6549 27.7983 68.0021 27.7983C63.3492 27.7983 59.0684 29.9146 55.3456 33.2623C51.627 36.6063 48.3574 41.268 45.6527 46.6385C40.245 57.3759 36.9205 71.2958 36.9205 84.241C36.9205 97.2114 40.2619 107.007 45.9224 113.591C51.6062 120.202 59.4554 123.37 68.0021 123.37Z" fill="#FFF5ED" stroke="#FFF5ED" stroke-width="4" stroke-miterlimit="10"/>
<path d="M76.1536 78.1494L77.3487 77.269L76.9299 78.693C75.4159 83.8406 72.0811 87.645 68.0022 87.645C63.925 87.645 60.5806 83.8861 59.0657 78.6919L58.6516 77.2723L59.8422 78.1494C62.2051 79.8901 65.063 80.8291 67.9979 80.8291C70.9328 80.8291 73.7907 79.8901 76.1536 78.1494Z" fill="#88319C" stroke="#A79280" stroke-miterlimit="10"/>
<path d="M95.5734 63.9662C97.3739 68.3353 97.4507 73.1993 94.7201 74.283C91.9894 75.3667 88.9942 75.2985 87.1937 70.9294C85.3931 66.5603 85.9905 61.5427 88.2603 59.8361C90.5302 58.1294 93.7387 59.5886 95.5734 63.9662Z" fill="#FFF5ED" stroke="#A79280" stroke-miterlimit="10"/>
<path d="M93.0134 74.4403C92.2283 74.7475 89.5318 75.4643 87.8934 71.5561C86.6049 68.4414 87.663 65.8729 89.2331 64.6185C90.8032 63.3641 93.0475 65.139 94.08 67.6393C95.3856 70.6601 94.8907 73.715 93.0134 74.4403Z" fill="#A79280"/>
<path d="M40.4565 63.9662C38.6559 68.3353 38.5791 73.1993 41.3098 74.283C44.0405 75.3667 47.0357 75.2985 48.8362 70.9294C50.6368 66.5603 50.0394 61.5427 47.7696 59.8361C45.4997 58.1294 42.257 59.5886 40.4565 63.9662Z" fill="#FFF5ED" stroke="#A79280" stroke-miterlimit="10"/>
<path d="M42.9567 74.4403C43.7418 74.7475 46.4383 75.4643 48.0767 71.5561C49.3653 68.4414 48.3071 65.8729 46.737 64.6185C45.1669 63.3641 42.9226 65.139 41.8901 67.6393C40.6186 70.6601 41.105 73.715 42.9567 74.4403Z" fill="#A79280"/>
<path d="M91.7162 103.859C87.2788 113.903 78.993 119.654 68.002 119.654C57.5743 119.654 49.5871 114.483 44.962 105.378C50.8756 100.258 59.5711 97.0068 69.2735 97.0068C78.0202 97.0068 85.9135 99.618 91.7162 103.859Z" fill="#E6D3C2"/>
</svg>
