<svg width="80" height="80" viewBox="0 0 80 80" fill="none" xmlns="http://www.w3.org/2000/svg">
<rect width="80" height="80" rx="40" fill="#EFEBE7"/>
<path d="M22.2251 48.0892C21.5715 59.7292 27.5422 60.9826 30.0796 60.4735C35.8501 59.1507 36.1508 54.9733 32.6704 47.5409C29.9039 41.633 34.4577 35.4517 35.0736 32.5813C35.5664 30.285 33.6442 28.0698 34.1491 26.469C34.9165 24.6476 35.5633 21.1463 33.5866 20.3885C31.61 19.6307 30.3051 23.1475 29.8998 25.0007C30.0373 23.4287 29.7235 20.3429 27.3684 20.5755C25.0132 20.8081 25.1148 24.0946 25.46 25.7088C25.1878 24.6493 24.2263 22.7132 22.5571 23.4444C20.8879 24.1757 21.214 26.9823 21.5856 28.2942C20.3965 26.8742 19.3116 27.1814 18.9178 27.5125C17.6831 28.2818 18.5538 30.2831 19.1435 31.1876C18.4448 30.834 17.7769 30.8243 17.5302 30.8637C15.9656 31.1132 16.7777 33.9049 17.8893 35.0988C18.2105 35.6021 17.3361 35.9491 18.1943 37.867C20.875 42.6708 22.479 45.1871 22.2251 48.0892Z" stroke="#A79280" stroke-linejoin="round"/>
<path d="M22.3075 40.3861C17.828 35.0957 23.0666 30.3639 25.7775 28.9682L26.5086 28.6822C33.9944 25.8382 33.1061 33.1083 30.0068 39.1353C28.1128 42.8185 30.2447 46.5039 31.2279 49.3892C31.9652 51.5531 33.8797 55.3945 30.6051 56.5076C26.1049 58.0374 25.1566 54.2232 25.029 51.6461C24.6858 49.5166 25.1567 44.1344 22.3075 40.3861Z" stroke="url(#paint0_linear_1158_31723)" stroke-linecap="round" stroke-linejoin="round" stroke-dasharray="2 2"/>
<path d="M57.7749 48.0892C58.4285 59.7292 52.4578 60.9826 49.9204 60.4735C44.1499 59.1507 43.8492 54.9733 47.3296 47.5409C50.0961 41.633 45.5423 35.4517 44.9264 32.5813C44.4336 30.285 46.3558 28.0698 45.8509 26.469C45.0835 24.6476 44.4367 21.1463 46.4134 20.3885C48.39 19.6307 49.6949 23.1475 50.1002 25.0007C49.9627 23.4287 50.2765 20.3429 52.6316 20.5755C54.9868 20.8081 54.8852 24.0946 54.54 25.7088C54.8122 24.6493 55.7737 22.7132 57.4429 23.4444C59.1121 24.1757 58.786 26.9823 58.4144 28.2942C59.6035 26.8742 60.6884 27.1814 61.0822 27.5125C62.3169 28.2818 61.4462 30.2831 60.8565 31.1876C61.5552 30.834 62.2231 30.8243 62.4698 30.8637C64.0344 31.1132 63.2223 33.9049 62.1107 35.0988C61.7895 35.6021 62.6639 35.9491 61.8057 37.867C59.125 42.6708 57.521 45.1871 57.7749 48.0892Z" stroke="#A79280" stroke-linejoin="round"/>
<path d="M57.6943 40.3853C62.1756 35.0927 56.9349 30.3589 54.2228 28.9626L53.4914 28.6766C46.0025 25.8313 46.8911 33.1045 49.9917 39.134C51.8865 42.8187 49.7537 46.5057 48.7702 49.3922C48.0325 51.557 46.1173 55.4 49.3932 56.5136C53.8953 58.044 54.844 54.2282 54.9716 51.65C55.315 49.5196 54.8439 44.1352 57.6943 40.3853Z" stroke="url(#paint1_linear_1158_31723)" stroke-linecap="round" stroke-linejoin="round" stroke-dasharray="2 2"/>
<defs>
<linearGradient id="paint0_linear_1158_31723" x1="34.6973" y1="28.4941" x2="12.4085" y2="35.4158" gradientUnits="userSpaceOnUse">
<stop stop-color="#88319C"/>
<stop offset="1" stop-color="#A79280"/>
</linearGradient>
<linearGradient id="paint1_linear_1158_31723" x1="45.2993" y1="28.4883" x2="67.5975" y2="35.4129" gradientUnits="userSpaceOnUse">
<stop stop-color="#88319C"/>
<stop offset="1" stop-color="#A79280"/>
</linearGradient>
</defs>
</svg>
