<svg width="56" height="56" viewBox="0 0 56 56" fill="none" xmlns="http://www.w3.org/2000/svg">
<path d="M51.1359 41.6044C48.4443 37.7964 45.5284 36.0044 43.9583 35.5564C43.5097 31.9724 42.1082 30.7346 40.5938 29.5084C38.5449 32.2979 35.4508 33.9431 32.2483 34C31.9989 34 31.7494 34 31.5 34C33.546 36.8865 34.0315 40.4591 33.8648 44.0684C33.7304 46.9804 32.1911 51.0397 29.5 53.5C29.4072 53.5827 29.342 53.6912 29.3132 53.8111C29.2844 53.931 29.2933 54.0566 29.3386 54.1715C29.384 54.2863 29.3964 54.2977 29.5 54.3671C29.6036 54.4364 29.8442 54.4548 29.9695 54.4542C29.9695 54.4542 43.5097 54.4909 44.4069 54.4909C42.1639 49.4444 41.9396 47.4284 41.9396 47.4284C45.977 46.9804 48.8643 44.4903 51.1359 41.6044Z" fill="#E6D3C2"/>
<path d="M27.3334 21.1712C27.8661 21.1712 28.2979 20.7399 28.2979 20.208C28.2979 19.676 27.8661 19.2448 27.3334 19.2448C26.8007 19.2448 26.3689 19.676 26.3689 20.208C26.3689 20.7399 26.8007 21.1712 27.3334 21.1712Z" fill="#070606"/>
<path d="M35.7941 21.1712C36.3267 21.1712 36.7586 20.7399 36.7586 20.208C36.7586 19.676 36.3267 19.2448 35.7941 19.2448C35.2614 19.2448 34.8296 19.676 34.8296 20.208C34.8296 20.7399 35.2614 21.1712 35.7941 21.1712Z" fill="#070606"/>
<path d="M45.3356 30.6329C45.9823 30.2418 46.5536 29.7381 47.0223 29.1456C42.4197 23.5187 44.2814 19.6973 44.2814 12.1977C44.2814 7.03678 40.2934 1.52638 33.3132 1.02014C30.33 0.800617 27.0328 2.4179 25.6601 3.82462C20.1334 4.76094 18.2941 9.4515 18.2941 12.7309C18.2941 18.3589 19.5886 21.613 18.2941 25.2622M29.0519 54.3725H52.0332V49.2921C52.0533 47.7064 51.8139 46.1281 51.3244 44.6195M30.9491 23.4605H31.3214C31.5081 23.4605 31.6931 23.4237 31.8656 23.3524C32.0381 23.281 32.1949 23.1764 32.3269 23.0445C32.459 22.9126 32.5637 22.7561 32.6352 22.5838C32.7067 22.4115 32.7435 22.2268 32.7435 22.0403V19.6883C32.7435 18.0307 33.8739 17.1885 34.6949 17.1885H36.7808M28.2575 17.1885H26.0145M32.9678 26.8877C31.9764 26.135 30.2492 26.135 29.4059 26.8877M40.5939 29.5085C42.1236 30.7629 43.5906 32.7027 43.7924 35.0413C44.2051 39.9424 37.9566 41.2222 34 41.5M39.4635 41.0669C39.4635 41.0669 41.4014 44.9376 41.8859 47.3389C42.3704 49.7401 44.3083 54.1485 44.3083 54.1485M44.3083 46.8371C47.6997 45.8694 51.0911 41.5149 51.0911 41.5149C51.0911 41.5149 47.6997 36.6765 44.3083 35.6909M6.93566 35.9602L28.6451 48.39M29.7294 46.5498C29.1188 48.3134 28.1266 49.9208 26.8232 51.2578C25.5199 52.5948 23.9375 53.6285 22.1886 54.2852C20.4398 54.942 18.5674 55.2058 16.7049 55.0577C14.8424 54.9097 13.0354 54.3535 11.4126 53.4287C9.78975 52.5039 8.39099 51.2333 7.31583 49.7072C6.24067 48.1812 5.51553 46.4372 5.19202 44.5994C4.86851 42.7617 4.95459 40.8753 5.44412 39.0745C5.93365 37.2738 6.81461 35.6029 8.02429 34.1808M40.8182 19.863C40.8182 25.4765 35.7311 30.9645 31.465 30.9645C27.1988 30.9645 21.9771 25.4765 21.9771 19.863V16.3328C24.1672 14.1568 26.1524 11.7843 27.9076 9.24542C31.124 13.3357 40.8182 16.3328 40.8182 16.3328V19.863Z" stroke="#070606" stroke-linecap="round" stroke-linejoin="round"/>
<path d="M9.49121 32.7139C11.5261 30.9927 14.0513 29.9538 16.7097 29.7441C19.3681 29.5345 22.0253 30.1646 24.3055 31.5455C26.5857 32.9264 28.3736 34.9881 29.4163 37.4392C30.2989 39.5137 30.6099 41.7783 30.3284 44" stroke="#070606" stroke-linecap="round" stroke-linejoin="round" stroke-dasharray="4 4"/>
</svg>
