<svg width="80" height="80" viewBox="0 0 80 80" fill="none" xmlns="http://www.w3.org/2000/svg">
<path d="M37.8739 61C37.8739 61 34.2984 61 32.5813 61C32.0821 62.5186 31.4069 63.9251 30.4955 64.877C27.8393 67.8377 25.3372 70.9451 23 74.186L30.801 79C31.7736 76.1729 33.0841 73.4855 34.7016 71.0015C37.1524 67.43 45.1798 65.3863 47 61C45.6998 61 43.0746 61 42.4245 61L40.7993 61H37.8739Z" fill="#BDDFFF"/>
<path d="M60 21.8141L61.6561 21.1636C62.2422 20.9347 62.8893 20.9464 63.4676 21.1962C64.0458 21.446 64.5124 21.9155 64.7736 22.5104C65.0348 23.1053 65.0714 23.7816 64.876 24.4036C64.6805 25.0255 64.2675 25.5471 63.7199 25.8636L60 28" stroke="#002D57" stroke-linecap="round" stroke-linejoin="round"/>
<path d="M60 31.2904L62.2372 31.0143C62.8578 30.9465 63.4804 31.1212 63.9828 31.5043C64.4852 31.8874 64.831 32.451 64.9523 33.0845C65.0736 33.718 64.9616 34.3756 64.6383 34.928C64.3151 35.4804 63.8039 35.8877 63.2052 36.0699L60 37" stroke="#002D57" stroke-linecap="round" stroke-linejoin="round"/>
<path d="M60 42.6278L62.1225 42.9894V42.9696C62.7415 43.0684 63.3741 42.9244 63.8944 42.5664C64.4148 42.2084 64.7849 41.6625 64.9311 41.0373C65.0773 40.4121 64.989 39.7533 64.6837 39.1919C64.3784 38.6304 63.8784 38.2075 63.2832 38.007L60.1795 37" stroke="#002D57" stroke-linecap="round" stroke-linejoin="round"/>
<path d="M60 45.0869L61.4827 45C62.1106 45.0078 62.7138 45.2772 63.1763 45.7564C63.6389 46.2356 63.928 46.8908 63.9883 47.596C64.0485 48.3012 63.8755 49.0067 63.5026 49.5767C63.1297 50.1467 62.5832 50.5411 61.9681 50.684L60 51" stroke="#002D57" stroke-linecap="round" stroke-linejoin="round"/>
<path d="M26.9698 31C26.9698 31 22.0091 34.8156 20.006 38.8962C18.003 42.9768 13 68.5 13 68.5L31.0427 79C32.0415 76.2419 33.3875 73.62 35.0487 71.1965C37.5658 67.7121 45.1305 65.7513 47 61.472" stroke="#002D57" stroke-linecap="round" stroke-linejoin="round"/>
<path d="M27 37C27 37 23.7029 40.4118 24.0217 44.2523C24.0961 45.1785 24.2391 46.0967 24.449 47C25.0867 45.8816 25.8602 44.5937 26.3622 43.7378L27 43.1253V41.2877V37Z" fill="#BDDFFF"/>
<path d="M33.096 61H55.884C58.1572 61 60 58.997 60 56.5261V5.47391C60 3.00304 58.1572 1 55.884 1L31.116 1C28.8428 1 27 3.00304 27 5.47391V42.087" stroke="#002D57" stroke-linecap="round" stroke-linejoin="round"/>
<path d="M35.0223 50.048C35.8214 47.2975 36.8757 44.9817 38.6418 43.1393C39.4342 42.4387 39.4342 42.4387 41.1131 42.1144L46.566 41.3619C47.3827 41.1361 48.0805 40.6198 48.5187 39.9168C48.9569 39.2139 49.103 38.3766 48.9276 37.5737C48.7522 36.7708 48.2682 36.062 47.5733 35.5901C46.8784 35.1181 46.0241 34.9182 45.1826 35.0305H45.0483L42.6845 35.303L40.2804 35.4976C38.6821 35.6403 37.0839 35.7571 35.499 35.8414C35.1287 35.8394 34.7646 35.9335 34.4447 36.1139L33.5919 36.6004C31.6976 37.6995 29.9841 39.0661 28.5083 40.6548C27.0997 42.1545 25.8469 43.784 24.7679 45.5201C22.8633 48.6624 21.1546 51.9117 19.6507 55.2506C19.3846 55.8218 19.1951 56.4235 19.0866 57.041C18.7928 58.8458 19.2531 60.6894 20.3664 62.1663C21.4797 63.6432 23.1547 64.6324 25.023 64.9163C26.8913 65.2002 28.7999 64.7555 30.3288 63.6801C31.8576 62.6046 32.8817 60.9865 33.1755 59.1818C33.615 56.1064 34.2316 53.0571 35.0223 50.048Z" stroke="#002D57" stroke-linecap="round" stroke-linejoin="round"/>
<path d="M45.832 14.7913L40.3359 15.4225L40.1391 16.2582L41.2191 16.4407C41.9247 16.5947 42.0639 16.8278 41.9103 17.4722L40.1391 25.0992C39.6735 27.0719 40.3911 28 42.0783 28C43.3864 28 44.9056 27.4458 45.5944 26.6849L45.8056 25.77C45.3256 26.157 44.6248 26.311 44.1592 26.311C43.4992 26.311 43.2591 25.8865 43.4296 25.1388L45.832 14.7913ZM46 10.1993C46 10.7825 45.7471 11.3419 45.297 11.7544C44.8469 12.1668 44.2365 12.3985 43.6 12.3985C42.9634 12.3985 42.353 12.1668 41.9029 11.7544C41.4528 11.3419 41.1999 10.7825 41.1999 10.1993C41.1999 9.61597 41.4528 9.05659 41.9029 8.64415C42.353 8.23171 42.9634 8 43.6 8C44.2365 8 44.8469 8.23171 45.297 8.64415C45.7471 9.05659 46 9.61597 46 10.1993Z" fill="#0061BB"/>
</svg>
