<svg width="128" height="128" viewBox="0 0 128 128" fill="none" xmlns="http://www.w3.org/2000/svg">
<path d="M33.5546 51.2608C42.5008 49.7089 48.1801 39.3827 46.2396 28.1965C44.2991 17.0103 35.4738 9.20018 26.5276 10.7521C17.5814 12.304 11.9022 22.6302 13.8426 33.8164C15.7831 45.0026 24.6084 52.8127 33.5546 51.2608Z" fill="#FFF5ED" stroke="#FFF5ED" stroke-width="3.97854" stroke-miterlimit="10"/>
<path d="M33.8518 43.9723C33.458 44.1154 33.0526 44.2239 32.64 44.2965C27.3664 45.2267 21.8368 39.9445 20.5654 32.7595C19.3963 26.1205 22.0502 19.8229 26.752 18.1077C27.1458 17.9647 27.5512 17.8562 27.9638 17.7835C29.2623 17.6058 30.5842 17.7264 31.8292 18.1359C33.0741 18.5455 34.2094 19.2333 35.1488 20.1472C37.7659 22.5666 39.489 25.7991 40.0384 29.3205C41.2075 35.968 38.5451 42.2656 33.8518 43.9723Z" fill="#E6D3C2"/>
<path d="M113.983 33.9116C115.965 22.6706 110.284 12.2728 101.294 10.6877C92.3041 9.10246 83.4094 16.9301 81.4273 28.1712C79.4452 39.4122 85.1263 49.81 94.1163 51.3951C103.106 52.9803 112.001 45.1527 113.983 33.9116Z" fill="#FFF5ED" stroke="#FFF5ED" stroke-width="4" stroke-miterlimit="10"/>
<path d="M96.6144 44.3734C96.1967 44.3725 95.7799 44.3354 95.3686 44.2624C90.095 43.3323 86.7072 36.4715 87.9702 29.2864C89.1392 22.6475 93.7899 17.6384 98.7904 17.6384C99.2082 17.6392 99.625 17.6764 100.036 17.7494C101.322 18.0221 102.529 18.5853 103.565 19.3957C104.6 20.2062 105.436 21.2425 106.01 22.4256C107.642 25.5936 108.156 29.22 107.469 32.7168C106.266 39.3984 101.606 44.3734 96.6144 44.3734Z" fill="#E6D3C2"/>
<path d="M23.2619 85.5381C10.4619 64.7424 24.303 22.3914 43.7419 18.1248C47.5051 7.36424 60.9025 7.16797 60.9025 7.16797C58.3083 12.0149 58.8801 15.7696 58.8801 15.7696C64.6827 8.77224 74.479 9.79624 74.479 9.79624C73.8816 16.2645 88.6784 17.1946 97.5787 27.4944C106.479 37.7941 113.877 51.7973 107.981 78.2933C105.421 73.1733 102.682 73.0965 102.682 73.0965C102.281 92.7232 83.9851 116.77 69.8795 120.371C70.5536 111.906 68.3776 109.073 66.6795 108.075C67.4816 113.075 64.367 117.973 64.367 117.973C38.3745 111.77 30.2337 99.473 28.2369 74.3765C23.6971 81.1349 23.2619 85.5381 23.2619 85.5381Z" fill="#FFF5ED" stroke="#FFF5ED" stroke-width="4" stroke-miterlimit="10"/>
<path d="M64.3925 99.6266C72.3148 99.6266 78.737 95.424 78.737 90.2399C78.737 85.0558 72.3148 80.8533 64.3925 80.8533C56.4702 80.8533 50.048 85.0558 50.048 90.2399C50.048 95.424 56.4702 99.6266 64.3925 99.6266Z" fill="#E6D3C2" stroke="#A79280" stroke-miterlimit="10"/>
<path d="M102.246 54.6133C102.246 61.1413 100.582 63.4879 95.1467 69.1199C89.711 74.7519 81.9201 80.9642 65.9627 80.9642H64.5462C48.5974 80.9642 40.7979 74.7605 35.3622 69.137C29.9265 63.5135 28.2625 61.1669 28.2625 54.6303C28.2625 42.0266 41.1649 26.0181 61.9862 26.0181C62.2251 26.0181 65.0155 29.5082 65.2545 29.5167C65.4934 29.5253 68.2667 26.0266 68.5227 26.0266C89.3441 26.0266 102.246 42.0351 102.246 54.6133Z" fill="#FFF5ED"/>
<path d="M87.6203 79.3601C87.6203 88.7468 80.1024 99.1319 64.7168 90.078C49.3568 99.1319 41.8134 88.7724 41.8134 79.3601C41.8134 69.9479 49.3312 62.2935 64.7168 62.2935C80.1024 62.2935 87.6203 69.9393 87.6203 79.3601Z" fill="#E6D3C2" stroke="#A79280" stroke-miterlimit="10"/>
<path d="M55.8421 51.8143C55.1083 55.9786 50.7221 58.4191 46.2507 57.6341C41.7792 56.849 38.4768 54.6133 39.5264 48.6399C40.2603 44.4757 43.9808 44.4586 48.4267 45.2266C52.8725 45.9946 56.576 47.6501 55.8421 51.8143Z" fill="#FFF5ED" stroke="#A79280" stroke-miterlimit="10"/>
<path d="M74.8117 51.8143C75.5456 55.9786 79.9317 58.4191 84.4032 57.6341C88.8747 56.849 92.16 54.6133 91.1275 48.6399C90.3936 44.4757 86.6731 44.4586 82.2272 45.2266C77.7813 45.9946 74.0779 47.6501 74.8117 51.8143Z" fill="#FFF5ED" stroke="#A79280" stroke-miterlimit="10"/>
<path d="M53.4916 51.5299C53.765 49.9798 52.7299 48.5015 51.1797 48.2282C49.6296 47.9548 48.1513 48.9899 47.878 50.5401C47.6046 52.0903 48.6397 53.5685 50.1899 53.8418C51.7401 54.1152 53.2183 53.0801 53.4916 51.5299Z" fill="#88319C"/>
<path d="M80.4612 53.8353C82.0114 53.562 83.0465 52.0837 82.7731 50.5335C82.4998 48.9834 81.0216 47.9483 79.4714 48.2216C77.9212 48.495 76.8861 49.9732 77.1595 51.5234C77.4328 53.0736 78.9111 54.1086 80.4612 53.8353Z" fill="#88319C"/>
<path d="M71.7773 66.2528C71.7773 66.9378 71.5295 67.7559 71.0745 68.6183C70.6226 69.475 69.983 70.3434 69.2423 71.1207C68.5014 71.8981 67.6705 72.5726 66.8435 73.0497C66.0108 73.5301 65.2158 73.7912 64.5376 73.7912C63.8591 73.7912 63.0641 73.5305 62.2315 73.0508C61.4044 72.5743 60.5736 71.9006 59.8328 71.1237C59.0921 70.3471 58.4526 69.479 58.0007 68.622C57.5458 67.7593 57.2979 66.9401 57.2979 66.2528C57.2979 65.589 57.5284 65.0979 57.9124 64.7128C58.3096 64.3145 58.8931 64.0091 59.6188 63.7843C61.0758 63.3331 62.9431 63.2542 64.5376 63.2542C66.1316 63.2542 67.999 63.3351 69.456 63.7874C70.1819 64.0127 70.7656 64.3184 71.1629 64.7166C71.547 65.1014 71.7773 65.5915 71.7773 66.2528Z" fill="#A79280" stroke="#A79280"/>
<path d="M64.8533 89.6001L64.8533 66.5601" stroke="#A79280" stroke-miterlimit="10" stroke-linecap="round"/>
<path d="M71.1083 77.568L81.1861 72.6101" stroke="#A79280" stroke-miterlimit="10" stroke-linecap="round"/>
<path d="M72.3115 79.9316H82.8929" stroke="#A79280" stroke-miterlimit="10" stroke-linecap="round"/>
<path d="M71.1083 82.2869L81.1861 87.2447" stroke="#A79280" stroke-miterlimit="10" stroke-linecap="round"/>
<path d="M56.8234 77.568L47.5989 72.6101" stroke="#A79280" stroke-miterlimit="10" stroke-linecap="round"/>
<path d="M55.6287 79.9316H45.8922" stroke="#A79280" stroke-miterlimit="10" stroke-linecap="round"/>
<path d="M56.8234 82.2869L47.5989 87.2447" stroke="#A79280" stroke-miterlimit="10" stroke-linecap="round"/>
</svg>
