<svg width="65" height="64" viewBox="0 0 65 64" fill="none" xmlns="http://www.w3.org/2000/svg">
<path d="M36.558 60.4343C36.558 60.0205 36.2132 59.5279 35.7994 59.5279C35.6293 59.5279 35.4709 59.5862 35.3432 59.6835C35.1309 59.3485 34.7557 59.1141 34.3511 59.1141C34.2395 59.1141 34.1302 59.1297 34.0258 59.1593C33.6464 58.5544 32.9733 58.1486 32.2132 58.1486C31.6247 58.1486 31.0884 58.3918 30.7001 58.7824C30.6316 58.7737 30.5612 58.7693 30.489 58.7693C29.5924 58.7693 28.9028 59.6067 28.9028 60.4343L36.558 60.4343Z" fill="#E6D3C2"/>
<path d="M12.7799 37.7162C11.6792 40.5096 11.0742 43.5495 11.0742 46.7266C11.0742 51.7552 12.5599 56.4409 15.1885 60.4409H29.4742V47.8795C28.8255 48.1539 28.1052 47.8746 27.7895 47.3064C27.3757 46.6168 27.6516 45.7892 28.2723 45.4443L39.6516 38.8926C39.8598 38.7538 40.103 38.6848 40.3459 38.6857H52.9619C53.2032 38.6857 53.4446 38.7547 53.6515 38.8926L60.1009 42.6059C58.2696 31.7772 49.3491 23.3105 38.3051 22.1714C37.8763 28.0458 34.6027 33.1605 29.8612 36.1473C26.2816 38.4749 23.256 41.6861 21.4803 45.5916L21.4793 45.5937L20.7499 47.235C20.6566 47.4449 20.4466 47.5785 20.2169 47.5742C19.9872 47.5699 19.7825 47.4284 19.6971 47.2151L18.9707 45.3989C17.572 42.3276 15.3977 39.7942 12.7799 37.7162Z" fill="#E6D3C2"/>
<path d="M37.9964 60.4402V57.6816C37.9964 56.4402 39.0309 55.4057 40.2722 55.4057C41.5136 55.4057 42.5481 56.4402 42.5481 57.6816V60.4402H37.9964Z" fill="#E6D3C2"/>
<path d="M35.8584 57.1685H32.8239V55.3754C32.8239 54.5478 33.5136 53.8581 34.3411 53.8581C35.1687 53.8581 35.8584 54.5478 35.8584 55.3754V57.1685Z" fill="#E6D3C2"/>
<path d="M47.7894 57.1685H44.755V55.3754C44.755 54.5478 45.4446 53.8581 46.2722 53.8581C47.0998 53.8581 47.7894 54.5478 47.7894 55.3754V57.1685Z" fill="#E6D3C2"/>
<path d="M35.8584 52.134H32.8239V50.3409C32.8239 49.5133 33.5136 48.8237 34.3411 48.8237C35.1687 48.8237 35.8584 49.5133 35.8584 50.3409V52.134Z" fill="#E6D3C2"/>
<path d="M47.7895 52.134H44.755V50.3409C44.755 49.5133 45.4446 48.8237 46.2722 48.8237C47.0998 48.8237 47.7895 49.5133 47.7895 50.3409V52.134Z" fill="#E6D3C2"/>
<path d="M41.8584 52.134H38.8239V50.3409C38.8239 49.5133 39.5136 48.8237 40.3411 48.8237C41.1687 48.8237 41.8584 49.5133 41.8584 50.3409V52.134Z" fill="#E6D3C2"/>
<path d="M56.2033 52.134H53.1688V50.3409C53.1688 49.5133 53.8585 48.8237 54.686 48.8237C55.5136 48.8237 56.2033 49.5133 56.2033 50.3409V52.134Z" fill="#E6D3C2"/>
<path d="M61.2377 52.134H58.2032V50.3409C58.2032 49.5133 58.8929 48.8237 59.7205 48.8237C60.548 48.8237 61.2377 49.5133 61.2377 50.3409V52.134Z" fill="#E6D3C2"/>
<path d="M56.2033 57.1685H53.1688V55.3754C53.1688 54.5478 53.8585 53.8581 54.686 53.8581C55.5136 53.8581 56.2033 54.5478 56.2033 55.3754V57.1685Z" fill="#E6D3C2"/>
<path d="M61.2377 57.1685H58.2032V55.3754C58.2032 54.5478 58.8929 53.8581 59.7205 53.8581C60.548 53.8581 61.2377 54.5478 61.2377 55.3754V57.1685Z" fill="#E6D3C2"/>
<path d="M30.0458 47.7143V59.0286M63.2378 47.5516V60.5714H50.6172L50.6172 47.6L40.3315 41.6571L29.6517 47.7892C28.9621 48.203 28.1345 47.9271 27.7897 47.3064C27.3759 46.6168 27.6517 45.7892 28.2724 45.4443L39.6517 38.8926C39.86 38.7538 40.1031 38.6848 40.3461 38.6857H52.962C53.2034 38.6857 53.4448 38.7547 53.6517 38.8926L63.2378 44.4119M15.1886 60.5714C12.56 56.5714 11.0743 51.8857 11.0743 46.8571C11.0743 44.6862 11.3568 42.5794 11.8869 40.5714M60.0713 42.5806C59.006 36.5558 55.7386 31.2571 51.1886 27.5428M3.76004 60.5714H19.1886M22.7315 60.5714H25.4743M32.3315 60.5714H63.1886M37.7817 20.9855C37.7817 11.1115 29.7362 3.24885 19.6793 3.4317C10.9024 3.61455 3.40542 10.7458 2.67401 19.5227C2.12545 26.2883 5.59964 32.5052 10.9024 35.7966C14.5594 38.1737 17.6679 41.2822 19.4964 45.3049L20.2278 47.1334L20.9592 45.4878C22.7878 41.465 25.8963 38.1737 29.5533 35.7966C34.4903 32.6881 37.7817 27.2025 37.7817 20.9855ZM20.2279 24.6426C22.2477 24.6426 23.885 23.0053 23.885 20.9855C23.885 18.9658 22.2477 17.3285 20.2279 17.3285C18.2082 17.3285 16.5709 18.9658 16.5709 20.9855C16.5709 23.0053 18.2082 24.6426 20.2279 24.6426Z" stroke="#070606" stroke-miterlimit="10" stroke-linecap="round"/>
</svg>
