<svg width="80" height="80" viewBox="0 0 80 80" fill="none" xmlns="http://www.w3.org/2000/svg">
<rect width="80" height="80" rx="40" fill="#EFEBE7"/>
<path d="M25.6732 54.0977C25.5342 54.3363 25.6149 54.6424 25.8535 54.7815C26.0921 54.9205 26.3982 54.8398 26.5372 54.6012L25.6732 54.0977ZM30.9583 47.0148C31.0973 46.7763 31.0166 46.4701 30.778 46.3311C30.5394 46.1921 30.2333 46.2728 30.0943 46.5113L30.9583 47.0148ZM27.0899 53.6529C27.2289 53.4143 27.1482 53.1082 26.9096 52.9692C26.671 52.8301 26.3649 52.9108 26.2259 53.1494L27.0899 53.6529ZM27.3311 51.2528C27.1921 51.4914 27.2728 51.7975 27.5114 51.9366C27.75 52.0756 28.0561 51.9949 28.1951 51.7563L27.3311 51.2528ZM29.3004 49.8597C29.4394 49.6212 29.3587 49.315 29.1201 49.176C28.8815 49.037 28.5754 49.1177 28.4364 49.3562L29.3004 49.8597ZM29.5416 47.4596C29.4026 47.6982 29.4833 48.0043 29.7219 48.1434C29.9605 48.2824 30.2666 48.2017 30.4056 47.9631L29.5416 47.4596ZM26.5372 54.6012L27.0899 53.6529L26.2259 53.1494L25.6732 54.0977L26.5372 54.6012ZM28.1951 51.7563L29.3004 49.8597L28.4364 49.3562L27.3311 51.2528L28.1951 51.7563ZM30.4056 47.9631L30.9583 47.0148L30.0943 46.5113L29.5416 47.4596L30.4056 47.9631Z" fill="url(#paint0_linear_1158_31664)"/>
<path d="M31.3102 57.5789C31.2316 57.8436 31.3825 58.1219 31.6472 58.2005C31.9119 58.2791 32.1902 58.1283 32.2689 57.8636L31.3102 57.5789ZM34.5846 50.0664C34.6633 49.8017 34.5124 49.5234 34.2477 49.4448C33.983 49.3662 33.7047 49.517 33.626 49.7817L34.5846 50.0664ZM32.5583 56.8889C32.637 56.6242 32.4861 56.3459 32.2214 56.2673C31.9567 56.1886 31.6783 56.3395 31.5997 56.6042L32.5583 56.8889ZM32.1787 54.6549C32.1 54.9196 32.2509 55.198 32.5156 55.2766C32.7803 55.3552 33.0587 55.2044 33.1373 54.9396L32.1787 54.6549ZM33.7162 52.9904C33.7948 52.7257 33.644 52.4473 33.3793 52.3687C33.1146 52.2901 32.8362 52.4409 32.7576 52.7057L33.7162 52.9904ZM33.3366 50.7564C33.2579 51.0211 33.4088 51.2994 33.6735 51.378C33.9382 51.4567 34.2166 51.3058 34.2952 51.0411L33.3366 50.7564ZM32.2689 57.8636L32.5583 56.8889L31.5997 56.6042L31.3102 57.5789L32.2689 57.8636ZM33.1373 54.9396L33.7162 52.9904L32.7576 52.7057L32.1787 54.6549L33.1373 54.9396ZM34.2952 51.0411L34.5846 50.0664L33.626 49.7817L33.3366 50.7564L34.2952 51.0411Z" fill="url(#paint1_linear_1158_31664)"/>
<path d="M54.3268 54.0977C54.4658 54.3363 54.3851 54.6424 54.1465 54.7815C53.9079 54.9205 53.6018 54.8398 53.4628 54.6012L54.3268 54.0977ZM49.0417 47.0148C48.9027 46.7763 48.9834 46.4701 49.222 46.3311C49.4606 46.1921 49.7667 46.2728 49.9057 46.5113L49.0417 47.0148ZM52.9101 53.6529C52.7711 53.4143 52.8518 53.1082 53.0904 52.9692C53.329 52.8301 53.6351 52.9108 53.7741 53.1494L52.9101 53.6529ZM52.6689 51.2528C52.8079 51.4914 52.7272 51.7975 52.4886 51.9366C52.25 52.0756 51.9439 51.9949 51.8049 51.7563L52.6689 51.2528ZM50.6996 49.8597C50.5606 49.6212 50.6413 49.315 50.8799 49.176C51.1185 49.037 51.4246 49.1177 51.5636 49.3562L50.6996 49.8597ZM50.4584 47.4596C50.5974 47.6982 50.5167 48.0043 50.2781 48.1434C50.0395 48.2824 49.7334 48.2017 49.5944 47.9631L50.4584 47.4596ZM53.4628 54.6012L52.9101 53.6529L53.7741 53.1494L54.3268 54.0977L53.4628 54.6012ZM51.8049 51.7563L50.6996 49.8597L51.5636 49.3562L52.6689 51.2528L51.8049 51.7563ZM49.5944 47.9631L49.0417 47.0148L49.9057 46.5113L50.4584 47.4596L49.5944 47.9631Z" fill="url(#paint2_linear_1158_31664)"/>
<path d="M48.6898 57.5789C48.7684 57.8436 48.6175 58.1219 48.3528 58.2005C48.0881 58.2791 47.8098 58.1283 47.7311 57.8636L48.6898 57.5789ZM45.4154 50.0664C45.3367 49.8017 45.4876 49.5234 45.7523 49.4448C46.017 49.3662 46.2953 49.517 46.374 49.7817L45.4154 50.0664ZM47.4417 56.8889C47.363 56.6242 47.5139 56.3459 47.7786 56.2673C48.0433 56.1886 48.3217 56.3395 48.4003 56.6042L47.4417 56.8889ZM47.8213 54.6549C47.9 54.9196 47.7491 55.198 47.4844 55.2766C47.2197 55.3552 46.9413 55.2044 46.8627 54.9396L47.8213 54.6549ZM46.2838 52.9904C46.2052 52.7257 46.356 52.4473 46.6207 52.3687C46.8854 52.2901 47.1638 52.4409 47.2424 52.7057L46.2838 52.9904ZM46.6634 50.7564C46.7421 51.0211 46.5912 51.2994 46.3265 51.378C46.0618 51.4567 45.7834 51.3058 45.7048 51.0411L46.6634 50.7564ZM47.7311 57.8636L47.4417 56.8889L48.4003 56.6042L48.6898 57.5789L47.7311 57.8636ZM46.8627 54.9396L46.2838 52.9904L47.2424 52.7057L47.8213 54.6549L46.8627 54.9396ZM45.7048 51.0411L45.4154 50.0664L46.374 49.7817L46.6634 50.7564L45.7048 51.0411Z" fill="url(#paint3_linear_1158_31664)"/>
<path d="M31.3684 44.8665L26.1053 46.3416L16 59.4071L25.2632 56.2461L31.3684 60.25L40 56.8783L48.6316 60.25L54.7368 56.2461L64 59.4071L53.8947 46.3416L48.6316 44.8665" stroke="#A79280" stroke-linecap="round" stroke-linejoin="round"/>
<path d="M40.0001 18.5C33.9529 18.5 29.0527 23.4325 29.0527 29.5224C29.0527 40.0488 40.0001 53.7717 40.0001 53.7717C40.0001 53.7717 50.9475 40.0488 50.9475 29.5224C50.9475 23.4325 46.0473 18.5 40.0001 18.5Z" stroke="#A79280" stroke-linecap="round" stroke-linejoin="round"/>
<path d="M39.9999 34.8683C37.1369 34.8683 34.8245 32.5352 34.8245 29.6602C34.8245 26.7852 37.1461 24.4429 39.9999 24.4429C42.8629 24.4429 45.1754 26.776 45.1754 29.6602C45.1754 32.5352 42.8629 34.8683 39.9999 34.8683Z" stroke="url(#paint4_linear_1158_31664)" stroke-linecap="round" stroke-linejoin="round"/>
<defs>
<linearGradient id="paint0_linear_1158_31664" x1="30.5263" y1="46.7631" x2="23.9467" y2="50.1248" gradientUnits="userSpaceOnUse">
<stop stop-color="#88319C"/>
<stop offset="1" stop-color="#A79280"/>
</linearGradient>
<linearGradient id="paint1_linear_1158_31664" x1="34.1053" y1="49.9241" x2="30.0352" y2="50.984" gradientUnits="userSpaceOnUse">
<stop stop-color="#88319C"/>
<stop offset="1" stop-color="#A79280"/>
</linearGradient>
<linearGradient id="paint2_linear_1158_31664" x1="49.4737" y1="46.7631" x2="56.0533" y2="50.1248" gradientUnits="userSpaceOnUse">
<stop stop-color="#88319C"/>
<stop offset="1" stop-color="#A79280"/>
</linearGradient>
<linearGradient id="paint3_linear_1158_31664" x1="45.8947" y1="49.9241" x2="49.9648" y2="50.984" gradientUnits="userSpaceOnUse">
<stop stop-color="#88319C"/>
<stop offset="1" stop-color="#A79280"/>
</linearGradient>
<linearGradient id="paint4_linear_1158_31664" x1="45.1754" y1="24.4429" x2="34.1237" y2="34.0633" gradientUnits="userSpaceOnUse">
<stop stop-color="#88319C"/>
<stop offset="1" stop-color="#A79280"/>
</linearGradient>
</defs>
</svg>
