<svg width="192" height="158" viewBox="0 0 192 158" fill="none" xmlns="http://www.w3.org/2000/svg">
<path d="M158.72 75.8004C172.738 75.8004 184.102 64.983 184.102 51.6392C184.102 38.2954 172.738 27.478 158.72 27.478C144.702 27.478 133.338 38.2954 133.338 51.6392C133.338 64.983 144.702 75.8004 158.72 75.8004Z" fill="#E6D3C2" stroke="#FFF5ED" stroke-width="4" stroke-miterlimit="10"/>
<path d="M33.28 75.8004C47.2983 75.8004 58.6624 64.983 58.6624 51.6392C58.6624 38.2954 47.2983 27.478 33.28 27.478C19.2617 27.478 7.89758 38.2954 7.89758 51.6392C7.89758 64.983 19.2617 75.8004 33.28 75.8004Z" fill="#E6D3C2" stroke="#FFF5ED" stroke-width="4" stroke-miterlimit="10"/>
<path d="M154.022 70.6104C163.799 70.6104 171.725 62.7258 171.725 52.9997C171.725 43.2735 163.799 35.3889 154.022 35.3889C144.246 35.3889 136.32 43.2735 136.32 52.9997C136.32 62.7258 144.246 70.6104 154.022 70.6104Z" fill="#A79280"/>
<path d="M37.9776 70.6104C47.7544 70.6104 55.68 62.7258 55.68 52.9997C55.68 43.2735 47.7544 35.3889 37.9776 35.3889C28.2008 35.3889 20.2752 43.2735 20.2752 52.9997C20.2752 62.7258 28.2008 70.6104 37.9776 70.6104Z" fill="#A79280"/>
<path d="M129.19 97.6701C131.52 101.207 142.746 133.98 96 133.98C49.2544 133.98 60.4672 101.207 62.8096 97.6701C52.3776 91.036 40.6016 79.1804 40.6016 65.8598C40.6016 43.4252 60.4032 25.0506 88.832 23.2089C90.3424 23.1148 94.4512 26.8399 96.0128 26.8399C97.5744 26.8399 101.67 23.1043 103.194 23.2089C131.622 25.0192 151.424 43.4252 151.424 65.8598C151.411 79.1909 139.622 91.0465 129.19 97.6701Z" fill="#E6D3C2" stroke="#FFF5ED" stroke-width="4" stroke-miterlimit="10"/>
<path d="M127.373 99.522C128.781 102.808 131.917 113.544 125.978 121.674C121.037 128.444 110.95 131.876 96 131.876C81.0496 131.876 70.9632 128.444 66.0224 121.674C60.0832 113.544 63.2192 102.839 64.6272 99.522C66.9694 96.5362 69.8573 93.8613 73.1904 91.5904C64.5888 87.6036 51.9168 76.7003 51.9168 59.9685C51.9168 49.9231 63.1552 41.7717 75.456 41.7717C86.2464 41.7717 92.9792 47.0769 95.936 47.0769C98.8928 47.0769 105.677 41.7717 116.416 41.7717C128.704 41.7717 139.955 49.9231 139.955 59.9685C139.955 76.7107 127.27 87.6141 118.682 91.6113C122.059 93.8675 124.99 96.5358 127.373 99.522Z" fill="#FFF5ED"/>
<path d="M73.1264 66.8853C78.1527 66.8853 82.2272 63.5544 82.2272 59.4455C82.2272 55.3365 78.1527 52.0056 73.1264 52.0056C68.1002 52.0056 64.0256 55.3365 64.0256 59.4455C64.0256 63.5544 68.1002 66.8853 73.1264 66.8853Z" fill="#FFF5ED" stroke="#A79280" stroke-miterlimit="10" stroke-linecap="round"/>
<path d="M74.4064 63.8926C76.7039 63.8926 78.5664 62.37 78.5664 60.4918C78.5664 58.6136 76.7039 57.0911 74.4064 57.0911C72.1089 57.0911 70.2464 58.6136 70.2464 60.4918C70.2464 62.37 72.1089 63.8926 74.4064 63.8926Z" fill="#88319C"/>
<path d="M118.886 66.8853C123.913 66.8853 127.987 63.5544 127.987 59.4455C127.987 55.3365 123.913 52.0056 118.886 52.0056C113.86 52.0056 109.786 55.3365 109.786 59.4455C109.786 63.5544 113.86 66.8853 118.886 66.8853Z" fill="#FFF5ED" stroke="#A79280" stroke-miterlimit="10" stroke-linecap="round"/>
<path d="M117.594 63.8926C119.891 63.8926 121.754 62.37 121.754 60.4918C121.754 58.6136 119.891 57.0911 117.594 57.0911C115.296 57.0911 113.434 58.6136 113.434 60.4918C113.434 62.37 115.296 63.8926 117.594 63.8926Z" fill="#88319C"/>
<path d="M90.4832 89.7488C92.2505 89.7488 93.6832 88.5776 93.6832 87.1328C93.6832 85.6881 92.2505 84.5168 90.4832 84.5168C88.7159 84.5168 87.2832 85.6881 87.2832 87.1328C87.2832 88.5776 88.7159 89.7488 90.4832 89.7488Z" fill="#A79280"/>
<path d="M101.517 89.7488C103.284 89.7488 104.717 88.5776 104.717 87.1328C104.717 85.6881 103.284 84.5168 101.517 84.5168C99.7495 84.5168 98.3168 85.6881 98.3168 87.1328C98.3168 88.5776 99.7495 89.7488 101.517 89.7488Z" fill="#A79280"/>
<path d="M115.2 104.995C115.2 104.995 106.637 111.336 96.4864 111.336C86.3232 111.336 77.7728 104.995 77.7728 104.995" stroke="#A79280" stroke-miterlimit="10" stroke-linecap="round"/>
</svg>
