<svg width="192" height="192" viewBox="0 0 192 192" fill="none" xmlns="http://www.w3.org/2000/svg">
<path d="M124.336 158.43C121.009 153.983 118.236 148.052 116.018 140.64C113.8 133.227 112.691 123.591 112.691 111.731C112.691 99.5 115.279 86.7133 120.455 73.3706C125.63 60.028 131.73 49.8357 138.755 42.7937C153.173 27.5979 164.448 20 172.582 20C174.43 20 176.094 20.9266 177.573 22.7798C179.051 24.2622 179.791 25.9301 179.791 27.7832C179.791 29.2657 178.127 31.4895 174.8 34.4546C171.473 37.049 167.961 39.8287 164.264 42.7937C160.567 45.7587 157.055 50.7622 153.727 57.8042C150.4 64.8462 148.736 73.3706 148.736 83.3776C148.736 93.014 150.77 101.353 154.836 108.395C158.903 115.066 163.155 119.699 167.591 122.294C180.53 129.336 187 136.378 187 143.42C187 145.643 184.227 149.535 178.682 155.094C173.506 160.283 169.439 164.731 166.482 168.437C160.936 175.479 155.391 179 149.845 179C146.518 179 142.267 176.776 137.091 172.329C131.915 167.51 127.664 162.878 124.336 158.43ZM29.5091 173.441C24.3333 169.734 18.7879 162.878 12.8727 152.871C6.95757 142.493 4 130.077 4 115.622C4 100.797 6.58788 86.7133 11.7636 73.3706C16.9394 60.028 23.0394 49.8357 30.0636 42.7937C45.2212 27.5979 56.6818 20 64.4454 20C66.2939 20 67.9576 20.9266 69.4364 22.7798C70.9151 24.2622 71.6545 25.9301 71.6545 27.7832C71.6545 29.2657 69.9909 31.4895 66.6636 34.4546C63.7061 37.049 60.1939 39.8287 56.1273 42.7937C52.0606 45.7587 48.3636 50.7622 45.0364 57.8042C42.0788 64.8462 40.6 73.3706 40.6 83.3776C40.6 93.014 42.6333 101.353 46.7 108.395C50.7667 115.066 55.203 119.699 60.0091 122.294C72.5788 129.336 78.8636 136.378 78.8636 143.42C78.8636 145.643 76.0909 149.535 70.5454 155.094C65.3697 160.283 61.1182 164.731 57.7909 168.437C52.6151 175.479 47.9939 179 43.9273 179C39.8606 179 35.0545 177.147 29.5091 173.441Z" fill="white"/>
<path d="M124.336 149.43C121.009 144.983 118.236 139.052 116.018 131.64C113.8 124.227 112.691 114.591 112.691 102.731C112.691 90.5 115.279 77.7133 120.455 64.3706C125.63 51.028 131.73 40.8357 138.755 33.7937C153.173 18.5979 164.448 11 172.582 11C174.43 11 176.094 11.9266 177.573 13.7798C179.051 15.2622 179.791 16.9301 179.791 18.7832C179.791 20.2657 178.127 22.4895 174.8 25.4546C171.473 28.049 167.961 30.8287 164.264 33.7937C160.567 36.7587 157.055 41.7622 153.727 48.8042C150.4 55.8462 148.736 64.3706 148.736 74.3776C148.736 84.014 150.77 92.3532 154.836 99.3951C158.903 106.066 163.155 110.699 167.591 113.294C180.53 120.336 187 127.378 187 134.42C187 136.643 184.227 140.535 178.682 146.094C173.506 151.283 169.439 155.731 166.482 159.437C160.936 166.479 155.391 170 149.845 170C146.518 170 142.267 167.776 137.091 163.329C131.915 158.51 127.664 153.878 124.336 149.43ZM29.5091 164.441C24.3333 160.734 18.7879 153.878 12.8727 143.871C6.95757 133.493 4 121.077 4 106.622C4 91.7972 6.58788 77.7133 11.7636 64.3706C16.9394 51.028 23.0394 40.8357 30.0636 33.7937C45.2212 18.5979 56.6818 11 64.4454 11C66.2939 11 67.9576 11.9266 69.4364 13.7798C70.9151 15.2622 71.6545 16.9301 71.6545 18.7832C71.6545 20.2657 69.9909 22.4895 66.6636 25.4546C63.7061 28.049 60.1939 30.8287 56.1273 33.7937C52.0606 36.7587 48.3636 41.7622 45.0364 48.8042C42.0788 55.8462 40.6 64.3706 40.6 74.3776C40.6 84.014 42.6333 92.3532 46.7 99.3951C50.7667 106.066 55.203 110.699 60.0091 113.294C72.5788 120.336 78.8636 127.378 78.8636 134.42C78.8636 136.643 76.0909 140.535 70.5454 146.094C65.3697 151.283 61.1182 155.731 57.7909 159.437C52.6151 166.479 47.9939 170 43.9273 170C39.8606 170 35.0545 168.147 29.5091 164.441Z" fill="#0089A9"/>
</svg>
