<svg width="53" height="54" viewBox="0 0 53 54" fill="none" xmlns="http://www.w3.org/2000/svg">
<path d="M44.6869 26.9741C44.686 26.7089 44.6799 26.4452 44.6681 26.1828V11.2204L40.564 15.3569C37.2049 11.2129 32.095 8.5661 26.3714 8.5661C20.415 8.5661 15.1234 11.4316 11.7783 15.8692L18.5056 22.7208C19.1648 21.4919 20.1014 20.4364 21.2306 19.6392C22.4051 18.7155 24.0692 17.9602 26.3712 17.9602C26.6493 17.9602 26.8639 17.993 27.0216 18.0547C29.8738 18.2816 32.346 19.868 33.8017 22.1706L29.0398 26.9699C35.0713 26.9461 41.885 26.9321 44.6863 26.973" fill="#1C3AA9"/>
<path d="M26.2642 8.56671C26.0011 8.56758 25.7395 8.57375 25.4791 8.5856H10.6335L14.7377 12.7221C10.6261 16.1076 8 21.2578 8 27.0264C8 33.0297 10.8431 38.363 15.2461 41.7344L22.0441 34.9542C20.8248 34.2897 19.7776 33.3458 18.9866 32.2076C18.0701 31.0239 17.3207 29.3467 17.3207 27.0266C17.3207 26.7463 17.3532 26.53 17.4145 26.3711C17.6396 23.4965 19.2136 21.0047 21.4982 19.5376L26.26 24.3369C26.2364 18.258 26.2224 11.3906 26.2631 8.56724" fill="#4285F4"/>
<path d="M8.00098 27.0259C8.00186 27.2911 8.00792 27.5548 8.01971 27.8172V42.7796L12.1239 38.6431C15.4829 42.7871 20.5929 45.4339 26.3165 45.4339C32.2728 45.4339 37.5645 42.5684 40.9095 38.1308L34.1823 31.2792C33.523 32.5081 32.5865 33.5636 31.4572 34.3608C30.2827 35.2845 28.6186 36.0398 26.3167 36.0398C26.0386 36.0398 25.8239 36.007 25.6662 35.9453C22.8141 35.7185 20.3418 34.132 18.8861 31.8295L23.648 27.0301C17.6165 27.054 10.8028 27.0679 8.0015 27.027" fill="#ABABAB"/>
</svg>
