<svg width="192" height="192" viewBox="0 0 192 192" fill="none" xmlns="http://www.w3.org/2000/svg">
<g clip-path="url(#clip0_708_31372)">
<g filter="url(#filter0_d_708_31372)">
<path d="M187.926 64.445C199.882 102.575 175.348 150.893 142.273 170.807C109.199 190.721 67.7392 182.076 39.0125 160.464C10.4411 138.698 -5.39743 103.81 3.4535 70.0024C12.1492 36.195 45.6895 3.62256 86.528 1.15261C127.522 -1.31733 175.969 26.4696 187.926 64.445Z" fill="#E6D3C2"/>
</g>
<path d="M96 42.6667C66.5448 42.6667 42.6666 66.5448 42.6666 96C42.6666 125.455 66.5448 149.333 96 149.333C122.736 149.333 144.877 129.66 148.737 104" stroke="#88319C" stroke-width="2" stroke-linecap="round" stroke-linejoin="round"/>
<path d="M96 42.6667C117.87 42.6667 136.666 55.8304 144.896 74.6667M145.467 48V74.2667C145.467 74.4876 145.288 74.6667 145.067 74.6667H118.8" stroke="#0089A9" stroke-width="2" stroke-linecap="round" stroke-linejoin="round"/>
</g>
<defs>
<filter id="filter0_d_708_31372" x="1" y="1" width="190" height="189" filterUnits="userSpaceOnUse" color-interpolation-filters="sRGB">
<feFlood flood-opacity="0" result="BackgroundImageFix"/>
<feColorMatrix in="SourceAlpha" type="matrix" values="0 0 0 0 0 0 0 0 0 0 0 0 0 0 0 0 0 0 127 0" result="hardAlpha"/>
<feOffset dy="8"/>
<feColorMatrix type="matrix" values="0 0 0 0 1 0 0 0 0 1 0 0 0 0 1 0 0 0 1 0"/>
<feBlend mode="normal" in2="BackgroundImageFix" result="effect1_dropShadow_708_31372"/>
<feBlend mode="normal" in="SourceGraphic" in2="effect1_dropShadow_708_31372" result="shape"/>
</filter>
<clipPath id="clip0_708_31372">
<rect width="192" height="192" fill="white"/>
</clipPath>
</defs>
</svg>
