<svg width="193" height="192" viewBox="0 0 193 192" fill="none" xmlns="http://www.w3.org/2000/svg">
<g clip-path="url(#clip0_708_31383)">
<g filter="url(#filter0_d_708_31383)">
<path d="M188.592 64.445C200.549 102.575 176.014 150.893 142.94 170.807C109.865 190.721 68.4058 182.076 39.6791 160.464C11.1077 138.698 -4.73086 103.81 4.12007 70.0024C12.8157 36.195 46.3561 3.62256 87.1946 1.15261C128.188 -1.31733 176.636 26.4696 188.592 64.445Z" fill="#E6D3C2"/>
</g>
<path d="M77.3333 93.3333L93.9999 110L121 83" stroke="#0089A9" stroke-width="2" stroke-linecap="round" stroke-linejoin="round"/>
<path d="M59.3332 128L58.3433 128.141L59.3332 128ZM134 128L134.99 128.141L134 128ZM97.1004 42.7631L97.3174 41.7869L97.1004 42.7631ZM96.2327 42.7631L96.0158 41.7869L96.2327 42.7631ZM144.54 54.2167L143.55 54.0753L144.54 54.2167ZM143.763 53.1325L143.546 54.1087L143.763 53.1325ZM49.5705 53.1325L49.7875 54.1087L49.5705 53.1325ZM47.8028 54.3582C48.8322 61.564 55.8741 110.857 58.3433 128.141L60.3232 127.859C57.854 110.574 50.8121 61.2811 49.7827 54.0753L47.8028 54.3582ZM134.99 128.141C137.459 110.857 144.501 61.564 145.53 54.3582L143.55 54.0753C142.521 61.2812 135.479 110.574 133.01 127.859L134.99 128.141ZM143.98 52.1563L97.3174 41.7869L96.8835 43.7393L143.546 54.1087L143.98 52.1563ZM96.0158 41.7869L49.3536 52.1563L49.7875 54.1087L96.4496 43.7393L96.0158 41.7869ZM58.3433 128.141C58.5456 129.558 59.2661 134.508 64.4826 139.076C69.6817 143.628 79.1921 147.667 96.6666 147.667V145.667C79.4744 145.667 70.5067 141.692 65.8001 137.571C61.1108 133.465 60.498 129.082 60.3232 127.859L58.3433 128.141ZM96.6666 147.667C114.141 147.667 123.651 143.628 128.851 139.076C134.067 134.508 134.787 129.558 134.99 128.141L133.01 127.859C132.835 129.082 132.222 133.465 127.533 137.571C122.826 141.692 113.859 145.667 96.6666 145.667V147.667ZM97.3174 41.7869C96.8887 41.6917 96.4444 41.6917 96.0158 41.7869L96.4496 43.7393C96.5925 43.7075 96.7406 43.7075 96.8835 43.7393L97.3174 41.7869ZM145.53 54.3582C145.684 53.2809 144.956 52.3734 143.98 52.1563L143.546 54.1087C143.558 54.1114 143.564 54.1149 143.566 54.1159C143.567 54.117 143.565 54.1162 143.562 54.1116C143.558 54.1068 143.555 54.0995 143.552 54.0902C143.551 54.0858 143.551 54.0819 143.55 54.0788C143.55 54.0756 143.551 54.0744 143.55 54.0753L145.53 54.3582ZM49.7827 54.0753C49.7826 54.0744 49.7828 54.0756 49.7827 54.0787C49.7825 54.0818 49.782 54.0858 49.7809 54.0902C49.7785 54.0995 49.7746 54.1068 49.7712 54.1116C49.7678 54.1162 49.7659 54.117 49.7676 54.1159C49.7691 54.1149 49.7751 54.1114 49.7875 54.1087L49.3536 52.1563C48.3767 52.3734 47.6489 53.2809 47.8028 54.3582L49.7827 54.0753Z" fill="#88319C"/>
</g>
<defs>
<filter id="filter0_d_708_31383" x="1.66656" y="1" width="190" height="189" filterUnits="userSpaceOnUse" color-interpolation-filters="sRGB">
<feFlood flood-opacity="0" result="BackgroundImageFix"/>
<feColorMatrix in="SourceAlpha" type="matrix" values="0 0 0 0 0 0 0 0 0 0 0 0 0 0 0 0 0 0 127 0" result="hardAlpha"/>
<feOffset dy="8"/>
<feColorMatrix type="matrix" values="0 0 0 0 1 0 0 0 0 1 0 0 0 0 1 0 0 0 1 0"/>
<feBlend mode="normal" in2="BackgroundImageFix" result="effect1_dropShadow_708_31383"/>
<feBlend mode="normal" in="SourceGraphic" in2="effect1_dropShadow_708_31383" result="shape"/>
</filter>
<clipPath id="clip0_708_31383">
<rect width="192" height="192" fill="white" transform="translate(0.666565)"/>
</clipPath>
</defs>
</svg>
