<svg width="192" height="193" viewBox="0 0 192 193" fill="none" xmlns="http://www.w3.org/2000/svg">
<path d="M97.9555 101.88C75.6367 93.4537 31.2941 75.1903 30.1143 74.2497C33.3588 68.6649 37.7833 62.7861 51.0566 40.7408C77.0132 6.64392 90.5814 3.69277 97.6605 3.41059C112.409 2.82272 118.308 12.2287 119.193 17.2257C118.898 23.3984 117.718 39.3886 115.358 53.968C112.999 68.5473 102.773 91.984 97.9555 101.88Z" fill="#FFF5ED"/>
<path d="M30.1143 74.2497L29.6819 73.9986L29.4651 74.3717L29.8026 74.6407L30.1143 74.2497ZM97.9555 101.88L97.7789 102.348L98.2055 102.509L98.405 102.099L97.9555 101.88ZM115.358 53.968L115.852 54.0479L115.358 53.968ZM119.193 17.2257L119.692 17.2496L119.695 17.1936L119.685 17.1385L119.193 17.2257ZM97.6605 3.41059L97.6804 3.91019L97.6605 3.41059ZM51.0566 40.7408L50.6587 40.4379L50.6422 40.4595L50.6282 40.4828L51.0566 40.7408ZM29.8026 74.6407C29.8828 74.7047 30.0046 74.7717 30.1174 74.8308C30.2449 74.8975 30.4109 74.9792 30.611 75.0742C31.0119 75.2645 31.5643 75.515 32.2503 75.8186C33.623 76.4261 35.542 77.2509 37.8788 78.2393C42.553 80.2165 48.9059 82.8517 55.9185 85.7205C69.9426 91.4577 86.613 98.1321 97.7789 102.348L98.1321 101.412C86.9792 97.2015 70.3189 90.5311 56.2971 84.7949C49.2867 81.927 42.9377 79.2934 38.2684 77.3183C35.9334 76.3306 34.0203 75.5084 32.655 74.9042C31.9719 74.6019 31.4289 74.3554 31.0398 74.1707C30.8449 74.0782 30.6921 74.0029 30.5812 73.9449C30.4557 73.8791 30.4194 73.8536 30.4259 73.8588L29.8026 74.6407ZM98.405 102.099C100.819 97.1394 104.586 88.7935 108.045 79.8608C111.501 70.9359 114.663 61.3916 115.852 54.0479L114.865 53.8881C113.694 61.1237 110.563 70.5873 107.112 79.4997C103.664 88.4041 99.9092 96.7245 97.5059 101.661L98.405 102.099ZM115.852 54.0479C118.215 39.4444 119.397 23.4343 119.692 17.2496L118.693 17.2018C118.399 23.3625 117.22 39.3329 114.865 53.8881L115.852 54.0479ZM119.685 17.1385C118.76 11.9171 112.66 2.3123 97.6406 2.91099L97.6804 3.91019C112.157 3.33314 117.855 12.5404 118.7 17.3129L119.685 17.1385ZM97.6406 2.91099C94.014 3.05555 88.7618 3.89041 81.1595 8.97968C73.5747 14.0572 63.6548 23.3661 50.6587 40.4379L51.4544 41.0436C64.415 24.0185 74.2575 14.8035 81.7158 9.81067C89.1565 4.82961 94.228 4.04781 97.6804 3.91019L97.6406 2.91099ZM50.6282 40.4828C43.9944 51.5008 39.5726 58.4776 36.4043 63.3972C33.2405 68.3097 31.3119 71.1929 29.6819 73.9986L30.5466 74.5009C32.1612 71.7217 34.0671 68.8731 37.245 63.9387C40.4183 59.0113 44.8454 52.026 51.4849 40.9987L50.6282 40.4828Z" fill="#070606"/>
<path d="M71.7039 17.5198C98.3488 -8.64068 119.193 7.81982 119.193 18.9894C111.819 76.6014 100.02 86.3013 95.5958 90.4165C95.1239 88.065 93.0395 84.1458 92.0563 82.4801C90.4831 79.1488 88.4125 66.6075 98.5454 66.6075C97.0706 58.6711 102.675 54.8499 105.625 53.3803C102.38 48.7752 95.7728 38.507 103.56 33.0985C102.223 32.2785 100.331 30.4344 99.1353 27.6168C95.1042 29.9339 85.98 33.0985 81.7326 27.2198C81.6343 29.1793 79.4909 33.5688 71.7039 35.45C73.1787 40.251 71.8219 48.8536 54.5961 44.856C55.5344 49.0692 55.3143 58.2008 46.9271 61.0226C43.4929 61.8124 38.5445 62.3192 32.9719 69.8491C32.3415 70.7945 31.6846 71.7708 30.9991 72.7801C31.6643 71.7 32.3223 70.7268 32.9719 69.8491C50.5176 43.5381 47.6076 41.178 71.7039 17.5198Z" fill="url(#paint0_linear_771_42080)"/>
<path d="M119.193 18.9894L119.689 19.0529L119.693 19.0213V18.9894H119.193ZM71.7039 17.5198L71.3536 17.163L71.7039 17.5198ZM30.9991 72.7801L30.5734 72.518L31.4128 73.061L30.9991 72.7801ZM92.0563 82.4801L91.6041 82.6936L91.614 82.7145L91.6257 82.7343L92.0563 82.4801ZM98.5454 66.6075V67.1075H99.1469L99.037 66.5161L98.5454 66.6075ZM105.625 53.3803L105.847 53.8278L106.369 53.5682L106.033 53.0923L105.625 53.3803ZM103.56 33.0985L103.845 33.5092L104.474 33.0725L103.821 32.6723L103.56 33.0985ZM99.1353 27.6168L99.5956 27.4214L99.1353 27.6168ZM98.5454 17.5198L99.0312 17.6383L98.0625 17.3902L98.5454 17.5198ZM81.7326 27.2198L82.1379 26.9269L81.3045 25.7735L81.2332 27.1947L81.7326 27.2198ZM71.7039 35.45L71.5865 34.964L71.0699 35.0888L71.2259 35.5968L71.7039 35.45ZM54.5961 44.856L54.7091 44.369L53.9354 44.1894L54.1081 44.9647L54.5961 44.856ZM46.9271 61.0226L47.0391 61.5099L47.0632 61.5044L47.0865 61.4965L46.9271 61.0226ZM95.5958 90.4165L95.1056 90.5149L95.2815 91.3916L95.9363 90.7826L95.5958 90.4165ZM119.693 18.9894C119.693 13.1269 114.276 6.05728 105.567 3.7722C96.8055 1.47322 84.7601 4.0002 71.3536 17.163L72.0542 17.8765C85.2925 4.87889 96.9916 2.5559 105.313 4.73946C113.688 6.93693 118.693 13.6823 118.693 18.9894H119.693ZM71.3536 17.163C47.2082 40.8694 50.0571 43.3275 32.5559 69.5717L33.3879 70.1265C50.9781 43.7488 48.007 41.4865 72.0542 17.8765L71.3536 17.163ZM32.5559 69.5717C31.9262 70.5159 31.2702 71.4911 30.5855 72.4992L31.4128 73.061C32.099 72.0505 32.7567 71.0731 33.3879 70.1265L32.5559 69.5717ZM92.5084 82.2666C91.761 80.6839 90.8694 76.8165 91.4051 73.3714C91.6716 71.658 92.2836 70.0979 93.3921 68.9695C94.4894 67.8526 96.1235 67.1075 98.5454 67.1075V66.1075C95.9009 66.1075 93.9939 66.93 92.6788 68.2687C91.3748 69.596 90.7029 71.3793 90.417 73.2177C89.8481 76.8761 90.7784 80.945 91.6041 82.6936L92.5084 82.2666ZM99.037 66.5161C98.3264 62.6923 99.32 59.893 100.827 57.8673C102.346 55.8249 104.407 54.5454 105.847 53.8278L105.402 52.9327C103.892 53.6848 101.676 55.0507 100.025 57.2704C98.3608 59.5069 97.2896 62.5863 98.0538 66.6988L99.037 66.5161ZM106.033 53.0923C104.412 50.7911 101.995 47.1335 100.936 43.4041C100.408 41.5441 100.229 39.7012 100.628 38.0168C101.023 36.3463 101.995 34.7938 103.845 33.5092L103.275 32.6879C101.231 34.1075 100.109 35.8666 99.6544 37.7865C99.2033 39.6924 99.4183 41.7185 99.9743 43.6772C101.084 47.5853 103.593 51.3644 105.216 53.6682L106.033 53.0923ZM103.821 32.6723C102.572 31.9065 100.751 30.143 99.5956 27.4214L98.6751 27.8121C99.9118 30.7258 101.873 32.6505 103.298 33.5247L103.821 32.6723ZM99.5956 27.4214C99.3286 26.7923 99.0973 26.1123 98.917 25.382L97.9461 25.6218C98.1396 26.4051 98.3879 27.1355 98.6751 27.8121L99.5956 27.4214ZM98.917 25.382C98.4517 23.4982 98.3233 21.272 98.8005 18.7092L97.8175 18.5262C97.3145 21.2271 97.4462 23.5975 97.9461 25.6218L98.917 25.382ZM98.8005 18.7092C98.8658 18.3587 98.9425 18.0017 99.0312 17.6383L98.0597 17.4012C97.9667 17.7822 97.8862 18.1572 97.8175 18.5262L98.8005 18.7092ZM98.0625 17.3902C97.978 17.7052 97.8928 18.0913 97.8163 18.5323L98.8017 18.7031C98.8737 18.2873 98.9528 17.931 99.0283 17.6493L98.0625 17.3902ZM97.8163 18.5323C97.5117 20.2894 97.3329 22.9937 97.9446 25.6155L98.9185 25.3883C98.3468 22.9383 98.5114 20.3774 98.8017 18.7031L97.8163 18.5323ZM97.9446 25.6155C98.119 26.3628 98.3583 27.1066 98.6792 27.8215L99.5915 27.412C99.3005 26.7636 99.0803 26.082 98.9185 25.3883L97.9446 25.6155ZM98.8862 27.1833C96.9125 28.3178 93.6909 29.6577 90.4632 29.9944C87.2372 30.331 84.1136 29.6614 82.1379 26.9269L81.3273 27.5126C83.5991 30.6568 87.1612 31.3443 90.567 30.989C93.971 30.6339 97.3271 29.2329 99.3845 28.0502L98.8862 27.1833ZM81.2332 27.1947C81.149 28.8735 79.2221 33.1194 71.5865 34.964L71.8213 35.936C79.7597 34.0183 82.1196 29.4852 82.232 27.2448L81.2332 27.1947ZM71.2259 35.5968C71.9378 37.9142 71.9283 41.0321 69.8136 43.0945C67.6963 45.1595 63.2788 46.3577 54.7091 44.369L54.4831 45.3431C63.1392 47.3519 68.0129 46.2476 70.5118 43.8104C73.0133 41.3707 72.9448 37.7868 72.1818 35.3032L71.2259 35.5968ZM54.1081 44.9647C54.5627 47.0061 54.7359 50.2511 53.7813 53.3122C52.8332 56.3528 50.7807 59.1986 46.7676 60.5488L47.0865 61.4965C51.4607 60.0249 53.7119 56.894 54.736 53.6099C55.7537 50.3465 55.5678 46.9191 55.0841 44.7473L54.1081 44.9647ZM46.815 60.5354C45.1317 60.9225 42.9596 61.2604 40.5301 62.46C38.0874 63.666 35.3978 65.7307 32.57 69.5517L33.3738 70.1465C36.1187 66.4376 38.6895 64.484 40.9728 63.3566C43.2691 62.2229 45.2883 61.9126 47.0391 61.5099L46.815 60.5354ZM32.57 69.5517C31.9113 70.4416 31.2454 71.4266 30.5734 72.518L31.4249 73.0423C32.0831 71.9733 32.7333 71.012 33.3738 70.1465L32.57 69.5517ZM91.6257 82.7343C92.1105 83.5557 92.8702 84.9386 93.566 86.4054C94.2668 87.8827 94.8825 89.4034 95.1056 90.5149L96.086 90.3181C95.8372 89.078 95.1747 87.4634 94.4695 85.9768C93.7593 84.4798 92.9852 83.0703 92.4868 82.226L91.6257 82.7343ZM95.9363 90.7826C97.0391 89.7569 98.6359 88.3527 100.508 85.9271C102.38 83.5026 104.52 80.0676 106.746 74.9642C111.197 64.7632 115.999 47.8836 119.689 19.0529L118.697 18.926C115.013 47.7072 110.228 64.4836 105.83 74.5643C103.632 79.6018 101.532 82.9641 99.7166 85.3161C97.9019 87.667 96.3647 89.0185 95.2553 90.0504L95.9363 90.7826Z" fill="#070606"/>
<path d="M54.3011 150.968C24.8049 150.968 16.3494 139.406 12.1216 132.45L93.826 134.213C82.6175 147.734 77.6031 150.968 54.3011 150.968Z" fill="url(#paint1_linear_771_42080)"/>
<path d="M12.1216 132.45L12.1324 131.95L11.2207 131.93L11.6943 132.709L12.1216 132.45ZM93.826 134.213L94.211 134.532L94.8714 133.736L93.8368 133.713L93.826 134.213ZM11.6943 132.709C13.8269 136.218 17.0496 140.927 23.4803 144.747C29.906 148.565 39.4883 151.468 54.3011 151.468V150.468C39.6178 150.468 30.2241 147.59 23.9911 143.888C17.7631 140.188 14.6441 135.638 12.5489 132.19L11.6943 132.709ZM54.3011 151.468C65.9576 151.468 73.1309 150.663 78.8033 148.117C84.486 145.567 88.6051 141.295 94.211 134.532L93.4411 133.894C87.8384 140.653 83.8461 144.758 78.3939 147.205C72.9315 149.656 65.9467 150.468 54.3011 150.468V151.468ZM93.8368 133.713L12.1324 131.95L12.1108 132.95L93.8152 134.713L93.8368 133.713Z" fill="#070606"/>
<path d="M31.2941 72.1921C37.6653 62.0806 42.2077 62.1982 47.517 61.0224C79.8449 61.0224 93.0395 80.6183 95.5958 90.4162C110.698 76.7775 117.718 36.0376 119.193 17.8135C122.142 44.5619 109.754 105.407 99.1354 125.983C88.5167 146.558 77.0132 145.089 40.143 145.089C10.6468 145.089 8.1888 126.277 10.6468 116.871C14.8746 106.191 24.923 82.3035 31.2941 72.1921Z" fill="#E6D3C2"/>
<path d="M47.517 61.0224V60.5224H47.4623L47.4089 60.5342L47.517 61.0224ZM31.2941 72.1921L31.7172 72.4586L31.2941 72.1921ZM10.6468 116.871L10.1819 116.687L10.1707 116.715L10.1631 116.744L10.6468 116.871ZM99.1354 125.983L99.5797 126.212L99.1354 125.983ZM119.193 17.8135L119.69 17.7587L118.694 17.7731L119.193 17.8135ZM95.5958 90.4162L95.112 90.5425L95.3199 91.3392L95.9309 90.7873L95.5958 90.4162ZM47.4089 60.5342C44.8146 61.1088 42.2437 61.3913 39.5689 62.815C36.8712 64.2508 34.0851 66.8247 30.8711 71.9255L31.7172 72.4586C34.8744 67.4479 37.5451 65.0249 40.0387 63.6977C42.5552 62.3583 44.9102 62.1118 47.6251 61.5106L47.4089 60.5342ZM30.8711 71.9255C24.4706 82.0835 14.4059 106.016 10.1819 116.687L11.1117 117.055C15.3433 106.365 25.3753 82.5236 31.7172 72.4586L30.8711 71.9255ZM10.1631 116.744C8.90921 121.542 8.90045 128.756 12.9985 134.788C17.1144 140.846 25.2875 145.589 40.143 145.589V144.589C25.5023 144.589 17.6983 139.926 13.8257 134.226C9.93515 128.5 9.92639 121.605 11.1306 116.997L10.1631 116.744ZM40.143 145.589C49.351 145.589 56.9975 145.681 63.4362 145.497C69.8755 145.313 75.1453 144.852 79.6049 143.737C84.0746 142.618 87.7353 140.841 90.9523 138.025C94.1636 135.213 96.9083 131.388 99.5797 126.212L98.691 125.753C96.0532 130.865 93.3779 134.572 90.2936 137.272C87.215 139.967 83.7045 141.68 79.3622 142.767C75.0098 143.855 69.8268 144.314 63.4077 144.497C56.9879 144.681 49.3701 144.589 40.143 144.589V145.589ZM99.5797 126.212C104.924 115.856 110.686 95.4409 114.743 74.3071C118.8 53.1725 121.173 31.2119 119.69 17.7587L118.696 17.8683C120.162 31.1635 117.815 52.9996 113.761 74.1186C109.707 95.2384 103.965 115.533 98.691 125.753L99.5797 126.212ZM118.694 17.7731C117.959 26.8595 115.84 41.5699 112.022 55.704C110.113 62.7706 107.782 69.682 104.993 75.6699C102.202 81.6636 98.9655 86.6993 95.2607 90.0452L95.9309 90.7873C99.7771 87.3138 103.082 82.1425 105.9 76.0921C108.721 70.0358 111.069 63.066 112.987 55.9648C116.823 41.7632 118.952 26.9916 119.691 17.8538L118.694 17.7731ZM96.0796 90.29C93.4694 80.2856 80.0863 60.5224 47.517 60.5224V61.5224C79.6035 61.5224 92.6095 80.9509 95.112 90.5425L96.0796 90.29Z" fill="#070606"/>
<path d="M73.933 70.696L73.7366 71.1558L73.933 70.696ZM93.9904 98.3262L93.4945 98.3904C93.5181 98.5722 93.6392 98.7266 93.8102 98.7926C93.9812 98.8587 94.1746 98.8259 94.3143 98.7071L93.9904 98.3262ZM35.6662 68.1695C35.9093 68.0385 36.0002 67.7353 35.8692 67.4922C35.7382 67.2491 35.4349 67.1582 35.1918 67.2892L35.6662 68.1695ZM39.0219 65.3836C38.7667 65.4889 38.6451 65.7812 38.7504 66.0365C38.8557 66.2918 39.148 66.4133 39.4033 66.308L39.0219 65.3836ZM43.3446 65.1111C43.6153 65.0565 43.7906 64.7929 43.7361 64.5222C43.6815 64.2515 43.4179 64.0762 43.1472 64.1307L43.3446 65.1111ZM47.4244 63.6472C47.1484 63.6564 46.9321 63.8876 46.9413 64.1636C46.9505 64.4396 47.1817 64.6558 47.4577 64.6466L47.4244 63.6472ZM51.6167 64.7801C51.8917 64.8053 52.135 64.6027 52.1602 64.3277C52.1853 64.0527 51.9828 63.8094 51.7078 63.7843L51.6167 64.7801ZM55.943 64.3797C55.6715 64.3292 55.4106 64.5084 55.3601 64.7799C55.3097 65.0514 55.4888 65.3124 55.7603 65.3628L55.943 64.3797ZM59.8549 66.28C60.1221 66.3493 60.3951 66.1889 60.4644 65.9216C60.5338 65.6543 60.3733 65.3814 60.106 65.312L59.8549 66.28ZM64.194 66.4976C63.9309 66.4137 63.6496 66.559 63.5657 66.8221C63.4819 67.0852 63.6272 67.3665 63.8903 67.4503L64.194 66.4976ZM67.8543 68.8128C68.1135 68.9081 68.4008 68.7751 68.4961 68.5159C68.5913 68.2567 68.4584 67.9694 68.1992 67.8742L67.8543 68.8128ZM72.157 69.4118C71.9013 69.3074 71.6094 69.4299 71.505 69.6856C71.4005 69.9412 71.5231 70.2331 71.7787 70.3375L72.157 69.4118ZM75.7234 72.0897C75.9689 72.2161 76.2704 72.1196 76.3968 71.874C76.5232 71.6285 76.4267 71.327 76.1811 71.2006L75.7234 72.0897ZM80.0417 73.5587C79.8172 73.3979 79.5048 73.4496 79.3441 73.6741C79.1833 73.8987 79.235 74.211 79.4595 74.3718L80.0417 73.5587ZM82.8257 77.1708C83.0249 77.3621 83.3414 77.3556 83.5326 77.1564C83.7239 76.9572 83.7174 76.6407 83.5182 76.4494L82.8257 77.1708ZM86.5584 79.7973C86.3868 79.5809 86.0723 79.5445 85.8559 79.7161C85.6396 79.8877 85.6032 80.2022 85.7748 80.4185L86.5584 79.7973ZM88.2797 84.0238C88.423 84.2598 88.7306 84.3349 88.9666 84.1915C89.2026 84.0481 89.2777 83.7405 89.1343 83.5045L88.2797 84.0238ZM91.2494 87.488C91.1338 87.2372 90.8368 87.1276 90.586 87.2431C90.3352 87.3587 90.2256 87.6556 90.3411 87.9065L91.2494 87.488ZM91.9632 91.9991C92.0509 92.2609 92.3343 92.4021 92.5961 92.3143C92.858 92.2266 92.9991 91.9432 92.9114 91.6814L91.9632 91.9991ZM94.1022 96.0337C94.0454 95.7634 93.7803 95.5904 93.51 95.6473C93.2398 95.7041 93.0668 95.9692 93.1236 96.2395L94.1022 96.0337ZM95.7704 97.3971C95.9706 97.2069 95.9786 96.8904 95.7884 96.6902C95.5982 96.4901 95.2817 96.482 95.0815 96.6722L95.7704 97.3971ZM97.7143 93.9022C97.5339 94.1113 97.5572 94.427 97.7663 94.6074C97.9754 94.7877 98.2912 94.7644 98.4715 94.5553L97.7143 93.9022ZM100.893 91.4883C101.055 91.2647 101.005 90.9521 100.781 90.7901C100.557 90.6281 100.245 90.678 100.083 90.9016L100.893 91.4883ZM102.217 87.7142C102.071 87.949 102.143 88.2572 102.378 88.4026C102.613 88.5481 102.921 88.4757 103.067 88.241L102.217 87.7142ZM105.017 84.8593C105.147 84.6161 105.056 84.3129 104.813 84.1822C104.57 84.0516 104.266 84.1428 104.136 84.3861L105.017 84.8593ZM105.86 80.9549C105.743 81.2047 105.85 81.5026 106.1 81.6202C106.35 81.7378 106.648 81.6306 106.765 81.3807L105.86 80.9549ZM108.34 77.8198C108.446 77.5648 108.325 77.2722 108.07 77.1663C107.815 77.0603 107.522 77.1811 107.416 77.4361L108.34 77.8198ZM108.821 73.8493C108.725 74.1084 108.858 74.3959 109.117 74.4915C109.376 74.5871 109.663 74.4546 109.759 74.1955L108.821 73.8493ZM111.039 70.5227C111.126 70.2604 110.983 69.9778 110.721 69.8915C110.458 69.8051 110.176 69.9478 110.089 70.2101L111.039 70.5227ZM111.235 66.53C111.157 66.7949 111.309 67.0728 111.574 67.1508C111.838 67.2288 112.116 67.0773 112.194 66.8124L111.235 66.53ZM113.238 63.0695C113.308 62.8025 113.149 62.529 112.882 62.4585C112.615 62.3881 112.341 62.5474 112.271 62.8144L113.238 63.0695ZM113.206 59.0713C113.143 59.34 113.309 59.6094 113.578 59.6729C113.847 59.7365 114.116 59.5702 114.18 59.3015L113.206 59.0713ZM115.028 55.5147C115.085 55.2446 114.913 54.9791 114.643 54.9219C114.372 54.8646 114.107 55.0372 114.05 55.3073L115.028 55.5147ZM114.809 51.5214C114.758 51.7927 114.936 52.0544 115.207 52.1058C115.479 52.1573 115.74 51.9791 115.792 51.7078L114.809 51.5214ZM116.477 47.8839C116.523 47.6117 116.34 47.3536 116.068 47.3075C115.796 47.2615 115.537 47.4449 115.491 47.7171L116.477 47.8839ZM116.1 43.9052C116.059 44.1782 116.247 44.4329 116.52 44.4739C116.793 44.515 117.048 44.3269 117.089 44.0538L116.1 43.9052ZM117.631 40.2161C117.668 39.9424 117.475 39.691 117.201 39.6547C116.928 39.6184 116.676 39.8108 116.64 40.0846L117.631 40.2161ZM117.117 36.2426C117.086 36.5169 117.282 36.7651 117.556 36.7969C117.831 36.8288 118.079 36.6322 118.111 36.3579L117.117 36.2426ZM118.527 32.5114C118.555 32.2366 118.354 31.9915 118.079 31.9639C117.805 31.9363 117.56 32.1366 117.532 32.4114L118.527 32.5114ZM117.89 28.5585C117.867 28.8336 118.071 29.0758 118.346 29.0993C118.621 29.1229 118.863 28.9189 118.886 28.6438L117.89 28.5585ZM119.191 24.7746C119.21 24.4991 119.003 24.2598 118.728 24.2401C118.452 24.2203 118.213 24.4275 118.193 24.703L119.191 24.7746ZM118.447 20.8432C118.43 21.1189 118.64 21.3559 118.916 21.3727C119.191 21.3895 119.429 21.1797 119.445 20.904L118.447 20.8432ZM33.6951 69.108C34.3266 68.8768 34.9774 68.5406 35.6662 68.1695L35.1918 67.2892C34.5024 67.6607 33.9081 67.9651 33.3513 68.1689L33.6951 69.108ZM39.4033 66.308C40.5294 65.8435 41.8226 65.4176 43.3446 65.1111L43.1472 64.1307C41.555 64.4514 40.2002 64.8976 39.0219 65.3836L39.4033 66.308ZM47.4577 64.6466C48.7175 64.6046 50.0981 64.6413 51.6167 64.7801L51.7078 63.7843C50.1502 63.6419 48.728 63.6037 47.4244 63.6472L47.4577 64.6466ZM55.7603 65.3628C57.0424 65.6011 58.4051 65.9038 59.8549 66.28L60.106 65.312C58.6351 64.9303 57.2496 64.6224 55.943 64.3797L55.7603 65.3628ZM63.8903 67.4503C65.1534 67.8529 66.4737 68.3056 67.8543 68.8128L68.1992 67.8742C66.8056 67.3622 65.4716 66.9047 64.194 66.4976L63.8903 67.4503ZM71.7787 70.3375C72.4196 70.5994 73.0722 70.8721 73.7366 71.1558L74.1294 70.2362C73.4602 69.9504 72.8028 69.6758 72.157 69.4118L71.7787 70.3375ZM73.7366 71.1558C74.4212 71.4482 75.0832 71.7601 75.7234 72.0897L76.1811 71.2006C75.5197 70.8601 74.836 70.538 74.1294 70.2362L73.7366 71.1558ZM79.4595 74.3718C80.6776 75.244 81.7973 76.1836 82.8257 77.1708L83.5182 76.4494C82.4568 75.4306 81.3004 74.4601 80.0417 73.5587L79.4595 74.3718ZM85.7748 80.4185C86.709 81.5967 87.5407 82.8075 88.2797 84.0238L89.1343 83.5045C88.3754 82.2555 87.5202 81.0103 86.5584 79.7973L85.7748 80.4185ZM90.3411 87.9065C90.9922 89.3196 91.5276 90.6989 91.9632 91.9991L92.9114 91.6814C92.4651 90.3494 91.9167 88.9363 91.2494 87.488L90.3411 87.9065ZM93.1236 96.2395C93.2929 97.0443 93.414 97.7682 93.4945 98.3904L94.4862 98.262C94.4021 97.612 94.2765 96.8622 94.1022 96.0337L93.1236 96.2395ZM94.3143 98.7071C94.8096 98.2859 95.2949 97.849 95.7704 97.3971L95.0815 96.6722C94.6189 97.1118 94.1473 97.5364 93.6665 97.9453L94.3143 98.7071ZM98.4715 94.5553C99.3125 93.5801 100.119 92.5559 100.893 91.4883L100.083 90.9016C99.3247 91.9478 98.5356 92.9498 97.7143 93.9022L98.4715 94.5553ZM103.067 88.241C103.745 87.1465 104.394 86.0176 105.017 84.8593L104.136 84.3861C103.523 85.5275 102.883 86.6384 102.217 87.7142L103.067 88.241ZM106.765 81.3807C107.314 80.2152 107.838 79.0268 108.34 77.8198L107.416 77.4361C106.92 78.6298 106.402 79.8041 105.86 80.9549L106.765 81.3807ZM109.759 74.1955C110.206 72.9835 110.633 71.7579 111.039 70.5227L110.089 70.2101C109.686 71.4347 109.264 72.6491 108.821 73.8493L109.759 74.1955ZM112.194 66.8124C112.561 65.5689 112.908 64.3199 113.238 63.0695L112.271 62.8144C111.943 64.0562 111.598 65.296 111.235 66.53L112.194 66.8124ZM114.18 59.3015C114.479 58.0352 114.762 56.7716 115.028 55.5147L114.05 55.3073C113.785 56.557 113.504 57.813 113.206 59.0713L114.18 59.3015ZM115.792 51.7078C116.036 50.4197 116.264 49.1435 116.477 47.8839L115.491 47.7171C115.279 48.9705 115.052 50.2402 114.809 51.5214L115.792 51.7078ZM117.089 44.0538C117.285 42.7481 117.465 41.467 117.631 40.2161L116.64 40.0846C116.475 41.3301 116.295 42.6055 116.1 43.9052L117.089 44.0538ZM118.111 36.3579C118.265 35.0268 118.403 33.7418 118.527 32.5114L117.532 32.4114C117.409 33.6371 117.271 34.9169 117.117 36.2426L118.111 36.3579ZM118.886 28.6438C119.006 27.2456 119.106 25.9502 119.191 24.7746L118.193 24.703C118.109 25.8746 118.009 27.1654 117.89 28.5585L118.886 28.6438ZM119.445 20.904C119.491 20.1481 119.529 19.5094 119.561 18.9942L118.563 18.9316C118.531 19.4476 118.493 20.0908 118.447 20.8432L119.445 20.904Z" fill="#070606"/>
<path d="M148.394 138.045C126.076 129.619 81.7331 111.356 80.5532 110.415C83.7978 104.83 88.2222 98.9516 101.496 76.9063C127.452 42.8094 141.02 39.8583 148.099 39.5761C162.848 38.9882 168.747 48.3943 169.632 53.3912C169.337 59.5639 168.157 75.5542 165.797 90.1335C163.438 104.713 153.212 128.15 148.394 138.045Z" fill="#FFF5ED"/>
<path d="M80.5532 110.415L80.1209 110.164L79.9041 110.537L80.2415 110.806L80.5532 110.415ZM148.394 138.045L148.218 138.513L148.644 138.674L148.844 138.264L148.394 138.045ZM165.797 90.1335L166.291 90.2134L165.797 90.1335ZM169.632 53.3912L170.131 53.4151L170.134 53.3592L170.124 53.304L169.632 53.3912ZM148.099 39.5761L148.119 40.0757L148.099 39.5761ZM101.496 76.9063L101.098 76.6034L101.081 76.6251L101.067 76.6484L101.496 76.9063ZM80.2415 110.806C80.3218 110.87 80.4435 110.937 80.5564 110.996C80.6839 111.063 80.8498 111.145 81.05 111.24C81.4509 111.43 82.0033 111.681 82.6893 111.984C84.062 112.592 85.981 113.416 88.3178 114.405C92.992 116.382 99.3448 119.017 106.357 121.886C120.382 127.623 137.052 134.298 148.218 138.513L148.571 137.578C137.418 133.367 120.758 126.697 106.736 120.96C99.7257 118.093 93.3767 115.459 88.7074 113.484C86.3724 112.496 84.4592 111.674 83.094 111.07C82.4109 110.767 81.8679 110.521 81.4787 110.336C81.2838 110.244 81.1311 110.168 81.0202 110.11C80.8947 110.045 80.8584 110.019 80.8649 110.024L80.2415 110.806ZM148.844 138.264C151.258 133.305 155.025 124.959 158.484 116.026C161.94 107.101 165.102 97.5571 166.291 90.2134L165.304 90.0536C164.133 97.2892 161.002 106.753 157.551 115.665C154.103 124.57 150.348 132.89 147.945 137.827L148.844 138.264ZM166.291 90.2134C168.654 75.6099 169.836 59.5998 170.131 53.4151L169.132 53.3674C168.838 59.528 167.659 75.4985 165.304 90.0536L166.291 90.2134ZM170.124 53.304C169.199 48.0826 163.099 38.4778 148.08 39.0765L148.119 40.0757C162.596 39.4987 168.294 48.7059 169.139 53.4784L170.124 53.304ZM148.08 39.0765C144.453 39.2211 139.201 40.0559 131.598 45.1452C124.014 50.2227 114.094 59.5317 101.098 76.6034L101.893 77.2091C114.854 60.184 124.696 50.969 132.155 45.9762C139.595 40.9951 144.667 40.2133 148.119 40.0757L148.08 39.0765ZM101.067 76.6484C94.4333 87.6664 90.0116 94.6431 86.8432 99.5627C83.6794 104.475 81.7508 107.358 80.1209 110.164L80.9856 110.666C82.6002 107.887 84.5061 105.039 87.684 100.104C90.8573 95.1769 95.2844 88.1916 101.924 77.1642L101.067 76.6484Z" fill="#070606"/>
<path d="M122.143 53.6853C148.788 27.5249 169.632 43.9854 169.632 55.155C162.258 112.767 150.459 122.467 146.035 126.582C145.563 124.23 143.478 120.311 142.495 118.646C140.922 115.314 138.851 102.773 148.984 102.773C147.51 94.8367 153.114 91.0155 156.063 89.5458C152.819 84.9408 146.212 74.6725 153.999 69.264C152.662 68.444 150.77 66.5999 149.574 63.7823C145.543 66.0994 136.419 69.264 132.172 63.3853C132.073 65.3449 129.93 69.7343 122.143 71.6155C123.618 76.4165 122.261 85.0191 105.035 81.0216C105.973 85.2347 105.753 94.3664 97.3661 97.1882C93.9319 97.9779 88.9835 98.4847 83.4109 106.015C82.7804 106.96 82.1236 107.936 81.4381 108.946C82.1032 107.865 82.7613 106.892 83.4109 106.015C100.957 79.7037 98.0465 77.3435 122.143 53.6853Z" fill="url(#paint2_linear_771_42080)"/>
<path d="M169.632 55.155L170.128 55.2184L170.132 55.1868V55.155H169.632ZM122.143 53.6853L122.493 54.0421L122.143 53.6853ZM81.4381 108.946L81.0124 108.683L81.8517 109.227L81.4381 108.946ZM142.495 118.646L142.043 118.859L142.053 118.88L142.065 118.9L142.495 118.646ZM148.984 102.773V103.273H149.586L149.476 102.682L148.984 102.773ZM156.063 89.5458L156.286 89.9933L156.807 89.7337L156.472 89.2578L156.063 89.5458ZM153.999 69.264L154.284 69.6747L154.913 69.238L154.26 68.8378L153.999 69.264ZM149.574 63.7823L150.035 63.5869L149.574 63.7823ZM148.984 53.6853L149.47 53.8039L148.501 53.5557L148.984 53.6853ZM132.172 63.3853L132.577 63.0925L131.743 61.939L131.672 63.3602L132.172 63.3853ZM122.143 71.6155L122.025 71.1295L121.509 71.2543L121.665 71.7624L122.143 71.6155ZM105.035 81.0216L105.148 80.5345L104.374 80.355L104.547 81.1303L105.035 81.0216ZM97.3661 97.1882L97.4781 97.6755L97.5021 97.6699L97.5255 97.6621L97.3661 97.1882ZM146.035 126.582L145.545 126.68L145.72 127.557L146.375 126.948L146.035 126.582ZM170.132 55.155C170.132 49.2925 164.715 42.2228 156.006 39.9377C147.244 37.6387 135.199 40.1657 121.793 53.3285L122.493 54.0421C135.731 41.0444 147.431 38.7214 155.752 40.905C164.127 43.1025 169.132 49.8479 169.132 55.155H170.132ZM121.793 53.3285C97.6471 77.0349 100.496 79.493 82.9949 105.737L83.8268 106.292C101.417 79.9143 98.446 77.6521 122.493 54.0421L121.793 53.3285ZM82.9949 105.737C82.3652 106.681 81.7092 107.657 81.0245 108.665L81.8517 109.227C82.538 108.216 83.1956 107.239 83.8268 106.292L82.9949 105.737ZM142.947 118.432C142.2 116.849 141.308 112.982 141.844 109.537C142.111 107.824 142.723 106.263 143.831 105.135C144.928 104.018 146.562 103.273 148.984 103.273V102.273C146.34 102.273 144.433 103.096 143.118 104.434C141.814 105.761 141.142 107.545 140.856 109.383C140.287 113.042 141.217 117.111 142.043 118.859L142.947 118.432ZM149.476 102.682C148.765 98.8578 149.759 96.0585 151.266 94.0328C152.785 91.9905 154.846 90.7109 156.286 89.9933L155.84 89.0983C154.331 89.8503 152.115 91.2162 150.464 93.436C148.8 95.6724 147.729 98.7518 148.493 102.864L149.476 102.682ZM156.472 89.2578C154.851 86.9566 152.434 83.299 151.375 79.5697C150.847 77.7097 150.668 75.8668 151.066 74.1824C151.462 72.5119 152.434 70.9593 154.284 69.6747L153.714 68.8534C151.67 70.273 150.548 72.0322 150.093 73.952C149.642 75.8579 149.857 77.884 150.413 79.8427C151.523 83.7509 154.031 87.5299 155.655 89.8338L156.472 89.2578ZM154.26 68.8378C153.011 68.072 151.19 66.3085 150.035 63.5869L149.114 63.9776C150.351 66.8914 152.312 68.816 153.737 69.6903L154.26 68.8378ZM150.035 63.5869C149.768 62.9578 149.536 62.2778 149.356 61.5476L148.385 61.7873C148.579 62.5706 148.827 63.301 149.114 63.9776L150.035 63.5869ZM149.356 61.5476C148.891 59.6637 148.762 57.4375 149.24 54.8748L148.256 54.6917C147.753 57.3926 147.885 59.7631 148.385 61.7873L149.356 61.5476ZM149.24 54.8748C149.305 54.5242 149.381 54.1672 149.47 53.8039L148.499 53.5667C148.406 53.9478 148.325 54.3228 148.256 54.6917L149.24 54.8748ZM148.501 53.5557C148.417 53.8707 148.332 54.2569 148.255 54.6978L149.241 54.8686C149.313 54.4528 149.392 54.0965 149.467 53.8149L148.501 53.5557ZM148.255 54.6978C147.951 56.4549 147.772 59.1592 148.384 61.781L149.357 61.5538C148.786 59.1038 148.95 56.5429 149.241 54.8687L148.255 54.6978ZM148.384 61.781C148.558 62.5283 148.797 63.2721 149.118 63.987L150.03 63.5775C149.739 62.9291 149.519 62.2475 149.357 61.5538L148.384 61.781ZM149.325 63.3488C147.351 64.4833 144.13 65.8232 140.902 66.1599C137.676 66.4965 134.553 65.827 132.577 63.0925L131.766 63.6781C134.038 66.8224 137.6 67.5099 141.006 67.1545C144.41 66.7994 147.766 65.3984 149.823 64.2158L149.325 63.3488ZM131.672 63.3602C131.588 65.039 129.661 69.2849 122.025 71.1295L122.26 72.1016C130.199 70.1838 132.559 65.6507 132.671 63.4103L131.672 63.3602ZM121.665 71.7624C122.377 74.0798 122.367 77.1976 120.253 79.2601C118.135 81.325 113.718 82.5233 105.148 80.5345L104.922 81.5086C113.578 83.5174 118.452 82.4131 120.951 79.976C123.452 77.5363 123.384 73.9523 122.621 71.4687L121.665 71.7624ZM104.547 81.1303C105.002 83.1716 105.175 86.4166 104.22 89.4778C103.272 92.5183 101.22 95.3641 97.2066 96.7143L97.5255 97.6621C101.9 96.1904 104.151 93.0595 105.175 89.7755C106.193 86.5121 106.007 83.0846 105.523 80.9129L104.547 81.1303ZM97.254 96.7009C95.5707 97.088 93.3986 97.4259 90.969 98.6255C88.5264 99.8315 85.8367 101.896 83.0089 105.717L83.8128 106.312C86.5576 102.603 89.1285 100.649 91.4117 99.5222C93.708 98.3884 95.7273 98.0781 97.4781 97.6755L97.254 96.7009ZM83.0089 105.717C82.3503 106.607 81.6844 107.592 81.0124 108.683L81.8639 109.208C82.5221 108.139 83.1722 107.178 83.8128 106.312L83.0089 105.717ZM142.065 118.9C142.549 119.721 143.309 121.104 144.005 122.571C144.706 124.048 145.321 125.569 145.545 126.68L146.525 126.484C146.276 125.244 145.614 123.629 144.908 122.142C144.198 120.645 143.424 119.236 142.926 118.392L142.065 118.9ZM146.375 126.948C147.478 125.922 149.075 124.518 150.947 122.093C152.819 119.668 154.959 116.233 157.185 111.13C161.636 100.929 166.437 84.0491 170.128 55.2184L169.136 55.0915C165.452 83.8728 160.667 100.649 156.269 110.73C154.071 115.767 151.971 119.13 150.156 121.482C148.341 123.833 146.804 125.184 145.694 126.216L146.375 126.948Z" fill="#070606"/>
<path d="M104.74 187.133C75.2439 187.133 66.7883 175.572 62.5605 168.615L144.265 170.379C133.056 183.9 128.042 187.133 104.74 187.133Z" fill="url(#paint3_linear_771_42080)"/>
<path d="M62.5605 168.615L62.5713 168.115L61.6597 168.096L62.1333 168.875L62.5605 168.615ZM144.265 170.379L144.65 170.698L145.31 169.901L144.276 169.879L144.265 170.379ZM62.1333 168.875C64.2658 172.384 67.4885 177.093 73.9193 180.913C80.345 184.73 89.9272 187.633 104.74 187.633V186.633C90.0568 186.633 80.6631 183.756 74.43 180.053C68.202 176.353 65.0831 171.803 62.9878 168.356L62.1333 168.875ZM104.74 187.633C116.397 187.633 123.57 186.828 129.242 184.283C134.925 181.733 139.044 177.46 144.65 170.698L143.88 170.06C138.277 176.818 134.285 180.924 128.833 183.37C123.37 185.822 116.386 186.633 104.74 186.633V187.633ZM144.276 169.879L62.5713 168.115L62.5498 169.115L144.254 170.879L144.276 169.879Z" fill="#070606"/>
<path d="M81.7331 108.358C88.1043 98.2461 92.6467 98.3637 97.956 97.1879C130.284 97.1879 143.478 116.784 146.035 126.582C161.137 112.943 168.157 72.2032 169.632 53.979C172.581 80.7274 160.193 141.573 149.574 162.148C138.956 182.724 127.452 181.254 90.582 181.254C61.0858 181.254 58.6278 162.442 61.0858 153.036C65.3136 142.356 75.3619 118.469 81.7331 108.358Z" fill="#E6D3C2"/>
<path d="M97.956 97.1879V96.6879H97.9013L97.8479 96.6998L97.956 97.1879ZM81.7331 108.358L82.1561 108.624L81.7331 108.358ZM61.0858 153.036L60.6209 152.852L60.6097 152.88L60.602 152.91L61.0858 153.036ZM149.574 162.148L150.019 162.378L149.574 162.148ZM169.632 53.979L170.129 53.9242L169.133 53.9387L169.632 53.979ZM146.035 126.582L145.551 126.708L145.759 127.505L146.37 126.953L146.035 126.582ZM97.8479 96.6998C95.2535 97.2743 92.6826 97.5569 90.0078 98.9805C87.3101 100.416 84.524 102.99 81.3101 108.091L82.1561 108.624C85.3134 103.613 87.9841 101.19 90.4777 99.8632C92.9942 98.5238 95.3492 98.2773 98.0641 97.6761L97.8479 96.6998ZM81.3101 108.091C74.9096 118.249 64.8449 142.182 60.6209 152.852L61.5507 153.22C65.7822 142.531 75.8143 118.689 82.1561 108.624L81.3101 108.091ZM60.602 152.91C59.3482 157.708 59.3394 164.922 63.4375 170.953C67.5534 177.011 75.7265 181.754 90.582 181.754V180.754C75.9413 180.754 68.1373 176.091 64.2646 170.391C60.3741 164.665 60.3654 157.771 61.5695 153.163L60.602 152.91ZM90.582 181.754C99.79 181.754 107.436 181.846 113.875 181.662C120.314 181.478 125.584 181.018 130.044 179.902C134.514 178.784 138.174 177.006 141.391 174.19C144.603 171.379 147.347 167.554 150.019 162.378L149.13 161.919C146.492 167.03 143.817 170.738 140.733 173.438C137.654 176.133 134.143 177.846 129.801 178.932C125.449 180.021 120.266 180.479 113.847 180.663C107.427 180.846 99.809 180.754 90.582 180.754V181.754ZM150.019 162.378C155.363 152.022 161.125 131.606 165.182 110.473C169.239 89.338 171.612 67.3774 170.129 53.9242L169.135 54.0338C170.601 67.329 168.254 89.1652 164.2 110.284C160.146 131.404 154.404 151.699 149.13 161.919L150.019 162.378ZM169.133 53.9387C168.398 63.025 166.279 77.7354 162.461 91.8695C160.552 98.9361 158.221 105.848 155.432 111.835C152.641 117.829 149.404 122.865 145.7 126.211L146.37 126.953C150.216 123.479 153.521 118.308 156.339 112.258C159.16 106.201 161.508 99.2316 163.426 92.1303C167.262 77.9288 169.391 63.1571 170.13 54.0193L169.133 53.9387ZM146.519 126.456C143.908 116.451 130.525 96.6879 97.956 96.6879V97.6879C130.042 97.6879 143.049 117.116 145.551 126.708L146.519 126.456Z" fill="#070606"/>
<path d="M124.372 106.862L124.568 106.402L124.372 106.862ZM144.429 134.492L143.933 134.556C143.957 134.738 144.078 134.892 144.249 134.958C144.42 135.024 144.614 134.991 144.753 134.873L144.429 134.492ZM86.1052 104.335C86.3483 104.204 86.4391 103.901 86.3082 103.658C86.1772 103.415 85.8739 103.324 85.6308 103.455L86.1052 104.335ZM89.4609 101.549C89.2056 101.654 89.084 101.947 89.1893 102.202C89.2946 102.457 89.587 102.579 89.8422 102.474L89.4609 101.549ZM93.7836 101.277C94.0543 101.222 94.2295 100.958 94.175 100.688C94.1205 100.417 93.8569 100.242 93.5861 100.296L93.7836 101.277ZM97.8634 99.8127C97.5874 99.8219 97.3711 100.053 97.3803 100.329C97.3895 100.605 97.6207 100.821 97.8967 100.812L97.8634 99.8127ZM102.056 100.946C102.331 100.971 102.574 100.768 102.599 100.493C102.624 100.218 102.422 99.975 102.147 99.9498L102.056 100.946ZM106.382 100.545C106.111 100.495 105.85 100.674 105.799 100.945C105.749 101.217 105.928 101.478 106.199 101.528L106.382 100.545ZM110.294 102.446C110.561 102.515 110.834 102.354 110.903 102.087C110.973 101.82 110.812 101.547 110.545 101.478L110.294 102.446ZM114.633 102.663C114.37 102.579 114.089 102.725 114.005 102.988C113.921 103.251 114.066 103.532 114.329 103.616L114.633 102.663ZM118.293 104.978C118.552 105.074 118.84 104.941 118.935 104.681C119.03 104.422 118.897 104.135 118.638 104.04L118.293 104.978ZM122.596 105.577C122.34 105.473 122.048 105.595 121.944 105.851C121.839 106.107 121.962 106.399 122.218 106.503L122.596 105.577ZM126.162 108.255C126.408 108.382 126.709 108.285 126.836 108.04C126.962 107.794 126.866 107.493 126.62 107.366L126.162 108.255ZM130.481 109.724C130.256 109.563 129.944 109.615 129.783 109.84C129.622 110.064 129.674 110.377 129.898 110.537L130.481 109.724ZM133.265 113.336C133.464 113.528 133.78 113.521 133.972 113.322C134.163 113.123 134.156 112.806 133.957 112.615L133.265 113.336ZM136.997 115.963C136.826 115.746 136.511 115.71 136.295 115.882C136.079 116.053 136.042 116.368 136.214 116.584L136.997 115.963ZM138.719 120.189C138.862 120.425 139.17 120.5 139.406 120.357C139.642 120.214 139.717 119.906 139.573 119.67L138.719 120.189ZM141.688 123.654C141.573 123.403 141.276 123.293 141.025 123.409C140.774 123.524 140.665 123.821 140.78 124.072L141.688 123.654ZM142.402 128.165C142.49 128.426 142.773 128.568 143.035 128.48C143.297 128.392 143.438 128.109 143.35 127.847L142.402 128.165ZM144.541 132.199C144.484 131.929 144.219 131.756 143.949 131.813C143.679 131.87 143.506 132.135 143.563 132.405L144.541 132.199ZM146.209 133.563C146.41 133.372 146.418 133.056 146.227 132.856C146.037 132.656 145.721 132.648 145.52 132.838L146.209 133.563ZM148.153 130.068C147.973 130.277 147.996 130.593 148.205 130.773C148.414 130.953 148.73 130.93 148.91 130.721L148.153 130.068ZM151.332 127.654C151.494 127.43 151.444 127.118 151.22 126.956C150.996 126.794 150.684 126.844 150.522 127.067L151.332 127.654ZM152.656 123.88C152.51 124.114 152.582 124.423 152.817 124.568C153.052 124.714 153.36 124.641 153.506 124.406L152.656 123.88ZM155.456 121.025C155.586 120.782 155.495 120.478 155.252 120.348C155.008 120.217 154.705 120.308 154.575 120.552L155.456 121.025ZM156.299 117.12C156.182 117.37 156.289 117.668 156.539 117.786C156.789 117.903 157.087 117.796 157.204 117.546L156.299 117.12ZM158.779 113.985C158.885 113.73 158.764 113.438 158.509 113.332C158.254 113.226 157.961 113.347 157.855 113.602L158.779 113.985ZM159.26 110.015C159.164 110.274 159.297 110.561 159.556 110.657C159.815 110.753 160.102 110.62 160.198 110.361L159.26 110.015ZM161.478 106.688C161.564 106.426 161.422 106.143 161.16 106.057C160.897 105.971 160.615 106.113 160.528 106.376L161.478 106.688ZM161.674 102.695C161.596 102.96 161.748 103.238 162.013 103.316C162.277 103.394 162.555 103.243 162.633 102.978L161.674 102.695ZM163.677 99.235C163.747 98.968 163.588 98.6945 163.321 98.624C163.054 98.5536 162.78 98.713 162.71 98.98L163.677 99.235ZM163.645 95.2368C163.582 95.5055 163.748 95.7749 164.017 95.8385C164.286 95.902 164.555 95.7357 164.618 95.467L163.645 95.2368ZM165.467 91.6802C165.524 91.4101 165.352 91.1447 165.081 91.0874C164.811 91.0301 164.546 91.2027 164.489 91.4728L165.467 91.6802ZM165.248 87.687C165.197 87.9583 165.375 88.2199 165.646 88.2714C165.918 88.3228 166.179 88.1446 166.231 87.8733L165.248 87.687ZM166.916 84.0495C166.962 83.7772 166.779 83.5191 166.507 83.4731C166.234 83.427 165.976 83.6104 165.93 83.8827L166.916 84.0495ZM166.539 80.0707C166.498 80.3438 166.686 80.5984 166.959 80.6395C167.232 80.6805 167.487 80.4924 167.528 80.2193L166.539 80.0707ZM168.07 76.3816C168.106 76.1079 167.914 75.8565 167.64 75.8202C167.367 75.7839 167.115 75.9764 167.079 76.2501L168.07 76.3816ZM167.556 72.4081C167.525 72.6824 167.721 72.9306 167.995 72.9625C168.27 72.9943 168.518 72.7977 168.55 72.5234L167.556 72.4081ZM168.966 68.6769C168.993 68.4021 168.793 68.157 168.518 68.1294C168.244 68.1018 167.998 68.3022 167.971 68.5769L168.966 68.6769ZM168.329 64.724C168.306 64.9991 168.509 65.2413 168.785 65.2648C169.06 65.2884 169.302 65.0844 169.325 64.8093L168.329 64.724ZM169.629 60.9401C169.649 60.6647 169.442 60.4254 169.167 60.4056C168.891 60.3858 168.652 60.5931 168.632 60.8685L169.629 60.9401ZM168.886 57.0088C168.869 57.2844 169.079 57.5215 169.355 57.5382C169.63 57.555 169.867 57.3452 169.884 57.0696L168.886 57.0088ZM84.134 105.274C84.7655 105.042 85.4163 104.706 86.1052 104.335L85.6308 103.455C84.9413 103.826 84.3471 104.131 83.7903 104.334L84.134 105.274ZM89.8422 102.474C90.9683 102.009 92.2615 101.583 93.7836 101.277L93.5861 100.296C91.9939 100.617 90.6392 101.063 89.4609 101.549L89.8422 102.474ZM97.8967 100.812C99.1565 100.77 100.537 100.807 102.056 100.946L102.147 99.9498C100.589 99.8074 99.167 99.7693 97.8634 99.8127L97.8967 100.812ZM106.199 101.528C107.481 101.767 108.844 102.069 110.294 102.446L110.545 101.478C109.074 101.096 107.689 100.788 106.382 100.545L106.199 101.528ZM114.329 103.616C115.592 104.018 116.913 104.471 118.293 104.978L118.638 104.04C117.245 103.528 115.911 103.07 114.633 102.663L114.329 103.616ZM122.218 106.503C122.859 106.765 123.511 107.038 124.176 107.321L124.568 106.402C123.899 106.116 123.242 105.841 122.596 105.577L122.218 106.503ZM124.176 107.321C124.86 107.614 125.522 107.926 126.162 108.255L126.62 107.366C125.959 107.026 125.275 106.704 124.568 106.402L124.176 107.321ZM129.898 110.537C131.117 111.41 132.236 112.349 133.265 113.336L133.957 112.615C132.896 111.596 131.739 110.626 130.481 109.724L129.898 110.537ZM136.214 116.584C137.148 117.762 137.98 118.973 138.719 120.189L139.573 119.67C138.814 118.421 137.959 117.176 136.997 115.963L136.214 116.584ZM140.78 124.072C141.431 125.485 141.967 126.864 142.402 128.165L143.35 127.847C142.904 126.515 142.356 125.102 141.688 123.654L140.78 124.072ZM143.563 132.405C143.732 133.21 143.853 133.934 143.933 134.556L144.925 134.428C144.841 133.777 144.715 133.028 144.541 132.199L143.563 132.405ZM144.753 134.873C145.249 134.451 145.734 134.015 146.209 133.563L145.52 132.838C145.058 133.277 144.586 133.702 144.105 134.111L144.753 134.873ZM148.91 130.721C149.752 129.746 150.558 128.721 151.332 127.654L150.522 127.067C149.764 128.113 148.975 129.115 148.153 130.068L148.91 130.721ZM153.506 124.406C154.184 123.312 154.833 122.183 155.456 121.025L154.575 120.552C153.962 121.693 153.322 122.804 152.656 123.88L153.506 124.406ZM157.204 117.546C157.753 116.381 158.277 115.192 158.779 113.985L157.855 113.602C157.359 114.795 156.841 115.97 156.299 117.12L157.204 117.546ZM160.198 110.361C160.645 109.149 161.072 107.923 161.478 106.688L160.528 106.376C160.125 107.6 159.703 108.815 159.26 110.015L160.198 110.361ZM162.633 102.978C162.999 101.734 163.347 100.485 163.677 99.235L162.71 98.98C162.382 100.222 162.037 101.462 161.674 102.695L162.633 102.978ZM164.618 95.467C164.918 94.2008 165.2 92.9371 165.467 91.6802L164.489 91.4728C164.224 92.7225 163.943 93.9785 163.645 95.2368L164.618 95.467ZM166.231 87.8733C166.475 86.5852 166.703 85.309 166.916 84.0495L165.93 83.8827C165.718 85.136 165.491 86.4057 165.248 87.687L166.231 87.8733ZM167.528 80.2193C167.724 78.9136 167.904 77.6325 168.07 76.3816L167.079 76.2501C166.914 77.4956 166.734 78.771 166.539 80.0707L167.528 80.2193ZM168.55 72.5234C168.704 71.1923 168.842 69.9073 168.966 68.6769L167.971 68.5769C167.848 69.8026 167.71 71.0824 167.556 72.4081L168.55 72.5234ZM169.325 64.8093C169.445 63.4111 169.545 62.1157 169.629 60.9401L168.632 60.8685C168.548 62.0402 168.448 63.331 168.329 64.724L169.325 64.8093ZM169.884 57.0696C169.93 56.3136 169.968 55.6749 170 55.1597L169.002 55.0971C168.97 55.6131 168.932 56.2563 168.886 57.0088L169.884 57.0696Z" fill="#070606"/>
<defs>
<linearGradient id="paint0_linear_771_42080" x1="119.193" y1="3.5166" x2="26.8151" y2="85.7142" gradientUnits="userSpaceOnUse">
<stop stop-color="#88319C"/>
<stop offset="1" stop-color="#A79280"/>
</linearGradient>
<linearGradient id="paint1_linear_771_42080" x1="93.826" y1="132.45" x2="84.2207" y2="169.606" gradientUnits="userSpaceOnUse">
<stop stop-color="#88319C"/>
<stop offset="1" stop-color="#A79280"/>
</linearGradient>
<linearGradient id="paint2_linear_771_42080" x1="169.632" y1="39.6821" x2="77.254" y2="121.88" gradientUnits="userSpaceOnUse">
<stop stop-color="#88319C"/>
<stop offset="1" stop-color="#A79280"/>
</linearGradient>
<linearGradient id="paint3_linear_771_42080" x1="144.265" y1="168.615" x2="134.66" y2="205.772" gradientUnits="userSpaceOnUse">
<stop stop-color="#88319C"/>
<stop offset="1" stop-color="#A79280"/>
</linearGradient>
</defs>
</svg>
