<svg width="80" height="80" viewBox="0 0 80 80" fill="none" xmlns="http://www.w3.org/2000/svg">
<path d="M11 62C18.3928 70.7285 24.9826 68.8523 34.1811 67.0247C45.3778 64.8 54.3375 62.0451 58 63.0073C56.4648 67.7909 54.4824 71.5795 53.9241 72.5994C52.9609 74.3541 51.1759 74.7252 51.1759 74.7252C51.1759 74.7252 49.5084 75.1997 46.7816 74.8948C44.8285 74.6828 40.9998 76.0134 40.9998 76.0134C34.2548 77.9272 21.9761 76.9438 18.3928 74.0387C15.0594 71.3396 12.6046 66.8285 11 62Z" fill="#E1F6A4"/>
<path d="M58.5715 47.1428C59.0699 47.1997 62.6877 49.0437 65.2444 49.4613C68.4371 50.0559 71.5423 51.7373 71.4255 55.9373C71.4025 56.7681 71.3316 57.7586 71.2065 58.8496C70.95 61.1234 70.3619 63.7974 69.5382 66.3904C66.5749 75.7263 61.7847 76.791 61.7847 76.791C58.5357 77.8886 52.8574 74.2857 52.8574 74.2857" stroke="#313B07" stroke-linecap="round"/>
<path d="M12.1229 24.2858L12.8223 25.5655C13.1935 26.2417 13.7537 26.795 14.4344 27.1578L15.7141 27.8572L14.4344 28.5566C13.761 28.9225 13.208 29.4755 12.8421 30.1489L12.1427 31.4286L11.4433 30.1489C11.0774 29.4755 10.5244 28.9225 9.85105 28.5566L8.57129 27.8572L9.85105 27.1578C10.5244 26.7919 11.0774 26.2389 11.4433 25.5655L12.1229 24.2858Z" fill="#A2C617"/>
<path d="M32.1399 8.57141L32.562 9.33944C32.7743 9.75787 33.1072 10.103 33.5177 10.3303L34.2857 10.7524L33.5177 11.1745C33.118 11.3813 32.7862 11.6988 32.562 12.0891L32.1399 12.8571L31.7178 12.0891C31.4972 11.6922 31.1676 11.3667 30.768 11.151L30 10.7289L30.768 10.3303C31.1722 10.1107 31.5041 9.7788 31.7237 9.37462L32.1399 8.57141Z" fill="#A2C617"/>
<path d="M53.9747 72.5808C54.9392 70.7617 60.1364 60.446 59.9971 50.9987C59.9971 50.9987 60.0882 47.8166 57.7628 46.7889C57.01 46.4536 52.6058 44.5328 52.1236 44.0355C52.1236 44.0355 49.4473 38.1137 47.2853 35.4372C42.2783 29.2324 38.2839 26.0586 37.1266 25.1848C36.3952 24.6297 34.7128 23.9564 31.2784 20.2742C28.5779 17.3807 28.377 14.3195 26.3571 14.2865C26.1561 14.281 26.1159 14.303 25.6846 14.4377C24.605 14.7757 19.7426 18.7326 23.7504 25.3496C23.7504 25.3496 25.7623 28.6004 29.2316 31.6369C29.2316 31.6369 33.9681 35.8961 28.7467 39.0782C28.7467 39.0782 25.3631 40.8534 21.2455 40.6198C19.5712 40.5236 16.9752 40.0702 16.1715 39.9081C15.3652 39.7405 12.6755 38.8941 10.5296 40.2378C6.38251 42.8346 8.75342 66.093 18.2987 74.0729C21.8965 77.0846 34.2252 78.1041 40.9977 76.1201C40.9977 76.1201 44.8421 74.7407 46.8031 74.9605C49.541 75.2765 51.2154 74.7846 51.2154 74.7846C51.2154 74.7846 53.0076 74.3999 53.9747 72.5808Z" stroke="#313B07"/>
<path d="M17.86 2.85718L19.1176 5.16275C19.7793 6.37044 20.7726 7.36371 21.9803 8.02541L24.2859 9.28851L21.9803 10.5461C20.7726 11.2078 19.7793 12.2011 19.1176 13.4088L17.86 15.7143L16.5969 13.4088C15.9352 12.2011 14.942 11.2078 13.7343 10.5461L11.4287 9.28851L13.7343 8.02541C14.942 7.36371 15.9352 6.37044 16.5969 5.16275L17.86 2.85718Z" fill="#A2C617"/>
</svg>
