<svg width="128" height="128" viewBox="0 0 128 128" fill="none" xmlns="http://www.w3.org/2000/svg">
<path d="M65.1349 117.385C64.7594 117.385 64.3754 117.385 64 117.385C63.6245 117.385 63.2405 117.385 62.865 117.385C31.0016 117.385 9.37809 97.7579 11.4688 73.3867C14.0288 43.52 30.2421 5.69177 62.865 5.69177H65.1349C97.7578 5.69177 113.971 43.52 116.531 73.3867C118.613 97.792 96.9984 117.385 65.1349 117.385Z" fill="#FFF5ED" stroke="#FFF5ED" stroke-width="4" stroke-miterlimit="10" stroke-linecap="round"/>
<path d="M90.7264 83.0038C93.056 107.196 80.8106 99.2939 65.1264 99.2939C49.4421 99.2939 37.2053 107.204 39.5264 83.0038C41.4976 62.5238 44.7914 48.1281 65.1264 48.1281C85.4613 48.1281 88.7466 62.5408 90.7264 83.0038Z" fill="#88319C"/>
<path d="M90.8714 88.3286C93.3546 101.129 80.9898 122.317 65.1348 122.317C49.2799 122.317 36.9151 101.112 39.3983 88.3286C41.4804 77.6192 44.834 91.1275 65.1348 91.1275C85.4356 91.1275 88.7978 77.6534 90.8714 88.3286Z" fill="#E6D3C2" stroke="#A79280" stroke-miterlimit="10" stroke-linecap="round"/>
<path d="M91.0081 79.2832C94.4214 118.537 79.1211 72.9685 65.135 72.9685C51.1489 72.9685 35.8401 118.545 39.2534 79.2832C41.9585 48.2133 46.1654 20.2155 65.135 20.2155C84.1046 20.2155 88.3115 48.2133 91.0081 79.2832Z" fill="#E6D3C2" stroke="#A79280" stroke-miterlimit="10" stroke-linecap="round"/>
<path d="M42.7212 40.0575C44.6472 32.8695 42.5699 26.0675 38.0814 24.8648C33.5929 23.6621 28.3929 28.5142 26.4669 35.7022C24.5408 42.8901 26.6182 49.6921 31.1067 50.8948C35.5952 52.0975 40.7952 47.2455 42.7212 40.0575Z" fill="#FFF5ED" stroke="#A79280" stroke-miterlimit="10" stroke-linecap="round"/>
<path d="M41.1404 41.9641C42.4883 36.9339 41.0346 32.1738 37.8935 31.3321C34.7525 30.4905 31.1135 33.886 29.7657 38.9163C28.4178 43.9465 29.8715 48.7066 33.0126 49.5482C36.1536 50.3899 39.7926 46.9943 41.1404 41.9641Z" fill="#A79280"/>
<path d="M99.6123 50.9896C104.12 49.7814 106.205 42.9504 104.271 35.7321C102.336 28.5137 97.1132 23.6416 92.6058 24.8497C88.0983 26.0579 86.0128 32.889 87.9476 40.1073C89.8824 47.3256 95.1049 52.1978 99.6123 50.9896Z" fill="#FFF5ED" stroke="#A79280" stroke-miterlimit="10" stroke-linecap="round"/>
<path d="M100.026 39.0495C100.68 41.4886 100.647 43.8396 100.091 45.6607C99.5322 47.4898 98.4765 48.709 97.1328 49.069C95.7891 49.4291 94.2652 48.9011 92.8669 47.5963C91.4747 46.2973 90.2709 44.2776 89.6173 41.8385C88.9637 39.3993 88.9965 37.0483 89.5526 35.2272C90.1112 33.3981 91.1669 32.1789 92.5106 31.8189C93.8543 31.4589 95.3782 31.9868 96.7765 33.2916C98.1687 34.5907 99.3725 36.6103 100.026 39.0495Z" fill="#A79280" stroke="#A79280"/>
<path d="M103.802 91.7007C104.365 89.1995 103.819 86.9462 102.582 86.668C101.345 86.3897 99.8862 88.1918 99.3234 90.693C98.7607 93.1943 99.3071 95.4475 100.544 95.7258C101.781 96.0041 103.24 94.202 103.802 91.7007Z" fill="#E6D3C2"/>
<path d="M108.479 84.232C109.487 84.2068 110.263 82.5288 110.212 80.4841C110.161 78.4394 109.302 76.8022 108.294 76.8274C107.286 76.8525 106.51 78.5305 106.561 80.5752C106.612 82.62 107.471 84.2571 108.479 84.232Z" fill="#E6D3C2"/>
<path d="M100.514 80.461C101.466 80.1303 101.803 78.6062 101.265 77.0568C100.727 75.5074 99.519 74.5194 98.5662 74.8501C97.6135 75.1808 97.277 76.7049 97.8147 78.2543C98.3525 79.8037 99.5608 80.7917 100.514 80.461Z" fill="#E6D3C2"/>
<path d="M27.4159 95.7264C28.6481 95.4491 29.1925 93.2042 28.6318 90.7121C28.0711 88.2201 26.6177 86.4246 25.3855 86.7019C24.1532 86.9791 23.6088 89.2241 24.1695 91.7161C24.7302 94.2082 26.1837 96.0036 27.4159 95.7264Z" fill="#E6D3C2"/>
<path d="M21.4213 80.6293C21.4722 78.594 20.696 76.9236 19.6878 76.8985C18.6795 76.8733 17.821 78.5028 17.7702 80.5381C17.7194 82.5734 18.4956 84.2438 19.5038 84.269C20.512 84.2941 21.3705 82.6646 21.4213 80.6293Z" fill="#E6D3C2"/>
<path d="M30.1789 78.2524C30.7167 76.703 30.3802 75.1789 29.4274 74.8482C28.4746 74.5175 27.2663 75.5055 26.7285 77.0549C26.1908 78.6043 26.5273 80.1284 27.4801 80.4591C28.4329 80.7898 29.6412 79.8018 30.1789 78.2524Z" fill="#E6D3C2"/>
<path d="M64.0001 33.536C63.4454 36.6762 61.679 38.9973 60.0577 38.7157C58.4364 38.4341 56.2433 38.3317 56.7979 35.1829C57.3526 32.0341 60.4161 27.0336 62.0374 27.3066C63.6588 27.5797 64.5292 30.3872 64.0001 33.536Z" fill="#A79280"/>
<path d="M66.3039 33.536C66.8586 36.6762 68.625 38.9973 70.2463 38.7157C71.8677 38.4341 74.0607 38.3317 73.5061 35.1829C72.9514 32.0341 69.8623 27.0336 68.2666 27.3066C66.6709 27.5797 65.7493 30.3872 66.3039 33.536Z" fill="#A79280"/>
</svg>
