<svg width="80" height="80" viewBox="0 0 80 80" fill="none" xmlns="http://www.w3.org/2000/svg">
<path d="M73.0515 59.4349C69.2063 53.9949 65.0408 51.4349 62.7978 50.7949C62.1569 45.6749 60.1548 43.9065 57.9914 42.1549C55.0644 46.1399 50.6442 48.4901 46.0692 48.5714C45.7129 48.5714 45.3565 48.5714 45.0002 48.5714C47.923 52.6951 48.6166 57.7988 48.3786 62.9549C48.1865 67.1149 45.9875 72.9138 42.1431 76.4286C42.0104 76.5467 41.9174 76.7017 41.8762 76.8729C41.8351 77.0442 41.8477 77.2237 41.9125 77.3878C41.9773 77.5518 41.9951 77.5682 42.1431 77.6672C42.291 77.7663 42.6348 77.7925 42.8138 77.7917C42.8138 77.7917 62.1569 77.8441 63.4386 77.8441C60.2344 70.6349 59.9139 67.7549 59.9139 67.7549C65.6816 67.1149 69.8063 63.5575 73.0515 59.4349Z" fill="#FFE0D6"/>
<path d="M39.0478 30.2445C39.8087 30.2445 40.4256 29.6284 40.4256 28.8685C40.4256 28.1085 39.8087 27.4925 39.0478 27.4925C38.2868 27.4925 37.6699 28.1085 37.6699 28.8685C37.6699 29.6284 38.2868 30.2445 39.0478 30.2445Z" fill="#562815"/>
<path d="M51.1342 30.2445C51.8951 30.2445 52.512 29.6284 52.512 28.8685C52.512 28.1085 51.8951 27.4925 51.1342 27.4925C50.3732 27.4925 49.7563 28.1085 49.7563 28.8685C49.7563 29.6284 50.3732 30.2445 51.1342 30.2445Z" fill="#562815"/>
<path d="M64.7654 43.7613C65.6893 43.2026 66.5054 42.4829 67.175 41.6365C60.5998 33.5981 63.2593 28.1389 63.2593 17.4253C63.2593 10.0525 57.5622 2.18053 47.5905 1.45733C43.3288 1.14373 38.6185 3.45413 36.6575 5.46373C28.7621 6.80133 26.1346 13.5021 26.1346 18.1869C26.1346 26.2269 27.9839 30.8757 26.1346 36.0888M41.5029 77.6749H74.3333V70.4173C74.3621 68.152 74.02 65.8973 73.3208 63.7421M44.2132 33.5149H44.7451C45.0118 33.5149 45.276 33.4625 45.5225 33.3605C45.769 33.2585 45.9929 33.1091 46.1816 32.9207C46.3702 32.7323 46.5198 32.5087 46.6219 32.2625C46.724 32.0164 46.7766 31.7526 46.7766 31.4861V28.1261C46.7766 25.7581 48.3915 24.5549 49.5643 24.5549H52.5443M40.368 24.5549H37.1638M47.097 38.4109C45.6807 37.3357 44.2132 39.2857 42.0086 38.4109M57.9915 42.1549C60.1768 43.9469 62.2724 46.7181 62.5608 50.0589C63.1504 57.0605 54.224 58.8889 48.5716 59.2857M56.3766 58.6669C56.3766 58.6669 59.1451 64.1965 59.8372 67.6269C60.5293 71.0573 63.2978 77.3549 63.2978 77.3549M63.2978 66.9101C68.1427 65.5277 72.9875 59.3069 72.9875 59.3069C72.9875 59.3069 68.1427 52.3949 63.2978 50.9869M42.4707 66.4998C41.5985 69.0191 40.1811 71.3154 38.3191 73.2254C36.4572 75.1354 34.1966 76.6121 31.6982 77.5503C29.1999 78.4886 26.5251 78.8654 23.8643 78.6539C21.2036 78.4424 18.6222 77.6478 16.3039 76.3267C13.9856 75.0056 11.9873 73.1904 10.4514 71.0103C8.91545 68.8302 7.87953 66.3388 7.41738 63.7135C6.95523 61.0881 7.07819 58.3933 7.77752 55.8208C8.47686 53.2483 9.73536 50.8613 11.4635 48.8298M58.312 28.3757C58.312 36.3949 51.0447 44.2349 44.9501 44.2349C38.8556 44.2349 31.3961 36.3949 31.3961 28.3757V23.3325C34.5248 20.224 37.3607 16.8348 39.8682 13.2077C44.4631 19.0509 58.312 23.3325 58.312 23.3325V28.3757Z" stroke="#562815" stroke-linecap="round" stroke-linejoin="round"/>
<path d="M13.5591 46.7342C16.4661 44.2753 20.0734 42.7912 23.8712 42.4916C27.6689 42.1921 31.4649 43.0923 34.7223 45.065C37.9798 47.0377 40.5339 49.9831 42.0235 53.4846C43.2843 56.4482 43.7286 59.6832 43.3265 62.8571" stroke="#562815" stroke-linecap="round" stroke-linejoin="round" stroke-dasharray="4 4"/>
<path d="M25.3961 48.5718C21.4445 48.6466 22.8225 60.0188 24.7209 65.7143C24.9068 66.4286 25.437 67.4286 26.0712 65.7143C27.9697 60.0188 29.3477 48.6466 25.3961 48.5718ZM25.3961 48.5718C25.4091 48.5716 25.4222 48.5714 25.4354 48.5714M25.3961 48.5718C25.383 48.5716 25.3699 48.5714 25.3568 48.5714M27.6428 72.1429C27.6428 70.9594 26.6834 70 25.4999 70C24.3165 70 23.3571 70.9594 23.3571 72.1429C23.3571 73.3263 24.3165 74.2857 25.4999 74.2857C26.6834 74.2857 27.6428 73.3263 27.6428 72.1429Z" stroke="#D9805B"/>
</svg>
