<svg width="58" height="56" viewBox="0 0 58 56" fill="none" xmlns="http://www.w3.org/2000/svg">
<path d="M9.32815 27.7107C9.32815 28.7086 9.72325 29.6656 10.4265 30.3712C11.1298 31.0768 12.0837 31.4733 13.0783 31.4733C14.0728 31.4733 15.0267 31.0768 15.73 30.3712C16.4333 29.6656 16.8284 28.7086 16.8284 27.7107C16.8284 25.6327 13.0783 20.1899 13.0783 20.1899C13.0783 20.1899 9.32815 25.6327 9.32815 27.7107Z" fill="#E6D3C2"/>
<path d="M11.1408 16.2396C11.164 16.7105 11.3667 17.1544 11.707 17.4794C12.0474 17.8044 12.4992 17.9857 12.9691 17.9857C13.4389 17.9857 13.8908 17.8044 14.2311 17.4794C14.5715 17.1544 14.7742 16.7105 14.7974 16.2396C14.7974 15.2252 12.9668 12.5664 12.9668 12.5664C12.9668 12.5664 11.1408 15.2252 11.1408 16.2396Z" fill="#E6D3C2"/>
<path d="M22.7408 45.1812L22.7842 44.9896C24.1195 44.2152 26.0365 42.5909 28.001 41.3398C31.3123 39.2228 35.1296 37.3526 35.7151 36.8713C36.7252 36.0633 37.6811 35.0277 39.293 29.8314C40.8074 24.9296 41.9224 21.0347 43.0289 19.2815C43.5469 18.4618 45.4701 15.9329 47.0366 13.8631L49.4036 15.8895C49.4036 15.8895 46.3832 19.8158 45.4663 21.2661C44.3508 23.0348 43.2448 26.9142 41.7265 31.8139C40.1185 37.0124 39.1575 38.0657 38.1525 38.856C37.5554 39.3306 33.7226 41.1919 30.4384 43.3244C27.6977 45.0753 25.0133 47.5864 23.9767 47.4038C22.94 47.2213 22.5565 46.1271 22.7408 45.1812Z" fill="#E6D3C2"/>
<path d="M1.48463 27.1383C1.41668 26.8706 1.14462 26.7087 0.876972 26.7767C0.609319 26.8446 0.447426 27.1167 0.515372 27.3843L1.48463 27.1383ZM7.65633 53.4816L7.1717 53.6047C7.22799 53.8264 7.42757 53.9816 7.65633 53.9816V53.4816ZM49.9096 53.4816V53.9816C50.1354 53.9816 50.3333 53.8302 50.3922 53.6122L49.9096 53.4816ZM57.4827 27.3918C57.5547 27.1253 57.3971 26.8507 57.1305 26.7786C56.864 26.7066 56.5894 26.8642 56.5173 27.1308L57.4827 27.3918ZM2.72308 32.6681C2.44693 32.6681 2.22308 32.8919 2.22308 33.1681C2.22308 33.4442 2.44693 33.6681 2.72308 33.6681V32.6681ZM18.3743 34.0325L18.0202 33.6795L18.3743 34.0325ZM27.7077 30.9308C27.9838 30.9308 28.2077 30.7069 28.2077 30.4308C28.2077 30.1546 27.9838 29.9308 27.7077 29.9308V30.9308ZM55.2769 33.6681C55.5531 33.6681 55.7769 33.4442 55.7769 33.1681C55.7769 32.8919 55.5531 32.6681 55.2769 32.6681V33.6681ZM40.9695 34.6454C40.7663 34.4583 40.45 34.4713 40.2629 34.6745C40.0759 34.8776 40.0889 35.1939 40.2921 35.381L40.9695 34.6454ZM53.4936 13.7665C53.679 13.5619 53.6634 13.2457 53.4588 13.0603C53.2542 12.8748 52.938 12.8904 52.7525 13.0951L53.4936 13.7665ZM50.2513 16.6003L49.9192 16.9741C50.1242 17.1562 50.4377 17.1392 50.6218 16.936L50.2513 16.6003ZM38.3472 6.02652L37.9883 5.67845C37.8933 5.77638 37.8425 5.90884 37.8476 6.04514C37.8527 6.18145 37.9132 6.30976 38.0152 6.40034L38.3472 6.02652ZM41.6409 3.34807C41.8331 3.14982 41.8283 2.83327 41.63 2.64104C41.4318 2.44881 41.1152 2.45369 40.923 2.65193L41.6409 3.34807ZM39.6342 7.57455C39.8375 7.38762 39.8507 7.07132 39.6638 6.86806C39.4769 6.66481 39.1606 6.65157 38.9573 6.8385L39.6342 7.57455ZM33.4981 11.0256L33.2578 10.5872L33.2543 10.5891L33.4981 11.0256ZM28.7307 17.2371L28.2316 17.2064L28.2316 17.2079L28.7307 17.2371ZM27.6612 30.312L27.1616 30.2917L27.1615 30.2942L27.6612 30.312ZM30.3331 33.2117L30.3619 32.7125L30.3545 32.7122L30.3331 33.2117ZM33.2969 31.7293C33.3904 31.4695 33.2555 31.1831 32.9957 31.0896C32.7358 30.9961 32.4494 31.131 32.3559 31.3908L33.2969 31.7293ZM34.4601 24.0387C34.4986 23.7652 34.3082 23.5123 34.0348 23.4737C33.7614 23.4352 33.5084 23.6256 33.4699 23.899L34.4601 24.0387ZM33.0432 30.504L32.5481 30.4342C32.5471 30.4414 32.5463 30.4487 32.5456 30.4559L33.0432 30.504ZM22.7432 45.1773L22.252 45.0837L22.2519 45.0847L22.7432 45.1773ZM30.3998 43.338L30.1309 42.9165L30.128 42.9183L30.3998 43.338ZM38.1139 38.8696L37.8015 38.4791L37.7964 38.4833L38.1139 38.8696ZM41.6879 31.8275L41.2103 31.6795L41.2103 31.6797L41.6879 31.8275ZM45.4277 21.2797L45.0051 21.0126L45.0049 21.0129L45.4277 21.2797ZM49.7613 16.208C49.9297 15.9891 49.8888 15.6752 49.6699 15.5068C49.451 15.3385 49.1371 15.3794 48.9687 15.5983L49.7613 16.208ZM0.515372 27.3843L7.1717 53.6047L8.14096 53.3586L1.48463 27.1383L0.515372 27.3843ZM7.65633 53.9816H49.9096V52.9816H7.65633V53.9816ZM50.3922 53.6122L57.4827 27.3918L56.5173 27.1308L49.4269 53.3511L50.3922 53.6122ZM2.72308 33.6681C4.25143 33.6681 5.44609 34.5554 6.82073 35.5852C8.14677 36.5786 9.63969 37.702 11.6256 37.702V36.702C10.0218 36.702 8.78657 35.8084 7.4203 34.7849C6.10263 33.7977 4.64088 32.6681 2.72308 32.6681V33.6681ZM11.6256 37.702C13.4939 37.702 14.8381 37.3245 15.9468 36.6998C17.0401 36.0837 17.8766 35.2402 18.7285 34.3855L18.0202 33.6795C17.1527 34.5499 16.4097 35.2911 15.4559 35.8285C14.5175 36.3573 13.3471 36.702 11.6256 36.702V37.702ZM18.7285 34.3855C20.1382 32.9711 21.3004 32.1237 22.6267 31.6184C23.9597 31.1105 25.5029 30.9308 27.7077 30.9308V29.9308C25.4612 29.9308 23.7737 30.1112 22.2707 30.6839C20.7611 31.2591 19.4823 32.2125 18.0202 33.6795L18.7285 34.3855ZM55.2769 32.6681C53.3591 32.6681 51.8974 33.7977 50.5797 34.7849C49.2134 35.8084 47.9782 36.702 46.3744 36.702V37.702C48.3603 37.702 49.8532 36.5786 51.1793 35.5852C52.5539 34.5554 53.7486 33.6681 55.2769 33.6681V32.6681ZM46.3744 36.702C44.9901 36.702 43.9651 36.479 43.1329 36.1204C42.2993 35.7613 41.6308 35.2543 40.9695 34.6454L40.2921 35.381C40.9978 36.0308 41.7609 36.6182 42.7372 37.0388C43.7148 37.46 44.8781 37.702 46.3744 37.702V36.702ZM52.7525 13.0951L49.8808 16.2646L50.6218 16.936L53.4936 13.7665L52.7525 13.0951ZM50.5833 16.2265L38.6793 5.6527L38.0152 6.40034L49.9192 16.9741L50.5833 16.2265ZM38.7062 6.37459L41.6409 3.34807L40.923 2.65193L37.9883 5.67845L38.7062 6.37459ZM38.9573 6.8385C36.556 9.04688 35.3006 9.46716 33.2578 10.5872L33.7385 11.464C35.7228 10.3761 37.1198 9.88702 39.6342 7.57455L38.9573 6.8385ZM33.2543 10.5891C30.55 12.0999 28.3887 14.6544 28.2317 17.2064L29.2298 17.2678C29.3573 15.1963 31.1863 12.8899 33.742 11.4621L33.2543 10.5891ZM28.2316 17.2079C28.1895 17.9278 27.9718 20.004 27.7374 22.5203C27.5045 25.0215 27.2574 27.936 27.1616 30.2917L28.1608 30.3324C28.2554 28.0048 28.5003 25.113 28.7331 22.6131C28.9646 20.1283 29.1865 18.0087 29.2299 17.2663L28.2316 17.2079ZM27.1615 30.2942C27.1304 31.165 27.4438 32.013 28.0337 32.6533L28.7691 31.9757C28.358 31.5295 28.1391 30.9379 28.1609 30.3299L27.1615 30.2942ZM28.0337 32.6533C28.6238 33.2936 29.4426 33.6742 30.3118 33.7113L30.3545 32.7122C29.7502 32.6864 29.1802 32.4218 28.7691 31.9757L28.0337 32.6533ZM30.3044 33.7109C30.9498 33.7481 31.5898 33.575 32.1291 33.2178L31.5768 32.3842C31.2175 32.6222 30.7914 32.7373 30.3619 32.7126L30.3044 33.7109ZM32.1291 33.2178C32.6683 32.8606 33.0778 32.3385 33.2969 31.7293L32.3559 31.3908C32.2095 31.7978 31.9361 32.1461 31.5768 32.3842L32.1291 33.2178ZM33.4699 23.899L32.5481 30.4342L33.5383 30.5739L34.4601 24.0387L33.4699 23.899ZM32.5456 30.4559C32.2663 33.3453 30.1668 35.2925 27.7908 37.4091C25.4736 39.4734 22.8975 41.6946 22.252 45.0837L23.2344 45.2708C23.805 42.2746 26.0778 40.2743 28.456 38.1558C30.7755 36.0896 33.218 33.8929 33.5409 30.5521L32.5456 30.4559ZM22.2519 45.0847C22.1496 45.6269 22.1802 46.2426 22.4176 46.773C22.663 47.3215 23.13 47.7706 23.8433 47.9084L24.0329 46.9265C23.677 46.8578 23.4589 46.6519 23.3303 46.3646C23.1937 46.0591 23.1614 45.658 23.2345 45.2699L22.2519 45.0847ZM23.8433 47.9084C24.0847 47.955 24.3297 47.9183 24.5511 47.8537C24.7762 47.7881 25.012 47.6831 25.2504 47.5567C25.7262 47.3043 26.2688 46.9358 26.8423 46.5212C28.0115 45.6758 29.3238 44.6304 30.6715 43.7577L30.128 42.9183C28.7544 43.8078 27.3705 44.9053 26.2564 45.7108C25.6883 46.1215 25.1926 46.4554 24.7818 46.6732C24.577 46.7819 24.4073 46.854 24.2711 46.8937C24.1311 46.9345 24.0589 46.9315 24.0329 46.9265L23.8433 47.9084ZM30.6687 43.7596C32.3116 42.7116 34.0816 41.7214 35.5215 40.9294C36.2384 40.535 36.8785 40.1871 37.3727 39.9093C37.849 39.6417 38.243 39.4107 38.4314 39.2559L37.7964 38.4833C37.692 38.5691 37.3898 38.7527 36.8828 39.0376C36.3938 39.3124 35.7635 39.6549 35.0395 40.0532C33.5975 40.8464 31.8031 41.8498 30.1309 42.9165L30.6687 43.7596ZM38.4263 39.26C38.9717 38.8237 39.5094 38.3155 40.1128 37.2395C40.7047 36.1841 41.358 34.5862 42.1656 31.9752L41.2103 31.6797C40.4099 34.2672 39.7812 35.7864 39.2406 36.7504C38.7115 37.6939 38.2663 38.1074 37.8016 38.4792L38.4263 39.26ZM42.1655 31.9755C42.9269 29.5183 43.5818 27.3308 44.1862 25.533C44.794 23.7248 45.3332 22.3663 45.8506 21.5466L45.0049 21.0129C44.4157 21.9464 43.8442 23.412 43.2383 25.2144C42.6289 27.0272 41.9672 29.237 41.2103 31.6795L42.1655 31.9755ZM45.8504 21.5469C46.2963 20.8416 47.2679 19.5139 48.1406 18.347C48.5744 17.7671 48.9797 17.2321 49.2766 16.8422C49.425 16.6472 49.5463 16.4885 49.6304 16.3787C49.6725 16.3237 49.7053 16.281 49.7275 16.252C49.7386 16.2376 49.7471 16.2265 49.7528 16.2191C49.7557 16.2154 49.7578 16.2126 49.7592 16.2108C49.7599 16.2098 49.7605 16.2091 49.7608 16.2087C49.761 16.2085 49.7611 16.2083 49.7612 16.2082C49.7613 16.2081 49.7613 16.2081 49.7613 16.208C49.7613 16.208 49.7613 16.208 49.365 15.9031C48.9687 15.5983 48.9687 15.5983 48.9687 15.5983C48.9687 15.5984 48.9686 15.5984 48.9686 15.5985C48.9685 15.5986 48.9683 15.5988 48.9682 15.599C48.9678 15.5995 48.9672 15.6003 48.9665 15.6012C48.965 15.6032 48.9628 15.606 48.9599 15.6098C48.9541 15.6173 48.9455 15.6285 48.9343 15.6431C48.9118 15.6724 48.8788 15.7154 48.8365 15.7707C48.7519 15.8812 48.63 16.0406 48.4809 16.2364C48.1829 16.6279 47.7758 17.1652 47.3398 17.7481C46.4731 18.9069 45.4761 20.2676 45.0051 21.0126L45.8504 21.5469Z" fill="#070606"/>
</svg>
