<svg width="65" height="64" viewBox="0 0 65 64" fill="none" xmlns="http://www.w3.org/2000/svg">
<path d="M53.5684 24.16V33.4743L60.0941 29.3143L53.5684 24.16Z" fill="#E6D3C2" stroke="#070606" stroke-linejoin="round"/>
<path d="M14.0606 24.16L7.52344 29.3143L14.0606 33.4857V24.16Z" fill="#E6D3C2" stroke="#070606" stroke-linejoin="round"/>
<path d="M53.5691 33.4743L53.8381 33.8958C53.982 33.804 54.0691 33.645 54.0691 33.4743H53.5691ZM53.5691 10.2857H54.0691C54.0691 10.0096 53.8453 9.78572 53.5691 9.78572V10.2857ZM14.0606 10.2857V9.78572C13.7844 9.78572 13.5606 10.0096 13.5606 10.2857H14.0606ZM14.0606 33.4857H13.5606C13.5606 33.6565 13.6477 33.8155 13.7917 33.9073L14.0606 33.4857ZM33.8092 46.08L33.5403 46.5016C33.7043 46.6062 33.9141 46.6062 34.0781 46.5015L33.8092 46.08ZM20.6663 10.7857C20.9425 10.7857 21.1663 10.5619 21.1663 10.2857C21.1663 10.0096 20.9425 9.78572 20.6663 9.78572V10.7857ZM60.0949 29.3143H60.5949C60.5949 29.1317 60.4953 28.9636 60.3352 28.8759C60.1751 28.7881 59.9799 28.7945 59.826 28.8927L60.0949 29.3143ZM39.7406 42.2971L39.4717 41.8756C39.3443 41.9569 39.2604 42.0914 39.2437 42.2417C39.2269 42.3919 39.279 42.5416 39.3854 42.649L39.7406 42.2971ZM60.0949 62.8457L59.7396 63.1976C59.8823 63.3416 60.0977 63.3852 60.2851 63.3081C60.4725 63.231 60.5949 63.0484 60.5949 62.8457H60.0949ZM7.52344 29.3143L7.79232 28.8927C7.63838 28.7945 7.44317 28.7881 7.28306 28.8759C7.12296 28.9636 7.02344 29.1317 7.02344 29.3143H7.52344ZM7.52344 62.8457H7.02344C7.02344 63.0484 7.14577 63.231 7.33319 63.3081C7.52061 63.3852 7.73604 63.3416 7.87867 63.1976L7.52344 62.8457ZM27.8777 42.2971L28.233 42.649C28.3393 42.5416 28.3914 42.3919 28.3746 42.2417C28.3579 42.0914 28.274 41.9569 28.1466 41.8756L27.8777 42.2971ZM54.0691 33.4743V10.2857H53.0691V33.4743H54.0691ZM13.5606 10.2857V33.4857H14.5606V10.2857H13.5606ZM13.7917 33.9073L33.5403 46.5016L34.078 45.6584L14.3294 33.0642L13.7917 33.9073ZM34.0781 46.5015L53.8381 33.8958L53.3002 33.0528L33.5402 45.6585L34.0781 46.5015ZM20.6663 9.78572H14.0606V10.7857H20.6663V9.78572ZM59.826 28.8927L39.4717 41.8756L40.0095 42.7187L60.3637 29.7358L59.826 28.8927ZM39.3854 42.649L59.7396 63.1976L60.4501 62.4939L40.0958 41.9453L39.3854 42.649ZM60.5949 62.8457V29.3143H59.5949V62.8457H60.5949ZM7.02344 29.3143V62.8457H8.02344V29.3143H7.02344ZM7.87867 63.1976L28.233 42.649L27.5225 41.9453L7.16821 62.4939L7.87867 63.1976ZM28.1466 41.8756L7.79232 28.8927L7.25456 29.7358L27.6088 42.7187L28.1466 41.8756ZM53.5691 9.78572H24.0949V10.7857H53.5691V9.78572Z" fill="#070606"/>
<path d="M7.52344 62.8571H60.0949" stroke="#070606" stroke-linecap="round"/>
<path d="M20.0938 17.1429H36.0937M20.0938 23.4286H47.5223M20.0938 29.7143H47.5223" stroke="#E6D3C2" stroke-miterlimit="10" stroke-linecap="round"/>
<path d="M60.7762 16L61.1362 16.655C61.3172 17.0119 61.6011 17.3062 61.9512 17.5L62.6062 17.86L61.9512 18.22C61.6103 18.3964 61.3274 18.6672 61.1362 19L60.7762 19.655L60.4162 19C60.228 18.6615 59.947 18.3839 59.6062 18.2L58.9512 17.84L59.6062 17.5C59.9509 17.3128 60.234 17.0297 60.4212 16.685L60.7762 16Z" fill="#E6D3C2"/>
<path d="M5.38859 17.1429L6.09359 18.4329C6.46776 19.1144 7.03245 19.6722 7.71859 20.0379L9.0086 20.7429L7.71859 21.4479C7.03984 21.8167 6.48239 22.3741 6.11359 23.0529L5.40859 24.3429L4.70359 23.0529C4.3348 22.3741 3.77735 21.8167 3.09859 21.4479L1.80859 20.7429L3.09859 20.0379C3.77735 19.6691 4.3348 19.1116 4.70359 18.4329L5.38859 17.1429Z" fill="#E6D3C2"/>
<path d="M57.9237 0L59.0637 2.09C59.6636 3.18477 60.564 4.08517 61.6587 4.685L63.7487 5.83L61.6587 6.97C60.564 7.56983 59.6636 8.47023 59.0637 9.565L57.9237 11.655L56.7787 9.565C56.1789 8.47023 55.2785 7.56983 54.1838 6.97L52.0938 5.83L54.1838 4.685C55.2785 4.08517 56.1789 3.18477 56.7787 2.09L57.9237 0Z" fill="#E6D3C2"/>
</svg>
